<svg xmlns="http://www.w3.org/2000/svg" id="site-logo-svg" viewBox="3 6  45 45">
    <title>site logo svg</title>
    <g>
        <path fill="#0EB0C0" d="M34.2292 30.9167H32.4846L31.8663 30.3204C34.0304 27.8029 35.3333 24.5346 35.3333 20.9792C35.3333 13.0513 28.9071 6.625 20.9792 6.625C13.0513 6.625 6.625 13.0513 6.625 20.9792C6.625 28.9071 13.0513 35.3333 20.9792 35.3333C24.5346 35.3333 27.8029 34.0304 30.3204 31.8663L30.9167 32.4846V34.2292L41.9583 45.2488L45.2488 41.9583L34.2292 30.9167ZM20.9792 30.9167C15.4804 30.9167 11.0417 26.4779 11.0417 20.9792C11.0417 15.4804 15.4804 11.0417 20.9792 11.0417C26.4779 11.0417 30.9167 15.4804 30.9167 20.9792C30.9167 26.4779 26.4779 30.9167 20.9792 30.9167Z" />
    </g>
    <path fill="#0EB0C0" fill-rule="evenodd" clip-rule="evenodd" d="M26.8991 21.4097L21.8628 26.446C21.7685 26.5394 21.6411 26.5918 21.5084 26.5918C21.3757 26.5918 21.2483 26.5394 21.154 26.446L15.9872 21.2791C15.6765 20.9682 15.4325 20.5973 15.27 20.1889C15.1075 19.7805 15.03 19.3432 15.0423 18.9039C15.0545 18.4645 15.1562 18.0323 15.3411 17.6336C15.526 17.2348 15.7902 16.878 16.1177 16.5848C17.4172 15.4159 19.4504 15.5962 20.6939 16.8335L21.5084 17.6543L22.4535 16.703C22.7644 16.3923 23.1354 16.1483 23.5438 15.9858C23.9521 15.8234 24.3894 15.7459 24.8287 15.7581C25.2681 15.7703 25.7003 15.872 26.0991 16.0569C26.4978 16.2418 26.8546 16.5061 27.1478 16.8335C28.3167 18.133 28.1364 20.1662 26.8991 21.4097ZM22.4455 20.0908H23.7095V21.3549C23.7095 21.4028 23.7286 21.4487 23.7624 21.4826C23.7963 21.5164 23.8422 21.5355 23.8901 21.5355H24.9736C25.0215 21.5355 25.0674 21.5164 25.1013 21.4826C25.1352 21.4487 25.1542 21.4028 25.1542 21.3549V20.0908H26.4183C26.4662 20.0908 26.5121 20.0718 26.546 20.0379C26.5798 20.0041 26.5989 19.9581 26.5989 19.9102V18.8267C26.5989 18.7788 26.5798 18.7329 26.546 18.699C26.5121 18.6652 26.4662 18.6462 26.4183 18.6462H25.1542V17.3821C25.1542 17.3342 25.1352 17.2882 25.1013 17.2544C25.0674 17.2205 25.0215 17.2015 24.9736 17.2015H23.8901C23.8422 17.2015 23.7963 17.2205 23.7624 17.2544C23.7286 17.2882 23.7095 17.3342 23.7095 17.3821V18.6462H22.4455C22.3976 18.6462 22.3516 18.6652 22.3178 18.699C22.2839 18.7329 22.2649 18.7788 22.2649 18.8267V19.9102C22.2649 19.9581 22.2839 20.0041 22.3178 20.0379C22.3516 20.0718 22.3976 20.0908 22.4455 20.0908Z"/>
</svg>
