<svg id="check-box-svg" width="20" height="20" viewBox="0 0 20 20" fill="none" xmlns="http://www.w3.org/2000/svg">
<mask id="mask0_1747_2843" style="mask-type:alpha" maskUnits="userSpaceOnUse" x="0" y="0" width="20" height="20">
<rect width="20" height="20" fill="#D9D9D9"/>
</mask>
<g mask="url(#mask0_1747_2843)">
<path d="M8.9375 10.875L7.6875 9.64583C7.53472 9.49306 7.36111 9.41667 7.16667 9.41667C6.97222 9.41667 6.79861 9.49306 6.64583 9.64583C6.49306 9.79861 6.41667 9.97569 6.41667 10.1771C6.41667 10.3785 6.49306 10.5556 6.64583 10.7083L8.41667 12.4792C8.56439 12.6319 8.73674 12.7083 8.93371 12.7083C9.13068 12.7083 9.30556 12.6319 9.45833 12.4792L13.3542 8.58333C13.5069 8.43056 13.5833 8.25347 13.5833 8.05208C13.5833 7.85069 13.5069 7.67361 13.3542 7.52083C13.2014 7.36806 13.0278 7.29167 12.8333 7.29167C12.6389 7.29167 12.4653 7.36806 12.3125 7.52083L8.9375 10.875ZM4.5 17C4.0875 17 3.73437 16.8531 3.44062 16.5594C3.14687 16.2656 3 15.9125 3 15.5V4.5C3 4.0875 3.14687 3.73438 3.44062 3.44063C3.73437 3.14688 4.0875 3 4.5 3H15.5C15.9125 3 16.2656 3.14688 16.5594 3.44063C16.8531 3.73438 17 4.0875 17 4.5V15.5C17 15.9125 16.8531 16.2656 16.5594 16.5594C16.2656 16.8531 15.9125 17 15.5 17H4.5ZM4.5 15.5H15.5V4.5H4.5V15.5Z" fill="#1C1B1F"/>
</g>
</svg>
