<svg width="14" height="14" viewBox="0 0 14 14" fill="none" xmlns="http://www.w3.org/2000/svg">
<path d="M7 8.0625L9.1875 10.25C9.34028 10.4028 9.51736 10.4757 9.71875 10.4688C9.92014 10.4618 10.0972 10.3819 10.25 10.2292C10.4028 10.0764 10.4792 9.89931 10.4792 9.69792C10.4792 9.49653 10.4028 9.31944 10.25 9.16667L8.0625 7L10.25 4.8125C10.4028 4.65972 10.4792 4.48264 10.4792 4.28125C10.4792 4.07986 10.4028 3.90278 10.25 3.75C10.0972 3.59722 9.92014 3.52083 9.71875 3.52083C9.51736 3.52083 9.34028 3.59722 9.1875 3.75L7 5.9375L4.8125 3.75C4.65972 3.59722 4.48611 3.52083 4.29167 3.52083C4.09722 3.52083 3.92361 3.59722 3.77083 3.75C3.61806 3.90278 3.54167 4.07986 3.54167 4.28125C3.54167 4.48264 3.61806 4.65972 3.77083 4.8125L5.9375 7L3.75 9.1875C3.59722 9.34028 3.52431 9.51389 3.53125 9.70833C3.53819 9.90278 3.61806 10.0764 3.77083 10.2292C3.92361 10.3819 4.10069 10.4583 4.30208 10.4583C4.50347 10.4583 4.68056 10.3819 4.83333 10.2292L7 8.0625ZM1.5 14C1.0875 14 0.734375 13.8531 0.440625 13.5594C0.146875 13.2656 0 12.9125 0 12.5V1.5C0 1.0875 0.146875 0.734376 0.440625 0.440626C0.734375 0.146876 1.0875 0 1.5 0H12.5C12.9125 0 13.2656 0.146876 13.5594 0.440626C13.8531 0.734376 14 1.0875 14 1.5V12.5C14 12.9125 13.8531 13.2656 13.5594 13.5594C13.2656 13.8531 12.9125 14 12.5 14H1.5ZM1.5 12.5H12.5V1.5H1.5V12.5Z" fill="#1C1B1F"/>
</svg>
