<?xml version="1.0" encoding="iso-8859-1"?>
<!-- Uploaded to: SVG Repo, www.svgrepo.com, Generator: SVG Repo Mixer Tools -->
<svg version="1.1" id="doctors-icon-svg" xmlns="http://www.w3.org/2000/svg" viewBox="50 50 512 512" xml:space="preserve">
    <path d="M127.973,353.245c17.504,0,35.009,0,52.512,0l0.288,3.588l-25.664,38.905l-27.565-39.29l0.43-3.203
        L127.973,353.245L127.973,353.245z"/>
    <path d="M128.311,343.487l-0.454,21.944l-37.233,20.36v65.603c3.672,3.111,7.428,6.125,11.271,9.025H153.3
        h62.669v-74.63l-34.602-21.506l-1.899-21.941L128.311,343.487z"/>
    <path d="M111.107,279.491c0,0-2.135-4.693-7.867-2.366c-5.731,2.324,0.257,25.503,2.447,28.735
        c2.19,3.234,5.716,1.178,6.998,1.052c1.825,13.818,1.988,23.342,7.52,29.168c5.238,5.519,17.236,16.761,23.552,20.682
        c4.278,0.902,7.473,1.432,10.476,1.592c3.003-0.16,6.196-0.69,10.476-1.592c6.319-3.921,18.314-15.163,23.555-20.682
        c5.532-5.826,5.692-15.35,7.517-29.168c1.285,0.126,4.808,2.18,6.998-1.052c2.191-3.232,8.184-26.411,2.45-28.735
        c-5.731-2.324-7.869,2.366-7.869,2.366s5.668-18.201-4.406-36.118c-6.901-12.281-22.642-18.649-38.721-19.117
        c-16.077,0.467-31.82,6.836-38.721,19.117C105.441,261.29,111.107,279.491,111.107,279.491z"/>
    <path d="M109.599,371.889l8.916-3.509l7.184-6.457l25.369,19.242h6.319l25.38-19.266l16.1,9.993
        l27.974,47.553l-16.318,88.527c-50.572-9.067-95.989-32.986-131.583-67.084l-5.904-17.647L109.599,371.889z"/>
    <g>
        <path d="M190.728,365.877l-10.243-12.63l-23.096,27.916l19.824,22.028l13.514-37.312v-0.002H190.728z"/>
        <path d="M117.719,365.655l10.256-12.407l23.096,27.916l-20.612,21.799L117.719,365.655z"/>
    </g>
    <path style="fill:#FFFFFF;" d="M117.719,365.655l-67.886,22.078c-2.762,0.897-4.496,3.245-5.057,6.091l-1.049,5.315
        c25.071,37.105,59.615,67.275,100.162,87.057l-26.167-120.54h-0.003V365.655z"/>
    <g>
        <path style="fill:#EEF3F7;" d="M117.719,365.655l-7.777,2.389l-20.601,35.148l26.004,0.815l-15.966,9.089l29.627,65.229
            c4.86,2.783,9.823,5.403,14.878,7.872l-26.167-120.54L117.719,365.655z"/>
        <path style="fill:#EEF3F7;" d="M190.728,365.877l67.91,21.855c2.765,0.889,4.496,3.245,5.054,6.091l22.767,116.364
            c-9.988,1.186-20.15,1.812-30.458,1.812c-7.712,0-15.342-0.362-22.88-1.028l-4.884-16.567c-0.108-0.372-0.469-0.603-0.855-0.556
            s-0.677,0.354-0.698,0.743l-0.588,15.662c-22.081-2.571-43.308-7.937-63.306-15.759l27.94-128.614L190.728,365.877z"/>
    </g>
    <path style="fill:#FFFFFF;" d="M190.728,365.877l4.318,1.314l24.061,36.224l-26.004,0.818l15.966,9.089l-38.275,84.135
        c-2.689-0.949-5.361-1.93-8.005-2.964l27.94-128.614V365.877z"/>
    <path style="fill:#666666;" d="M192.415,284.911l3.995-0.139l1.285-4.556l3.762-3.756c2.486-18.715,3.221-47.838-15.355-46.999
        c0,0-1.676-21.238-35.18-17.074c-33.506,4.163-48.647,25.794-46.841,43.841c1.804,18.047,1.076,20.231,1.076,20.231l3.762,3.759
        l0.569,5.186l3.287-0.21c0,0,1.028-6.94,2.062-9.993c1.031-3.051,0.711-9.23,0.711-9.23s39.575,2.521,50.27-11.082
        c6.605-8.402,21.776-22.959,22.54-2.797c0.226,5.978-1.996,14.938,2.259,21.459c4.255,6.523,1.804,11.366,1.804,11.366
        L192.415,284.911z"/>
    <path style="fill:#0F7986;" d="M162.785,494.491l2.146-9.873l-7.269-97.059l3.96-1.69l-4.234-4.706h-6.319l-4.343,4.593l4.076,1.802
        l-7.09,97.846l0.173,0.792c6.167,3.008,12.468,5.781,18.899,8.297v-0.004H162.785z"/>
    <path style="fill:#FEFEFE;" d="M220.761,470.732c-7.353-1.27-12.284-8.257-11.014-15.612c1.27-7.35,8.26-12.284,15.609-11.016
        c7.355,1.27,12.286,8.26,11.016,15.614C235.104,467.07,228.114,472.001,220.761,470.732z"/>
    <path style="fill:#0F7986;" d="M220.895,469.958c-6.924-1.196-11.567-7.777-10.374-14.702c1.196-6.924,7.78-11.57,14.702-10.374
        c6.924,1.196,11.567,7.78,10.374,14.704C234.401,466.511,227.82,471.154,220.895,469.958z"/>
    <path style="fill:#EBECEC;" d="M221.86,464.358c-3.83-0.664-6.4-4.305-5.739-8.134c0.664-3.832,4.307-6.4,8.134-5.739
        c3.832,0.664,6.402,4.302,5.742,8.134C229.336,462.448,225.692,465.019,221.86,464.358z"/>
    <path style="fill:#FEFEFE;" d="M222.689,451.238l3.095,0.533l1.663-9.634l-3.093-0.533L222.689,451.238z"/>
    <path style="fill:#21D0C3;" d="M120.39,473.148l4.493-0.892c2.463-0.488,4.504-1.941,5.802-3.887
        c1.298-1.943,1.865-4.383,1.374-6.846l-6.818-34.346c-2.573-12.961-12.711-19.571-24.296-21.037
        c-4.44-0.561-9.094-0.356-13.603,0.538c-4.511,0.892-8.887,2.479-12.774,4.693c-5.217,2.972-9.558,7.061-12.186,12.105
        c0.58,0.669,1.173,1.322,1.758,1.983c2.342-5.023,6.526-9.075,11.625-11.977c3.659-2.085,7.788-3.583,12.05-4.427
        c4.26-0.844,8.648-1.036,12.829-0.506c10.605,1.34,19.877,7.347,22.208,19.101l6.818,34.348c0.359,1.805-0.058,3.594-1.01,5.02
        c-0.955,1.424-2.45,2.492-4.257,2.848l-5.797,1.149l0.231,1.165c0.514,0.325,1.033,0.643,1.548,0.968H120.39z"/>
    <path style="fill:#4D4D4D;" d="M127.079,432.265l-1.041-5.246c-2.652-13.362-13.083-20.173-24.995-21.682
        c-4.525-0.572-9.265-0.367-13.857,0.546c-4.596,0.91-9.052,2.529-13.013,4.785c-5.254,2.993-9.645,7.09-12.36,12.134
        c0.963,1.12,1.941,2.225,2.922,3.326c2.24-5.02,6.372-9.065,11.429-11.946c3.586-2.041,7.63-3.507,11.809-4.336
        c4.176-0.828,8.477-1.015,12.574-0.496c10.274,1.295,19.258,7.103,21.511,18.458l1.041,5.246L127.079,432.265z"/>
    <path style="fill:#076673;" d="M121.546,473.439l-0.522,0.105c-2.091-1.298-4.158-2.628-6.209-3.984
        c1.141-0.142,2.238,0.306,2.961,1.118l3.098-0.617l0.669,3.378H121.546z"/>
    <path style="fill:#666666;" d="M89.071,405.573l-1.183-5.957l-2.35,0.467l-2.347,0.467l1.196,6.017
        c0.894-0.262,1.802-0.483,2.718-0.664c0.651-0.129,1.306-0.239,1.967-0.328V405.573z"/>
    <path style="fill:#FEFEFE;" d="M221.486,464.292c-3.622-0.627-6.054-4.071-5.427-7.693c0.625-3.622,4.068-6.054,7.691-5.427
        c3.622,0.627,6.054,4.071,5.427,7.693c-0.627,3.622-4.071,6.054-7.693,5.427H221.486z"/>
    <g>
        <path style="fill:#4D4D4D;" d="M117.751,367.441c-0.105,0-36.696,0.304-30.513,32.318l-3.402,0.651
            c-6.966-36.09,33.761-36.423,33.876-36.423L117.751,367.441z"/>
        <path style="fill:#4D4D4D;" d="M190.767,364.149c5.97,0.16,17.511,1.786,26.392,12.59c8.693,10.573,14.786,29.994,10.227,65.597
            l-3.431-0.433c4.412-34.458-1.287-53.011-9.469-62.966c-7.992-9.724-18.414-11.19-23.803-11.334l0.081-3.454L190.767,364.149
            L190.767,364.149z"/>
    </g>
    <path style="fill:#F0BA7D;" d="M358.959,344.28l-5.128,25.771l-17.183,5.909l7.633,120.409c25.228-9.27,48.591-22.398,69.376-38.668
        l1.587-84.77l-10.975-3.452l-5.592-26.287l-39.723,1.091L358.959,344.28z"/>
    <path style="fill:#21D0C3;" d="M332.751,420.711c28.604,13.871,58.028,16.779,89.004,0.784l-0.262,29.803
        c-25.899,21.968-56.222,38.886-89.445,49.216l0.703-79.8L332.751,420.711L332.751,420.711z"/>
    <path style="fill:#EEF3F7;" d="M409.793,371.438l49.829,13.592c4.949,1.527,9.692,3.591,13.687,6.324
        c-22.715,36.392-54.315,66.655-91.76,87.776l28.247-107.693h-0.003V371.438z"/>
    <g>
        <path style="fill:#FFFFFF;" d="M409.319,371.087l6.568,2.647l22.395,33.627l-26.251-0.422l16.27,8.708l-37.339,57.908
            c-3.121,1.941-6.288,3.817-9.495,5.624l27.853-108.091H409.319z"/>
        <path style="fill:#FFFFFF;" d="M351.5,370.924l-50.063,12.711c-12.992,3.762-24.664,11.195-25.277,24.916l-4.59,102.96
            c12.997-0.779,25.732-2.526,38.136-5.175l2.366-31.823l3.837,30.416c20.834-4.997,40.677-12.54,59.183-22.282L351.5,370.924z"/>
    </g>
    <path style="fill:#EEF3F7;" d="M351.98,370.58l-7.827,2.998l-21.771,32.759l26.259,0.039l-16.425,8.419l39.641,69.539
        c1.102-0.559,2.19-1.136,3.282-1.711L351.98,370.58z"/>
    <path style="fill:#FED298;" d="M325.073,282.482c-0.836,8.443,0.855,27.196,11.1,26.482c0,0,14.744,42.975,43.133,47.841
        c24.509-4.48,39.416-43.4,40.549-47.104c3.375,1.154,12.821-14.565,5.582-27.423c-2.077-3.688-7.96-0.701-7.96-0.701l-0.451-10.736
        c-38.729,3.762-62.879-33.698-62.879-33.698c-14.765,16.058-18.316,25.226-19.895,45.199c0,0-2.773-1.724-5.85-1.788
        C327.476,280.535,326.284,281.341,325.073,282.482z"/>
    <path style="fill:#666666;" d="M353.831,370.048l5.018-25.194c-14.532-14.309-22.112-35.891-22.112-35.891
        c-9.902,1.104-13.879-26.186-7.216-27.14c3.048-0.435,5.086,0.519,5.086,0.519c1.5-21.089,5.563-27.505,19.539-45.199
        c0,0,24.415,41.077,63.114,37.315l0.554,8.856c1.83-1.799,5.173-3.488,7.96,1.094c4.532,7.457-1.398,24.404-6.885,25.435
        c-0.779,2.613-6.888,21.891-19.832,35.103l5.217,24.528c14.521,4.703,28.522,8.336,42.58,12.073
        c-7.14-43.521-11.232-90.619-19.756-130.823c-8.184-38.576-52.906-49.367-78.622-32.234c0,0-22.175,8.936-26.225,38.571
        c-4.047,29.635-2.497,32.491-2.497,32.491l-7.145,91.249c13.249-3.365,28.591-6.405,41.225-10.752L353.831,370.048z"/>
    <path style="fill:#21D0C3;" d="M345.562,479.86l5.81-1.152c2.465-0.49,4.509-1.943,5.81-3.892c1.303-1.946,1.867-4.391,1.374-6.86
        l-6.825-34.401c-2.578-12.984-12.732-19.605-24.339-21.071c-4.448-0.564-9.11-0.359-13.626,0.538
        c-4.519,0.894-8.903,2.484-12.792,4.701c-10.14,5.774-16.974,15.759-14.395,28.762l6.831,34.406
        c0.488,2.468,1.946,4.509,3.892,5.813h0.003c1.949,1.303,4.388,1.865,6.854,1.377l5.802-1.154l-0.475-2.389l-5.805,1.154
        c-1.807,0.356-3.601-0.055-5.028-1.01l0,0c-1.429-0.957-2.494-2.455-2.856-4.263l-6.828-34.404
        c-2.339-11.798,3.918-20.892,13.199-26.173c3.665-2.091,7.801-3.588,12.071-4.435c4.265-0.844,8.664-1.039,12.85-0.509
        c10.623,1.343,19.911,7.358,22.248,19.135l6.831,34.406c0.359,1.807-0.058,3.599-1.012,5.028c-0.957,1.429-2.455,2.494-4.263,2.853
        l-5.808,1.152l0.475,2.392L345.562,479.86z"/>
    <path style="fill:#4D4D4D;" d="M353.572,438.656l-1.041-5.257c-2.657-13.385-13.107-20.205-25.039-21.715
        c-4.535-0.572-9.283-0.37-13.884,0.546c-4.601,0.91-9.067,2.531-13.033,4.79c-10.429,5.938-17.454,16.22-14.791,29.627l1.044,5.257
        l3.984-0.794l-1.044-5.254c-2.261-11.397,3.809-20.194,12.798-25.312c3.594-2.043,7.646-3.512,11.83-4.344
        c4.186-0.828,8.493-1.018,12.598-0.501c10.293,1.303,19.289,7.116,21.548,18.49l1.044,5.257l3.984-0.792L353.572,438.656z"/>
    <g>
        <path style="fill:#076673;" d="M305.361,488.366l3.108-0.617c0.779,0.876,1.983,1.327,3.213,1.083
            c1.849-0.367,3.051-2.164,2.684-4.01c-0.367-1.846-2.162-3.048-4.008-2.678c-1.233,0.244-2.177,1.12-2.563,2.225l-3.106,0.617
            l0.674,3.383L305.361,488.366z"/>
        <path style="fill:#076673;" d="M348.03,479.897l-3.103,0.617c-0.385,1.107-1.329,1.983-2.563,2.227
            c-1.844,0.364-3.641-0.834-4.008-2.684c-0.364-1.846,0.834-3.643,2.681-4.01c1.233-0.244,2.439,0.21,3.216,1.083l3.103-0.619
            l0.672,3.386H348.03z"/>
    </g>
    <path style="fill:#666666;" d="M315.501,411.916l-1.189-5.967l-2.352,0.467l-2.35,0.467l1.196,6.025
        c0.897-0.263,1.804-0.483,2.723-0.664c0.656-0.129,1.311-0.239,1.972-0.325v-0.003H315.501z"/>
    <g>
        <path style="fill:#0F7986;" d="M310.415,485.043c0.561-0.11,0.923-0.653,0.813-1.212c-0.11-0.561-0.653-0.923-1.212-0.815
            c-0.561,0.11-0.923,0.656-0.813,1.215s0.653,0.923,1.212,0.81V485.043z"/>
        <path style="fill:#0F7986;" d="M341.123,478.94c0.559-0.11,0.92-0.656,0.813-1.212c-0.116-0.559-0.656-0.92-1.217-0.813
            c-0.559,0.113-0.92,0.653-0.81,1.217C340.018,478.69,340.561,479.05,341.123,478.94z"/>
    </g>
    <g>
        <path style="fill:#4D4D4D;" d="M344.228,373.72c-0.108,0-36.756,0.304-30.566,32.371l-3.407,0.651
            c-6.979-36.147,33.819-36.481,33.934-36.486L344.228,373.72z"/>
        <path style="fill:#4D4D4D;" d="M417.369,370.423c5.98,0.16,17.543,1.788,26.437,12.611c5.634,6.854,10.177,17.419,11.447,33.682
            c-1.06,1.314-2.133,2.615-3.219,3.908c-0.771-17.511-5.244-28.504-10.902-35.387c-8.008-9.742-18.445-11.208-23.843-11.355
            L417.369,370.423z"/>
    </g>
</svg>
