<svg width="155" height="130" viewBox="0 0 155 130" fill="none" xmlns="http://www.w3.org/2000/svg">
<path d="M81.5615 127.8L141.775 67.586C156.569 52.7184 158.724 28.4098 144.749 12.8731C141.244 8.95782 136.978 5.79824 132.21 3.58744C127.443 1.37664 122.275 0.161052 117.022 0.0149454C111.769 -0.131162 106.542 0.795281 101.659 2.73767C96.7763 4.68006 92.3408 7.5976 88.6237 11.312L77.3243 22.6858L67.586 12.8731C52.7184 -1.92015 28.4098 -4.07596 12.8731 9.89961C8.95782 13.4045 5.79824 17.671 3.58744 22.4382C1.37664 27.2055 0.161052 32.3734 0.0149454 37.6263C-0.131162 42.8792 0.795281 48.1067 2.73767 52.9895C4.68006 57.8723 7.5976 62.3077 11.312 66.0249L73.087 127.8C74.2145 128.917 75.7373 129.543 77.3243 129.543C78.9112 129.543 80.434 128.917 81.5615 127.8Z" fill="url(#paint0_linear_948_972)"/>
<path d="M72.2926 68.2376H64.6828C64.3945 68.2376 64.118 68.123 63.9141 67.9191C63.7102 67.7153 63.5957 67.4388 63.5957 67.1504V60.6278C63.5957 60.3394 63.7102 60.0629 63.9141 59.8591C64.118 59.6552 64.3945 59.5407 64.6828 59.5407H72.2926V51.9309C72.2926 51.6425 72.4071 51.366 72.611 51.1622C72.8149 50.9583 73.0914 50.8438 73.3797 50.8438H79.9024C80.1907 50.8438 80.4672 50.9583 80.6711 51.1622C80.875 51.366 80.9895 51.6425 80.9895 51.9309V59.5407H88.5993C88.8876 59.5407 89.1641 59.6552 89.368 59.8591C89.5719 60.0629 89.6864 60.3394 89.6864 60.6278V67.1504C89.6864 67.4388 89.5719 67.7153 89.368 67.9191C89.1641 68.123 88.8876 68.2376 88.5993 68.2376H80.9895V75.8473C80.9895 76.1357 80.875 76.4122 80.6711 76.616C80.4672 76.8199 80.1907 76.9345 79.9024 76.9345H73.3797C73.0914 76.9345 72.8149 76.8199 72.611 76.616C72.4071 76.4122 72.2926 76.1357 72.2926 75.8473V68.2376Z" fill="white" stroke="white" stroke-width="2.17423" stroke-linecap="round" stroke-linejoin="round"/>
<circle cx="76.8181" cy="64.0662" r="23.3333" stroke="white" stroke-width="1.55556"/>
<circle cx="76.8181" cy="64.0662" r="23.3333" stroke="white" stroke-width="1.55556"/>
<defs>
<linearGradient id="paint0_linear_948_972" x1="77.068" y1="0" x2="77.068" y2="129.543" gradientUnits="userSpaceOnUse">
<stop stop-color="#EB8590"/>
<stop offset="1" stop-color="#CF616D"/>
</linearGradient>
</defs>
</svg>
