<svg width="80" height="80" viewBox="0 0 80 80" xmlns="http://www.w3.org/2000/svg">
    <symbol id="magnifying-glass-svg">
        <path d="M71.7685 68.231L56.1216 52.5872C60.6567 47.1426 62.9181 40.1591 62.4355 33.0895C61.9528 26.02 58.7632 19.4087 53.5302 14.6309C48.2972 9.85314 41.4236 7.27678 34.3394 7.43778C27.2553 7.59878 20.5059 10.4847 15.4953 15.4953C10.4847 20.5059 7.59878 27.2553 7.43778 34.3394C7.27678 41.4236 9.85314 48.2972 14.6309 53.5302C19.4087 58.7632 26.02 61.9528 33.0895 62.4355C40.1591 62.9181 47.1426 60.6567 52.5872 56.1216L68.231 71.7685C68.4633 72.0008 68.739 72.185 69.0425 72.3107C69.346 72.4364 69.6713 72.5011 69.9997 72.5011C70.3282 72.5011 70.6535 72.4364 70.957 72.3107C71.2605 72.185 71.5362 72.0008 71.7685 71.7685C72.0008 71.5362 72.185 71.2605 72.3107 70.957C72.4364 70.6535 72.5011 70.3282 72.5011 69.9997C72.5011 69.6713 72.4364 69.346 72.3107 69.0425C72.185 68.739 72.0008 68.4633 71.7685 68.231ZM12.4997 34.9997C12.4997 30.5497 13.8193 26.1995 16.2917 22.4994C18.764 18.7993 22.278 15.9154 26.3894 14.2124C30.5007 12.5095 35.0247 12.0639 39.3893 12.9321C43.7538 13.8002 47.763 15.9432 50.9096 19.0898C54.0563 22.2365 56.1992 26.2456 57.0674 30.6102C57.9356 34.9748 57.49 39.4988 55.787 43.6101C54.0841 47.7215 51.2002 51.2355 47.5001 53.7078C43.8 56.1801 39.4498 57.4997 34.9997 57.4997C29.0344 57.4931 23.3153 55.1205 19.0971 50.9023C14.879 46.6842 12.5064 40.9651 12.4997 34.9997Z"
            fill="currentcolor"/>
    </symbol>
</svg>
