<svg id='note-stack-add-svg' width="16" height="16" viewBox="0 0 16 16" fill="none" xmlns="http://www.w3.org/2000/svg">
<path d="M4.00004 14.5004V5.50036C4.00004 5.08264 4.14587 4.72821 4.43754 4.43707C4.7292 4.14593 5.08337 4.00036 5.50004 4.00036H14.5C14.9125 4.00036 15.2657 4.14724 15.5594 4.44099C15.8532 4.73474 16 5.08786 16 5.50036V11.3754C16 11.5729 15.9653 11.7612 15.8959 11.9402C15.8264 12.1192 15.717 12.2833 15.5677 12.4327L12.4323 15.5681C12.283 15.7174 12.1189 15.8268 11.9398 15.8962C11.7608 15.9656 11.5726 16.0004 11.375 16.0004H5.50004C5.08754 16.0004 4.73441 15.8535 4.44066 15.5597C4.14691 15.266 4.00004 14.9129 4.00004 14.5004ZM0.0417028 3.35453C-0.0277416 2.95175 0.0590639 2.57675 0.302119 2.22953C0.545175 1.88231 0.868092 1.67397 1.27087 1.60453L10.125 0.021195C10.5278 -0.0482494 10.8993 0.0385561 11.2396 0.281612C11.5799 0.524667 11.7848 0.847584 11.8542 1.25036L12.0834 2.50036H10.5625L10.375 1.50036L1.52087 3.0837L2.50004 8.56286V13.3129C2.27781 13.2156 2.08684 13.0692 1.92712 12.8737C1.7674 12.6781 1.6667 12.4564 1.62504 12.2087L0.0417028 3.35453ZM5.50004 5.50036V14.5004H11L14.5 11.0004V5.50036H5.50004ZM9.25529 10.7504V12.2504C9.25529 12.4629 9.32733 12.641 9.47141 12.7847C9.61549 12.9285 9.79333 13.0004 10.0049 13.0004C10.2165 13.0004 10.3938 12.9285 10.537 12.7847C10.6801 12.641 10.7517 12.4629 10.7517 12.2504V10.7504H12.2452C12.4567 10.7504 12.6355 10.6789 12.7813 10.536C12.9271 10.3931 13 10.216 13 10.0048C13 9.7935 12.9282 9.61582 12.7844 9.47174C12.6407 9.32765 12.4625 9.25561 12.25 9.25561H10.75V7.75211C10.75 7.53911 10.6782 7.36057 10.5344 7.21649C10.3907 7.0724 10.2125 7.00036 10 7.00036C9.78754 7.00036 9.60941 7.0724 9.46566 7.21649C9.32191 7.36057 9.25004 7.53911 9.25004 7.75211V9.25561H7.75004C7.53754 9.25561 7.35941 9.32765 7.21566 9.47174C7.07191 9.61582 7.00004 9.79203 7.00004 10.0004C7.00004 10.2129 7.07208 10.391 7.21616 10.5347C7.36024 10.6785 7.53879 10.7504 7.75179 10.7504H9.25529Z" fill="#1C1B1F"/>
</svg>
