<svg width="48" height="48" viewBox="0 0 48 48" fill="none" xmlns="http://www.w3.org/2000/svg">
<path d="M32.5 27C33.3284 27 34 26.3284 34 25.5C34 24.6716 33.3284 24 32.5 24C31.6716 24 31 24.6716 31 25.5C31 26.3284 31.6716 27 32.5 27Z" fill="currentColor"/>
<path d="M22.8399 12.2105C24.1027 11.8369 25.537 11.9151 26.8191 12.8229L21.4606 12.8225C21.8916 12.5641 22.3554 12.3539 22.8399 12.2105Z" fill="currentColor"/>
<path fill-rule="evenodd" clip-rule="evenodd" d="M21.4606 12.8225L26.8191 12.8229C28.1469 13.7579 28.941 15.3187 28.996 16.9294C29.0836 19.4469 27.7363 21.5796 26.1507 23.3131C24.9221 24.6563 23.4374 25.8748 22.1704 26.9147C21.8074 27.2126 21.4619 27.4962 21.1457 27.7636L20.4948 28.314L19.8482 27.7584C19.4998 27.459 19.1142 27.14 18.7072 26.8033C17.474 25.7831 16.0444 24.6005 14.8589 23.3091C13.2725 21.5809 11.9217 19.456 12.0035 16.9311L12.0036 16.9294C12.0586 15.3184 12.8529 13.7572 14.1812 12.8223L16.8589 12.8225L19.5366 12.8226C19.8803 13.028 20.2033 13.2641 20.4995 13.5217C20.7951 13.2644 21.1176 13.0281 21.4606 12.8225ZM21.2705 15.5849C21.8213 14.9187 22.5999 14.3672 23.4074 14.1283C24.1908 13.8965 24.9675 13.9621 25.6642 14.4557L25.6669 14.4576C26.4523 15.0103 26.9622 15.9746 26.9971 16.9976C27.0577 18.7308 26.1353 20.3667 24.6749 21.9633C23.5531 23.1897 22.2248 24.2806 20.974 25.308C20.816 25.4377 20.6593 25.5665 20.5043 25.6943C20.3031 25.5264 20.0989 25.3574 19.893 25.187C18.6844 24.1868 17.4162 23.1373 16.3323 21.9566C14.8719 20.3657 13.9463 18.7375 14.0024 16.9967C14.0376 15.9741 14.5475 15.0101 15.3327 14.4576C16.0301 13.9662 16.8088 13.9002 17.593 14.1315C18.4007 14.3697 19.1789 14.9194 19.7291 15.5849L20.4998 16.5172L21.2705 15.5849Z" fill="currentColor"/>
<path d="M19.5366 12.8226L16.8589 12.8225L14.1812 12.8223C15.4628 11.9196 16.8965 11.8409 18.1588 12.2132C18.6425 12.3558 19.106 12.5652 19.5366 12.8226Z" fill="currentColor"/>
<path fill-rule="evenodd" clip-rule="evenodd" d="M41.9689 29.5761C42.3113 27.7019 39.7146 25.3658 39.7146 25.3658C38.8362 23.5454 38.859 22.0061 38.8848 20.2585C38.8921 19.7637 38.8997 19.2517 38.8871 18.7124C38.8286 16.3645 38.0608 14.0823 36.6756 12.1389C35.1586 10.2889 33.1693 8.83941 30.8971 7.9286C28.014 6.65481 24.8731 5.99658 21.6945 6.00001C17.532 6.00001 13.5401 7.57402 10.5968 10.3758C7.65352 13.1775 6 16.9775 6 20.9397C6 25.7069 8.81421 29.3845 12.4667 32.1144V38.5626C13.5031 40.6709 17.4128 42.1661 19.697 41.9852C23.1108 41.9852 24.5461 40.64 25.097 39.8429C25.3289 39.5073 25.4041 39.2689 25.4041 39.2689V37.8458C25.4041 37.8458 26.2038 38.1081 27.4041 38.345C31.0135 39.0572 38.245 39.5393 38.245 31.9665C38.245 31.9665 41.6265 31.4504 41.9689 29.5761ZM37.9133 26.235L38.0844 26.5895L38.3734 26.8495L38.3747 26.8507L38.3757 26.8516L38.377 26.8527L38.3834 26.8587C38.3945 26.869 38.4138 26.8871 38.4403 26.9125C38.4933 26.9635 38.5737 27.0425 38.6714 27.1444C38.8699 27.3513 39.1243 27.6365 39.3633 27.9589C39.608 28.2892 39.7973 28.6063 39.9072 28.8778C39.966 29.0232 39.9874 29.1188 39.9953 29.1721C39.9824 29.1851 39.9654 29.2009 39.9435 29.2197C39.7995 29.3427 39.5565 29.486 39.2213 29.623C38.8988 29.755 38.5684 29.85 38.3102 29.9122C38.1841 29.9426 38.0822 29.9635 38.0161 29.9761C37.9832 29.9824 37.9596 29.9865 37.9469 29.9887L37.9362 29.9905L36.245 30.2486V31.9665C36.245 34.03 35.6113 35.0501 34.9426 35.619C34.1987 36.2519 33.0838 36.6043 31.695 36.6945C30.3279 36.7833 28.9101 36.6032 27.7971 36.384C27.2491 36.276 26.7941 36.1624 26.4805 36.0771C26.3241 36.0346 26.2039 35.9994 26.1262 35.9759C26.0873 35.9642 26.0591 35.9554 26.0424 35.9502L26.0274 35.9454L26.026 35.945L26.0244 35.9445L23.4041 35.085V38.7708C23.3363 38.8584 23.2365 38.9687 23.0944 39.0864C22.682 39.4277 21.7253 39.9852 19.697 39.9852H19.6179L19.5391 39.9914C18.8249 40.048 17.6149 39.8294 16.4216 39.3027C15.4485 38.8731 14.801 38.3791 14.4667 37.9825V31.1123L13.6641 30.5124C10.2713 27.9767 8 24.8224 8 20.9397C8 17.5406 9.4176 14.2595 11.9758 11.8244C14.5373 9.38606 18.0315 8.00001 21.6945 8.00001L21.6966 8.00001C24.5986 7.99688 27.4632 8.59798 30.0889 9.75801L30.1207 9.77206L30.153 9.785C32.0982 10.5648 33.7929 11.7962 35.0858 13.3546C36.2184 14.966 36.8396 16.8411 36.8877 18.7608C36.8969 19.1589 36.8891 19.5785 36.881 20.0174C36.8475 21.8184 36.8081 23.9444 37.9133 26.235Z" fill="currentColor"/>
</svg>
