<svg width="16" height="16" viewBox="0 0 16 16" fill="none" xmlns="http://www.w3.org/2000/svg">
<path d="M14.7997 11.7557L9.33407 2.26379C9.19749 2.03124 9.00251 1.83843 8.76845 1.70445C8.53439 1.57048 8.26938 1.5 7.99969 1.5C7.73 1.5 7.465 1.57048 7.23094 1.70445C6.99688 1.83843 6.8019 2.03124 6.66532 2.26379L1.19969 11.7557C1.06828 11.9806 0.999023 12.2364 0.999023 12.4969C0.999023 12.7574 1.06828 13.0132 1.19969 13.2382C1.33453 13.4721 1.52918 13.666 1.76367 13.7999C1.99816 13.9338 2.26406 14.0028 2.53407 14H13.4653C13.7351 14.0026 14.0008 13.9334 14.235 13.7996C14.4693 13.6657 14.6637 13.4719 14.7984 13.2382C14.93 13.0134 14.9995 12.7576 14.9997 12.4971C15 12.2366 14.9309 11.9807 14.7997 11.7557ZM13.9328 12.7375C13.8852 12.8188 13.8168 12.886 13.7346 12.9321C13.6525 12.9782 13.5595 13.0017 13.4653 13H2.53407C2.43987 13.0017 2.34693 12.9782 2.26477 12.9321C2.18262 12.886 2.11422 12.8188 2.06657 12.7375C2.02341 12.6645 2.00064 12.5812 2.00064 12.4963C2.00064 12.4114 2.02341 12.3281 2.06657 12.255L7.53219 2.76317C7.5808 2.68227 7.64952 2.61534 7.73166 2.56887C7.8138 2.5224 7.90657 2.49797 8.00094 2.49797C8.09532 2.49797 8.18809 2.5224 8.27023 2.56887C8.35237 2.61534 8.42108 2.68227 8.46969 2.76317L13.9353 12.255C13.9781 12.3283 14.0004 12.4118 14 12.4966C13.9996 12.5815 13.9764 12.6647 13.9328 12.7375ZM7.49969 9.00004V6.50004C7.49969 6.36743 7.55237 6.24026 7.64614 6.14649C7.73991 6.05272 7.86709 6.00004 7.99969 6.00004C8.1323 6.00004 8.25948 6.05272 8.35325 6.14649C8.44702 6.24026 8.49969 6.36743 8.49969 6.50004V9.00004C8.49969 9.13265 8.44702 9.25983 8.35325 9.35359C8.25948 9.44736 8.1323 9.50004 7.99969 9.50004C7.86709 9.50004 7.73991 9.44736 7.64614 9.35359C7.55237 9.25983 7.49969 9.13265 7.49969 9.00004ZM8.74969 11.25C8.74969 11.3984 8.70571 11.5434 8.6233 11.6667C8.54088 11.7901 8.42375 11.8862 8.28671 11.943C8.14966 11.9997 7.99886 12.0146 7.85338 11.9856C7.70789 11.9567 7.57425 11.8853 7.46936 11.7804C7.36447 11.6755 7.29304 11.5418 7.2641 11.3964C7.23517 11.2509 7.25002 11.1001 7.30678 10.963C7.36355 10.826 7.45968 10.7088 7.58302 10.6264C7.70635 10.544 7.85136 10.5 7.99969 10.5C8.19861 10.5 8.38937 10.5791 8.53002 10.7197C8.67068 10.8604 8.74969 11.0511 8.74969 11.25Z" fill="#EA394A"/>
</svg>
