<?xml version="1.0" encoding="UTF-8" standalone="no"?>
<svg
   version="1.1"
   id="Layer_1"
   x="0px"
   y="0px"
   width="329.67758"
   viewBox="0 0 329.67758 635.52496"
   enable-background="new 0 0 1536 1024"
   xml:space="preserve"
   sodipodi:docname="characters-together-welcomescreen.svg"
   inkscape:version="1.4.2 (f4327f4, 2025-05-13)"
   height="635.52496"
   xmlns:inkscape="http://www.inkscape.org/namespaces/inkscape"
   xmlns:sodipodi="http://sodipodi.sourceforge.net/DTD/sodipodi-0.dtd"
   xmlns="http://www.w3.org/2000/svg"
   xmlns:svg="http://www.w3.org/2000/svg"><defs
   id="defs414" /><sodipodi:namedview
   id="namedview414"
   pagecolor="#ffffff"
   bordercolor="#000000"
   borderopacity="0.25"
   inkscape:showpageshadow="2"
   inkscape:pageopacity="0.0"
   inkscape:pagecheckerboard="0"
   inkscape:deskcolor="#d1d1d1"
   inkscape:zoom="0.78808594"
   inkscape:cx="-1.9033457"
   inkscape:cy="315.32094"
   inkscape:window-width="1920"
   inkscape:window-height="1009"
   inkscape:window-x="1912"
   inkscape:window-y="-8"
   inkscape:window-maximized="1"
   inkscape:current-layer="Layer_1" />


<path
   fill="#a24121"
   opacity="1"
   stroke="none"
   d="m 57.073977,171.69336 c -0.0394,-0.47613 -0.0788,-0.95227 0.35541,-1.85714 0.47229,-3.34607 0.471,-6.2634 0.46966,-9.18076 0,0 0.0708,-0.005 0.0646,-0.2381 0.007,-0.40896 0.0193,-0.58441 0.0709,-1.19857 0.35583,-5.40009 0.2937,-10.42145 1.06702,-15.31061 1.72717,-10.91968 2.84558,-22.09455 6.12506,-32.56635 3.48437,-11.12607 9.16327,-21.480744 22.05908,-25.003604 9.53925,-2.60589 13.295713,-0.70257 16.014403,8.75574 2.2052,7.671784 6.19318,11.093234 14.02942,10.454414 5.36096,-0.43695 10.72107,-1.94162 15.87799,-3.60141 10.40015,-3.347454 12.18732,-2.813424 17.82831,6.88787 1.00116,1.72181 1.96906,3.47727 3.12946,5.08966 5.26599,7.31656 11.82342,12.14084 21.46002,10.68781 2.28998,-0.34534 4.60437,-0.67563 6.82465,-1.30527 4.62426,-1.31137 8.6455,-1.00583 12.45111,2.50266 4.1773,3.8511 9.25384,5.76211 15.13421,4.84823 1.414,-0.21972 2.89111,-0.0326 4.38349,-0.0326 0.60308,2.38922 0.95477,4.34845 1.59112,6.21033 3.64258,10.65823 7.24817,21.33233 11.18005,31.88415 0.46235,1.24051 3.48397,2.88211 4.24057,2.44989 8.1151,-4.63659 16.6131,-3.85134 25.4546,-2.19555 0.8407,0.39822 1.4528,0.56518 2.0714,0.69647 0.01,-0.0357 -0.037,0.0229 0.1216,0.3204 7.8275,5.24509 11.7072,11.9086 11.2716,21.40482 -0.7781,16.96069 -26.6133,31.87216 -43.27012,20.664 -6.22662,6.68463 -12.40527,13.31775 -18.58392,19.95087 -6.95093,3.51962 -13.90179,7.03924 -21.31097,10.37967 -0.68854,-0.0128 -0.91871,0.15368 -1.14893,0.32016 0,0 -0.0248,-0.0825 -0.38458,-0.0172 -14.31415,4.25211 -28.08094,9.23737 -42.82923,10.04602 0,0 0.12305,-0.0329 -0.1159,-0.31195 -4.31354,-0.78213 -8.37665,-1.57586 -12.46479,-1.73758 -16.99896,-0.67263 -33.370483,-4.12799 -49.170653,-10.42184 -0.85004,-0.33862 -2.03778,0.17071 -3.06836,0.28531 -9.22729,-3.66187 -16.12964,-9.73227 -19.97345,-19.85165 -4.64752,-15.44196 -3.82788,-30.28123 -1.1402,-45.1619 0,0 0.0899,0.0612 0.32514,-0.11594 0.11023,-1.36154 -0.0148,-2.54596 -0.13977,-3.73038 m 26.76678,-31.89071 c -4.70605,3.25146 -10.34863,5.64529 -12.02551,13.35415 2.23914,-0.91336 3.49231,-1.46307 4.77258,-1.93991 4.90174,-1.82556 9.74304,-3.86294 14.75012,-5.33352 2.30237,-0.67627 5.00483,0.10534 7.39667,-0.39353 1.753123,-0.36563 3.295723,-1.74038 4.932073,-2.6654 -1.12732,-1.66702 -1.90082,-4.03842 -3.4696,-4.82654 -2.058783,-1.03418 -4.805303,-1.30929 -7.145213,-1.01886 -2.89898,0.35986 -5.68457,1.63339 -9.21112,2.82361 m 7.51038,38.67825 c 0.34393,1.93735 0.36603,4.00681 1.09631,5.78555 1.72968,4.21311 6.52967,5.69446 9.811533,2.94141 3.50109,-2.93683 4.37353,-6.83081 2.94891,-11.25223 -1.0791,-3.34863 -3.00659,-5.51431 -6.756353,-5.431 -4.67084,0.10382 -5.94885,3.51261 -7.1004,7.95627 m 82.042723,-7.11676 c -5.68945,-1.73245 -8.00366,-0.77966 -9.81549,4.04093 -1.90655,5.07278 -0.14007,10.6405 4.00543,12.49133 3.4809,1.55414 6.28467,0.47812 7.98371,-2.72711 2.48413,-4.68637 2.02435,-9.23569 -2.17365,-13.80515 m -0.20178,-32.72461 c -1.32422,-0.002 -2.69104,-0.21655 -3.96435,0.0373 -3.20234,0.63846 -7.35456,0.99711 -6.98993,5.37879 0.36944,4.4393 4.47772,3.1821 7.49798,3.49847 5.9671,0.625 11.90192,1.55426 17.85889,2.28565 1.31756,0.16177 2.672,0.0237 4.00946,0.0237 -4.77966,-6.32162 -10.62384,-9.69186 -18.41205,-11.22394 m -11.43896,73.09235 c -1.94037,-2.73047 -2.48298,-2.9827 -4.87012,-0.31519 -5.80847,6.49079 -12.81519,8.935 -21.37085,7.49256 -0.94757,-0.15979 -2.11401,0.97888 -3.17896,1.51532 0.7074,0.80615 1.26929,1.91391 2.15857,2.34307 1.14136,0.55079 2.5373,0.69159 3.83851,0.77497 9.7882,0.62723 17.30975,-3.50186 23.42285,-11.81073 m -48.80494,-13.9495 c 1.52472,5.4032 4.3736,7.26963 9.28718,6.08454 -6.83948,-4.90631 -7.6283,-8.16467 -3.12201,-12.9708 0.68054,-0.72573 1.65411,-1.27285 2.08477,-2.11172 0.50367,-0.9812 0.56098,-2.19156 0.81183,-3.30258 -1.05932,0.0753 -2.36206,-0.22025 -3.13714,0.28833 -3.97071,2.60525 -6.56788,6.06805 -5.92463,12.01223 z"
   id="path3" />







<path
   fill="#5a2316"
   opacity="1"
   stroke="none"
   d="m 256.65651,168.74287 c -8.6129,-1.42453 -17.1109,-2.20978 -25.226,2.42681 -0.7566,0.43222 -3.77822,-1.20938 -4.24057,-2.44989 -3.93188,-10.55182 -7.53747,-21.22592 -11.18005,-31.88415 -0.63635,-1.86188 -0.98804,-3.82111 -1.59112,-6.21033 -1.49238,0 -2.96949,-0.1871 -4.38349,0.0326 -5.88037,0.91388 -10.95691,-0.99713 -15.13421,-4.84823 -3.80561,-3.50849 -7.82685,-3.81403 -12.45111,-2.50266 -2.22028,0.62964 -4.53467,0.95993 -6.82465,1.30527 -9.6366,1.45303 -16.19403,-3.37125 -21.46002,-10.68781 -1.1604,-1.61239 -2.1283,-3.36785 -3.12946,-5.08966 -5.64099,-9.701294 -7.42816,-10.235324 -17.82831,-6.88787 -5.15692,1.65979 -10.51703,3.16446 -15.87799,3.60141 -7.83624,0.63882 -11.82422,-2.78263 -14.02942,-10.454414 -2.71869,-9.45831 -6.475153,-11.36163 -16.014403,-8.75574 -12.89581,3.52286 -18.57471,13.877534 -22.05908,25.003604 -3.27948,10.4718 -4.39789,21.64667 -6.12506,32.56635 -0.77332,4.88916 -0.71119,9.91052 -1.26746,15.29858 -0.23932,0.42667 -0.64014,0.43433 -0.64014,0.43433 -2.70337,-4.77069 -5.40674,-9.54135 -7.84277,-14.92816 -0.80621,-6.17267 -2.47418,-11.69208 -2.82428,-17.29386 -0.64154,-10.26242 -0.64923,-20.57379 -0.62415,-30.864014 0.0105,-4.30145 0.78016,-8.60101 1.20466,-12.90146 4.03216,-7.9302 8.06433,-15.86041 12.75866,-23.93939 3.53723,-2.96036 6.45478,-5.73047 9.26544,-8.605 1.05011,-1.07394 1.85096,-2.39154 2.76545,-3.59807 0,0 0.0408,0.0987 0.37585,0.0944 1.39349,-0.004 2.45184,-0.004 4.08038,-0.004 -0.45391,4.39215 -1.05365,8.4288 -1.21624,12.48302 -0.0865,2.15841 0.58319,4.3472 0.87579,6.52734 -0.0358,0.005 0.0102,-0.0507 0.0695,0.32874 0.52765,0.78146 1.00995,1.54809 1.4624,1.53085 7.11298,-0.271 14.22003,-0.86942 21.3327,-0.9372 10.068003,-0.096 20.191713,-0.41729 30.196293,0.45295 12.46259,1.08401 24.94318,2.70987 37.20197,5.1687 11.24749,2.25604 22.28955,5.67663 33.26367,9.09289 4.94641,1.53983 8.11932,1.20713 8.43518,-2.37463 1.0163,-11.5231 1.94336,-23.05473 3.06195,-34.56783 0.44446,-4.57505 1.30078,-9.11009 2.33911,-13.66407 1.10864,5.3e-4 1.84784,0.002 2.79614,0.26641 1.41572,0.10085 2.62226,-0.0617 4.06794,-0.23413 0.23919,-0.01 0.71771,-0.0271 0.76465,0.33055 5.07049,3.94892 10.20999,7.38971 15.09819,11.15659 25.6134,19.73799 37.3934,46.42876 38.8482,78.165734 0.7036,15.34973 -3.5855,29.75399 -8.7762,43.97226 -1.3158,3.60434 -3.6849,4.83026 -7.2544,4.39392 0,0 0.043,-0.0585 -0.1449,-0.30381 -0.8315,-0.37912 -1.4751,-0.51297 -2.1186,-0.64678 z"
   id="path11" />
<path
   fill="#501a11"
   opacity="1"
   stroke="none"
   d="m 259.07811,169.991 c 3.4114,0.1388 5.7805,-1.08712 7.0963,-4.69146 5.1907,-14.21827 9.4798,-28.62253 8.7762,-43.97226 -1.4548,-31.736974 -13.2348,-58.427744 -38.8482,-78.165734 -4.8882,-3.76688 -10.0277,-7.20767 -14.94182,-11.46632 6.81634,-3.54801 13.37302,-6.87244 20.26522,-9.20536 10.376,-3.51214 21.2777,-2.6255 31.5526,-0.24539 8.0915,1.87436 15.5306,6.54389 23.2926,9.89502 0.8547,0.36907 1.9278,0.23219 2.8998,0.32999 0,0 -0.1438,0.11522 -0.096,0.39746 1.1293,0.82272 2.2108,1.36323 3.2923,1.90375 0,0 0.3033,0.14686 0.2396,0.60919 0.8118,1.03749 1.6871,1.61265 2.5626,2.18782 0.5641,0.4498 1.1283,0.89961 1.7933,1.97272 1.7952,2.40756 3.4893,4.19184 5.1834,5.97612 0,1e-5 -0.1185,0.0659 -0.1134,0.38984 3.3776,7.10042 6.75,13.87688 10.1224,20.65331 0,0 -0.088,0.0163 -0.1102,0.40225 0.6095,6.03967 1.8651,11.70956 1.7191,17.34314 -0.194,7.48941 -0.9266,15.06705 -2.4673,22.388064 -1.3031,6.19223 -4.0854,12.07315 -6.2131,18.09186 0,0 -0.018,-0.091 -0.261,0.0624 -0.3986,0.75552 -0.5538,1.35772 -0.7091,1.9599 0,0 -0.086,-0.11435 -0.3821,-0.075 -1.0627,1.39187 -1.8291,2.74435 -2.5954,4.09686 0,0 -0.095,-0.13413 -0.3649,-0.096 -1.4072,1.67157 -2.5446,3.30493 -3.6819,4.93829 -0.5015,0.61969 -1.0029,1.23938 -1.9687,1.75089 -4.873,2.96237 -5.3237,5.42603 -1.4043,7.44101 4.9653,2.55279 10.2556,4.47382 15.4057,6.6673 0,0 -0.107,0.0699 -0.096,0.40515 1.0437,1.08365 2.0767,1.83212 3.1095,2.58056 0,0 -0.1174,0.076 -0.083,0.38782 0.1717,0.78763 0.2034,1.33267 0.4626,1.7291 7.8843,12.05981 7.2329,23.99429 -0.4049,35.88888 -0.3287,0.512 -0.044,1.41831 -0.044,2.14093 -4.1301,5.79248 -9.8777,9.35578 -17.0095,11.60895 -3.6664,0.0663 -7.0962,-0.35592 -9.6257,0.95651 -2.604,1.35105 -5.2436,4.06882 -6.2067,6.77887 -1.1641,3.27503 0.1408,6.82114 3.9253,8.53782 0,0 -0.093,0.0331 -0.076,0.37487 2.7128,6.10547 3.2225,11.96451 0.9936,18.02625 -0.5589,1.52017 -0.6831,3.20025 -1.007,4.80688 1e-4,0 -0.069,-0.0821 -0.3265,-0.0547 -0.7346,1.00211 -1.2113,1.97681 -1.6878,2.95151 -0.8141,0.95169 -1.6281,1.90335 -2.9225,2.75626 -0.7869,-0.0523 -1.1587,-0.10239 -1.3908,0.0544 -14.8316,10.02316 -30.7723,12.677 -47.9537,7.30634 -3.5771,-1.11814 -7.1951,-2.10499 -10.7943,-3.15235 -9.20105,-5.29666 -15.46393,-13.06036 -19.36352,-23.25857 6.05383,-6.97861 12.23248,-13.61173 18.4591,-20.29636 16.65682,11.20816 42.49202,-3.70331 43.27012,-20.664 0.4356,-9.49622 -3.4441,-16.15973 -11.2716,-21.40482 z"
   id="path12" />

<path
   fill="#ccf5fe"
   opacity="1"
   stroke="none"
   d="m 95.014767,348.51908 c -3.95544,-0.97937 -2.49737,-3.75879 -2.05725,-6.1958 2.39838,-13.27936 4.56073,-26.60706 7.262523,-39.82446 2.9649,-14.50394 11.24688,-25.90165 22.57623,-35.39063 3.27893,8.12329 5.94049,16.10538 8.98596,23.9382 1.61835,4.16233 5.04095,5.86756 9.30261,3.98908 5.67926,-2.5033 11.18317,-5.40442 16.90894,-8.20636 0.18738,0.53943 0.76806,1.58239 0.89398,2.67761 0.75476,6.56674 1.61059,13.13342 1.99927,19.72565 0.18109,3.07122 1.52923,3.6878 4.09662,3.41919 0.021,0.0289 0.062,0.0876 -0.19996,0.32357 -3.48779,1.44672 -6.68103,2.75513 -9.94751,3.844 -4.26837,1.42279 -6.78869,3.90552 -6.31829,8.79278 -2.24549,0.68952 -4.09119,1.43531 -5.99927,1.94983 -10.83624,2.92188 -10.94574,9.14008 -8.18018,16.97888 8.08496,22.91602 16.35871,45.76551 24.44574,68.68085 1.74079,4.93256 3.00837,10.03205 4.17542,15.33319 -2.53852,14.27027 -4.79663,28.25611 -6.96509,42.25586 -1.41315,9.12342 -2.69592,18.26697 -4.49463,27.4234 -2.74731,-0.20373 -5.0531,-0.32446 -7.32385,-0.67334 -9.48431,-1.45727 -18.95813,-2.98303 -28.43579,-4.4837 -6.20154,-1.75177 -12.38593,-3.56787 -18.612613,-5.22522 -2.68024,-0.71338 -3.19367,-1.89569 -2.55457,-4.6936 3.27014,-14.31739 6.244573,-28.70227 9.291693,-43.86353 0.88977,-4.9906 1.91998,-9.1607 2.70721,-13.37628 1.50647,-8.06653 2.87482,-16.15888 4.36737,-24.45355 0.0669,-0.21302 0.10419,-0.65796 0.44312,-0.84095 4.59143,-15.82714 6.17145,-31.75726 5.76324,-48.67395 -7.50366,-1.1632 -14.81726,-2.29693 -22.130923,-3.43072 m 24.966373,-4.85059 c 0,-12.63177 0,-25.26355 0,-37.89532 -0.46734,-0.0109 -0.93469,-0.0217 -1.40203,-0.0325 -0.70484,14.64276 -1.40967,29.28558 -2.11451,43.92834 0.62445,0.0921 1.24884,0.18421 1.87329,0.27625 0.542,-1.79853 1.08399,-3.59705 1.64325,-6.27674 m 28.62671,127.83191 c 3.50836,-0.40838 5.13227,-2.29046 3.68353,-5.65417 -0.43969,-1.02094 -2.43621,-2.13251 -3.48516,-1.93799 -1.32099,0.24493 -3.40613,1.83417 -3.36267,2.75897 0.075,1.59741 1.53613,3.12976 3.1643,4.83319 m 3.70654,-38.51037 c -1.10491,1.48095 -2.66168,2.84033 -3.10809,4.49853 -0.19812,0.73602 1.70148,2.6565 2.91846,2.96063 1.00409,0.25098 3.52576,-1.42932 3.45337,-1.66595 -0.59058,-1.93066 -1.63269,-3.72321 -3.26374,-5.79321 m -0.76812,-132.86261 c 0.23303,1.98779 0.40655,3.98809 0.8175,5.93838 0.0312,0.14819 2.26184,0.29486 2.57855,-0.16787 0.8545,-1.24872 2.08991,-3.42637 1.59522,-4.13865 -0.80408,-1.15771 -2.86578,-1.44198 -4.99127,-1.63186 z"
   id="path14" />

<path
   fill="#ccf5fe"
   opacity="1"
   stroke="none"
   d="m 254.75021,378.31296 c 4.7159,16.90827 9.5767,33.7779 14.0995,50.73767 3.328,12.47883 5.9363,25.154 9.4434,37.57843 1.2671,4.48883 -0.1332,6.70704 -3.7902,8.17786 -15.0678,6.0603 -30.1807,12.00897 -46.004,18.24768 -7.67011,1.74835 -14.61329,3.24781 -21.97266,4.71393 -10.46588,0.59906 -20.5155,1.23126 -31.00073,1.85999 -3.6316,-0.27082 -6.82752,-0.53803 -10.4491,-0.73719 -3.6593,-0.11426 -6.89301,-0.29663 -10.05676,-0.8695 3.42352,-22.21412 6.7771,-44.03779 10.39959,-65.6211 4.27924,5.83331 7.05353,6.9375 13.92505,4.39307 18.76258,-6.94769 37.47388,-14.0415 56.07761,-21.40082 2.4817,-0.98175 4.2234,-3.83435 6.4453,-6.15594 -0.069,-2.73578 0.1741,-5.28754 -0.5719,-7.50672 -1.8696,-5.56195 -4.1875,-10.97327 -6.0375,-16.66345 6.6895,-2.39697 13.0909,-4.57544 19.4924,-6.75391 z"
   id="path16" />




<path
   fill="#e9feff"
   opacity="1"
   stroke="none"
   d="m 78.537167,43.477926 c 1.23328,-10.73497 2.46656,-21.46993 4.19977,-32.25139 1.31177,-0.0313 2.14313,0.10713 2.93237,-0.0188 28.265873,-4.5110301 56.571663,-5.7306701 84.871103,-0.51944 13.89929,2.55952 27.70691,5.61661 40.45935,12.10026 -0.005,1.97985 -0.009,3.95967 -0.0211,6.63149 0.0402,0.86348 0.0882,1.03499 0.0648,1.63359 -1.71356,17.15237 -3.35571,33.87767 -5.0174,50.80171 -30.80902,-11.30173 -71.52343,-16.98764 -106.341733,-16.23749 -7.89026,0.16999 -15.77436,0.62134 -23.66132,0.94318 0,0 -0.046,0.0558 -0.009,-0.36111 0.86578,-7.85193 1.69446,-15.28695 2.52313,-22.72197 m 61.168223,-27.93473 c -2.0586,-0.2556 -4.11719,-0.5112 -6.44928,-0.80076 -0.48133,3.61821 -1.07203,6.71443 -1.26123,9.83502 -0.21613,3.56529 -1.34662,5.54976 -5.43329,5.14047 -3.43323,-0.34384 -6.92829,-0.0707 -11.01496,-0.0707 -0.23724,4.10359 -0.45172,7.81368 -0.67376,11.65521 4.9757,0.73923 9.31903,1.3845 13.78442,2.04789 -0.5647,4.56306 -1.06573,8.61242 -1.61865,13.08062 4.22943,0.51998 8.09759,0.99555 12.28888,1.51084 0.66784,-3.97763 1.28558,-7.38027 1.79779,-10.79872 0.37756,-2.52039 1.50879,-3.79201 4.28784,-3.625 3.41296,0.20509 6.84766,0.0489 10.5495,0.0489 0.44806,-4.19961 0.82721,-7.75383 1.22382,-11.47125 -4.67029,-0.70963 -8.72016,-1.32498 -13.10981,-1.99198 0,-3.86891 -0.14831,-7.50213 0.0482,-11.1166 0.14923,-2.74549 -1.11475,-3.56307 -4.41949,-3.44393 z"
   id="path21" />








<path
   fill="#ccf5fe"
   opacity="1"
   stroke="none"
   d="m 207.09107,258.53119 c 9.65881,6.56253 20.29822,12.07483 28.73234,19.94922 10.9379,10.21213 20.0012,22.41297 30.1156,33.53589 4.033,4.43521 2.1351,8.21933 -0.5649,12.62369 -10.6534,8.61206 -21.5315,15.82288 -34.1131,20.1842 0.2132,1.32099 0.4087,2.53125 0.6397,3.7638 0.035,0.0223 0.032,-0.0614 -0.2772,-0.0205 -0.8222,0.32941 -1.3355,0.61798 -1.79221,0.92346 0.0567,0.0169 0.0417,-0.10046 -0.30951,-0.0437 -1.58612,0.71588 -2.82104,1.37494 -4.33587,1.93408 -0.47797,-0.0984 -0.67609,-0.0968 -0.94605,-0.40307 -4.16223,-11.59955 -8.12665,-22.93976 -12.43658,-34.1471 -1.00342,-2.60931 -3.18225,-4.76654 -5.09211,-7.37109 -2.91888,-0.41403 -5.68774,-1.16205 -8.18505,-0.63159 -3.93347,0.83542 -7.68439,2.53061 -11.8089,3.65887 -2.49591,-4.36441 -6.07941,-4.65732 -10.02082,-3.50854 -3.91625,1.14148 -7.76977,2.49813 -11.65081,3.7604 0,0 -0.0409,-0.0587 -0.0637,-0.52459 -0.21753,-2.27179 -0.39459,-4.07978 -0.60999,-5.88321 -1.13739,-9.52195 -2.28442,-19.0427 -3.09741,-28.69196 12.28558,-6.06247 21.46887,-14.42603 24.73724,-27.97394 3.86109,1.27039 7.75348,2.45499 11.57044,3.84653 1.97308,0.71936 3.81238,1.80603 6.02606,3.28238 -2.40735,11.02167 -8.01984,19.98733 -14.70068,28.24594 -3.56885,4.41171 -7.42029,9.6897 -15.34107,3.7659 3.94458,7.25034 9.52619,8.79102 13.6922,5.01486 10.53284,-9.5473 16.89984,-21.45935 19.83234,-35.28992 m -36.15967,27.75174 c -0.5224,0.24515 -1.04486,0.4903 -1.56726,0.73542 0.42584,0.42035 0.85168,0.84066 1.27753,1.26104 0.24261,-0.52179 0.48516,-1.04361 0.28973,-1.99646 m -5.54828,-3.16494 c 0,0 0.12024,-0.0729 0,0 z"
   id="path30" />

<path
   fill="#fb9999"
   opacity="1"
   stroke="none"
   d="m 216.98438,609.76145 c 2.63373,-4.55194 6.90002,-1.91937 10.23675,-1.88721 7.41708,0.0715 14.85408,0.86908 22.23028,1.7923 15.7285,1.96863 31.4578,3.99323 47.1018,6.5199 2.9668,0.47912 5.5418,3.38458 8.2974,5.17047 -2.7733,1.52325 -5.3926,3.87591 -8.3469,4.42462 -12.1651,2.25958 -24.3724,4.66657 -36.6755,5.7226 -18.8076,1.61444 -37.69655,2.58569 -56.57027,3.05456 -28.42407,0.70606 -56.86579,1.04102 -85.29816,0.95227 -17.07178,-0.0533 -34.207823,-0.48419 -51.192503,-2.06256 -20.04096,-1.86249 -39.95026,-5.14258 -59.91352,-7.83166 -0.81042,-0.1092 -1.7409,-0.26325 -2.3515,-0.73676 -1.57965,-1.2251 -3.01141,-2.64081 -4.5022600000001,-3.98022 C 1.400327,619.49753 2.584897,617.27122 4.238957,616.83835 c 6.54376,-1.71276 13.17749,-3.39752 19.88256,-4.11535 15.61585,-1.672 31.28815,-2.8302 46.94696,-4.07788 4.06141,-0.32355 8.15772,-0.20923 12.56458,0.0768 0.32654,0.37286 0.22296,0.78931 -0.066,0.8587 -0.89026,0.57605 -1.49158,1.08258 -2.32367,1.71936 -0.47736,0.37745 -0.72381,0.62464 -1.1145,0.95514 -0.32404,0.22235 -0.46082,0.39539 -0.85309,0.85742 -2.24262,5.7154 -1.04083,8.10462 4.87463,8.38453 12.25251,0.57983 24.529973,0.80188 36.796573,0.78497 2.73414,-0.004 5.46601,-1.60169 8.50007,-2.57996 1.40319,-1.40612 2.50524,-2.69787 3.97576,-4.12695 0.78113,-0.0785 1.19373,-0.0198 1.57612,0.44055 0.4555,2.06024 0.94128,3.71888 1.20507,5.6001 5.12787,-0.21118 10.47772,-0.64496 16.06311,-1.00793 0.57434,0.2199 0.74927,0.47943 0.81232,1.03198 0.32916,0.17004 0.60632,0.15759 1.2901,0.0864 3.43842,-0.0586 6.47022,-0.0586 9.63037,-0.0586 0.42804,-1.81299 0.81372,-3.44641 1.24194,-5.25983 0.76539,0.57648 1.25672,0.94654 1.85779,1.64783 2.33332,1.72967 4.48859,4.19531 6.79218,4.34259 10.24585,0.65497 20.5354,0.84741 30.80658,0.78577 4.59045,-0.0276 9.24725,-0.72022 13.74096,-1.71302 4.12458,-0.91137 5.12128,-5.35699 2.20111,-8.45672 -1.11419,-1.18274 -2.43133,-2.1742 -3.65606,-3.25281 z"
   id="path32" />

<path
   fill="#a34221"
   opacity="1"
   stroke="none"
   d="m 88.841307,605.57242 c 1.41596,-1.1112 2.68524,-2.53296 4.2721,-3.28216 8.889283,-4.19696 12.239803,-11.70362 13.330623,-21.34571 1.26514,-3.92468 2.4043,-7.38824 2.83997,-10.93823 1.69116,-13.78106 3.15625,-27.58996 4.71045,-41.38794 0.73547,-6.53009 1.48212,-13.05896 2.10638,-18.55542 15.63806,0 30.58393,0 46.16565,0 -1.16516,4.83899 -2.16284,8.16224 -2.7232,11.55762 -0.48822,2.95783 -0.48279,5.99719 -0.66742,9.39221 -4.87274,22.53437 -9.77356,44.67701 -14.82031,67.05756 -0.56067,0.60522 -0.97528,0.97253 -1.72693,1.42865 -16.69928,8.53784 -33.98627,10.03143 -52.107913,6.72888 -0.61005,-0.36072 -0.99469,-0.50806 -1.3794,-0.65546 z"
   id="path34" />
<path
   fill="#a34221"
   opacity="1"
   stroke="none"
   d="m 210.84803,549.603 c -4.01093,13.25775 -7.89228,26.55719 -12.133,39.74109 -0.94507,2.93805 -0.31952,4.59577 1.81213,6.40613 3.54346,3.00952 6.93183,6.20172 10.26264,9.86438 -2.99768,1.13641 -5.85291,2.09991 -8.75061,2.2514 -14.95392,0.78223 -29.09827,-2.80267 -42.90344,-8.56988 -0.0731,-0.1836 -0.22217,-0.55097 -0.20008,-0.96729 3.35303,-17.87719 6.78278,-35.32031 9.94727,-52.81134 0.82135,-4.53979 0.81305,-9.22955 1.13373,-14.25714 1.56518,-7.46088 3.18255,-14.51495 5.08429,-21.59283 0.4743,-0.0364 0.66412,-0.0491 1.31585,-0.0544 15.30487,-0.60424 30.14789,-1.21569 45.76593,-1.85913 -0.65198,2.66638 -1.09863,4.68573 -1.64136,6.6789 -2.12371,7.79974 -4.27764,15.59124 -6.4204,23.3858 0,0 -0.0293,-0.11273 -0.30616,0.0422 -1.17346,4.01739 -2.07013,7.87976 -2.96679,11.74218 z"
   id="path35" />
<path
   fill="#a24121"
   opacity="1"
   stroke="none"
   d="m 224.31171,351.28605 c 0.19812,-0.002 0.39624,-0.003 1.27228,0.13415 1.88159,-0.58404 3.08532,-1.30688 4.289,-2.02972 0,0 0.015,0.11737 0.28622,0.13318 0.7719,-0.32178 1.2726,-0.65943 1.7732,-0.99707 0,0 0,0.0837 0.3757,0.038 2.7964,-0.50446 5.3621,-0.60339 7.6189,-1.48944 6.7418,-2.64673 13.3769,-5.56842 20.0262,-8.44611 6.3494,-2.74792 10.1918,-1.20959 13.0015,4.85981 2.5907,5.59613 3.1499,11.32647 2.1356,17.30871 0,0 -0.023,-0.11047 -0.2706,0.0399 -0.4204,0.77429 -0.5936,1.39819 -0.7669,2.02209 -4.1833,7.60614 -11.4373,11.35712 -19.0507,15.2132 -6.6534,2.41876 -13.0548,4.59723 -20.0093,7.05585 -0.7198,0.35089 -0.8865,0.42169 -1.3939,0.47863 -1.6089,0.35657 -2.8771,0.72687 -4.60367,1.06903 -7.19244,0.0911 -12.66888,2.05085 -17.0744,7.88434 -3.75122,4.96729 -8.86468,8.96485 -13.65918,13.05933 -2.27502,1.94281 -5.20691,4.59784 -8.36096,1.80218 -2.96851,-2.63116 -0.59302,-5.4281 0.78125,-8.02319 0.0761,-0.14362 -0.24188,-0.49597 -0.4035,-0.80249 -2.49274,0.87457 -4.9292,2.13208 -7.49018,2.48462 -1.67102,0.22998 -4.09655,-0.35346 -5.10815,-1.51202 -0.77478,-0.88739 -0.35779,-3.51532 0.39929,-4.88971 1.42731,-2.59113 3.48187,-4.8368 5.40869,-7.42719 -0.41138,-0.34052 -0.95581,-0.47992 -1.70758,-0.58234 -0.20727,0.037 -0.62848,0.0376 -1.07129,0.0113 -3.29474,0.21502 -6.14667,0.45636 -9.45276,0.73608 -0.1264,-2.164 -0.23736,-4.06293 -0.28711,-6.18427 0.24164,-0.50592 0.49988,-0.65319 1.18116,-0.67254 0.68579,-0.4903 1.0263,-0.97211 1.40588,-1.45935 0.0391,-0.005 -0.002,0.0617 0.29578,0.11218 0.51257,-0.25976 0.72693,-0.56995 0.95886,-0.82434 0.0176,0.0557 -0.092,0.015 0.27588,0.0705 1.84277,-0.99719 3.31768,-2.04986 4.47961,-3.35089 -4.25439,-0.63794 -8.2569,-0.73913 -12.10858,-1.55352 -1.62482,-0.34357 -3.83069,-1.99897 -4.13074,-3.40778 -0.30053,-1.41113 1.02472,-3.95532 2.37995,-4.77496 3.19708,-1.93335 6.83587,-3.13636 10.51489,-4.37812 2.05206,-0.96368 3.88531,-2.18396 5.73956,-3.39062 0.021,0.0136 -0.0273,0.008 0.25788,-0.19446 -0.1178,-1.88312 -0.49012,-3.57214 -0.93,-5.24341 -0.8659,-3.29028 -1.76947,-6.57068 -2.7976,-10.37372 3.16839,0.31018 4.93634,0.48328 6.65533,0.67609 -0.0489,0.0197 -0.0279,-0.0836 0.0575,0.19922 0.4372,0.41681 0.78913,0.5509 1.06476,0.70618 -0.0762,0.0212 -0.0172,-0.12561 0.0241,0.17932 0.40399,0.39087 0.76666,0.4768 1.17902,0.64618 0.0496,0.0834 -0.008,-0.10199 -0.0364,0.2464 0.57086,0.56555 1.17041,0.78271 1.71631,1.02026 -0.0537,0.0204 -0.0339,-0.0927 0.0559,0.1922 0.45129,0.39062 0.8128,0.4964 1.1803,0.58234 0.006,-0.0198 0.0469,-0.0267 -0.0298,0.16845 0.15442,0.19885 0.38556,0.20252 0.94592,0.29743 3.54547,2.36792 6.60059,4.94091 10.03876,6.8092 2.03729,1.10706 4.80951,1.82843 7.01984,1.43219 3.64795,-0.65405 7.10858,-2.35315 10.96374,-3.6795 1.87195,-0.70569 3.42829,-1.34369 4.98456,-1.98169 z"
   id="path36" />




<path
   fill="#a34221"
   opacity="1"
   stroke="none"
   d="m 111.04352,400.80674 c 0,0 -0.0373,0.44494 -0.37237,0.91064 -1.91816,7.51172 -3.3075,14.60864 -5.14356,21.58801 -1.55524,5.91218 -3.62714,11.68842 -5.4704,17.52485 0,0 -0.0164,-0.0996 -0.296443,-0.10901 -0.76148,0.36267 -1.24292,0.73474 -1.72437,1.10687 -6e-5,-6e-5 -0.0142,-0.13251 -0.21283,-0.0293 -0.37274,0.42377 -0.54681,0.74433 -0.72082,1.06488 0,0 -0.0153,-0.10009 -0.34015,-0.13421 -1.45221,0.67737 -2.57941,1.38885 -3.70667,2.10034 0,0 -0.0156,-0.0994 -0.29578,-0.10816 -0.75946,0.3639 -1.23876,0.73664 -1.71807,1.10932 0,0 -0.0105,-0.10602 -0.28803,-0.1131 -0.75568,0.36762 -1.2337,0.74237 -1.71179,1.11707 0,0 -0.0108,-0.10889 -0.28705,-0.11664 -0.75384,0.36731 -1.23144,0.74237 -1.70904,1.11743 0,0 -0.0118,-0.10651 -0.36457,-0.13471 -3.263,0.64643 -6.17321,1.32111 -9.97052,2.20142 0.89344,-4.6922 1.57141,-8.25262 2.3382,-12.27954 -4.07575,0.8833 -7.03833,1.22699 -9.78528,2.18738 -4.66925,1.6325 -6.3822,-0.0791 -6.10681,-4.66046 0,0 0.15271,-0.1872 0.59155,-0.0837 1.38165,-0.84742 2.32453,-1.79822 3.2674,-2.74903 -0.17737,-0.54229 -0.28784,-1.52154 -0.5423,-1.56048 -3.07648,-0.47113 -6.22522,-0.58289 -9.24146,-1.28009 -1.21386,-0.2807 -2.87194,-1.67206 -3.00909,-2.72901 -0.13825,-1.06659 1.091,-2.8825 2.18915,-3.4281 3.05578,-1.51806 6.35419,-2.54797 9.55798,-3.76745 0.15326,-0.0583 0.3186,-0.0848 0.47827,-0.1261 -0.28479,-0.26294 -0.56952,-0.52594 -1.25433,-1.24658 -0.7475,-0.78485 -1.05493,-1.17377 -1.44898,-1.4289 -2.16619,-1.40252 -4.35363,-2.77221 -6.53375,-4.1532 2.64551,-0.97998 5.24402,-2.13366 7.95606,-2.86792 1.38604,-0.37524 2.9776,-0.0355 4.47284,0.0441 5.12677,0.27259 10.2575,0.81531 15.37414,0.69867 1.33985,-0.0305 3.59754,-1.92548 3.79914,-3.21893 1.93341,-12.40839 3.53179,-24.86933 5.19311,-37.31958 0.84552,-6.33643 1.62329,-12.68189 2.41748,-18.91223 6.802553,-0.6684 7.565613,-0.0861 8.636723,6.02374 0.1709,0.97485 0.63519,1.8988 0.80096,2.87396 2.27662,13.39105 8.34784,26.30066 5.15644,40.39014 -0.0353,0.156 0.0148,0.3313 0.025,0.49762 z"
   id="path41" />







<path
   fill="#112242"
   opacity="1"
   stroke="none"
   d="m 159.20887,599.47977 c 13.73205,5.58356 27.8764,9.16846 42.83032,8.38623 2.8977,-0.15149 5.75293,-1.11499 8.94568,-1.96331 2.00586,1.03405 3.69372,2.32757 5.69055,3.73986 1.53369,1.19751 2.85083,2.18897 3.96502,3.37171 2.92017,3.09973 1.92347,7.54535 -2.20111,8.45672 -4.49371,0.9928 -9.15051,1.68543 -13.74096,1.71302 -10.27118,0.0616 -20.56073,-0.1308 -30.80658,-0.78577 -2.30359,-0.14728 -4.45886,-2.61292 -6.86298,-4.71112 -2.17407,-2.70398 -3.37958,-2.64374 -4.1712,0.41107 -0.26209,1.01148 -1.73834,2.2652 -2.80292,2.41962 -6.0329,0.8753 -7.28796,-0.14264 -5.97687,-5.96558 1.15918,-5.14825 3.3794,-10.05762 5.13105,-15.07245 z"
   id="path49" />
<path
   fill="#7ac9ee"
   opacity="1"
   stroke="none"
   d="m 211.29255,22.525206 c -13.04523,-6.22033 -26.85285,-9.27742 -40.75214,-11.83694 -28.29944,-5.2112301 -56.60523,-3.9915901 -84.871103,0.51944 -0.78924,0.12596 -1.6206,-0.0125 -2.70544,-0.30989 -0.19653,-3.9177301 0.77631,-6.1053001 5.18475,-6.8492601 39.723943,-6.70368 78.919443,-5.56825 117.443363,7.0786101 7.3711,2.41985 7.34546,2.49787 5.70057,11.39804 z"
   id="path50" />


<path
   fill="#7d311b"
   opacity="1"
   stroke="none"
   d="m 185.89795,249.23527 c -3.15454,13.97814 -12.33783,22.3417 -24.86572,28.3432 -0.73999,0.0705 -0.90698,0.0738 -1.29858,-0.17728 -3.80146,-3.06882 -7.3783,-5.88312 -10.70014,-8.86704 -0.25592,-0.68188 -0.76684,-1.19415 -1.19195,-1.81124 0.0859,-0.10486 -0.0712,0.11435 -0.0208,-0.25779 -0.66607,-1.48672 -1.38256,-2.60128 -2.33191,-3.90329 -0.33618,-0.76794 -0.43945,-1.34845 -0.2796,-2.14492 0.28876,-2.39997 1.13825,-4.92481 -2.03998,-5.78348 -0.0779,-0.41968 -0.15576,-0.83933 -0.29052,-1.57657 14.69146,-1.12622 28.45825,-6.11148 42.79443,-10.3255 0.29138,2.0065 0.20111,4.04007 0.22473,6.50391 z"
   id="path53" />
<path
   fill="#7d311b"
   opacity="1"
   stroke="none"
   d="m 56.469667,175.6583 c -2.26874,14.76205 -3.08838,29.60132 1.4151,44.71903 -13.17359,-0.13535 -22.53674,-7.03544 -25.50305,-18.40546 -3.45905,-13.2583 5.18084,-24.7435 19.69116,-26.13657 1.31573,-0.12631 2.65143,-0.0439 4.39679,-0.177 z"
   id="path54" />



<path
   fill="#8f331a"
   opacity="1"
   stroke="none"
   d="m 158.8479,530.62107 c 0.21259,-3.0033 0.20716,-6.04266 0.69538,-9.00049 0.56036,-3.39538 1.55804,-6.71863 2.7232,-11.55762 -15.58172,0 -30.52759,0 -46.16565,0 -0.62426,5.49646 -1.37091,12.02533 -2.10638,18.55542 -1.5542,13.79798 -3.01929,27.60688 -4.71045,41.38794 -0.43567,3.54999 -1.57483,7.01355 -2.70282,10.54969 1.24731,-13.09882 2.95953,-26.2146 4.32672,-39.36615 1.63837,-15.76044 2.9823,-31.55152 4.64307,-47.72114 9.66693,1.10883 19.14075,2.63459 28.62506,4.09186 2.27075,0.34888 4.57654,0.46961 7.60779,0.77948 1.54968,0.0803 2.35779,0.0763 3.16589,0.0723 3.2337,0.18231 6.46741,0.36468 10.26807,0.85272 -1.7453,10.65583 -4.05762,21.00586 -6.36988,31.35596 z"
   id="path58" />





<path
   fill="#ccf5fe"
   opacity="1"
   stroke="none"
   d="m 148.77845,268.70377 c 3.5769,2.8143 7.15374,5.6286 10.60986,8.71829 -1.75916,1.63135 -3.33167,3.07819 -5.04913,4.32535 -4.25428,3.08921 -8.40729,6.38495 -12.96583,8.94913 -1.4624,0.8226 -5.33312,0.32248 -5.94592,-0.77573 -4.53509,-8.12686 -10.55774,-15.99719 -7.49353,-26.32525 0,0 0.0295,0.0196 0.27826,-0.067 0.7406,-0.70606 1.23236,-1.32553 1.72412,-1.94501 4.13727,-2.08404 8.27448,-4.16803 12.97309,-5.88177 1.05316,1.89053 1.54498,3.41082 2.0368,4.93109 0.10327,0.58053 0.20654,1.16104 0.58594,2.26532 0.93017,1.6622 1.58423,2.80063 2.23828,3.93909 0,0 0.15704,-0.21921 0.10809,0.1766 0.26734,0.82721 0.58362,1.25858 0.89997,1.68991 z"
   id="path64" />



<path
   fill="#8f331a"
   opacity="1"
   stroke="none"
   d="m 214.42554,537.61338 c 1.8382,-7.5893 3.99213,-15.3808 6.11584,-23.18054 0.54273,-1.99317 0.98938,-4.01252 1.64136,-6.6789 -15.61804,0.64344 -30.46106,1.25489 -45.75848,1.43842 -0.0245,-2.99762 0.40533,-5.56726 0.90631,-8.56159 6.34827,0 12.33411,0.33887 18.258,-0.12133 3.8316,-0.29773 7.57244,-1.76465 11.35394,-2.70765 6.94311,-1.49938 13.88629,-2.99884 21.13116,-4.6452 -4.24676,14.65247 -8.79522,29.45197 -13.64813,44.45679 z"
   id="path68" />
<path
   fill="#8f331a"
   opacity="1"
   stroke="none"
   d="m 111.38245,400.62375 c -0.34912,0.0167 -0.39929,-0.15863 -0.36395,-0.31463 3.1914,-14.08948 -2.87982,-26.99909 -5.15644,-40.39014 -0.16577,-0.97516 -0.63006,-1.89911 -0.80096,-2.87396 -1.07111,-6.10986 -1.83417,-6.69214 -8.636723,-6.02374 -0.79419,6.23034 -1.57196,12.5758 -2.41748,18.91223 -1.66132,12.45025 -3.2597,24.91119 -5.19311,37.31958 -0.2016,1.29345 -2.45929,3.18841 -3.79914,3.21893 -5.11664,0.11664 -10.24737,-0.42608 -15.37414,-0.69867 -1.49524,-0.0795 -3.0868,-0.41931 -4.47284,-0.0441 -2.71204,0.73426 -5.31055,1.88794 -7.95606,2.86792 2.18012,1.38099 4.36756,2.75068 6.53375,4.1532 0.39405,0.25513 0.70148,0.64405 1.12452,1.31342 -2.68897,-0.60761 -5.77997,-1.06653 -8.13446,-2.63269 -2.86347,-1.9046 -2.1308,-5.06385 1.29534,-6.05756 2.48023,-0.71936 5.18952,-0.83234 7.80225,-0.87561 6.79755,-0.11261 13.59809,-0.0379 21.63556,-0.0379 2.35828,-19.57642 4.74603,-39.39783 7.34003,-59.58008 7.519833,0.77289 14.833433,1.90662 22.337093,3.06982 0.40821,16.91669 -1.17181,32.84681 -5.76324,48.67395 z"
   id="path69" />








<path
   fill="#abe0fc"
   opacity="1"
   stroke="none"
   d="m 127.58484,263.56983 c -2.71515,10.35379 3.3075,18.22412 7.84259,26.35098 0.6128,1.09821 4.48352,1.59833 5.94592,0.77573 4.55854,-2.56418 8.71155,-5.85992 12.96583,-8.94913 1.71746,-1.24716 3.28997,-2.694 5.2738,-4.07083 0.51227,-0.0243 0.67926,-0.0276 1.08856,0.03 1.38599,9.58215 2.53302,19.1029 3.67041,28.62485 0.2154,1.80343 0.39246,3.61142 0.58893,5.85427 -2.54462,0.7345 -3.89276,0.11792 -4.07385,-2.9533 -0.38868,-6.59223 -1.24451,-13.15891 -1.99927,-19.72565 -0.12592,-1.09522 -0.7066,-2.13818 -0.89398,-2.67761 -5.72577,2.80194 -11.22968,5.70306 -16.90894,8.20636 -4.26166,1.87848 -7.68426,0.17325 -9.30261,-3.98908 -3.04547,-7.83282 -5.70703,-15.81491 -8.69458,-24.0975 1.27185,-1.37665 2.71002,-2.39072 4.49719,-3.37906 z"
   id="path78" />


<path
   fill="#8f331a"
   opacity="1"
   stroke="none"
   d="m 275.43491,360.60068 c 0.6697,-5.7854 0.1105,-11.51574 -2.4802,-17.11187 -2.8097,-6.0694 -6.6521,-7.60773 -13.0015,-4.85981 -6.6493,2.87769 -13.2844,5.79938 -20.0262,8.44611 -2.2568,0.88605 -4.8225,0.98498 -7.6544,1.46722 -0.6029,-1.18689 -0.7984,-2.39715 -1.0116,-3.71814 12.5816,-4.36132 23.4597,-11.57214 34.0305,-19.789 3.6586,7.00543 7.6837,13.74176 10.0911,21.01367 1.4405,4.35187 0.3498,9.54175 0.052,14.55182 z"
   id="path81" />





<path
   fill="#abe0fc"
   opacity="1"
   stroke="none"
   d="m 206.92212,258.25028 c -2.76355,14.11148 -9.13055,26.02353 -19.66339,35.57083 -4.16601,3.77616 -9.74762,2.23548 -13.6922,-5.01486 7.92078,5.9238 11.77222,0.64581 15.34107,-3.7659 6.68084,-8.25861 12.29333,-17.22427 15.005,-28.08359 0.94049,0.0754 1.8905,0.54401 3.00952,1.29352 z"
   id="path87" />



<path
   fill="#46181c"
   opacity="1"
   stroke="none"
   d="m 299.00901,32.170026 c -0.8102,0.20166 -1.8833,0.33854 -2.738,-0.0305 -7.762,-3.35113 -15.2011,-8.02066 -23.2926,-9.89502 -10.2749,-2.38011 -21.1766,-3.26675 -31.5526,0.24539 -6.8922,2.33292 -13.44888,5.65735 -20.31216,8.84766 -0.15637,0.30974 -0.63489,0.32693 -1.08807,0.22681 -0.72827,-0.28859 -0.9159,-0.54184 -1.01605,-0.8599 13.57408,-10.07547 29.09808,-12.93919 45.48288,-11.62932 12.5525,1.00353 24.1427,5.20302 34.5166,13.09491 z"
   id="path91" />

<path
   fill="#501a11"
   opacity="1"
   stroke="none"
   d="m 46.974977,84.014226 c -0.29205,3.93982 -1.06171,8.23938 -1.07221,12.54083 -0.0251,10.290224 -0.0174,20.601594 0.62415,30.864014 0.3501,5.60178 2.01807,11.12119 2.82916,16.93607 -6.25934,-13.81238 -7.31408,-28.57642 -5.90637,-43.54996 0.52033,-5.534184 2.22711,-10.956854 3.52527,-16.790954 z"
   id="path93" />

<path
   fill="#46181c"
   opacity="1"
   stroke="none"
   d="m 315.39931,124.64527 c 1.8119,-5.87897 4.5942,-11.75989 5.8973,-17.95212 1.5407,-7.321014 2.2733,-14.898654 2.4673,-22.388064 0.146,-5.63358 -1.1096,-11.30347 -1.7104,-17.38712 1.3376,7.53324 3.5573,15.47559 3.7393,23.46436 0.2786,12.232124 -2.9465,23.863164 -10.3935,34.262944 z"
   id="path95" />

<path
   fill="#8f331a"
   opacity="1"
   stroke="none"
   d="m 78.319947,240.72248 c 0.71289,-0.28385 1.90063,-0.79318 2.75067,-0.45456 15.80017,6.29385 32.171693,9.74921 49.170653,10.42184 4.08814,0.16172 8.15125,0.95545 12.46955,1.80109 -21.44385,0.4288 -42.53253,-2.84122 -62.763433,-10.90811 -0.45593,-0.18179 -0.87396,-0.45856 -1.62744,-0.86026 z"
   id="path97" />
<path
   fill="#46181c"
   opacity="1"
   stroke="none"
   d="m 228.24134,255.84629 c 3.34187,0.81582 6.95987,1.80267 10.53697,2.92081 17.1814,5.37066 33.1221,2.71682 47.9537,-7.30634 0.2321,-0.1568 0.6039,-0.10672 1.0944,0.0616 -6.7336,7.08493 -15.5867,9.83448 -24.822,10.91102 -12.0258,1.40179 -23.8157,0.15582 -34.76307,-6.58707 z"
   id="path98" />






<path
   fill="#8f331a"
   opacity="1"
   stroke="none"
   d="m 62.921207,435.33347 c -0.0394,4.39771 1.67352,6.10931 6.34277,4.47681 2.74695,-0.96039 5.70953,-1.30408 9.78528,-2.18738 -0.76679,4.02692 -1.44476,7.58734 -2.3382,12.27954 3.79731,-0.88031 6.70752,-1.55499 10.02307,-2.19067 0.32941,0.18646 0.29126,0.41363 0.17243,0.46972 -3.45722,1.6297 -7.44019,5.35712 -10.5885,1.82392 -1.62427,-1.82282 0.13818,-6.66345 0.35534,-9.91522 -2.74054,0.4356 -6.40014,1.35363 -10.09375,1.52038 -4.73645,0.21381 -5.49633,-1.23193 -3.65844,-6.2771 z"
   id="path105" />
<path
   fill="#8f331a"
   opacity="1"
   stroke="none"
   d="m 100.3982,440.76292 c 1.50225,-5.76911 3.57415,-11.54535 5.12939,-17.45753 1.83606,-6.97937 3.2254,-14.07629 5.07666,-21.375 -1.15747,7.82898 -2.52582,15.92133 -4.03229,23.98786 -0.78723,4.21558 -1.81744,8.38568 -2.74005,12.96515 -1.03247,0.86322 -2.06262,1.33771 -3.43371,1.87952 z"
   id="path106" />

<path
   fill="#46181c"
   opacity="1"
   stroke="none"
   d="m 322.36111,194.49979 c -0.2951,-0.55923 -0.5803,-1.46554 -0.2516,-1.97754 7.6378,-11.89459 8.2892,-23.82907 0.4049,-35.88888 -0.2592,-0.39643 -0.2909,-0.94147 -0.4236,-1.78708 8.6404,8.54999 10.061,23.02011 3.435,34.88171 -0.8815,1.57794 -1.9092,3.07428 -3.1647,4.77179 z"
   id="path108" />






<path
   fill="#501a11"
   opacity="1"
   stroke="none"
   d="m 78.245847,43.419466 c -0.53735,7.49348 -1.36603,14.9285 -2.19604,22.77536 -0.32965,-1.76324 -0.99939,-3.95203 -0.91284,-6.11044 0.16259,-4.05422 0.76233,-8.09087 1.21624,-12.48302 -1.62854,0 -2.68689,0 -4.12445,-0.0259 1.65589,-1.42208 3.69086,-2.81826 6.01709,-4.15597 z"
   id="path115" />
<path
   fill="#46181c"
   opacity="1"
   stroke="none"
   d="m 293.08031,222.18607 c -3.716,-1.35742 -5.0209,-4.90353 -3.8568,-8.17856 0.9631,-2.71005 3.6027,-5.42782 6.2067,-6.77887 2.5295,-1.31243 5.9593,-0.89019 9.2629,-0.97159 -1.4696,0.67826 -3.1897,1.21348 -4.9502,1.49946 -9.5541,1.552 -11.6766,5.95266 -6.6626,14.42956 z"
   id="path116" />

<path
   fill="#46181c"
   opacity="1"
   stroke="none"
   d="m 318.97611,151.21811 c -5.0044,-1.88085 -10.2947,-3.80188 -15.26,-6.35467 -3.9194,-2.01498 -3.4687,-4.47864 1.1213,-7.33011 -0.7058,1.38641 -1.5929,2.5538 -2.8967,4.26971 5.8125,3.13257 11.3512,6.11753 17.0354,9.41507 z"
   id="path118" />
<path
   fill="#46181c"
   opacity="1"
   stroke="none"
   d="m 293.36551,245.56876 c 0.018,-1.42206 0.1422,-3.10214 0.7011,-4.62231 2.2289,-6.06174 1.7192,-11.92078 -0.977,-18.07303 5.2779,5.32617 5.4839,13.41373 0.2759,22.69534 z"
   id="path119" />
<path
   fill="#46181c"
   opacity="1"
   stroke="none"
   d="m 322.09851,66.160986 c -3.3159,-6.37772 -6.6883,-13.15418 -10.0275,-20.31044 3.3459,6.38401 6.6585,13.14784 10.0275,20.31044 z"
   id="path120" />



<path
   fill="#501a11"
   opacity="1"
   stroke="none"
   d="m 71.572997,47.611296 c -0.59051,1.10637 -1.39136,2.42397 -2.44147,3.49791 -2.81066,2.87453 -5.72821,5.64464 -8.96038,8.46279 3.45459,-3.94909 7.26623,-7.9048 11.40185,-11.9607 z"
   id="path124" />

<path
   fill="#8f331a"
   opacity="1"
   stroke="none"
   d="m 210.97193,549.25486 c 0.77276,-3.51428 1.66943,-7.37665 2.90088,-11.38794 -0.70252,3.58069 -1.73981,7.31024 -2.90088,11.38794 z"
   id="path126" />

<path
   fill="#7d311b"
   opacity="1"
   stroke="none"
   d="m 57.919737,161.06357 c -0.0194,2.50925 -0.0181,5.42658 -0.38751,8.42719 -0.11121,-2.61749 0.1485,-5.31827 0.38751,-8.42719 z"
   id="path128" />
<path
   fill="#8f331a"
   opacity="1"
   stroke="none"
   d="m 145.20929,260.41691 c -0.75494,-1.30433 -1.24676,-2.82462 -1.98675,-4.60007 -0.24817,-0.25519 -0.17041,-0.72369 -0.11182,-0.95355 3.23682,0.62881 2.38733,3.15365 2.09857,5.55362 z"
   id="path129" />


<path
   fill="#46181c"
   opacity="1"
   stroke="none"
   d="m 312.05661,45.192416 c -1.6047,-1.46015 -3.2988,-3.24443 -5.0005,-5.39218 1.6319,1.44702 3.2715,3.25752 5.0005,5.39218 z"
   id="path132" />


<path
   fill="#46181c"
   opacity="1"
   stroke="none"
   d="m 307.38331,135.5377 c 0.8431,-1.49952 1.9805,-3.13288 3.4557,-4.75824 -0.8285,1.54678 -1.995,3.0856 -3.4557,4.75824 z"
   id="path135" />



<path
   fill="#46181c"
   opacity="1"
   stroke="none"
   d="m 211.11481,30.626526 c -0.048,-0.17152 -0.096,-0.34303 -0.14618,-0.7818 2.01441,0.19216 4.03101,0.65157 6.1709,1.40819 -0.31018,0.32889 -0.74359,0.36057 -1.17706,0.39226 -0.73914,-10e-4 -1.47834,-0.003 -2.74408,-0.241 -1.05225,-0.41736 -1.57788,-0.5975 -2.10358,-0.77765 z"
   id="path139" />



<path
   fill="#46181c"
   opacity="1"
   stroke="none"
   d="m 311.42851,130.68699 c 0.4737,-1.2103 1.2401,-2.56278 2.3654,-3.92029 -0.4516,1.25604 -1.2622,2.51709 -2.3654,3.92029 z"
   id="path143" />


<path
   fill="#8f331a"
   opacity="1"
   stroke="none"
   d="m 93.392087,444.76292 c 0.79108,-0.6446 1.91828,-1.35608 3.41748,-2.01478 -0.77911,0.68451 -1.93017,1.31623 -3.41748,2.01478 z"
   id="path146" />
<path
   fill="#46181c"
   opacity="1"
   stroke="none"
   d="m 322.01641,154.22516 c -0.9141,-0.45715 -1.9471,-1.20562 -2.9574,-2.34384 0.9611,0.42432 1.8997,1.23844 2.9574,2.34384 z"
   id="path147" />
<path
   fill="#8f331a"
   opacity="1"
   stroke="none"
   d="m 66.712647,432.43302 c -0.6394,0.8349 -1.58228,1.7857 -2.86743,2.56036 0.62634,-0.93231 1.59515,-1.68835 2.86743,-2.56036 z"
   id="path148" />
<path
   fill="#46181c"
   opacity="1"
   stroke="none"
   d="m 302.18381,34.550076 c -0.8982,-0.3199 -1.9797,-0.86041 -3.0556,-1.75825 0.9611,0.27432 1.9167,0.90599 3.0556,1.75825 z"
   id="path149" />

<path
   fill="#46181c"
   opacity="1"
   stroke="none"
   d="m 291.31741,248.50544 c 0.2044,-0.83005 0.6811,-1.80475 1.4656,-2.78726 -0.1927,0.87567 -0.693,1.75912 -1.4656,2.78726 z"
   id="path151" />



<path
   fill="#501a11"
   opacity="1"
   stroke="none"
   d="m 216.17163,31.908536 c 0.22431,-0.29505 0.65772,-0.32673 1.29102,-0.4366 0.39868,-0.24328 0.59741,-0.40838 1.17151,-0.67048 0.47552,0.22104 0.66315,0.47429 1.15222,0.77283 -0.99249,0.27258 -2.19903,0.4351 -3.61475,0.33425 z"
   id="path155" />



<path
   fill="#abe0fc"
   opacity="1"
   stroke="none"
   d="m 129.6211,261.64683 c -0.17658,0.55618 -0.66834,1.17565 -1.41999,1.87725 0.19501,-0.54989 0.64985,-1.18191 1.41999,-1.87725 z"
   id="path159" />
<path
   fill="#46181c"
   opacity="1"
   stroke="none"
   d="m 305.05771,37.306426 c -0.7639,-0.31389 -1.6392,-0.88905 -2.3675,-1.78021 0.8502,0.29564 1.5531,0.90729 2.3675,1.78021 z"
   id="path160" />


<path
   fill="#7d311b"
   opacity="1"
   stroke="none"
   d="m 57.013187,172.07773 c 0.18579,0.80005 0.31079,1.98447 0.14813,3.33164 -0.26141,-0.87393 -0.23517,-1.91059 -0.14813,-3.33164 z"
   id="path163" />


<path
   fill="#0d132c"
   opacity="1"
   stroke="none"
   d="m 85.297487,608.06577 c 0.6532,-0.47467 1.30639,-0.94934 2.30011,-1.44641 0.34057,-0.0225 0.42657,0.0687 0.37683,0.38574 -0.69763,0.75696 -1.34546,1.1969 -2.15411,1.48072 -0.16077,-0.15601 -0.52283,-0.42005 -0.52283,-0.42005 z"
   id="path166" />




<path
   fill="#0d132c"
   opacity="1"
   stroke="none"
   d="m 83.856017,609.51127 c 0,0 0.10358,-0.41645 0.15936,-0.62348 0.38697,-0.20343 0.66797,-0.32019 1.09046,-0.68976 0.19165,-0.13226 0.55371,0.13178 0.55743,0.5376 -0.54565,0.58545 -1.09503,0.76508 -1.68512,0.90241 -0.0407,-0.0422 -0.12213,-0.12677 -0.12213,-0.12677 z"
   id="path171" />


<path
   fill="#0d132c"
   opacity="1"
   stroke="none"
   d="m 88.605837,605.64109 c 0.62018,0.0787 1.00482,0.22607 1.21148,0.65515 -0.71643,0.31842 -1.25476,0.3551 -1.79315,0.39178 0,0 -0.086,-0.0911 -0.12939,-0.13629 -0.009,-0.401 0.16406,-0.66662 0.71106,-0.91064 z"
   id="path174" />
<path
   fill="#8f331a"
   opacity="1"
   stroke="none"
   d="m 91.355107,445.76462 c 0.16626,-0.30633 0.64556,-0.67907 1.4544,-1.0332 -0.16076,0.33466 -0.65106,0.65076 -1.4544,1.0332 z"
   id="path175" />
<path
   fill="#8f331a"
   opacity="1"
   stroke="none"
   d="m 87.359377,447.76804 c 0.16437,-0.30737 0.64197,-0.68243 1.44946,-1.039 -0.15881,0.33612 -0.64746,0.65375 -1.44946,1.039 z"
   id="path176" />
<path
   fill="#8f331a"
   opacity="1"
   stroke="none"
   d="m 89.355347,446.76743 c 0.16498,-0.30719 0.643,-0.68194 1.45081,-1.03882 -0.15943,0.3357 -0.64856,0.65351 -1.45081,1.03882 z"
   id="path177" />
<path
   fill="#8f331a"
   opacity="1"
   stroke="none"
   d="m 274.34401,362.70615 c -0.1179,-0.47058 0.055,-1.09448 0.532,-1.86456 0.1222,0.47302 -0.059,1.09216 -0.532,1.86456 z"
   id="path178" />


<path
   fill="#8f331a"
   opacity="1"
   stroke="none"
   d="m 98.350827,441.76316 c 0.167,-0.30719 0.64844,-0.67926 1.45954,-1.03259 -0.16199,0.33502 -0.65351,0.6513 -1.45954,1.03259 z"
   id="path181" />

<path
   fill="#46181c"
   opacity="1"
   stroke="none"
   d="m 314.39241,126.66031 c -0.1237,-0.4552 0.032,-1.0574 0.4758,-1.80529 0.1272,0.45565 -0.035,1.057 -0.4758,1.80529 z"
   id="path183" />







<path
   fill="#7d311b"
   opacity="1"
   stroke="none"
   d="m 186.25959,242.68876 c 0.006,-0.14472 0.23657,-0.31119 0.55828,-0.32178 0.0916,0.15585 -0.33447,0.30005 -0.55828,0.32178 z"
   id="path191" />















<path
   fill="#7d311b"
   opacity="1"
   stroke="none"
   d="m 57.220457,159.87024 c -0.0265,-0.22915 0.37433,-0.23681 0.57477,-0.22476 0.18768,0.18747 0.17499,0.36292 0.15009,0.80225 -0.28778,0.11233 -0.51655,-0.0917 -0.72486,-0.57749 z"
   id="path207" />


<path
   fill="#8f331a"
   opacity="1"
   stroke="none"
   d="m 97.359007,442.75913 c -0.0823,-0.216 0.0918,-0.53656 0.53101,-0.95569 0.0851,0.21796 -0.0948,0.53455 -0.53101,0.95569 z"
   id="path210" />












<path
   fill="#501a11"
   opacity="1"
   stroke="none"
   d="m 84.186767,139.64695 c 3.18054,-1.03452 5.96613,-2.30805 8.86511,-2.66791 2.33991,-0.29043 5.08643,-0.0153 7.145213,1.01886 1.56878,0.78812 2.34228,3.15952 3.4696,4.82654 -1.63635,0.92502 -3.17895,2.29977 -4.932073,2.6654 -2.39184,0.49887 -5.0943,-0.28274 -7.39667,0.39353 -5.00708,1.47058 -9.84838,3.50796 -14.75012,5.33352 -1.28027,0.47684 -2.53344,1.02655 -4.77258,1.93991 1.67688,-7.70886 7.31946,-10.10269 12.37152,-13.50985 z"
   id="path223" />
<path
   fill="#112242"
   opacity="1"
   stroke="none"
   d="m 91.445867,178.10355 c 1.05682,-4.06631 2.33483,-7.4751 7.00567,-7.57892 3.749763,-0.0833 5.677253,2.08237 6.756353,5.431 1.42462,4.42142 0.55218,8.3154 -2.94891,11.25223 -3.281863,2.75305 -8.081853,1.2717 -9.811533,-2.94141 -0.73028,-1.77874 -0.75238,-3.8482 -1.00158,-6.1629 z"
   id="path224" />
<path
   fill="#112242"
   opacity="1"
   stroke="none"
   d="m 173.72309,171.59842 c 3.86877,4.33518 4.32855,8.8845 1.84442,13.57087 -1.69904,3.20523 -4.50281,4.28125 -7.98371,2.72711 -4.1455,-1.85083 -5.91198,-7.41855 -4.00543,-12.49133 1.81183,-4.82059 4.12604,-5.77338 10.14472,-3.80665 z"
   id="path225" />
<path
   fill="#501a11"
   opacity="1"
   stroke="none"
   d="m 173.61927,138.66651 c 7.36102,1.5051 13.2052,4.87534 17.98486,11.19696 -1.33746,0 -2.6919,0.13803 -4.00946,-0.0237 -5.95697,-0.73139 -11.89179,-1.66065 -17.85889,-2.28565 -3.02026,-0.31637 -7.12854,0.94083 -7.49798,-3.49847 -0.36463,-4.38168 3.78759,-4.74033 6.98993,-5.37879 1.27331,-0.25384 2.64013,-0.0388 4.39154,-0.0103 z"
   id="path226" />
<path
   fill="#5a2316"
   opacity="1"
   stroke="none"
   d="m 161.60205,212.06186 c -5.96203,7.97889 -13.48358,12.10798 -23.27178,11.48075 -1.30121,-0.0834 -2.69715,-0.22418 -3.83851,-0.77497 -0.88928,-0.42916 -1.45117,-1.53692 -2.15857,-2.34307 1.06495,-0.53644 2.23139,-1.67511 3.17896,-1.51532 8.55566,1.44244 15.56238,-1.00177 21.37085,-7.49256 2.38714,-2.66751 2.92975,-2.41528 4.71905,0.64517 z"
   id="path227" />
<path
   fill="#5a2316"
   opacity="1"
   stroke="none"
   d="m 112.9375,197.36375 c -0.63257,-5.52555 1.9646,-8.98835 5.93531,-11.5936 0.77508,-0.50858 2.07782,-0.21302 3.13714,-0.2883 -0.25085,1.11099 -0.30816,2.32135 -0.81183,3.30255 -0.43066,0.83887 -1.40423,1.38599 -2.08477,2.11172 -4.50629,4.80613 -3.71747,8.06449 3.12201,12.9708 -4.91358,1.18509 -7.76246,-0.68134 -9.29786,-6.50317 z"
   id="path228" />
<path
   fill="#501a11"
   opacity="1"
   stroke="none"
   d="m 256.88511,168.97413 c 0.4149,-0.0974 1.0585,0.0364 1.8834,0.4512 -0.4306,0.11398 -1.0427,-0.053 -1.8834,-0.4512 z"
   id="path229" />




















































<path
   fill="#501a11"
   opacity="1"
   stroke="none"
   d="m 211.0434,31.053606 c 0.59711,-0.24693 1.12274,-0.0668 1.80548,0.3513 -0.51172,4.7912 -1.36804,9.32624 -1.8125,13.90129 -1.11859,11.5131 -2.04565,23.04473 -3.06195,34.56783 -0.31586,3.58176 -3.48877,3.91446 -8.43518,2.37463 -10.97412,-3.41626 -22.01618,-6.83685 -33.26367,-9.09289 -12.25879,-2.45883 -24.73938,-4.08469 -37.20197,-5.1687 -10.00458,-0.87024 -20.12829,-0.54892 -30.196293,-0.45295 -7.11267,0.0678 -14.21972,0.6662 -21.3327,0.9372 -0.45245,0.0172 -0.93475,-0.74939 -1.4624,-1.53085 7.82769,-0.7013 15.71179,-1.15265 23.60205,-1.32264 34.818303,-0.75015 75.532713,4.93576 106.341733,16.23749 1.66169,-16.92404 3.30384,-33.64934 5.0174,-50.80171 z"
   id="path282" />
<path
   fill="#064b7b"
   opacity="1"
   stroke="none"
   d="m 229.45356,386.70432 c 1.26825,-0.3703 2.53645,-0.7406 4.20555,-0.72644 2.9573,8.12122 5.514,15.85791 8.0706,23.59454 -2.0844,1.98621 -3.8261,4.83881 -6.3078,5.82056 -18.60373,7.35932 -37.31503,14.45313 -56.07761,21.40082 -6.87152,2.54443 -9.64581,1.44024 -13.92743,-4.61096 -0.46374,-0.84113 -0.65619,-1.22412 -0.95111,-1.93274 -0.4834,-0.81336 -0.86438,-1.30115 -1.21118,-1.82898 0.0342,-0.0401 0.0235,-0.14496 0.0235,-0.14496 -1.48553,-5.02264 -2.75311,-10.12213 -4.4939,-15.05469 -8.08703,-22.91534 -16.36078,-45.76483 -24.44574,-68.68085 -2.76556,-7.8388 -2.65606,-14.057 8.18018,-16.97888 1.90808,-0.51452 3.75378,-1.26031 6.14996,-1.64953 0.76813,2.04809 1.01459,3.84625 0.99414,5.70575 -0.62994,0.0775 -0.99292,0.0937 -1.7691,0.085 -3.15955,1.41589 -5.90595,2.85657 -8.67169,4.21753 -0.0194,-0.0798 0.13488,-0.0235 -0.23597,0.009 -0.54467,1.92249 -1.36193,4.03571 -0.79528,5.66858 7.77252,22.39532 15.6972,44.73828 23.71283,67.04797 0.79919,2.22425 2.43805,4.14679 3.76263,6.33765 0.0755,0.12817 0.0477,0.4245 -0.17779,0.77978 0.96148,4.17859 2.02795,8.04627 3.40557,11.79969 0.43982,1.19848 1.70478,2.09417 2.74183,3.22436 0.14959,0.096 0.30432,0.41596 0.12518,0.61792 0.28186,0.24201 0.74292,0.28211 1.58148,0.27497 2.50946,-0.1847 4.79767,0.1242 6.73969,-0.55579 3.664,-1.2829 7.0664,-3.29279 10.68737,-4.72205 13.38843,-5.28448 26.83777,-10.41436 40.23084,-15.68731 6.2292,-2.45252 6.3811,-3.09284 4.0033,-9.12195 -1.9429,-4.92639 -3.7068,-9.92334 -5.55005,-14.88904 z"
   id="path283" />
<path
   fill="#6b8da1"
   opacity="1"
   stroke="none"
   d="m 149.92969,331.55668 c -0.24652,-1.79822 -0.49298,-3.59638 -0.89014,-5.69489 -0.99206,-5.13714 1.52826,-7.61987 5.79663,-9.04266 3.26648,-1.08887 6.45972,-2.39728 9.94751,-3.844 4.14295,-1.4982 7.99647,-2.85485 11.91272,-3.99633 3.94141,-1.14878 7.52491,-0.85587 9.83301,3.7998 0.57019,2.70709 1.03174,4.91998 1.60767,7.49152 -1.5556,2.18518 -2.88635,4.76422 -4.95856,5.69775 -6.34717,2.85956 -13.08069,4.85394 -19.46832,7.63416 -5.21057,2.26794 -9.77704,2.65136 -13.78052,-2.04535 z"
   id="path284" />
<path
   fill="#abe0fc"
   opacity="1"
   stroke="none"
   d="m 164.56824,430.57572 c 0.19244,0.383 0.38489,0.76599 0.57971,1.36688 -3.35119,22.04144 -6.70477,43.86511 -10.12829,66.07923 -0.87805,0.39453 -1.68616,0.39849 -2.7782,0.29626 1.05713,-9.2406 2.3399,-18.38415 3.75305,-27.50757 2.16846,-13.99975 4.42657,-27.98559 6.96509,-42.25586 0.31848,-0.2785 0.32916,-0.17364 0.2503,0.22913 0.40021,0.86578 0.87928,1.32886 1.35834,1.79193 z"
   id="path285" />
<path
   fill="#abe0fc"
   opacity="1"
   stroke="none"
   d="m 119.97254,344.10904 c -0.55066,2.23914 -1.09265,4.03766 -1.63465,5.83619 -0.62445,-0.092 -1.24884,-0.18415 -1.87329,-0.27625 0.70484,-14.64276 1.40967,-29.28558 2.11451,-43.92834 0.46734,0.0108 0.93469,0.0217 1.40203,0.0325 0,12.63177 0,25.26355 -0.009,38.33587 z"
   id="path286" />
<path
   fill="#7ac9ee"
   opacity="1"
   stroke="none"
   d="m 148.23352,471.42856 c -1.25384,-1.63159 -2.71502,-3.16394 -2.78997,-4.76135 -0.0435,-0.9248 2.04168,-2.51404 3.36267,-2.75897 1.04895,-0.19452 3.04547,0.91705 3.48516,1.93799 1.44874,3.36371 -0.17517,5.24579 -4.05786,5.58233 z"
   id="path287" />
<path
   fill="#7ac9ee"
   opacity="1"
   stroke="none"
   d="m 152.67749,433.10776 c 1.26795,1.95227 2.31006,3.74482 2.90064,5.67548 0.0724,0.23663 -2.44928,1.91693 -3.45337,1.66595 -1.21698,-0.30413 -3.11658,-2.22461 -2.91846,-2.96063 0.44641,-1.6582 2.00318,-3.01758 3.47119,-4.3808 z"
   id="path288" />
<path
   fill="#7ac9ee"
   opacity="1"
   stroke="none"
   d="m 151.84363,299.89588 c 1.82813,0.42142 3.88983,0.70569 4.69391,1.8634 0.49469,0.71228 -0.74072,2.88993 -1.59522,4.13865 -0.31671,0.46273 -2.54736,0.31606 -2.57855,0.16787 -0.41095,-1.95029 -0.58447,-3.95059 -0.52014,-6.16992 z"
   id="path289" />



<path
   fill="#fcfdfd"
   opacity="1"
   stroke="none"
   d="m 158.87586,531.01279 c 2.2843,-10.74182 4.59662,-21.09185 6.76758,-31.81573 3.05456,-0.10657 6.25048,0.16064 9.79382,0.81415 0.0247,3.48419 -0.29804,6.58215 -0.62067,9.68005 -1.61737,7.05414 -3.23474,14.10821 -4.90668,21.95679 -1.18225,6.54119 -2.35876,12.2788 -3.42816,18.03631 -2.97625,16.02436 -5.90808,32.05695 -9.12481,48.28266 -1.95343,7.65423 -3.63947,15.11218 -5.32544,22.57006 -5.3498,0.43378 -10.69965,0.86756 -15.48584,0.90473 3.54486,-0.53162 6.57294,-0.40704 9.48382,-0.93219 1.12909,-0.2038 2.8219,-1.85816 2.8443,-2.88263 0.15216,-6.95734 -0.57739,-13.8006 -4.67224,-19.79462 4.90076,-22.14257 9.80158,-44.28521 14.67432,-66.81958 z"
   id="path293" />
<path
   fill="#7d311b"
   opacity="1"
   stroke="none"
   d="m 175.10096,509.66752 c 0.0383,-3.07416 0.36096,-6.17212 0.77185,-9.65277 10.13794,-1.01496 20.18756,-1.64716 30.65344,-2.24622 -3.36524,0.97626 -7.10608,2.44318 -10.93768,2.74091 -5.92389,0.4602 -11.90973,0.12133 -18.258,0.12133 -0.50098,2.99433 -0.93085,5.56397 -1.36822,8.55432 -0.19727,0.43335 -0.38709,0.44605 -0.86139,0.48243 z"
   id="path294" />
<path
   fill="#1d3c61"
   opacity="1"
   stroke="none"
   d="m 241.86721,409.23704 c -2.6941,-7.40125 -5.2508,-15.13794 -7.8676,-23.2453 0.1067,-0.44153 0.2734,-0.51233 0.7052,-0.64478 2.403,5.41009 4.7209,10.82141 6.5905,16.38336 0.746,2.21918 0.5024,4.77094 0.5719,7.50672 z"
   id="path295" />





<path
   fill="#7ac9ee"
   opacity="1"
   stroke="none"
   d="m 140.14533,15.565936 c 2.8648,-0.14188 4.12878,0.6757 3.97955,3.42119 -0.19653,3.61447 -0.0482,7.24769 -0.0482,11.1166 4.38965,0.667 8.43952,1.28235 13.10981,1.99198 -0.39661,3.71742 -0.77576,7.27164 -1.22382,11.47125 -3.70184,0 -7.13654,0.15619 -10.5495,-0.0489 -2.77905,-0.16701 -3.91028,1.10461 -4.28784,3.625 -0.51221,3.41845 -1.12995,6.82109 -1.79779,10.79872 -4.19129,-0.51529 -8.05945,-0.99086 -12.28888,-1.51084 0.55292,-4.4682 1.05395,-8.51756 1.61865,-13.08062 -4.46539,-0.66339 -8.80872,-1.30866 -13.78442,-2.04789 0.22204,-3.84153 0.43652,-7.55162 0.67376,-11.65521 4.08667,0 7.58173,-0.27313 11.01496,0.0707 4.08667,0.40929 5.21716,-1.57518 5.43329,-5.14047 0.1892,-3.12059 0.7799,-6.21681 1.26123,-9.83502 2.33209,0.28956 4.39068,0.54516 6.88922,0.8235 z"
   id="path301" />

















































<path
   fill="#064b7b"
   opacity="1"
   stroke="none"
   d="m 224.23987,350.97825 c -1.48443,0.9458 -3.04077,1.5838 -4.99145,1.95074 -4.44269,-11.18585 -8.60572,-22.06012 -12.48413,-33.03503 -1.61231,-4.56263 -4.05372,-6.49347 -8.98291,-4.64374 -1.60004,0.47412 -2.98212,1.21625 -4.37171,1.97375 -0.008,0.0154 0.0114,0.0441 -0.31616,-0.13775 -1.85474,-0.66461 -3.38184,-1.14734 -4.90894,-1.63007 0.0801,-0.80597 0.1601,-1.61194 0.24018,-2.41791 6.18609,-1.11294 12.37219,-2.22592 18.55829,-3.33886 1.638,2.36523 3.81683,4.52246 4.82025,7.13177 4.30993,11.20734 8.27435,22.54755 12.43658,34.1471 z"
   id="path351" />
<path
   fill="#112242"
   opacity="1"
   stroke="none"
   d="m 206.71118,309.46006 c -5.91424,1.35226 -12.10034,2.46524 -18.28643,3.57818 -0.0801,0.80597 -0.1601,1.61194 -0.24018,2.41791 1.5271,0.48273 3.0542,0.96546 4.60505,1.78815 -1.57313,1.11566 -3.16999,1.89142 -4.76685,2.66717 -0.46161,-2.21289 -0.92316,-4.42578 -1.19696,-6.9299 4.01593,-1.62249 7.76685,-3.31768 11.70032,-4.1531 2.49731,-0.53046 5.26617,0.21756 8.18505,0.63159 z"
   id="path352" />
<path
   fill="#abe0fc"
   opacity="1"
   stroke="none"
   d="m 171.15039,286.49845 c -0.0236,0.73733 -0.26611,1.25915 -0.50878,1.78091 -0.42579,-0.42035 -0.85163,-0.84066 -1.27747,-1.26101 0.5224,-0.24512 1.04486,-0.49027 1.78625,-0.5199 z"
   id="path353" />
<path
   fill="#8f331a"
   opacity="1"
   stroke="none"
   d="m 229.52179,349.44724 c -0.85248,0.66608 -2.05621,1.38892 -3.6579,2.07288 0.83686,-0.69794 2.07178,-1.357 3.6579,-2.07288 z"
   id="path354" />
<path
   fill="#8f331a"
   opacity="1"
   stroke="none"
   d="m 231.62351,348.56748 c -0.1917,0.29675 -0.6924,0.6344 -1.521,0.93933 0.1855,-0.32135 0.6988,-0.60992 1.521,-0.93933 z"
   id="path355" />
<path
   fill="#abe0fc"
   opacity="1"
   stroke="none"
   d="m 165.44324,283.08158 c 0.0601,-0.0364 -0.0601,0.0364 0,0 z"
   id="path356" />



<path
   fill="#0d132c"
   opacity="1"
   stroke="none"
   d="m 129.14588,619.8165 c -2.73291,0.86389 -5.46478,2.4618 -8.19892,2.46558 -12.2666,0.0169 -24.544063,-0.20514 -36.796573,-0.78497 -5.91546,-0.27991 -7.11725,-2.66913 -4.78784,-8.18036 0.38532,-0.0507 0.62158,0.32489 0.62195,0.71789 -0.10913,6.1446 4.8349,6.34595 8.11084,6.37531 13.611573,0.12195 27.229553,-0.4773 40.896613,-0.75739 0.0515,0.0545 0.15393,0.16394 0.15393,0.16394 z"
   id="path360" />
<path
   fill="#0d132c"
   opacity="1"
   stroke="none"
   d="m 152.26709,620.60789 c 1.45038,-7.52869 3.13642,-14.98664 5.25245,-22.4159 0.75134,0.20343 1.07269,0.3783 1.39404,0.55316 0,0 0.14911,0.36737 0.22223,0.55097 -1.67859,5.19848 -3.89881,10.10785 -5.05799,15.2561 -1.31109,5.82294 -0.056,6.84088 5.97687,5.96558 1.06458,-0.15442 2.54083,-1.40814 2.80292,-2.41962 0.79162,-3.05481 1.99713,-3.11505 4.06146,-0.74231 -0.42053,-0.002 -0.91186,-0.37158 -1.67725,-0.94806 -0.42822,1.81342 -0.8139,3.44684 -1.24194,5.25983 -3.16015,0 -6.19195,0 -9.85785,-0.0415 -0.63415,-0.0415 -1.11462,-0.16888 -1.11462,-0.16888 -0.0111,-0.36993 -0.18598,-0.62946 -0.76032,-0.84936 z"
   id="path361" />
<path
   fill="#0d132c"
   opacity="1"
   stroke="none"
   d="m 144.05555,598.07035 c 4.24084,5.75604 4.97039,12.5993 4.81823,19.55664 -0.0224,1.02447 -1.71521,2.67883 -2.8443,2.88263 -2.91088,0.52515 -5.93896,0.40057 -9.2619,0.70959 -0.82739,-1.48461 -1.31317,-3.14325 -1.78845,-5.195 0.0104,-0.39313 0.0467,-0.42096 0.33002,-0.20111 2.96991,4.65741 4.76062,4.88397 13.55896,1.26373 -2.04566,-5.83008 -4.12409,-11.75336 -6.20252,-17.6767 0.41468,-0.36725 0.82929,-0.73456 1.38996,-1.33978 z"
   id="path362" />
<path
   fill="#0d132c"
   opacity="1"
   stroke="none"
   d="m 133.05432,615.7125 c -1.10205,1.29175 -2.2041,2.5835 -3.60729,3.98962 -0.30115,0.11438 -0.40363,0.005 -0.41376,-0.38855 1.29266,-1.50372 2.59546,-2.61401 3.92865,-3.69311 0.0304,0.0311 0.0924,0.092 0.0924,0.092 z"
   id="path363" />
<path
   fill="#0d132c"
   opacity="1"
   stroke="none"
   d="m 135.00934,615.62266 c -0.39282,-0.0673 -0.80542,-0.12604 -1.58655,-0.0475 -0.36847,0.13733 -0.43048,0.0764 -0.41119,-0.24921 0.68433,-0.12463 1.3493,0.0763 2.01428,0.27729 0,0 -0.0364,0.0278 -0.0165,0.0194 z"
   id="path364" />
<path
   fill="#0d132c"
   opacity="1"
   stroke="none"
   d="m 81.474187,611.16984 c 0.60125,-0.5066 1.20257,-1.01313 2.09283,-1.58918 0.289,-0.0694 0.37042,0.0151 0.36328,0.37549 -0.65478,0.80158 -1.30255,1.2428 -2.07525,1.56482 -0.12494,-0.11926 -0.38086,-0.35113 -0.38086,-0.35113 z"
   id="path365" />
<path
   fill="#fcfdfd"
   opacity="1"
   stroke="none"
   d="m 153.07941,621.63987 c -0.052,-0.18262 0.42847,-0.0552 0.65595,0.0449 -0.0496,0.11267 -0.32679,0.12512 -0.65595,-0.0449 z"
   id="path366" />
<path
   fill="#0d132c"
   opacity="1"
   stroke="none"
   d="m 80.273067,612.17185 c 0.24647,-0.24719 0.49292,-0.49438 0.97028,-0.87183 0.23084,-0.13018 0.48676,0.10169 0.51038,0.4455 -0.17487,0.62506 -0.44092,0.80823 -0.94446,0.76666 -0.16998,-0.12665 -0.5362,-0.34027 -0.5362,-0.34033 z"
   id="path367" />
<path
   fill="#0d132c"
   opacity="1"
   stroke="none"
   d="m 79.661137,613.06187 c 0.007,-0.41132 0.14367,-0.58436 0.46777,-0.80665 0.14416,-0.0833 0.51038,0.13031 0.57934,0.48108 -0.12982,0.62946 -0.39416,0.81433 -0.72412,0.90534 0,0 -0.23626,-0.37561 -0.32299,-0.57977 z"
   id="path368" />


<path
   fill="#112242"
   opacity="1"
   stroke="none"
   d="m 79.984497,614.03464 c 0.32959,-0.48401 0.59393,-0.66888 0.89368,-1.17163 0.43463,-0.30926 0.70068,-0.49243 1.00048,-0.99829 0.74909,-0.66577 1.39686,-1.10699 2.09241,-1.86633 0.59717,-0.49768 1.14655,-0.67731 1.85297,-1.10669 0.80493,-0.6897 1.45276,-1.12964 2.15039,-1.8866 0.58813,-0.35376 1.12646,-0.39044 2.06824,-0.49548 18.299683,3.02081 35.586673,1.52722 52.285953,-7.01062 2.4154,5.83447 4.49383,11.75775 6.53949,17.58783 -8.79834,3.62024 -10.58905,3.39368 -13.55896,-1.26373 -0.94825,-0.42084 -1.61322,-0.62177 -2.32794,-0.5282 -1.35248,1.40466 -2.65528,2.51495 -3.9994,3.96417 -13.65692,0.67358 -27.2749,1.27283 -40.886473,1.15088 -3.27594,-0.0294 -8.21997,-0.23071 -8.11084,-6.37531 z"
   id="path371" />
<path
   fill="#8f331a"
   opacity="1"
   stroke="none"
   d="m 158.93567,598.32883 c -0.34344,0.24146 -0.66479,0.0666 -1.14874,-0.33325 2.78674,-16.25427 5.71857,-32.28686 8.69482,-48.31122 1.0694,-5.75751 2.24591,-11.49512 3.48029,-17.62958 -0.26605,4.23316 -0.25775,8.92292 -1.0791,13.46271 -3.16449,17.49103 -6.59424,34.93415 -9.94727,52.81134 z"
   id="path372" />
<path
   fill="#fcfdfd"
   opacity="1"
   stroke="none"
   d="m 188.13709,320.27012 c 1.48254,-1.1344 3.0794,-1.91016 4.9801,-2.84394 0.30389,-0.15808 0.28491,-0.18683 0.61585,-0.32452 1.6427,-0.61951 2.95446,-1.10144 4.26629,-1.58331 4.71124,-2.11786 7.15265,-0.18702 8.76496,4.37561 3.87841,10.97491 8.04144,21.84918 12.16845,33.10278 -3.46075,1.59735 -6.92138,3.29645 -10.56933,3.9505 -2.21033,0.39624 -4.98255,-0.32513 -7.01984,-1.43219 -3.43817,-1.86829 -6.49329,-4.44128 -10.14008,-6.95477 -0.4306,-0.23682 -0.76788,-0.34705 -0.76788,-0.34705 0,0 -0.0409,0.007 -0.18439,-0.20672 -0.4732,-0.3537 -0.80297,-0.49378 -1.13269,-0.63379 0,0 -0.0198,0.11316 -0.10132,-0.15735 -0.57183,-0.55316 -1.06213,-0.83588 -1.55236,-1.11859 0,0 0.0574,0.18536 -0.12641,-0.11194 -0.48456,-0.44397 -0.7854,-0.59058 -1.08618,-0.73718 0,0 -0.059,0.14685 -0.10553,-0.12171 -0.37347,-0.42633 -0.70044,-0.58398 -1.0274,-0.74164 0,0 -0.021,0.10327 -0.1557,-0.2033 -2.27314,-0.66785 -4.41156,-1.02918 -6.54999,-1.39051 -0.17383,2.12818 -0.90369,4.3996 -0.4007,6.35346 0.92371,3.58777 2.57398,6.98846 3.92139,10.4671 0,0 0.0483,0.006 -0.20972,0.23462 -2.0791,1.11639 -3.90027,2.00403 -5.72143,2.89166 -3.46015,1.49841 -7.09894,2.70142 -10.29602,4.63477 -1.35523,0.81964 -2.68048,3.36383 -2.37995,4.77496 0.30005,1.40881 2.50592,3.06421 4.13074,3.40778 3.85168,0.81439 7.85419,0.91558 11.77679,1.6369 -1.51782,1.29187 -3.01678,2.25195 -4.51568,3.21203 0,0 0.10962,0.0407 -0.15875,0.057 -0.51429,0.24481 -0.76032,0.47339 -1.00635,0.7019 0,0 0.0416,-0.0671 -0.26038,0.062 -0.69739,0.53418 -1.09289,0.93915 -1.4884,1.34412 -0.33594,0.0109 -0.59418,0.1582 -1.16498,0.85803 -2.9469,6.03766 -1.87421,7.77399 4.12866,7.185 2.16907,-0.21289 4.25782,-1.24573 6.38318,-1.90442 0,0 0.42121,-6.1e-4 0.84027,0.12384 0.73365,0.29035 1.04822,0.45618 1.36274,0.62201 -1.79377,2.38928 -3.84833,4.63495 -5.27564,7.22608 -0.75708,1.37439 -1.17407,4.00232 -0.39929,4.88971 1.0116,1.15856 3.43713,1.742 5.10815,1.51202 2.56098,-0.35254 4.99744,-1.61005 7.49018,-2.48462 0.16162,0.30652 0.47955,0.65887 0.4035,0.80249 -1.37427,2.59509 -3.74976,5.39203 -0.78125,8.02319 3.15405,2.79566 6.08594,0.14063 8.36096,-1.80218 4.7945,-4.09448 9.90796,-8.09204 13.65918,-13.05933 4.40552,-5.83349 9.88196,-7.79327 17.0744,-7.88434 2.30157,4.99384 4.06547,9.99079 6.00837,14.91718 2.3778,6.02911 2.2259,6.66943 -4.0033,9.12195 -13.39307,5.27295 -26.84241,10.40283 -40.23084,15.68731 -3.62097,1.42926 -7.02337,3.43915 -10.68737,4.72205 -1.94202,0.67999 -4.23023,0.37109 -6.90949,0.46619 -0.78155,-0.14582 -1.00995,-0.26075 -1.23254,-0.38733 0,0 -0.15473,-0.31995 -0.47632,-0.70001 -2.13111,-5.28516 -3.94049,-10.19025 -5.74988,-15.09528 0,0 0.0278,-0.29633 -0.17102,-0.7547 -8.41516,-23.84863 -16.67322,-47.22436 -24.78876,-70.64954 -0.8858,-2.55676 -0.95129,-5.39782 -1.39728,-8.10699 0,0 -0.15423,-0.0563 0.19129,-0.12946 3.1499,-1.39538 5.95428,-2.71747 8.75873,-4.03967 0.36297,-0.0162 0.72595,-0.0324 1.35589,-0.10992 4.27045,4.63543 8.83692,4.25201 14.04749,1.98407 6.38763,-2.78022 13.12115,-4.7746 19.46832,-7.63416 2.07221,-0.93353 3.40296,-3.51257 4.95856,-5.69775 z"
   id="path373" />
<path
   fill="#8f331a"
   opacity="1"
   stroke="none"
   d="m 182.21942,359.40891 c -1.6325,-3.27649 -3.28277,-6.67718 -4.20648,-10.26495 -0.50299,-1.95386 0.22687,-4.22528 0.4007,-6.35346 2.13843,0.36133 4.27685,0.72266 6.59894,1.37085 -1.58435,0.11371 -3.3523,-0.0594 -6.52069,-0.36957 1.02813,3.80304 1.9317,7.08344 2.7976,10.37372 0.43988,1.67127 0.8122,3.36029 0.92993,5.24341 z"
   id="path374" />
<path
   fill="#8f331a"
   opacity="1"
   stroke="none"
   d="m 180.70923,388.68101 c -1.68255,0.68499 -3.7713,1.71783 -5.94037,1.93072 -6.00287,0.58899 -7.07556,-1.14734 -4.18975,-6.96259 0.44,1.70502 0.55096,3.60395 0.67736,5.76795 3.30609,-0.27972 6.15802,-0.52106 9.45276,-0.73608 z"
   id="path375" />
<path
   fill="#8f331a"
   opacity="1"
   stroke="none"
   d="m 176.22205,362.99399 c 1.60229,-1.14428 3.42346,-2.03192 5.48157,-3.16186 -1.59626,0.9779 -3.42951,2.19818 -5.48157,3.16186 z"
   id="path376" />
<path
   fill="#8f331a"
   opacity="1"
   stroke="none"
   d="m 175.08692,380.45926 c 1.13104,-1.01556 2.63,-1.97564 4.46069,-3.0191 -1.14301,0.96924 -2.61792,2.02191 -4.46069,3.0191 z"
   id="path377" />
<path
   fill="#8f331a"
   opacity="1"
   stroke="none"
   d="m 183.4881,389.25205 c -0.44757,0.0353 -0.76214,-0.13055 -1.28845,-0.45788 0.33264,-0.022 0.87707,0.11736 1.28845,0.45788 z"
   id="path378" />
<path
   fill="#8f331a"
   opacity="1"
   stroke="none"
   d="m 172.15052,382.56028 c 0.0502,-0.39655 0.44567,-0.80152 1.104,-1.3302 -0.0777,0.35809 -0.41821,0.8399 -1.104,1.3302 z"
   id="path379" />
<path
   fill="#8f331a"
   opacity="1"
   stroke="none"
   d="m 187.43616,346.44517 c 0.51892,-0.0657 1.00922,0.21704 1.63471,0.74975 -0.4643,0.033 -1.06385,-0.1842 -1.63471,-0.74975 z"
   id="path380" />
<path
   fill="#8f331a"
   opacity="1"
   stroke="none"
   d="m 173.85218,381.21311 c -0.0522,-0.27899 0.19384,-0.50757 0.69055,-0.80811 0.0364,0.23816 -0.17798,0.54835 -0.69055,0.80811 z"
   id="path381" />
<path
   fill="#8f331a"
   opacity="1"
   stroke="none"
   d="m 190.35889,348.40842 c 0.0767,-0.19519 0.414,-0.085 0.51538,0.0606 -0.12982,0.14191 -0.36096,0.13824 -0.51538,-0.0606 z"
   id="path382" />
<path
   fill="#8f331a"
   opacity="1"
   stroke="none"
   d="m 189.20838,347.65763 c 0.23987,-0.1449 0.56964,-0.005 1.0368,0.36871 -0.224,0.12769 -0.58551,0.0219 -1.0368,-0.36871 z"
   id="path383" />
<path
   fill="#8f331a"
   opacity="1"
   stroke="none"
   d="m 186.29358,345.55259 c 0.25946,-0.15833 0.5603,-0.0117 0.99524,0.34887 -0.22858,0.12793 -0.59125,0.042 -0.99524,-0.34887 z"
   id="path384" />
<path
   fill="#8f331a"
   opacity="1"
   stroke="none"
   d="m 185.20471,344.66709 c 0.24158,-0.12512 0.56855,0.0325 1.01819,0.43762 -0.22906,0.11328 -0.58099,-0.0208 -1.01819,-0.43762 z"
   id="path385" />



<path
   fill="#8f331a"
   opacity="1"
   stroke="none"
   d="m 147.82087,266.46509 c -0.70453,-0.76629 -1.35859,-1.90472 -2.05585,-3.37951 0.67322,0.77826 1.38971,1.89282 2.05585,3.37951 z"
   id="path389" />
<path
   fill="#8f331a"
   opacity="1"
   stroke="none"
   d="m 149.03351,268.53415 c -0.57141,-0.26171 -0.88769,-0.69308 -1.2409,-1.41543 0.47406,0.22128 0.98498,0.73355 1.2409,1.41543 z"
   id="path390" />


















<path
   fill="#1d3c61"
   opacity="1"
   stroke="none"
   d="m 138.98596,335.92954 c 0.81684,2.67664 0.88233,5.5177 1.76813,8.07446 8.11554,23.42518 16.3736,46.80091 24.71332,70.52131 -1.12585,-1.73243 -2.76471,-3.65497 -3.5639,-5.87922 -8.01563,-22.30969 -15.94031,-44.65265 -23.71283,-67.04797 -0.56665,-1.63287 0.25061,-3.74609 0.79528,-5.66858 z"
   id="path409" />
<path
   fill="#1d3c61"
   opacity="1"
   stroke="none"
   d="m 165.48835,415.76352 c 2.03491,4.54975 3.84429,9.45484 5.82574,14.64399 -0.71539,-0.75013 -1.98035,-1.64582 -2.42017,-2.8443 -1.37762,-3.75342 -2.44409,-7.6211 -3.40557,-11.79969 z"
   id="path410" />
<path
   fill="#1d3c61"
   opacity="1"
   stroke="none"
   d="m 147.89362,331.70304 c -2.39124,1.34704 -5.19562,2.66913 -8.32617,4.14423 2.42022,-1.28772 5.16662,-2.7284 8.32617,-4.14423 z"
   id="path411" />
<path
   fill="#1d3c61"
   opacity="1"
   stroke="none"
   d="m 171.76093,431.40549 c 0.40173,-0.0754 0.63013,0.0395 1.03412,0.23255 -0.2912,0.0496 -0.75226,0.009 -1.03412,-0.23255 z"
   id="path412" />
<path
   fill="#ccf5fe"
   opacity="1"
   stroke="none"
   d="m 164.46576,430.2501 c -0.37658,-0.13745 -0.85565,-0.60053 -1.29004,-1.42621 0.42566,0.12506 0.80664,0.61285 1.29004,1.42621 z"
   id="path413" />
<path
   fill="#112242"
   opacity="1"
   stroke="none"
   d="m 197.78138,315.25022 c -1.09388,0.75 -2.40564,1.23193 -4.04084,1.83606 1.05872,-0.61981 2.4408,-1.36194 4.04084,-1.83606 z"
   id="path414" />
</svg>
