<?xml version="1.0" encoding="UTF-8" standalone="no"?>
<svg
   version="1.1"
   id="Layer_1"
   x="0px"
   y="0px"
   width="341.15744"
   viewBox="0 0 341.15744 604.53119"
   enable-background="new 0 0 1536 1024"
   xml:space="preserve"
   sodipodi:docname="characters-together-welcomescreen.svg"
   height="604.53119"
   inkscape:version="1.4.2 (f4327f4, 2025-05-13)"
   xmlns:inkscape="http://www.inkscape.org/namespaces/inkscape"
   xmlns:sodipodi="http://sodipodi.sourceforge.net/DTD/sodipodi-0.dtd"
   xmlns="http://www.w3.org/2000/svg"
   xmlns:svg="http://www.w3.org/2000/svg"><defs
   id="defs414" /><sodipodi:namedview
   id="namedview414"
   pagecolor="#ffffff"
   bordercolor="#000000"
   borderopacity="0.25"
   inkscape:showpageshadow="2"
   inkscape:pageopacity="0.0"
   inkscape:pagecheckerboard="0"
   inkscape:deskcolor="#d1d1d1"
   inkscape:zoom="0.78808594"
   inkscape:cx="679.49442"
   inkscape:cy="282.32962"
   inkscape:window-width="1920"
   inkscape:window-height="1009"
   inkscape:window-x="1912"
   inkscape:window-y="-8"
   inkscape:window-maximized="1"
   inkscape:current-layer="Layer_1" />

<path
   fill="#ffb42b"
   opacity="1"
   stroke="none"
   d="m 46.845036,272.68246 c -0.1214,-0.37817 -0.2428,-0.75632 -0.20813,-1.54687 0.0305,-0.37253 -0.0951,-0.33261 -0.22072,-0.2927 -3.64933,-11.38476 -2.21646,-22.77566 1.08369,-33.78216 2.92542,-9.75669 2.63719,-17.30847 -4.58331,-25.98185 -14.77721,-17.75055 -21.18955,-39.46081 -24.49163,-62.16983 -3.6523,-25.11758 -2.40753,-49.846489 6.67387,-73.598749 15.34013,-40.12183 44.56367,-64.47568 86.692004,-72.6568901 33.18556,-6.44455 64.55822,-1.45969 92.55304,18.3635401 24.90704,17.63683 39.95675,42.05083 45.11611,71.96687 5.64966,32.758999 4.43656,65.562719 -2.7904,98.042179 -2.76376,12.42108 -8.60993,23.35269 -18.0419,32.05655 -2.86688,2.64557 -4.56726,5.2933 -4.53192,9.3428 0.0271,3.10196 -0.93036,6.21252 -1.7442,9.93924 -4.9036,6.45212 -9.51294,12.2843 -14.38828,18.23624 -0.92605,0.82879 -1.58609,1.53784 -2.54416,2.37771 -4.87811,3.9538 -9.45825,7.7768 -14.35666,11.69904 -6.85013,5.40353 -14.36596,7.76974 -22.7355,8.12042 -10.91135,0.45722 -21.3342,-1.88803 -31.94739,-4.96555 -0.53848,-0.39169 -0.82703,-0.63754 -0.88878,-1.09323 -1.15298,-0.48459 -2.53279,-0.75933 -3.87605,-1.04809 0.0365,-0.014 0.0264,0.0636 -0.1062,-0.26935 -9.92487,-5.14053 -19.98999,-8.6189 -31.00136,-10.00723 -16.463584,-2.07581 -31.963884,-0.0179 -46.592704,7.72873 -2.77563,1.46984 -4.81019,1.20193 -7.06942,-0.46082 m 68.925364,-10.7164 c 0.0967,0.0458 0.19329,0.0917 0.28994,0.13754 -0.12011,-0.1585 -0.24021,-0.31701 -0.61859,-0.89053 -0.36583,0.0181 -0.73165,0.0363 -1.09748,0.0543 0.43454,0.13782 0.86907,0.27567 1.42613,0.69864 m 106.28496,-43.84024 c 10.6145,-8.44385 18.35068,-19.01709 21.18292,-32.30701 1.53754,-7.21472 1.63193,-14.87939 1.37372,-22.30618 -0.63406,-18.23849 -5.61154,-35.29315 -15.31482,-50.89935 C 215.095,89.771131 194.24299,74.763221 170.83414,62.765881 c -4.51448,-2.31375 -9.12619,-1.70304 -13.29076,1.01205 -3.75163,2.44592 -7.36807,5.121 -10.89724,7.88272 -24.26104,18.98523 -46.14879,40.203549 -61.451024,67.312749 -5.98856,10.60925 -10.86179,21.84054 -10.48661,34.39865 0.20197,6.76068 1.32399,13.49392 1.41654,19.84198 -1.35362,-4.23941 -2.62967,-8.5055 -4.07483,-12.71347 -5.15747,-15.01743 -10.29687,-30.04181 -15.5995,-45.00821 -2.41268,-6.8096 -5.1912,-13.48963 -7.80377,-20.2284 -0.76903,1.40738 -0.63308,2.51133 -0.39383,3.59241 2.78674,12.59268 5.9557,25.11383 8.30809,37.78671 4.40469,23.72931 12.8136,44.96808 31.74382,61.40509 16.525374,14.34882 35.681474,21.51493 56.883044,23.3833 10.50076,0.92536 21.22616,-0.12258 31.80989,-0.8558 14.12979,-0.97888 27.29642,-5.43869 39.04794,-13.34485 2.67154,-1.79733 7.26535,-3.45764 6.00946,-9.10504 m -31.83484,33.57751 c 6.67936,-1.80279 13.39051,-3.49713 20.0275,-5.44427 4.92676,-1.44537 10.95999,-10.26376 10.62527,-15.67245 -16.65069,14.23651 -37.32235,18.51934 -57.44393,24.10397 0.14794,0.59094 0.29591,1.18188 0.44386,1.77283 8.51283,-1.53238 17.02562,-3.06476 26.3473,-4.76008 m -42.40832,20.95459 c -9.78879,-3.1589 -19.57756,-6.31784 -29.16022,-9.41027 3.79677,3.78485 23.61641,11.60135 29.12122,11.26971 0.28857,-0.0174 0.51219,-1.11285 0.039,-1.85944 z"
   id="path2" />












<path
   fill="#112242"
   opacity="1"
   stroke="none"
   d="m 104.76467,460.94784 c -1.14189,-0.4295 -2.28379,-0.85895 -3.61275,-1.74164 -1.944374,-2.13 -5.327614,-3.99969 -5.155844,-5.44751 0.52718,-4.44323 1.96951,-8.96643 4.092424,-12.89898 0.5298,-0.98133 4.99468,-0.0584 7.59224,0.35663 2.76882,0.44226 5.43253,1.58862 8.20461,1.95544 7.3878,0.97778 14.60829,4.2865 23.26665,1.72504 0.876,-7.24805 1.93655,-14.66724 2.63566,-22.1203 1.09279,-11.64997 2.10175,-23.31342 2.79041,-34.99207 0.19581,-3.3208 1.24128,-4.16223 4.4024,-4.20502 10.61458,-0.14361 21.24399,-0.31048 31.83051,-1.02227 7.34167,-0.49366 14.6221,-1.89893 22.35583,-2.89844 5.62097,-0.89923 10.82984,-1.72473 16.00717,-2.71503 5.09369,-0.97424 6.98136,0.68415 7.05243,5.78333 0.0508,3.64557 0.64399,7.29077 1.10767,10.92169 0.71664,5.61157 2.0567,11.19964 2.17572,16.81799 0.17142,8.09357 -0.60767,16.2038 -0.74069,24.31085 -0.0213,1.29743 1.21072,2.61536 1.92837,4.24591 2.6995,0.42371 5.33393,0.5254 8.18732,0.51832 0.49237,-0.30738 0.68225,-0.56702 0.78787,-0.88947 -7.3e-4,-0.002 0.004,10e-4 0.39627,0.008 1.50598,0.0713 2.6196,0.13599 4.4093,0.23993 -1.30355,11.48682 -2.49346,22.61939 -3.93606,33.71918 -0.15042,1.15753 -1.7027,2.91022 -2.76715,3.03863 -4.9115,0.59266 -9.89411,0.57257 -14.82193,1.06525 -1.80063,0.17999 -3.52011,1.17157 -5.74204,1.83875 -16.78381,-1.17182 -33.10223,-2.38953 -49.42062,-3.60724 -3.05841,-0.41809 -6.11681,-0.83612 -9.97705,-1.33973 -18.21745,-4.27935 -35.63309,-8.4732 -53.04872,-12.66705 z"
   id="path15" />



<path
   fill="#cbf6ff"
   opacity="1"
   stroke="none"
   d="m 135.26397,276.94903 c 0.28855,0.24588 0.5771,0.49173 1.13096,1.27558 4.23682,20.6506 6.02623,40.97207 5.74108,61.43667 -1.2983,-0.8208 -2.50318,-1.45196 -3.14257,-2.44659 -4.39955,-6.8443 -8.48123,-13.901 -13.06946,-20.61304 -3.13545,-4.58685 -4.75749,-8.69739 -0.14013,-13.23547 2.9599,-2.90912 2.12164,-5.50324 -0.89405,-7.96064 -5.59938,-4.56274 -11.08152,-9.26934 -16.62033,-13.9226 1.1095,3.87005 2.45887,8.25549 3.61818,12.69067 2.10154,8.03986 5.09641,16.03668 1.68376,24.31165 -0.3672,-0.0147 -0.63392,0.1383 -0.87619,0.47949 0.0245,0.18823 0.0288,0.56781 -0.27548,0.74017 -1.63627,1.84272 -3.0068,3.48401 -4.29295,5.18897 -3.46272,4.59021 -6.88941,9.20758 -10.533634,13.60955 -2.39948,1.63483 -5.23989,3.30933 -2.74166,6.77704 4.33634,6.01923 8.435124,12.25477 13.255424,17.86536 3.6808,4.28424 4.35465,8.25659 1.41435,13.31952 -2.01333,2.43243 -3.74673,4.67041 -5.7653,6.61182 -6.145494,5.9107 -12.401004,11.70697 -18.613684,17.54779 -7.03921,2.76953 -10.76875,-1.28583 -14.54144,-6.44483 -9.75188,-13.33533 -17.75577,-27.51062 -22.38937,-43.43915 -3.11336,-10.70245 -1.68839,-21.04998 3.4042,-30.78259 3.67104,-7.01593 7.95311,-13.71204 12.2112,-21.15942 5.02728,-7.38165 9.78319,-14.17084 14.58993,-20.92389 7.77773,-10.927 18.15589,-13.73691 30.654534,-9.65589 7.53959,2.46183 15.04759,5.02039 22.56978,7.5355 0,0 0.0101,-0.0776 0.21252,0.16839 1.2717,0.50595 2.34102,0.76596 3.41033,1.02594 z"
   id="path19" />




<path
   fill="#fb9999"
   opacity="1"
   stroke="none"
   d="m 210.49735,577.01657 c 2.49389,-0.43408 5.01092,-1.33838 7.47745,-1.21686 8.42428,0.4151 16.86627,0.8938 25.23651,1.8927 16.07123,1.91797 32.12692,4.02283 48.11664,6.51495 2.91995,0.45514 5.4956,3.11914 8.23022,4.76349 -2.69669,1.85883 -5.19635,4.88562 -8.12332,5.37934 -14.65119,2.47155 -29.36423,4.82873 -44.15115,6.17846 -17.64496,1.61072 -35.37537,2.59973 -53.08957,3.06397 -26.9354,0.70593 -53.88921,0.98504 -80.83419,0.93237 -13.24568,-0.0259 -26.503874,-0.9909 -39.730214,-1.90863 C 51.857166,601.10568 30.007186,599.97567 8.736099,594.5538 5.619186,593.75937 2.902107,591.39621 0,589.75894 c 2.833595,-1.70136 5.497566,-4.42835 8.52964,-4.92981 14.497976,-2.39783 29.040776,-4.90521 43.670996,-6.0332 21.4819,-1.65607 43.05029,-2.20246 64.584534,-3.16144 9.11806,-0.40613 18.24151,-0.75251 27.36609,-0.89105 1.5271,-0.0232 3.07244,1.15606 4.70975,2.28125 0.1004,0.50146 0.0129,0.57043 -0.31755,0.82354 -0.4416,1.34455 -0.55279,2.43604 -0.61684,3.5727 0.0471,0.0453 0.0131,0.17151 -0.29734,0.34069 -1.81774,2.18158 -3.08184,4.17859 0.27246,6.01429 0.46736,0.34533 0.66073,0.61218 0.95187,1.13708 0.49374,0.2832 0.83391,0.34888 1.0816,0.43396 -0.0925,0.0195 -0.0322,-0.15967 0.0851,0.20947 1.82869,0.91822 3.5819,2.00013 5.23986,1.86982 1.73195,-0.13599 3.37222,-1.43879 5.07728,-2.14008 0.0247,0.0914 -0.14754,0.0128 0.21343,-0.0284 1.03019,-1.05085 1.69944,-2.06055 2.60748,-2.96088 0.47556,0.36591 0.71233,0.6225 0.9617,0.86615 0.0126,-0.0131 0.008,0.0148 0.15298,0.25452 0.53338,0.61554 0.92225,0.99133 1.33733,1.32043 0.0262,-0.0467 -0.0705,-6.7e-4 0.0211,0.25055 0.42627,0.64734 0.76099,1.04346 1.2312,1.80499 3.02561,0.58149 5.91568,0.79761 9.23185,0.9408 2.24368,0.0809 4.0625,0.38025 5.87863,0.36462 10.58285,-0.0911 21.19073,0.13459 31.73678,-0.55865 5.39545,-0.3548 6.24283,-3.32459 3.28003,-8.20215 -0.16827,0.0836 0.14191,-0.12848 0.0131,-0.35321 -0.41477,-0.41058 -0.70072,-0.5965 -1.02619,-0.6615 -0.0395,0.12097 0.10553,-0.0882 -0.0622,-0.34131 -0.83188,-0.70575 -1.496,-1.15844 -2.29907,-1.88269 -1.10764,-0.98388 -2.07633,-1.69623 -3.08268,-2.57495 -0.0377,-0.1665 -0.0356,-0.50787 -0.0356,-0.50787 z"
   id="path24" />
<path
   fill="#cbf6ff"
   opacity="1"
   stroke="none"
   d="m 208.22925,260.48108 c 4.60935,-5.83219 9.21869,-11.66437 14.09363,-17.70414 8.37866,2.01902 16.40305,4.68189 24.62872,6.35453 8.92728,1.81524 17.16596,0.51538 24.33026,-6.36795 6.86329,-6.59406 14.65024,-12.22666 22.76221,-18.46137 9.35587,8.33832 17.98078,16.85614 26.60571,25.3739 2.08142,2.56336 4.4452,4.95682 6.13102,7.75824 0.90921,1.5109 1.60696,4.50345 0.78747,5.49582 -11.20965,13.57526 -22.37826,27.29257 -37.55499,36.78146 -12.43564,7.77503 -26.26694,11.74317 -40.67093,13.86268 -0.91522,0.13464 -1.92184,-0.35199 -3.27271,-1.08509 -1.59304,-3.37536 -2.61947,-6.31018 -4.05374,-9.02978 -1.59854,-3.03107 -3.56796,-5.86652 -5.36508,-8.79749 0.0109,-0.0104 -7.6e-4,0.009 0.0179,-0.33423 -0.32865,-1.11651 -0.67606,-1.89019 -1.01014,-2.67053 0.0133,-0.007 -0.0109,0.0113 -0.0184,-0.29297 -0.33871,-0.77258 -0.66992,-1.24096 -0.98279,-1.71081 0.0183,-10e-4 -0.004,0.0281 -0.004,-0.20923 -0.34091,-0.41474 -0.68158,-0.59216 -1.29379,-0.98743 -2.51664,-4.05267 -4.67222,-7.94385 -7.03919,-11.70193 -1.49307,-2.37058 -3.91257,-4.31617 -4.84936,-6.84735 -2.34534,-6.33713 -6.98807,-8.87409 -13.24198,-9.42633 z"
   id="path25" />





<path
   fill="#e9feff"
   opacity="1"
   stroke="none"
   d="m 207.96326,260.60083 c 6.5199,0.43249 11.16263,2.96945 13.50797,9.30658 0.93679,2.53118 3.35629,4.47677 4.84936,6.84735 2.36697,3.75808 4.52255,7.64926 7.14847,11.9274 0.64877,0.6286 0.91675,0.81396 1.18472,0.99926 0,0 0.022,-0.0295 0.0124,0.27735 0.3208,0.77441 0.65119,1.24206 0.98157,1.70965 0,0 0.0242,-0.0179 -0.011,0.32819 0.3143,1.12201 0.66382,1.89801 1.01334,2.67395 0,0 0.0116,-0.0191 0.006,0.37695 2.97379,7.07764 5.9531,13.75916 8.93244,20.44068 2.67651,8.34588 5.74884,16.58905 7.94549,25.05938 4.31177,16.62616 8.13623,33.37873 11.77854,50.5196 -8.26984,-1.59095 -16.15589,-3.6225 -24.04193,-5.654 -0.24881,0.85511 -0.49766,1.71021 -0.74649,2.56531 7.5812,6.71533 16.94802,8.59808 27.03344,8.53607 1.038,8.86255 2.0419,17.72931 3.12937,26.58576 0.49322,4.01684 -1.33255,6.5141 -5.05353,7.38751 -6.57788,1.54401 -13.22995,2.76978 -19.83539,4.20068 -1.02362,0.22168 -1.9646,0.82465 -3.01077,1.62439 -0.0669,0.37311 -0.0183,0.3899 -0.4646,0.41639 -0.74265,0.0588 -1.03897,0.091 -1.39582,0.19836 -0.0605,0.0752 -0.43219,0.082 -0.93365,-0.0301 -7.32541,-0.40344 -7.20581,-0.40595 -7.34915,-7.2984 -0.23682,-11.38721 -0.44696,-22.78211 -1.09668,-34.14929 -0.20819,-3.64289 -1.77014,-7.20838 -2.81931,-11.11194 -0.17898,-0.72443 -0.25137,-1.14618 -0.005,-1.79468 -0.56939,-3.99756 -1.45791,-7.76825 -2.54983,-11.86865 -4.58945,-15.22492 -8.97552,-30.12018 -13.00916,-45.10059 2.37632,-7.16894 4.03873,-14.38336 6.53711,-21.29565 2.04807,-5.66638 -0.12677,-9.03034 -4.35882,-12.23029 -9.81348,-7.42029 -9.888,-7.98437 -2.21408,-17.25122 1.77954,-2.14899 1.83981,-3.63184 -0.23877,-5.42276 -2.44806,-2.10919 -4.78678,-4.34528 -7.17288,-6.52637 0.66006,-0.70904 1.3201,-1.41809 2.24615,-2.24688 z"
   id="path31" />

<path
   fill="#e9feff"
   opacity="1"
   stroke="none"
   d="m 109.67076,376.13522 c 2.79081,-4.73279 2.11696,-8.70514 -1.56384,-12.98938 -4.8203,-5.61059 -8.919084,-11.84613 -13.255424,-17.86536 -2.49823,-3.46771 0.34218,-5.14221 2.85767,-6.47162 0.69792,1.65235 1.07662,2.79462 1.47022,3.98188 1.362304,-1.83008 2.830244,-3.41327 3.851424,-5.24549 3.31906,-5.9552 6.47466,-12.00146 9.69316,-18.01269 0,0 -0.004,-0.37958 0.22139,-0.60095 0.39263,-0.24048 0.55957,-0.25953 0.72653,-0.27863 3.31217,-8.44269 0.3173,-16.43951 -1.78424,-24.47937 -1.15931,-4.43518 -2.50868,-8.82062 -3.61818,-12.69067 5.53881,4.65326 11.02095,9.35986 16.62033,13.9226 3.01569,2.4574 3.85395,5.05152 0.89405,7.96064 -4.61736,4.53808 -2.99532,8.64862 0.14013,13.23547 4.58823,6.71204 8.66991,13.76874 13.06946,20.61304 0.63939,0.99463 1.84427,1.62579 3.19908,2.90051 0.4048,3.84247 0.398,7.20947 0.10939,10.87708 -0.73007,16.17968 -0.8059,32.08087 -1.74134,47.93127 -0.78525,13.30524 -2.56583,26.552 -3.92177,39.82306 -0.28061,2.74652 -1.68741,4.29474 -4.60703,3.89105 -3.09724,-0.4284 -6.18234,-0.94732 -9.26857,-1.45221 -6.46885,-1.05816 -12.93495,-2.13324 -19.35849,-3.16656 0.0437,0.0349 -0.0669,0.019 -0.007,-0.33008 -0.1606,-0.74457 -0.38106,-1.13995 -0.60152,-1.5354 -0.45177,0.39203 -0.90353,0.784 -1.65054,1.09997 -0.66564,-0.20037 -1.03603,-0.3247 -1.406424,-0.44903 -3.46887,-2.66602 -7.52599,-4.86108 -10.18127,-8.17835 -1.54058,-1.92462 -1.33512,-5.7301 -0.90761,-8.53558 0.20253,-1.32904 2.76758,-2.29809 4.84642,-3.112 2.78526,3.71075 6.33528,3.49805 8.953094,2.05225 5.40233,-2.98371 10.98248,-6.15735 15.30113,-10.4488 4.40545,-4.37768 8.85257,-9.67071 6.22359,-17.41864 -1.31042,-2.39117 -2.3082,-4.65923 -3.90983,-6.35797 -1.90635,-2.02185 -4.3489,-3.53314 -6.52468,-5.30792 -1.32339,-1.07947 -2.58168,-2.23871 -3.86925,-3.36212 z"
   id="path33" />



<path
   fill="#e3773f"
   opacity="1"
   stroke="none"
   d="m 214.78009,491.99618 c 3e-5,0 0.0709,0.33124 -0.29168,0.68305 -0.8429,2.89184 -1.32312,5.43188 -1.80335,7.97192 -5.65109,19.32715 -11.22879,38.67633 -17.02783,57.95892 -0.93094,3.09565 -0.8316,4.98841 2.00104,7.09589 3.56991,2.65594 6.5744,6.07196 9.72696,9.53516 -0.36853,0.56347 -0.64115,0.75189 -1.27091,1.09643 -6.73349,3.3161 -13.54901,2.24347 -19.7973,0.75733 -10.33728,-2.45862 -20.35406,-6.26465 -30.75799,-9.78138 -0.95959,-0.5368 -1.66707,-0.79522 -2.37458,-1.05365 3.16785,-19.60919 6.3357,-39.21838 9.97962,-59.32366 1.49049,-4.92151 2.98759,-9.30469 3.38035,-13.78461 0.37514,-4.27905 1.90926,-6.08832 6.17693,-5.51264 2.94134,0.39673 5.92239,1.09058 8.84482,0.92609 9.06655,-0.51044 18.11602,-1.33905 27.16638,-2.11163 2.05496,-0.17536 4.08667,-0.62329 6.38254,-0.98584 -0.13654,2.66088 -0.23575,4.59472 -0.335,6.52862 z"
   id="path37" />
<path
   fill="#e3773f"
   opacity="1"
   stroke="none"
   d="m 85.611816,472.45572 c 0.46384,-0.29194 0.92769,-0.58381 1.85368,-0.6587 2.55812,-0.49847 4.88684,-0.85009 6.69895,-2.00927 3.21782,-2.05841 5.934744,-1.72016 9.132584,0.0977 11.20378,6.3689 23.6743,8.98456 36.06976,11.81556 3.51467,0.80273 6.92302,2.07092 10.38012,3.12573 -10.19515,12.13672 -24.19994,18.19061 -38.43848,23.68103 -13.865204,5.34656 -27.894014,10.27667 -41.918344,15.19769 -4.07598,1.43024 -7.2433,3.36462 -9.31083,7.42145 -2.16793,4.25384 -5.0956,8.12036 -8.17536,12.05096 -2.40103,-4.37311 -5.19291,-8.46881 -6.0727,-12.94073 -2.77205,-14.09027 -0.91347,-28.0495 2.74809,-41.80939 11.79916,-5.21283 23.59834,-10.4256 35.86926,-15.50439 0.70226,-0.0665 0.93277,-0.26703 1.16327,-0.46759 z"
   id="path38" />






<path
   fill="#dc723e"
   opacity="1"
   stroke="none"
   d="m 320.96582,249.5549 c -8.94097,-8.39661 -17.56588,-16.91443 -26.54638,-25.33862 0.17654,-6.96467 0.70862,-14.02289 1.80554,-21.45905 0.83481,-0.99259 1.10474,-1.6073 1.37469,-2.22199 4e-5,0 0.0324,0.0753 0.24854,-0.0386 0.3956,-0.43341 0.57507,-0.7529 0.75449,-1.07242 0.44445,-0.54932 0.88894,-1.0986 1.88656,-1.85336 0.82129,-0.53717 1.08951,-0.86887 1.35773,-1.20053 0.11865,-1.72916 0.37338,-3.46189 0.32819,-5.18674 -0.0998,-3.80862 -0.80774,-7.66995 -0.34559,-11.39542 0.22861,-1.84262 2.49988,-3.43179 3.84696,-5.13559 1.36871,1.41257 3.33673,2.5994 3.97269,4.28794 1.09069,2.89599 1.31402,6.1131 1.97714,9.17898 0.2139,0.98899 0.66565,1.92655 2.27023,2.92017 0.55722,-2.26376 0.98267,-4.5705 1.70398,-6.7807 0.96716,-2.96353 1.75815,-6.11499 3.41653,-8.67227 0.95746,-1.47644 3.56208,-2.76697 5.25837,-2.58496 1.21737,0.13061 3.09753,2.86126 3.05908,4.39123 -0.16162,6.43167 -0.93354,12.84799 -1.73465,19.81375 -1.89285,2.3458 -3.53314,4.1478 -5.19205,5.97025 -4.50708,-5.21179 -10.60693,-7.82196 -15.29925,-6.9476 4.4761,3.11032 9.2294,6.41327 13.81549,9.6 -4.23249,8.0423 -10.23334,3.12592 -15.99954,3.83048 3.13595,3.96667 5.41235,7.45273 10.29052,8.07394 1.43903,0.18326 2.85028,1.17276 4.11563,2.02765 4.87671,3.29501 8.8804,8.1438 15.60965,8.06009 0.93753,-0.0117 1.89951,1.94211 2.85016,2.98608 0,0 -0.0334,-0.0868 -0.25451,0.0149 -0.33362,0.44516 -0.44611,0.7886 -0.55863,1.13208 0,0 0.0329,-0.11402 -0.27185,-0.0274 -0.50534,0.68851 -0.70593,1.29038 -0.90653,1.89221 0,0 -0.0353,-0.0919 -0.25701,0.007 -0.34665,0.44235 -0.47165,0.78577 -0.59665,1.12915 0,0 0.11303,-0.0361 -0.0848,-0.0452 -0.33035,0.0371 -0.46292,0.0833 -0.59546,0.12957 0.15375,0.20746 0.30746,0.41492 0.46118,0.62238 -3.81479,4.59045 -7.62958,9.18094 -11.76044,13.89258 z"
   id="path45" />














<path
   fill="#102040"
   opacity="1"
   stroke="none"
   d="m 48.196716,488.25247 c -3.27899,13.93512 -5.13757,27.89435 -2.36552,41.98462 0.87979,4.47192 3.67167,8.56762 5.79591,13.12005 -1.94896,3.7027 -4.16853,7.08295 -6.24358,10.54981 -2.04324,3.41363 -4.47206,3.98913 -7.30841,0.78522 -0.89366,-8.97535 -2.68936,-17.35675 -2.96261,-25.78754 -0.28465,-8.78284 0.89951,-17.61322 1.44146,-26.42285 0,0 0.0509,0.098 0.2717,0.0953 0.3161,-0.94824 0.41141,-1.89361 0.50672,-2.83905 -6.31857,1.85749 -6.86028,1.36359 -8.12882,-4.32275 -0.91912,-4.12 1.62571,-5.12323 4.40565,-5.61981 4.6877,-0.8374 9.46522,-1.17212 14.5875,-1.54297 z"
   id="path60" />

<path
   fill="#fb9b1c"
   opacity="1"
   stroke="none"
   d="m 131.50852,275.42178 c -7.38959,-2.18219 -14.89759,-4.74075 -22.43718,-7.20258 -12.498644,-4.08102 -22.876804,-1.27111 -30.654534,9.65589 -4.80674,6.75305 -9.56265,13.54224 -14.56094,20.5794 -8.52828,-6.37078 -13.56601,-15.17425 -17.00415,-25.40737 2.25255,1.29809 4.28711,1.566 7.06274,0.0962 14.62882,-7.74665 30.12912,-9.80454 46.592704,-7.72873 11.01137,1.38833 21.07649,4.8667 31.00136,10.00723 z"
   id="path62" />
<path
   fill="#dc723e"
   opacity="1"
   stroke="none"
   d="m 109.52127,376.46536 c 1.43706,0.79327 2.69535,1.95251 4.01874,3.03198 2.17578,1.77478 4.61833,3.28607 6.52468,5.30792 1.60163,1.69874 2.59941,3.9668 3.65296,6.60907 -8.43856,10.40448 -17.497,18.92493 -30.881744,20.90076 -2.41803,-3.69763 -4.83604,-7.39526 -7.47385,-11.39148 5.99291,-6.13946 12.24842,-11.93573 18.393914,-17.84643 2.01857,-1.94141 3.75197,-4.17939 5.7653,-6.61182 z"
   id="path63" />

<path
   fill="#d96a32"
   opacity="1"
   stroke="none"
   d="m 150.03983,484.65438 c -3.75002,-0.8825 -7.15837,-2.15069 -10.67304,-2.95342 -12.39546,-2.831 -24.86598,-5.44666 -36.06976,-11.81556 -3.19784,-1.81781 -5.914764,-2.15606 -9.132584,-0.0977 -1.81211,1.15918 -4.14083,1.5108 -6.41863,1.94232 5.42099,-3.60645 11.02381,-6.92896 16.822734,-10.51685 17.61175,3.92847 35.02739,8.12232 52.83563,12.43543 -2.09543,3.69067 -4.58344,7.26208 -7.36435,11.00573 z"
   id="path65" />

<path
   fill="#d96a32"
   opacity="1"
   stroke="none"
   d="m 215.07541,491.75393 c -0.19607,-1.69165 -0.0969,-3.62549 0.0397,-6.28637 -2.29587,0.36255 -4.32758,0.81048 -6.38254,0.98584 -9.05036,0.77258 -18.09983,1.60119 -27.16638,2.11163 -2.92243,0.16449 -5.90348,-0.52936 -8.84482,-0.92609 -4.26767,-0.57568 -5.80179,1.23359 -6.17693,5.51264 -0.39276,4.47992 -1.88986,8.8631 -3.26002,13.37896 1.25949,-10.19647 2.87474,-20.48339 4.49801,-31.17309 16.32642,0.81488 32.64484,2.03259 49.69147,3.28375 0.90457,0.0819 1.0809,0.13037 1.2572,0.17877 -1.12011,4.23059 -2.24023,8.46112 -3.65567,12.93396 z"
   id="path67" />








<path
   fill="#d96a32"
   opacity="1"
   stroke="none"
   d="m 336.08765,230.61679 c -1.24777,-0.85318 -2.20975,-2.80701 -3.14728,-2.79529 -6.72925,0.0837 -10.73294,-4.76508 -15.60965,-8.06009 -1.26535,-0.85489 -2.6766,-1.84439 -4.11563,-2.02765 -4.87817,-0.62121 -7.15457,-4.10727 -10.29052,-8.07394 5.7662,-0.70456 11.76705,4.21182 15.99954,-3.83048 -4.58609,-3.18673 -9.33939,-6.48968 -13.81549,-9.6 4.69232,-0.87436 10.79217,1.73581 15.29925,6.9476 1.65891,-1.82245 3.2992,-3.62445 5.26627,-5.57913 1.82422,0.33505 3.32165,0.82281 4.93908,1.652 0.12,0.34143 0.0388,0.4274 -0.34729,0.42698 -1.77752,0.65811 -3.86303,0.95172 -4.43567,2.04086 -2.07016,3.93704 -3.93694,8.04944 -5.21859,12.29541 -0.44458,1.4729 1.03753,3.52734 1.63965,5.31619 1.77148,-0.83139 4.66442,-1.26971 5.11776,-2.56311 1.82895,-5.21814 2.90516,-10.70016 4.29175,-16.11188 0.0324,-0.0272 0.0913,-0.0879 0.0913,-0.0879 1.05731,1.02024 2.11462,2.04044 3.31519,3.40399 -0.67017,1.90393 -1.74048,3.38626 -2.2443,5.04105 -1.10077,3.61508 -1.79754,7.35272 -2.88772,10.97147 -0.65183,2.16378 -2.58304,4.71362 1.14553,5.4375 2.61899,0.50845 6.57819,1.64218 7.02387,-2.88504 0.55545,-5.64197 0.40826,-11.35315 0.56448,-17.03443 4.74915,8.81342 2.03571,16.9429 -2.58154,25.11588 z"
   id="path76" />


<path
   fill="#0d132c"
   opacity="1"
   stroke="none"
   d="m 99.629636,437.13351 c 0.479924,-0.20483 0.850314,-0.0805 1.728734,0.26447 0.99848,0.36041 1.48894,0.50018 1.9794,0.63995 0,0 0.11061,0.0158 0.35733,0.22748 11.16419,2.54901 22.08165,4.88629 33.09439,7.24402 0.48755,-1.79102 0.75254,-2.39948 0.80959,-3.02686 1.84111,-20.24481 3.66215,-40.49139 5.92775,-60.7749 10.20671,-0.0986 19.98854,0.17303 29.73233,-0.31494 9.82071,-0.49176 19.60364,-1.7381 29.42499,-2.42359 0.0219,0.23011 0.0567,0.69117 0.0567,0.69117 -7.30777,0.99792 -14.5882,2.40319 -21.92987,2.89685 -10.58652,0.71179 -21.21593,0.87866 -31.83051,1.02227 -3.16112,0.0428 -4.20659,0.88422 -4.4024,4.20502 -0.68866,11.67865 -1.69762,23.3421 -2.79041,34.99207 -0.69911,7.45306 -1.75966,14.87225 -2.63566,22.1203 -8.65836,2.56146 -15.87885,-0.74726 -23.26665,-1.72504 -2.77208,-0.36682 -5.43579,-1.51318 -8.20461,-1.95544 -2.59756,-0.41498 -7.06244,-1.33796 -7.59224,-0.35663 -2.122914,3.93255 -3.565244,8.45575 -4.092424,12.89898 -0.17177,1.44782 3.21147,3.31751 4.847024,5.24646 -9.385104,-3.62848 -9.476184,-3.79132 -5.395224,-13.16919 1.2373,-2.84338 2.7083,-5.58502 4.18176,-8.70245 z"
   id="path79" />



<path
   fill="#abe0fc"
   opacity="1"
   stroke="none"
   d="m 92.804736,412.62369 c 13.415914,-2.28443 22.474354,-10.80488 30.958234,-20.83417 2.84053,7.12164 -1.60659,12.41467 -6.01204,16.79235 -4.31865,4.29145 -9.8988,7.46509 -15.30113,10.4488 -2.617814,1.4458 -6.167834,1.6585 -8.550584,-2.05091 -0.49631,-1.56054 -0.81099,-2.80401 -1.09448,-4.35607 z"
   id="path83" />






<path
   fill="#dc723e"
   opacity="1"
   stroke="none"
   d="m 338.53598,205.21457 c -0.023,5.96762 0.12418,11.6788 -0.43127,17.32077 -0.44568,4.52722 -4.40488,3.39349 -7.02387,2.88504 -3.72857,-0.72388 -1.79736,-3.27372 -1.14553,-5.4375 1.09018,-3.61875 1.78695,-7.35639 2.88772,-10.97147 0.50382,-1.65479 1.57413,-3.13712 2.60138,-4.97397 1.13532,0.11276 2.05683,0.50177 3.11157,1.17713 z"
   id="path90" />

<path
   fill="#abe0fc"
   opacity="1"
   stroke="none"
   d="m 267.4282,396.20401 c -9.95594,0.37255 -19.32276,-1.5102 -26.90396,-8.22553 0.24883,-0.8551 0.49768,-1.7102 0.74649,-2.56531 7.88604,2.0315 15.77209,4.06305 24.05465,6.09113 0.92215,1.46075 1.44773,2.92493 2.10282,4.69971 z"
   id="path92" />

<path
   fill="#0d132c"
   opacity="1"
   stroke="none"
   d="m 219.19028,478.74502 c -0.6355,0.0266 -0.81183,-0.0219 -1.25094,-0.14972 1.49365,-0.70062 3.21313,-1.6922 5.01376,-1.87219 4.92782,-0.49268 9.91043,-0.47259 14.82193,-1.06525 1.06445,-0.12841 2.61673,-1.8811 2.76715,-3.03863 1.4426,-11.09979 2.63251,-22.23236 3.93606,-33.71918 -1.7897,-0.10394 -2.90332,-0.16858 -4.4158,-0.47619 -0.39886,-0.24305 -0.37143,-0.71497 -0.14569,-0.86133 0.34314,-0.2818 0.46057,-0.4173 0.578,-0.55286 0,0 0.37168,-0.007 0.63898,0.1449 0.7233,-0.0494 1.17932,-0.25055 1.63535,-0.45178 0,0 -0.0487,-0.0168 -0.0395,0.007 0.96969,-0.0593 1.93023,-0.14276 3.69055,-0.29578 -1.51785,12.85358 -2.88986,25.28022 -4.58655,37.66236 -0.18118,1.3222 -2.16061,3.2727 -3.47208,3.4165 -6.20565,0.68079 -12.46914,0.83502 -19.1712,1.25183 z"
   id="path94" />









<path
   fill="#0d132c"
   opacity="1"
   stroke="none"
   d="m 36.237336,502.66568 c -0.22532,8.62573 -1.40948,17.45611 -1.12483,26.23895 0.27325,8.43079 2.06895,16.81219 2.92845,25.46661 -4.4657,-15.09869 -5.37938,-30.74194 -4.23429,-46.53216 0.12366,-1.70526 1.38202,-3.32837 2.43067,-5.1734 z"
   id="path104" />


<path
   fill="#0d132c"
   opacity="1"
   stroke="none"
   d="m 152.99317,566.55624 c 0.89879,-0.038 1.60627,0.22046 2.20053,0.82141 -4.42345,6.10211 -5.03055,12.77857 -5.57916,19.96802 3.52589,0.22113 6.38847,0.40063 7.84892,0.49225 2.29324,-1.8562 3.60933,-2.92145 4.9254,-3.9867 0.57286,1.10828 1.14574,2.2165 1.71863,3.32477 -0.23677,-0.25665 -0.47354,-0.51324 -1.05872,-1.26892 -1.01067,-0.47711 -2.19704,-0.60065 -2.25008,-0.40961 -0.34118,1.22876 -0.43422,2.52649 -0.60875,3.80152 0,0 0.17225,0.0785 -0.24661,0.17193 -3.62602,-0.0323 -6.83317,-0.15796 -10.04033,-0.28363 0,0 -0.0603,0.17914 -0.12346,-0.0521 -0.40196,-0.30078 -0.74073,-0.3703 -1.07949,-0.43982 -0.13758,-0.30725 -0.33095,-0.5741 -0.80268,-1.35364 -0.13423,-2.28522 -0.0459,-4.01721 0.0424,-5.74926 0,0 0.034,-0.12623 0.27002,-0.46204 0.37869,-1.40228 0.52139,-2.46881 0.66409,-3.53528 -1e-5,0 0.0875,-0.069 0.095,-0.12451 1.28267,-3.57636 2.55783,-7.09717 4.02426,-10.91437 z"
   id="path107" />






<path
   fill="#abe0fc"
   opacity="1"
   stroke="none"
   d="m 245.59971,315.14297 c -2.99042,-6.3363 -5.96973,-13.01782 -8.95438,-20.08502 1.80261,2.53491 3.77203,5.37036 5.37057,8.40143 1.43427,2.7196 2.4607,5.65442 3.69892,8.87866 -0.0134,1.07611 -0.0587,1.76794 -0.11511,2.80493 z"
   id="path114" />
















<path
   fill="#d96a32"
   opacity="1"
   stroke="none"
   d="m 212.87714,500.33743 c 0.28815,-2.22632 0.76837,-4.76636 1.54608,-7.50189 -0.25302,2.26574 -0.8035,4.72693 -1.54608,7.50189 z"
   id="path131" />

<path
   fill="#0d132c"
   opacity="1"
   stroke="none"
   d="m 206.47147,576.18142 c 0.27261,-0.18841 0.54523,-0.37683 1.05917,-0.64416 0.95548,0.36017 1.66962,0.79931 2.67524,1.35888 0.29147,0.12043 0.28945,0.4618 0.002,0.77143 -1.43714,-0.28894 -2.58673,-0.88757 -3.73633,-1.48615 z"
   id="path133" />




















<path
   fill="#0d132c"
   opacity="1"
   stroke="none"
   d="m 37.339466,500.23672 c -0.10239,0.44672 -0.1977,1.39209 -0.56536,2.32056 0.009,-0.61865 0.29084,-1.22028 0.56536,-2.32056 z"
   id="path154" />












<path
   fill="#0d132c"
   opacity="1"
   stroke="none"
   d="m 1346.0585,181.66739 c -0.035,-0.74973 0.2174,-1.62989 0.8343,-2.48411 0.061,0.80185 -0.2426,1.57776 -0.8343,2.48411 z"
   id="path167" />

<path
   fill="#0d132c"
   opacity="1"
   stroke="none"
   d="m 1338.0233,247.5223 c -0.3491,-0.74902 -0.3441,-1.52569 -0.3099,-2.69122 0.2406,0.6286 0.4524,1.64609 0.3099,2.69122 z"
   id="path169" />

















<path
   fill="#d96a32"
   opacity="1"
   stroke="none"
   d="m 334.06092,233.67196 c -0.0613,-0.45443 0.13928,-1.0563 0.67944,-1.69677 0.0872,0.49075 -0.16516,1.02005 -0.67944,1.69677 z"
   id="path187" />
<path
   fill="#d96a32"
   opacity="1"
   stroke="none"
   d="m 297.32526,200.70645 c 0.004,0.44348 -0.26547,1.05819 -0.88184,1.76346 -0.0284,-0.4704 0.28953,-1.03132 0.88184,-1.76346 z"
   id="path188" />



<path
   fill="#d96a32"
   opacity="1"
   stroke="none"
   d="m 335.23264,231.85373 c -0.14273,-0.24265 -0.0302,-0.58609 0.34988,-1.03092 0.14685,0.24246 0.0261,0.5863 -0.34988,1.03092 z"
   id="path192" />

<path
   fill="#d96a32"
   opacity="1"
   stroke="none"
   d="m 330.77658,199.55105 c 0.31415,0.14765 0.58497,0.33545 0.91565,0.76929 0.0599,0.24603 0.001,0.30676 -0.24722,0.2243 -0.51526,-0.28479 -0.69684,-0.54644 -0.79297,-0.86743 0,0 0.0812,-0.086 0.12454,-0.12616 z"
   id="path194" />
<path
   fill="#d96a32"
   opacity="1"
   stroke="none"
   d="m 333.20264,234.85379 c -0.13229,-0.24161 -0.007,-0.58503 0.38861,-1.02661 0.13684,0.24282 0.003,0.58383 -0.38861,1.02661 z"
   id="path195" />
<path
   fill="#d96a32"
   opacity="1"
   stroke="none"
   d="m 332.8617,235.53201 c -0.28916,-0.0771 -0.44287,-0.28461 -0.59662,-0.49207 0.13254,-0.0462 0.26511,-0.0925 0.60773,-0.0715 0.21005,0.0672 0.12436,0.43326 -0.0111,0.5636 z"
   id="path196" />




<path
   fill="#0d132c"
   opacity="1"
   stroke="none"
   d="m 356.45282,551.64322 c 0.1192,-0.0626 0.25803,-0.10419 0.23365,-0.0492 -0.16324,0.0967 -0.21402,0.0701 -0.23365,0.0492 z"
   id="path201" />
<path
   fill="#0d132c"
   opacity="1"
   stroke="none"
   d="m 355.44736,550.60354 c -0.0593,-0.0616 0.30588,-0.36505 0.30588,-0.36505 0,0 0.32907,0.33881 0.15674,0.50665 -0.17237,0.16785 -0.40332,-0.0801 -0.46262,-0.1416 z"
   id="path202" />





<path
   fill="#d96a32"
   opacity="1"
   stroke="none"
   d="m 85.374906,472.5007 c 0.006,0.15558 -0.2241,0.35608 -0.56662,0.39764 -0.11197,-0.15899 0.32968,-0.35272 0.56662,-0.39764 z"
   id="path208" />
<path
   fill="#d96a32"
   opacity="1"
   stroke="none"
   d="m 298.3584,199.55508 c 0.0649,0.18863 -0.11459,0.50812 -0.55121,0.94165 -0.0691,-0.19424 0.11887,-0.50253 0.55121,-0.94165 z"
   id="path209" />


<path
   fill="#d96a32"
   opacity="1"
   stroke="none"
   d="m 301.5484,196.49371 c 0.0304,0.20825 -0.23785,0.53995 -0.807,0.9816 -0.0312,-0.21277 0.23864,-0.53546 0.807,-0.9816 z"
   id="path212" />
<path
   fill="#dc723e"
   opacity="1"
   stroke="none"
   d="m 76.739396,193.61163 c -0.7069,-6.74561 -1.82892,-13.47885 -2.03089,-20.23953 -0.37518,-12.55811 4.49805,-23.7894 10.48661,-34.39865 15.302234,-27.1092 37.189984,-48.327519 61.451024,-67.312749 3.52917,-2.76172 7.14561,-5.4368 10.89724,-7.88272 4.16457,-2.71509 8.77628,-3.3258 13.29076,-1.01205 23.40885,11.99734 44.26086,27.00525 58.46304,49.847349 9.70328,15.6062 14.68076,32.66086 15.31482,50.89935 0.25821,7.42679 0.16382,15.09146 -1.37372,22.30618 -2.83224,13.28992 -10.56842,23.86316 -21.68322,32.72266 -10.03794,7.00498 -20.46515,11.5593 -31.76468,14.14639 -17.86514,4.09027 -35.96271,4.21216 -53.95084,1.8656 -25.03789,-3.26617 -43.919074,-16.51773 -57.279524,-38.12515 -0.26511,-0.52878 -0.51664,-0.72861 -0.86965,-0.80557 -0.0205,0.0209 0.0371,0.0103 0.0179,-0.29245 -0.34463,-0.77585 -0.67005,-1.24896 -0.9988,-1.71314 -0.003,0.009 0.03,-0.006 0.03,-0.006 m 46.199774,-34.06616 c -0.69866,1.30383 -1.76606,2.5383 -2.027,3.92453 -0.78897,4.19116 -0.0331,8.36911 3.90812,10.4032 2.06218,1.06436 5.56872,1.00683 7.67216,-0.0452 4.00183,-2.00156 4.79021,-8.80222 2.1713,-12.8714 -2.51874,-3.91351 -6.3669,-4.58173 -11.72458,-1.41113 m 91.89897,7.74249 c 2.67807,-3.18252 3.40045,-6.70212 1.93753,-10.65625 -1.84415,-4.98459 -6.64703,-7.19312 -10.59543,-4.82059 -3.63443,2.18381 -4.97278,8.60672 -2.70551,12.9838 2.25071,4.34506 5.77814,5.31256 11.36341,2.49304 m 13.44498,-33.58322 c -6.11673,-7.87467 -19.88797,-9.50525 -27.78107,-3.17459 -0.88416,0.7091 -1.94376,2.62945 -1.61734,3.12002 0.67789,1.01883 2.16479,1.73789 3.44665,2.04108 1.03189,0.24408 2.27689,-0.21146 3.38318,-0.5166 6.34204,-1.74948 12.63919,-2.24585 19.02567,-0.0413 1.03521,0.35736 2.46747,-0.43527 3.54291,-1.42862 m -96.39664,3.81213 c -10.11467,-2.71649 -21.45561,3.30908 -20.48689,11.17877 0.78453,-0.21359 1.69859,-0.20739 2.24829,-0.65188 5.09623,-4.12076 10.92802,-5.07938 17.28604,-4.58005 1.70237,0.1337 3.49791,-0.91897 5.25068,-1.427 -1.17645,-1.43579 -2.3529,-2.87155 -4.29812,-4.51984 m 42.21057,69.04605 c 3.19205,-0.81472 6.45425,-1.43521 9.53833,-2.54901 1.0856,-0.39209 1.73489,-1.9924 2.58337,-3.04107 -1.28979,-0.0583 -2.78177,-0.57199 -3.83746,-0.10321 -8.60855,3.82269 -16.16144,1.05474 -23.58336,-3.33268 -1.19687,-0.70752 -2.76871,-0.7807 -4.16722,-1.14709 0.61501,1.46976 0.86365,3.8316 1.90639,4.25983 5.45508,2.24026 11.11159,3.99011 17.55995,5.91323 m 11.20462,-36.10959 c -1.77005,-0.34417 -3.54007,-0.68835 -5.31012,-1.03253 0.93298,1.30973 1.62521,2.93186 2.84378,3.87095 3.73041,2.87478 3.49631,6.55133 2.29776,10.32528 -0.52887,1.66544 -1.83884,3.08286 -3.03113,4.99231 8.01398,-2.10855 9.94287,-11.58056 3.19971,-18.15601 z"
   id="path213" />
<path
   fill="#41b8e5"
   opacity="1"
   stroke="none"
   d="m 202.66227,378.73898 c -9.79947,0.91565 -19.5824,2.16199 -29.40311,2.65375 -9.74379,0.48797 -19.52562,0.21631 -29.79373,-0.15161 -0.62921,-10.46949 -0.75545,-20.5094 -0.88169,-30.54938 0.007,-3.36707 0.0136,-6.73407 -0.0361,-10.55506 -0.12645,-20.94 -1.91586,-41.26147 -5.90274,-61.76626 10.34787,2.53955 20.77072,4.8848 31.68207,4.42758 8.36954,-0.35068 15.88537,-2.71689 22.8038,-7.7291 2.11096,4.58552 3.7579,8.91208 5.57431,13.16624 5.33292,12.49011 10.73319,24.95141 16.10709,37.42401 4.38605,14.89526 8.77212,29.79052 13.38269,45.33325 0.24737,1.28045 0.27029,1.91351 -0.0875,2.59649 -8.06884,1.75 -15.75698,3.45008 -23.44509,5.15009 z"
   id="path214" />
<path
   fill="#fb9b1c"
   opacity="1"
   stroke="none"
   d="m 78.654566,196.65536 c 13.2659,21.38037 32.147084,34.63193 57.184974,37.8981 17.98813,2.34656 36.0857,2.22467 53.95084,-1.8656 11.29953,-2.58709 21.72674,-7.14141 31.57052,-13.879 1.95035,4.96436 -2.64346,6.62467 -5.315,8.422 -11.75152,7.90616 -24.91815,12.36597 -39.04794,13.34485 -10.58373,0.73322 -21.30913,1.78116 -31.80989,0.8558 -21.20157,-1.86837 -40.35767,-9.03448 -56.883044,-23.3833 -18.93022,-16.43701 -27.33913,-37.67578 -31.74382,-61.40509 -2.35239,-12.67288 -5.52135,-25.19403 -8.30809,-37.78671 -0.23925,-1.08108 -0.3752,-2.18503 0.39383,-3.59241 2.61257,6.73877 5.39109,13.4188 7.80377,20.2284 5.30263,14.9664 10.44203,29.99078 15.5995,45.00821 1.44516,4.20797 2.72121,8.47406 4.382,12.91226 0.30718,0.19876 0.27387,0.21322 0.28464,0.5108 0.34406,0.76819 0.67732,1.2388 1.01059,1.70938 0,0 -0.0576,0.0106 -0.0415,0.22476 0.33358,0.40864 0.65112,0.60309 0.96865,0.79755 z"
   id="path215" />
<path
   fill="#abe0fc"
   opacity="1"
   stroke="none"
   d="m 213.16452,325.574 c -5.72628,-12.38745 -11.12655,-24.84875 -16.45947,-37.33886 -1.81641,-4.25416 -3.46335,-8.58072 -5.25601,-13.26551 4.51181,-4.21429 9.09195,-8.03729 13.97006,-11.99109 2.68411,2.05026 5.02283,4.28635 7.47089,6.39554 2.07858,1.79092 2.01831,3.27377 0.23877,5.42276 -7.67392,9.26685 -7.5994,9.83093 2.21408,17.25122 4.23205,3.19995 6.40689,6.56391 4.35882,12.23029 -2.49838,6.91229 -4.16079,14.12671 -6.53714,21.29565 z"
   id="path216" />
<path
   fill="#fb9b1c"
   opacity="1"
   stroke="none"
   d="m 189.8161,251.78482 c -8.91726,1.61383 -17.43005,3.14621 -25.94288,4.67859 -0.14795,-0.59095 -0.29592,-1.18189 -0.44386,-1.77283 20.12158,-5.58463 40.79324,-9.86746 57.44393,-24.10397 0.33472,5.40869 -5.69851,14.22708 -10.62527,15.67245 -6.63699,1.94714 -13.34814,3.64148 -20.43192,5.52576 z"
   id="path217" />
<path
   fill="#fb9b1c"
   opacity="1"
   stroke="none"
   d="m 148.17572,272.7344 c 0.10967,0.67011 -0.11395,1.76557 -0.40252,1.78296 -5.50481,0.33164 -25.32445,-7.48486 -29.12122,-11.26971 9.58266,3.09243 19.37143,6.25137 29.52374,9.48675 z"
   id="path218" />
<path
   fill="#fb9b1c"
   opacity="1"
   stroke="none"
   d="m 135.49077,276.73922 c -1.29611,-0.0502 -2.36543,-0.31018 -3.67366,-0.80212 1.14087,0.0428 2.52068,0.31753 3.67366,0.80212 z"
   id="path219" />
<path
   fill="#fb9b1c"
   opacity="1"
   stroke="none"
   d="m 115.64788,261.68091 c -0.43454,-0.13782 -0.86907,-0.27567 -1.30361,-0.41349 0.36583,-0.0181 0.73165,-0.0362 1.2124,0.16516 0.11492,0.21952 0.0912,0.24833 0.0912,0.24833 z"
   id="path220" />
<path
   fill="#fb9b1c"
   opacity="1"
   stroke="none"
   d="m 115.68582,261.6401 c 0.13431,0.14649 0.25441,0.305 0.37452,0.4635 -0.0966,-0.0459 -0.19329,-0.0917 -0.3512,-0.28012 -0.0613,-0.14257 -0.0376,-0.17138 -0.0233,-0.18338 z"
   id="path221" />
<path
   fill="#fb9b1c"
   opacity="1"
   stroke="none"
   d="m 46.487566,270.83316 c 0.0542,-0.0302 0.17981,-0.0701 0.15504,0.004 -0.15034,0.11398 -0.0837,-0.0137 -0.15504,-0.004 z"
   id="path222" />



































































<path
   fill="#102040"
   opacity="1"
   stroke="none"
   d="m 202.68415,378.96914 c 7.66623,-1.93017 15.35437,-3.63025 23.53289,-4.97632 1.0561,3.16169 1.62171,5.96943 2.18735,8.77723 0.0724,0.42169 0.14478,0.84344 0.27353,1.9826 2.28821,18.34363 3.80853,35.99756 2.08374,53.81873 -0.0442,0.0422 -0.12924,0.13 -0.12924,0.13 -0.65259,-1.30847 -1.88461,-2.6264 -1.86331,-3.92383 0.13302,-8.10705 0.91211,-16.21728 0.74069,-24.31085 -0.11902,-5.61835 -1.45908,-11.20642 -2.17572,-16.81799 -0.46368,-3.63092 -1.05685,-7.27612 -1.10767,-10.92169 -0.0711,-5.09918 -1.95874,-6.75757 -7.05243,-5.78333 -5.17733,0.9903 -10.3862,1.8158 -16.00717,2.71503 -0.42596,0.002 -0.46075,-0.45947 -0.48266,-0.68958 z"
   id="path290" />
<path
   fill="#102040"
   opacity="1"
   stroke="none"
   d="m 239.69101,437.70889 c 0,0 -0.0274,0.47192 -0.0209,0.70825 0.007,0.23627 0.002,0.2334 -0.21848,0.34113 -0.49655,0.30603 -0.68503,0.5675 -0.78576,0.89227 -2.63443,-0.10168 -5.26886,-0.20337 -7.96836,-0.62708 -0.0651,-0.32208 0.02,-0.40985 0.46433,-0.38928 3.13925,-0.29467 5.83423,-0.60998 8.5292,-0.92529 z"
   id="path291" />
<path
   fill="#0d132c"
   opacity="1"
   stroke="none"
   d="m 238.8848,439.54178 c -0.11823,-0.21601 0.0703,-0.47748 0.56754,-0.78174 0.11471,0.21472 -0.0752,0.47436 -0.56754,0.78174 z"
   id="path292" />




<path
   fill="#abe0fc"
   opacity="1"
   stroke="none"
   d="m 112.41974,319.70492 c -2.91427,5.83887 -6.06987,11.88513 -9.38893,17.84033 -1.02118,1.83222 -2.48912,3.41541 -3.851424,5.24549 -0.3936,-1.18726 -0.7723,-2.32953 -1.26702,-3.77728 3.325014,-4.91199 6.751704,-9.52936 10.214424,-14.11957 1.28615,-1.70496 2.65668,-3.34625 4.29295,-5.18897 z"
   id="path297" />
<path
   fill="#abe0fc"
   opacity="1"
   stroke="none"
   d="m 113.57141,318.48526 c -0.0665,0.18682 -0.23342,0.20587 -0.65051,0.25818 0.0166,-0.11988 0.28331,-0.27289 0.65051,-0.25818 z"
   id="path298" />





















<path
   fill="#112242"
   opacity="1"
   stroke="none"
   d="m 206.11432,576.33755 c 1.50675,0.44245 2.65634,1.04108 4.13114,1.49646 1.29388,0.56915 2.26257,1.2815 3.38437,2.64295 0.91961,1.01892 1.68609,1.38861 2.4526,1.75824 0,0 -0.14505,0.20916 -0.0873,0.40039 0.41742,0.31884 0.7771,0.44641 1.13675,0.57403 0,0 -0.31018,0.21204 -0.29489,0.56885 -0.34464,2.82574 0.58255,5.99945 -3.39923,6.46094 -3.77365,0.43738 -7.57419,1.48071 -11.3078,1.27197 -12.21024,-0.68274 -24.3953,-1.81482 -36.59006,-2.77411 0,0 0.0967,-0.046 0.0663,-0.34003 -0.51283,-0.60253 -0.9952,-0.91101 -1.4776,-1.21948 0,0 0.004,-0.0278 -0.008,-0.0148 -0.58549,-1.09527 -1.15837,-2.20349 -1.73123,-3.31177 -1.31607,1.06525 -2.63216,2.1305 -4.9254,3.9867 -1.46045,-0.0916 -4.32303,-0.27112 -7.84892,-0.49225 0.54861,-7.18945 1.15571,-13.86591 5.83126,-19.68964 10.51716,3.1742 20.53394,6.98023 30.87122,9.43885 6.24829,1.48614 13.06381,2.55877 19.7973,-0.75733 z"
   id="path320" />
<path
   fill="#0d132c"
   opacity="1"
   stroke="none"
   d="m 165.6315,588.98849 c 12.10318,0.70807 24.28824,1.84015 36.49848,2.52289 3.73361,0.20874 7.53415,-0.83459 11.3078,-1.27197 3.98178,-0.46149 3.05459,-3.6352 3.56747,-6.54456 2.94754,4.52081 2.10016,7.4906 -3.29529,7.8454 -10.54605,0.69324 -21.15393,0.46759 -31.73678,0.55865 -1.81613,0.0156 -3.63495,-0.28375 -6.28995,-0.44372 -3.54364,-0.41309 -6.24985,-0.82007 -8.95605,-1.22705 -0.33469,-0.39618 -0.66941,-0.7923 -1.09568,-1.43964 z"
   id="path321" />
<path
   fill="#ffffff"
   opacity="1"
   stroke="none"
   d="m 150.02034,589.55642 c 3.08982,-0.24347 6.29697,-0.11779 9.89827,-0.17688 -1.28619,0.60791 -2.92646,1.91071 -4.65841,2.0467 -1.65796,0.13031 -3.41117,-0.9516 -5.23986,-1.86982 z"
   id="path322" />
<path
   fill="#ffffff"
   opacity="1"
   stroke="none"
   d="m 166.86268,590.79348 c 2.5707,0.0416 5.27691,0.44861 8.39446,0.9347 -2.47876,-0.13709 -5.36883,-0.35321 -8.39446,-0.9347 z"
   id="path323" />
<path
   fill="#ffffff"
   opacity="1"
   stroke="none"
   d="m 147.62928,581.76162 c 0.22216,1.56287 0.13386,3.29486 0.0499,5.46113 -3.13175,-1.28254 -1.86765,-3.27955 -0.0499,-5.46113 z"
   id="path324" />
<path
   fill="#ffffff"
   opacity="1"
   stroke="none"
   d="m 160.55091,589.25772 c -0.18644,-1.23377 -0.0934,-2.5315 0.24778,-3.76026 0.053,-0.19104 1.23941,-0.0675 2.01131,0.3003 -0.55965,1.39941 -1.2289,2.40911 -2.25909,3.45996 z"
   id="path325" />
<path
   fill="#0d132c"
   opacity="1"
   stroke="none"
   d="m 215.91474,581.98208 c -0.59882,-0.11651 -1.3653,-0.4862 -2.14597,-1.23352 0.64997,0.0751 1.31409,0.52777 2.14597,1.23352 z"
   id="path326" />
<path
   fill="#ffffff"
   opacity="1"
   stroke="none"
   d="m 148.54346,577.84823 c 0.18771,0.81336 0.045,1.87989 -0.38083,3.23688 -0.17196,-0.80084 -0.0608,-1.89233 0.38083,-3.23688 z"
   id="path327" />
<path
   fill="#0d132c"
   opacity="1"
   stroke="none"
   d="m 164.27309,587.41751 c 0.33788,0.0687 0.82025,0.3772 1.30687,1.02636 -0.38464,-0.035 -0.77351,-0.41082 -1.30687,-1.02636 z"
   id="path328" />
<path
   fill="#ffffff"
   opacity="1"
   stroke="none"
   d="m 148.85361,588.91293 c 0.1852,-0.14807 0.52397,-0.0785 1.0184,0.20282 -0.18449,0.14612 -0.52466,0.0804 -1.0184,-0.20282 z"
   id="path329" />
<path
   fill="#0d132c"
   opacity="1"
   stroke="none"
   d="m 217.00309,582.98489 c -0.23084,0.0971 -0.59052,-0.0305 -0.96842,-0.47021 0.2677,-0.12629 0.55365,0.0596 0.96842,0.47021 z"
   id="path330" />
<path
   fill="#abe0fc"
   opacity="1"
   stroke="none"
   d="m 236.66877,294.32766 c -0.36823,-0.43304 -0.71775,-1.20904 -1.04535,-2.32446 0.36929,0.43427 0.7167,1.20795 1.04535,2.32446 z"
   id="path331" />
<path
   fill="#abe0fc"
   opacity="1"
   stroke="none"
   d="m 235.6402,291.36416 c -0.32284,-0.16333 -0.65323,-0.63098 -0.99237,-1.40393 0.32245,0.16297 0.65366,0.63135 0.99237,1.40393 z"
   id="path332" />
<path
   fill="#abe0fc"
   opacity="1"
   stroke="none"
   d="m 234.65357,289.44412 c -0.26776,0.052 -0.53574,-0.13336 -0.91297,-0.54419 0.23139,-0.048 0.57206,0.12945 0.91297,0.54419 z"
   id="path333" />























<path
   fill="#ffffff"
   opacity="1"
   stroke="none"
   d="m 239.91675,437.56253 c -2.92071,0.46167 -5.61569,0.77698 -8.71081,1.02942 1.28051,-17.84174 -0.23981,-35.49567 -2.42139,-53.53663 0.99277,3.18616 2.55472,6.75165 2.76291,10.39454 0.64972,11.36718 0.85986,22.76208 1.09668,34.14929 0.14334,6.89245 0.0237,6.89496 7.34915,7.2984 0.38403,0.24768 0.2666,0.38318 -0.0765,0.66498 z"
   id="path357" />
<path
   fill="#ffffff"
   opacity="1"
   stroke="none"
   d="m 228.72354,382.54324 c -0.88479,-2.58099 -1.4504,-5.38873 -2.12576,-8.60046 -0.13266,-1.03687 -0.15558,-1.66993 -0.19958,-2.62073 0.86743,3.45294 1.75595,7.22363 2.32534,11.22119 z"
   id="path358" />
<path
   fill="#ffffff"
   opacity="1"
   stroke="none"
   d="m 242.32276,436.72928 c -0.01,0.17474 -0.46573,0.37591 -1.12854,0.35009 0.0896,-0.25909 0.38589,-0.29132 1.12854,-0.35009 z"
   id="path359" />









<path
   fill="#ffffff"
   opacity="1"
   stroke="none"
   d="m 142.30193,350.99228 c 0.40805,9.73944 0.53429,19.77935 0.72194,30.28595 -1.76264,20.71295 -3.58368,40.95953 -5.42479,61.20434 -0.0571,0.62738 -0.32204,1.23584 -0.80959,3.02686 -11.01274,-2.35773 -21.9302,-4.69501 -33.13806,-7.27887 6.17682,0.82165 12.64292,1.89673 19.11177,2.95489 3.08623,0.50489 6.17133,1.02381 9.26857,1.45221 2.91962,0.40369 4.32642,-1.14453 4.60703,-3.89105 1.35594,-13.27106 3.13652,-26.51782 3.92177,-39.82306 0.93544,-15.8504 1.01127,-31.75159 1.74136,-47.93127 z"
   id="path369" />
<path
   fill="#ffffff"
   opacity="1"
   stroke="none"
   d="m 103.39765,437.68881 c -0.55034,0.20935 -1.0408,0.0696 -1.74405,-0.21478 0.239,-0.53662 0.69076,-0.92859 1.14253,-1.32062 0.22046,0.39545 0.44092,0.79083 0.60152,1.5354 z"
   id="path370" />


























<path
   fill="#dc723e"
   opacity="1"
   stroke="none"
   d="m 330.26593,199.67679 c 0.48224,0.32141 0.66382,0.58306 1.1467,0.89501 -1.13839,5.49418 -2.2146,10.9762 -4.04355,16.19434 -0.45334,1.2934 -3.34628,1.73172 -5.11776,2.56311 -0.60212,-1.78885 -2.08423,-3.84329 -1.63965,-5.31619 1.28165,-4.24597 3.14843,-8.35837 5.21859,-12.29541 0.57264,-1.08914 2.65815,-1.38275 4.43567,-2.04086 z"
   id="path397" />
<path
   fill="#0d132c"
   opacity="1"
   stroke="none"
   d="m 123.20642,159.27951 c 5.09043,-2.90464 8.93859,-2.23642 11.45733,1.67709 2.61891,4.06918 1.83053,10.86984 -2.1713,12.8714 -2.10344,1.05203 -5.60998,1.10956 -7.67216,0.0452 -3.94121,-2.03409 -4.69709,-6.21204 -3.90812,-10.4032 0.26094,-1.38623 1.32834,-2.6207 2.29425,-4.19049 z"
   id="path398" />
<path
   fill="#102040"
   opacity="1"
   stroke="none"
   d="m 214.5419,167.51852 c -5.28903,2.58896 -8.81646,1.62146 -11.06717,-2.7236 -2.26727,-4.37708 -0.92892,-10.79999 2.70551,-12.9838 3.9484,-2.37253 8.75128,-0.164 10.59543,4.82059 1.46292,3.95413 0.74054,7.47373 -2.23377,10.88681 z"
   id="path399" />
<path
   fill="#7d311b"
   opacity="1"
   stroke="none"
   d="m 228.36975,134.07089 c -1.16207,0.6272 -2.59433,1.41983 -3.62954,1.06247 -6.38648,-2.20456 -12.68363,-1.70819 -19.02567,0.0413 -1.10629,0.30514 -2.35129,0.76068 -3.38318,0.5166 -1.28186,-0.30319 -2.76876,-1.02225 -3.44665,-2.04108 -0.32642,-0.49057 0.73318,-2.41092 1.61734,-3.12002 7.8931,-6.33066 21.66434,-4.70008 27.8677,3.54074 z"
   id="path400" />
<path
   fill="#7d311b"
   opacity="1"
   stroke="none"
   d="m 132.27086,137.62313 c 1.56084,1.54203 2.73729,2.97779 3.91374,4.41358 -1.75277,0.50803 -3.54831,1.5607 -5.25068,1.427 -6.35802,-0.49933 -12.18981,0.45929 -17.28604,4.58005 -0.5497,0.44449 -1.46376,0.43829 -2.24829,0.65188 -0.96872,-7.86969 10.37222,-13.89526 20.87127,-11.07251 z"
   id="path401" />
<path
   fill="#8f331a"
   opacity="1"
   stroke="none"
   d="m 173.66608,206.56152 c -6.01739,-1.92172 -11.6739,-3.67157 -17.12898,-5.91183 -1.04274,-0.42823 -1.29138,-2.79007 -1.90639,-4.25983 1.39851,0.36639 2.97035,0.43957 4.16722,1.14709 7.42192,4.38742 14.97481,7.15537 23.58336,3.33268 1.05569,-0.46878 2.54767,0.0449 3.83746,0.10324 -0.84848,1.04864 -1.49777,2.64895 -2.58337,3.04104 -3.08408,1.1138 -6.34628,1.73429 -9.9693,2.54761 z"
   id="path402" />
<path
   fill="#8f331a"
   opacity="1"
   stroke="none"
   d="m 185.61951,170.65609 c 6.42532,6.37269 4.49643,15.8447 -3.51755,17.95325 1.19229,-1.90945 2.50226,-3.32687 3.03113,-4.99231 1.19855,-3.77395 1.43265,-7.4505 -2.29776,-10.32528 -1.21857,-0.93909 -1.9108,-2.56122 -2.84378,-3.87095 1.77005,0.34418 3.54007,0.68836 5.62796,1.23529 z"
   id="path403" />
<path
   fill="#ffb42b"
   opacity="1"
   stroke="none"
   d="m 77.708216,195.33029 c -0.31404,-0.16782 -0.6473,-0.63843 -0.98803,-1.41556 0.31798,0.1666 0.6434,0.63971 0.98803,1.41556 z"
   id="path404" />
<path
   fill="#ffb42b"
   opacity="1"
   stroke="none"
   d="m 78.559996,196.42831 c -0.22296,0.0326 -0.5405,-0.16186 -0.85359,-0.5914 0.33697,-0.13721 0.5885,0.0626 0.85359,0.5914 z"
   id="path405" />









</svg>
