<?xml version="1.0" encoding="UTF-8" standalone="no"?>
<svg
   version="1.1"
   id="Layer_1"
   x="0px"
   y="0px"
   width="330.31277"
   viewBox="0 0 330.31277 636.97809"
   enable-background="new 0 0 1536 1024"
   xml:space="preserve"
   sodipodi:docname="characters-together-welcomescreen.svg"
   inkscape:version="1.4.2 (f4327f4, 2025-05-13)"
   height="636.97809"
   xmlns:inkscape="http://www.inkscape.org/namespaces/inkscape"
   xmlns:sodipodi="http://sodipodi.sourceforge.net/DTD/sodipodi-0.dtd"
   xmlns="http://www.w3.org/2000/svg"
   xmlns:svg="http://www.w3.org/2000/svg"><defs
   id="defs414" /><sodipodi:namedview
   id="namedview414"
   pagecolor="#ffffff"
   bordercolor="#000000"
   borderopacity="0.25"
   inkscape:showpageshadow="2"
   inkscape:pageopacity="0.0"
   inkscape:pagecheckerboard="0"
   inkscape:deskcolor="#d1d1d1"
   inkscape:zoom="0.78808594"
   inkscape:cx="345.77447"
   inkscape:cy="315.32094"
   inkscape:window-width="1920"
   inkscape:window-height="1009"
   inkscape:window-x="1912"
   inkscape:window-y="-8"
   inkscape:window-maximized="1"
   inkscape:current-layer="Layer_1" />



<path
   fill="#fe9f71"
   opacity="1"
   stroke="none"
   d="m 160.54037,239.18675 c -9.12494,-3.86307 -18.57324,-7.11927 -27.28363,-11.76044 -8.66821,-4.61865 -16.09796,-11.15735 -21.23193,-20.26224 -9.07331,4.43646 -18.202456,5.3551 -27.581326,1.8855 -10.35141,-3.82938 -17.32743,-12.58441 -17.47205,-22.03174 -0.15576,-10.1756 4.74561,-16.92343 14.51276,-19.97864 0.94897,-0.29684 1.89963,-0.58847 3.63138,-0.94723 12.32751,-2.30753 22.129636,0.905 30.297296,9.87884 0.99652,-7.95681 1.92938,-15.40506 3.19409,-22.90097 6.71411,-9.21762 13.68024,-18.04794 19.27954,-27.67337 3.92462,-6.74661 5.98431,-14.57806 8.98291,-22.19433 1.33124,0.59936 2.53662,1.09677 3.7027,1.6737 22.10614,10.93762 45.79663,15.46418 70.1568,15.99738 11.33655,0.24814 22.78039,-1.46643 34.06744,-3.05811 6.22083,-0.87722 12.21753,-3.34314 18.36115,-5.42987 0.90368,0.48911 2.36255,1.21057 2.52752,2.1575 1.90241,10.91779 3.62714,21.86689 5.36042,32.81375 1.03912,6.56275 2.01001,13.13633 3.01233,20.10578 4.35858,12.19458 2.73895,24.48331 2.99908,36.61642 -7.02521,26.03351 -26.13715,37.93683 -50.91534,41.78763 -11.00849,1.71088 -22.48029,0.44092 -34.60981,0.39996 -14.24249,-2.4425 -27.61688,-4.76101 -40.99133,-7.07952 M 251.6957,186.7317 c 0.12958,-2.29834 0.61091,-4.64325 0.31397,-6.88507 -0.57996,-4.37732 -4.21753,-6.79807 -8.21594,-5.72275 -3.86926,1.04059 -4.93421,4.27005 -5.14661,7.66626 -0.23962,3.83197 0.84222,7.4487 4.80982,8.9552 3.37304,1.28073 6.16363,0.0528 8.23876,-4.01364 m -82.15118,-14.8898 c -2.55182,0.42837 -6.46185,0.0166 -7.35968,1.46814 -1.63653,2.6456 -2.41791,6.59814 -1.76269,9.61609 0.45379,2.09018 3.91815,4.88427 6.03277,4.88034 2.18152,-0.004 5.41492,-2.59293 6.29718,-4.80509 1.45807,-3.65588 1.12628,-7.84823 -3.20758,-11.15948 m 7.75617,-32.58734 c -9.47608,-3.74241 -22.16272,0.76846 -23.30426,8.86749 6.81933,-4.17377 13.77435,-4.8681 21.16009,-2.78021 1.76007,0.49753 3.91431,-0.3996 5.88727,-0.65528 -1.02924,-1.67202 -2.05847,-3.34405 -3.7431,-5.432 m 68.2315,1.51181 c -2.88306,1.20541 -5.9928,2.23178 -5.37433,5.84137 8.42871,0.94693 16.50086,1.85376 24.30011,2.72995 -2.90509,-6.23163 -9.88562,-9.7808 -18.92578,-8.57132 m -59.72888,66.03158 c -0.24847,-0.43152 -0.40332,-0.9758 -0.76251,-1.27398 -1.21253,-1.00641 -2.4975,-1.92542 -3.7547,-2.87787 0.0991,1.66955 -0.31732,3.604 0.38214,4.96499 4.09619,7.97031 16.35889,13.23282 24.77045,10.72418 1.22912,-0.36654 2.2077,-1.57327 3.30212,-2.39132 -1.20874,-0.33826 -2.45447,-1.0639 -3.62018,-0.9523 -7.9339,0.75924 -14.83771,-0.99692 -20.31732,-8.1937 m 39.15314,-14.69989 c -2.0343,-2.15033 -3.31952,-5.88034 -7.85956,-3.9306 2.09406,3.10266 5.13733,5.67871 5.34027,8.46191 0.19855,2.72214 -2.49921,5.65546 -3.71826,8.08322 6.4187,-0.52938 8.70984,-4.19073 6.23755,-12.61453 z"
   id="path4" />

<path
   fill="#46181c"
   opacity="1"
   stroke="none"
   d="m 284.05697,167.0615 c -1.00152,-6.56869 -1.97241,-13.14227 -3.01153,-19.70502 -1.73328,-10.94686 -3.45801,-21.89596 -5.36042,-32.81375 -0.16497,-0.94693 -1.62384,-1.66839 -2.68438,-2.13681 -0.20276,0.35779 -0.37915,0.61826 -0.5553,0.19022 -2.55872,-0.38644 -4.94129,-0.34485 -7.79254,-0.36508 -15.7627,-0.80771 -31.1518,-0.74167 -46.32508,-2.51898 -16.43743,-1.92542 -32.94067,-4.56681 -48.90277,-8.81946 -10.48065,-2.792304 -20.05291,-8.994054 -30.09906,-13.700324 -0.0388,0.35477 -0.14526,1.46133 -0.28259,2.56406 -2.09619,16.830324 -6.0191,33.142244 -15.84338,47.275174 -3.5149,5.05649 -5.18946,10.13807 -4.92481,16.08597 -0.93286,7.44824 -1.86572,14.89649 -2.86224,22.8533 -8.16766,-8.97384 -17.969786,-12.18637 -29.926996,-9.94677 -3.77027,-15.13758 -7.50635,-30.20081 -10.37497,-45.42749 -2.5614,-13.59595 -3.1738,-27.364574 0.84295,-40.903514 4.15726,-14.01233 12.0889,-24.50227 26.901766,-28.57354 1.16229,-0.31948 2.20892,-1.655 2.96441,-2.75516 3.08765,-4.49665 6.04132,-9.08527 9.48883,-13.7374 0.94208,0.16544 1.64667,0.78577 1.90522,0.63602 2.71881,-1.57483 5.33923,-3.31816 8.03808,-4.92902 16.00519,-9.55279 33.41828,-14.81273 51.96356,-15.00853 10.52106,-0.11107 21.26789,0.81871 31.55695,2.9773 28.14038,5.90367 50.84564,20.3145 66.45288,45.07695 11.70813,18.57602 15.66657,39.291234 16.60571,60.661624 0.3208,7.29819 -1.8352,14.70526 -3.08636,22.23675 -0.37903,0.71851 -0.53125,1.26288 -0.69092,2.18534 -0.009,1.13409 -0.0111,1.8901 -6.1e-4,2.64477 0.0123,-10e-4 0.004,-0.0247 -0.2536,0.13666 -0.45435,0.72891 -0.65076,1.29642 -1.04797,1.9725 -0.44642,0.30695 -0.61096,0.55838 -0.7016,1.20151 -0.007,0.79019 -0.007,1.24167 0.004,1.69031 0.0104,-0.003 0.007,-0.0244 -0.34681,0.043 -0.45269,1.73035 -0.5512,3.39322 -0.65283,5.28137 -0.003,0.22528 0.032,0.6745 -0.0116,1.03513 -0.35772,1.77136 -0.67187,3.18213 -0.98602,4.59286 z"
   id="path6" />
<path
   fill="#112242"
   opacity="1"
   stroke="none"
   d="m 225.1166,497.26554 c 0,0 -0.0314,0.44696 -0.37695,0.94727 -0.43787,2.6853 -0.53021,4.87024 -0.62256,7.05523 0,0 -0.0284,0.44526 -0.37591,0.94343 -0.43934,2.68505 -0.53125,4.87188 -0.62311,7.05877 0,0 -0.0275,0.44263 -0.37219,0.93292 -0.4386,2.34827 -0.53248,4.20618 -0.62641,6.06409 0,0 -0.0254,0.44074 -0.36932,0.9212 -1.44031,9.34729 -2.53662,18.21406 -3.633,27.08088 0,0 -0.021,0.43945 -0.36767,0.92736 -0.44159,2.35004 -0.53656,4.21216 -0.63153,6.07435 6e-5,0 -0.0226,0.43762 -0.36573,0.90783 -2.08484,10.04273 -4.08093,19.57929 -5.43689,29.20606 -0.50726,3.60144 -2.51281,4.4613 -5.20007,4.62011 -13.37744,0.79059 -26.76239,1.47113 -40.15149,2.029 -2.04211,0.085 -4.11938,-0.6742 -6.20514,-1.04743 0.79437,-13.20587 1.51587,-25.90503 2.3357,-38.59778 0.60717,-9.40136 1.21014,-18.80627 2.04925,-28.18866 1.54395,-17.26403 3.30377,-34.50891 4.81903,-51.77526 0.11615,-1.32367 -0.98712,-2.75434 -1.52362,-4.13526 -0.78442,1.28681 -1.56878,2.57361 -2.65515,4.052 -0.76172,2.05805 -1.22137,3.92444 -1.98126,5.97968 -3.77167,10.72796 -7.24304,21.26715 -11.01068,32.0022 -8.12091,19.92871 -15.91962,39.67187 -23.78681,59.38769 -2.2005,5.51465 -4.60254,10.94873 -7.23993,16.56458 -0.81427,1.68029 -1.3006,3.21582 -2.2127,4.76806 -5.17096,-0.59234 -9.91608,-1.20141 -14.60352,-1.82153 0.0577,-0.0111 0.0437,0.10559 -0.10431,-0.20068 -0.77356,-0.34858 -1.39911,-0.39075 -2.07159,-0.39887 -0.0469,0.0341 -0.16156,0.0515 -0.12445,-0.27679 -1.18732,-0.59583 -2.411806,-0.86334 -3.963746,-1.13013 -1.09454,-0.37848 -1.86163,-0.75769 -2.78064,-1.35724 -0.48791,-0.23675 -0.82391,-0.25311 -1.18408,-0.26092 -0.0241,0.009 -0.0644,0.0401 -0.0837,-0.35035 -1.42719,-0.89154 -2.83508,-1.39263 -4.58823,-1.78961 -6.80627,-3.14099 -13.2673,-6.38611 -19.72836,-9.63122 -0.37732,-0.34333 -0.75467,-0.68659 -1.35486,-1.53949 -0.59262,-0.58673 -0.9624,-0.66394 -1.33221,-0.74109 0,0 0.26159,-0.0934 0.1405,-0.35303 -0.69617,-0.50799 -1.27124,-0.75641 -1.84631,-1.00482 0,0 0.0871,-0.0407 0.0686,-0.38324 -0.048,-2.08313 -0.53125,-3.96668 -0.0346,-5.54126 3.6251,-11.49286 7.55243,-22.8905 11.15894,-34.38898 1.62167,-5.17029 2.72659,-10.50268 4.06598,-15.76153 6.69806,-20.40692 13.39428,-40.81446 20.118766,-61.21265 0.072,-0.21857 0.51434,-0.315 1.13867,-0.53088 0.35486,-0.0625 0.34937,-0.0256 0.53357,0.23584 1.15674,0.66101 2.12928,1.0606 3.32068,1.73931 10.01972,4.05878 19.82044,7.83851 30.48834,11.95258 3.40778,-12.92535 6.4795,-24.57605 9.90302,-36.31518 1.03198,-2.39637 2.01984,-4.66297 2.33673,-7.01984 1.10339,-8.20496 1.01605,-8.20575 8.79468,-8.95868 0.42437,-0.0411 0.80621,-0.52106 1.55835,-0.82996 0.80719,0.0633 1.26397,0.15992 1.81817,0.60901 12.56702,3.6189 25.232,4.87726 38.09748,4.01514 0.26013,-0.0174 0.49536,-0.40552 1.12091,-0.67737 1.14019,-0.004 1.90167,0.0477 2.71838,0.43561 1.34052,0.11194 2.62592,-0.11188 4.25208,-0.40106 0.7998,-0.0244 1.25879,0.0164 1.98089,0.33069 1.40228,1.18042 3.50898,2.07434 3.52137,2.99652 0.0735,5.43774 -0.284,10.88537 -0.61683,16.32238 -0.13922,2.27478 -0.69641,4.52308 -0.85162,6.79792 -0.46783,6.85241 0.0673,13.92126 -1.46832,20.51452 -1.83008,7.85755 2.4964,9.89148 8.34033,8.81934 2.99707,-0.54993 6.07416,-0.66443 9.78033,-1.04389 -0.69842,9.06421 -1.32684,17.21869 -1.9552,25.37311 z"
   id="path7" />









<path
   fill="#cbf6ff"
   opacity="1"
   stroke="none"
   d="m 104.0364,347.12998 c -7.330986,8.68128 -14.910086,17.16785 -21.919826,26.10114 -6.4194,8.18097 -11.98086,17.03717 -18.4414,25.18262 -2.04071,2.57287 -5.76172,3.81298 -9.3227,5.39209 -7.16644,-4.31787 -13.89883,-8.11292 -20.21814,-12.50263 -4.01358,-2.78802 -7.41311,-6.4599 -11.08801,-9.73547 -6.90573,-6.60071 -4.285,-12.37427 0.15057,-19.54218 12.53251,-20.25281 27.67856,-38.44909 42.38419,-57.03457 11.93997,-15.09012 25.43762,-28.54282 41.468986,-39.12369 6.82001,-4.50122 14.79059,-7.25913 22.62751,-10.34442 0.638,20.15863 -0.28101,39.7568 -5.72162,58.82354 -1.8216,6.38373 -4.54303,12.51062 -7.16077,18.89722 -4.45801,4.72363 -8.6084,9.30499 -12.75879,13.88635 z"
   id="path17" />
<path
   fill="#e9feff"
   opacity="1"
   stroke="none"
   d="m 117.10281,333.10136 c 2.31012,-6.24433 5.03155,-12.37122 6.85315,-18.75495 5.44061,-19.06674 6.35962,-38.66491 6.11609,-58.83496 4.75622,-2.44662 9.50708,-4.41702 14.62823,-5.99975 -3.461,15.07486 -7.29217,29.76205 -11.02862,44.08587 5.6687,4.15824 10.68072,7.83478 15.68408,11.50501 -2.31915,4.03256 -3.86487,7.82654 -6.36005,10.83221 -5.46801,6.58661 -4.39038,12.60663 -0.0304,19.21143 3.96448,6.00543 7.24688,12.46112 11.03772,19.08099 1.02423,-1.94445 1.6084,-3.05346 2.17254,-3.70764 -0.57745,6.54877 -0.97503,12.66254 -1.72479,18.73273 -1.72149,13.93829 -3.61468,27.85547 -5.67578,42.08929 -1.30438,6.44831 -2.37109,12.58863 -3.43793,18.72888 -3.07171,11.65076 -6.14343,23.30146 -9.55121,36.22681 -10.6679,-4.11407 -20.46862,-7.8938 -30.55712,-12.31164 -1.33716,-0.97272 -2.38666,-1.30719 -3.4361,-1.64173 0,0 0.005,-0.0369 8.5e-4,-0.0133 -5.839226,-3.87732 -11.667776,-7.7873 -17.511286,-11.67487 -2.53079,-1.68365 -3.04034,-3.58093 -2.14877,-6.72266 6.41031,-22.5877 12.55667,-45.25042 18.744716,-67.90081 0.38715,-1.41712 0.41919,-2.9311 1.12298,-4.53431 2.56238,-4.02746 4.65021,-7.90417 6.66639,-11.81774 2.8396,-5.51197 5.62616,-11.05127 8.4353,-16.57886 m -7.54993,96.07678 c -11.088676,-2.65454 -11.088676,-2.65454 -13.041806,-0.0297 9.837156,7.66729 24.674626,8.26953 35.492006,5.96118 1.38757,-0.29615 2.43963,-2.16431 3.64715,-3.3042 -1.56872,-0.55329 -3.12506,-1.14722 -4.71423,-1.63391 -0.44372,-0.13593 -0.98682,0.0954 -1.48035,0.0729 -6.35901,-0.28991 -12.71734,-0.59539 -19.90277,-1.06622 z"
   id="path18" />



<path
   fill="#41b8e5"
   opacity="1"
   stroke="none"
   d="m 149.0126,411.03349 c 1.82349,-13.92572 3.71668,-27.8429 5.43817,-41.78119 0.74976,-6.07019 1.14734,-12.18396 1.97345,-19.04755 3.30786,-34.92199 4.45618,-69.06155 -0.42358,-103.1604 1.08606,-0.71954 2.17212,-1.43909 3.6773,-1.8071 1.60364,3.47986 2.03687,7.28556 4.12372,9.60037 4.85742,5.38798 10.34937,10.25428 15.95606,14.8812 1.4107,1.16418 4.85394,1.61984 6.28619,0.70856 7.3349,-4.66669 15.45203,-9.00812 15.40076,-19.57874 0,0 0.33087,0.14212 0.63537,0.55484 1.20417,3.59708 2.53797,6.72855 2.93378,9.97434 2.823,23.15255 5.55127,46.31781 8.09778,69.50229 0.9577,8.71899 1.3526,17.49981 1.99518,26.51287 0.0246,0.43091 0.0582,0.60138 0.0116,1.18573 -0.027,2.0976 0.0263,3.78138 0.0152,5.91095 -0.009,2.84321 0.0466,5.2406 0.0518,8.1026 -0.0196,7.80628 0.0111,15.14795 -0.0297,22.91932 -0.0357,2.169 1.2e-4,3.90832 -0.022,6.10644 -0.3919,5.46167 -0.72589,10.46448 -1.48486,15.41907 -2.13177,0.0262 -3.83862,0.10064 -5.54547,0.17511 -0.45892,-0.0408 -0.91791,-0.0817 -2.11273,-0.10266 -1.79474,0.0501 -2.85346,0.0804 -3.91223,0.11072 -0.76154,-0.0522 -1.52302,-0.10431 -3.10529,-0.16224 -13.50507,-1.21325 -26.18945,-2.42059 -38.87378,-3.62793 -0.45673,-0.0965 -0.91351,-0.19317 -2.09204,-0.34973 -3.47943,-0.72223 -6.23706,-1.38452 -8.99469,-2.04687 m 28.74054,-26.19025 c 0,0 0.30908,0.26111 0.53345,0.89874 3.63134,4.72022 7.26263,9.44043 11.17504,14.52594 4.68805,-6.14508 8.82111,-11.99365 13.42927,-17.44018 2.73486,-3.23242 3.37249,-6.28748 2.60345,-10.44251 -4.7204,-25.50341 -9.20862,-51.05047 -13.58435,-76.61548 -0.35132,-2.05249 0.36548,-4.50274 1.21265,-6.50265 2.04913,-4.83722 4.46899,-9.51743 7.01403,-14.83484 -10.73986,-2.08783 -20.77099,-3.33112 -32.14813,-1.42706 4.25666,6.5664 8.01703,12.36709 11.67365,19.0935 -1.14453,13.99384 -2.28907,27.9877 -3.59583,42.65567 0.0254,0.45948 0.051,0.91895 -0.0569,2.23902 -0.88184,12.58801 -1.92725,25.16845 -2.50464,37.77044 -0.11249,2.45459 1.59466,4.99262 2.46057,7.39972 0,0 -0.079,0.0479 0.11645,0.61737 0.55701,0.53681 1.11408,1.07361 1.60608,1.59839 0,0 -0.007,0.0658 0.0652,0.46393 z"
   id="path22" />



<path
   fill="#e9feff"
   opacity="1"
   stroke="none"
   d="m 215.19162,401.15922 c -0.0358,-1.73932 -0.0717,-3.47864 0.34686,-5.74719 0.64325,-7.91352 0.84216,-15.29761 0.96484,-22.68293 0.003,-0.19342 -0.82641,-0.40069 -1.2677,-0.60144 -0.0554,-2.3974 -0.11084,-4.79479 0.14881,-7.88873 0.14813,-2.48901 -0.0189,-4.28155 -0.18592,-6.07403 -0.0336,-0.17054 -0.0671,-0.34101 0.2406,-0.83759 1.99231,-2.36725 3.80683,-4.29846 5.26459,-6.4693 4.80634,-7.15753 9.62238,-14.31634 14.13635,-21.65814 1.61908,-2.63348 1.732,-5.43646 -1.08642,-8.05933 -3.51038,-3.26684 -6.64807,-6.97058 -9.65497,-10.7196 -0.90546,-1.129 -1.67651,-3.61359 -1.07379,-4.48981 2.71515,-3.94702 5.55707,-7.97766 9.10742,-11.1283 3.16113,-2.80514 3.17566,-5.01626 1.59735,-8.55911 -3.50122,-7.85931 -6.51947,-15.93384 -9.73462,-23.92059 1.40076,-4.58127 3.58911,-0.66992 5.85913,-0.1337 0.63117,0.64795 0.89874,0.82987 1.23169,0.91568 0,0 -0.0303,-7.6e-4 -0.0309,0.38208 0.51752,2.09802 0.92438,3.85669 1.57446,5.5203 2.09332,5.35684 5.05798,10.50598 6.28192,16.04556 4.08698,18.49786 8.06818,37.04867 11.10217,55.73959 2.16083,13.31159 2.732,26.88129 4.01258,40.33576 -0.31989,2.55981 -0.94983,5.12469 -0.90778,7.67852 0.21875,13.25965 0.94464,26.51941 0.82831,39.77332 -0.0861,9.81543 -0.99011,19.6427 -2.00629,29.41516 -0.20666,1.98676 -2.1806,4.81409 -3.96557,5.42468 -5.88587,2.01355 -12.05322,3.2107 -18.12458,4.67133 -1.83929,0.4425 -3.71752,0.72308 -5.90215,1.53107 -0.32422,0.45337 -0.77863,0.5086 -1.24451,0.54907 -0.77399,0.0875 -1.08216,0.13464 -1.38721,0.28259 0.003,0.10083 -0.19525,0.13703 -0.32629,-0.18036 -1.06366,0.005 -1.99616,0.32801 -3.25934,0.73517 -0.77936,0.0307 -1.22815,-0.0231 -1.7702,-0.22217 -0.36036,-0.0508 -0.62739,0.0437 -1.11384,0.21253 -0.21935,0.0743 -0.67907,0.13086 -1.14245,0.16736 -0.77026,0.0792 -1.07721,0.12176 -1.38385,0.302 3.6e-4,0.13757 -0.27112,0.18219 -0.26148,-0.3053 0.68848,-10.37097 1.30585,-20.25916 2.0669,-30.13623 0.54462,-7.06757 1.61517,-14.11005 1.83246,-21.18274 0.19091,-6.21472 -0.47766,-12.45575 -0.7666,-18.68518 m 26.31213,41.8017 c 1.62891,-0.2818 3.38251,-0.27826 4.85376,-0.92096 1.66424,-0.72699 3.07513,-2.03412 4.59625,-3.08893 -1.6499,-0.61804 -3.25281,-1.47058 -4.95813,-1.81226 -6.2915,-1.26043 -12.67804,-2.10327 -18.89923,-3.63104 -2.44183,-0.59961 -4.80536,-1.83527 -5.47681,1.34534 -0.2276,1.07843 2.12397,3.48108 3.72162,4.02038 4.99597,1.68616 10.19458,2.77167 16.16254,4.08747 z"
   id="path26" />

<path
   fill="#cbf6ff"
   opacity="1"
   stroke="none"
   d="m 254.04196,381.50858 c -1.29645,-13.83465 -1.86762,-27.40435 -4.02845,-40.71594 -3.03399,-18.69092 -7.01519,-37.24173 -11.10217,-55.73959 -1.22394,-5.53958 -4.1886,-10.68872 -6.28192,-16.04556 -0.65008,-1.66361 -1.05694,-3.42228 -1.56787,-5.53388 6.51624,4.63056 13.72589,8.97916 19.38715,14.82685 11.52661,11.90612 21.96691,24.91983 29.46893,39.76916 7.9801,15.79559 15.08893,32.04248 22.23047,48.24561 3.1347,7.11199 5.33001,14.63342 8.10315,21.91137 1.49865,3.93335 1.88116,7.60883 -1.44605,11.49585 -9.16223,5.77381 -17.95929,11.08594 -26.75628,16.39807 -10.06598,2.63123 -11.65058,2.06287 -16.19715,-7.54498 -4.15869,-8.78803 -7.87988,-17.78302 -11.80981,-27.06696 z"
   id="path28" />
<path
   fill="#fb9999"
   opacity="1"
   stroke="none"
   d="m 231.94955,611.47929 c 0.5636,-0.65344 1.15704,-1.89844 1.6864,-1.87171 8.09949,0.409 16.24487,0.56842 24.27118,1.61615 12.44086,1.62391 24.80005,3.87445 37.19031,5.88117 0.81146,0.13135 1.69745,0.28387 2.36889,0.71002 2.22425,1.41125 4.36615,2.95233 6.53968,4.4436 -2.2229,1.53589 -4.26801,3.97834 -6.69867,4.45514 -12.31079,2.41425 -24.65204,5.07526 -37.11395,6.22223 -18.46546,1.69953 -37.0304,2.67273 -55.57282,3.10156 -30.59296,0.70752 -61.20196,0.97248 -91.80371,0.93763 -13.742976,-0.0157 -27.529786,-0.71503 -41.216426,-1.97583 -21.53174,-1.98365 -43.2843,-2.63868 -64.25732,-8.73395 -2.24125,-0.65125 -4.2428,-2.12726 -6.44587,-3.26746 2.34256,-5.51721 7.01032,-6.1676 11.02942,-6.74365 14.05832,-2.01501 28.17313,-3.70666 42.31079,-5.05713 4.78208,-0.45679 9.6959,0.46613 15.11914,0.67645 0.56964,-0.0821 0.71488,0.159 0.84497,0.46485 1.47962,1.65191 2.82529,2.95147 4.16413,-0.0701 0.80749,-0.0375 1.27142,-0.003 1.85617,0.31976 0.0802,1.76654 0.0396,3.24396 -0.0159,4.66986 -0.0148,-0.0516 0.0847,-0.0113 -0.10355,0.0114 -0.29641,0.0831 -0.40457,0.14349 -0.51275,0.20391 0.11508,0.20002 0.23013,0.39997 0.38022,0.9759 0.61639,1.07953 1.05661,2.12024 1.80191,2.43237 5.1098,2.13977 10.28353,4.12677 15.80273,6.30768 3.06403,-6.2226 6.0213,-12.22821 9.416256,-18.31427 1.06873,-0.28241 1.69904,-0.65869 2.33069,-0.66095 17.27026,-0.062 34.5412,-0.15161 51.80939,0.0273 1.19,0.0123 2.35876,2.07574 3.52417,3.20972 -0.0133,0.0244 -0.0607,0.0498 -0.45874,0.12707 -0.97602,3.75342 -1.73969,7.41461 -2.03571,11.11335 -0.11041,1.37921 0.87158,2.84576 1.73407,4.35839 4.92358,0.37226 9.46649,0.74201 14.01575,0.85511 0.68213,0.017 1.3941,-1.16779 2.12793,-2.01667 0.0356,-0.21997 0.0788,-0.66351 0.40417,-0.81604 0.73468,-1.46698 1.1441,-2.78149 1.58801,-4.20666 1.22254,0.55847 2.09357,0.95636 2.97925,1.3092 0.0146,-0.045 -0.0667,0.004 0.0906,0.29004 1.06207,0.78681 1.9668,1.28729 2.89361,1.74072 0.022,-0.0471 -0.0733,-0.006 0.11115,0.32166 14.72668,5.20434 29.66504,3.56433 44.52045,2.89215 3.23028,-0.14618 6.4212,-1.16138 9.74932,-1.71277 0.11902,0.0636 0.37446,-0.0239 0.69562,-0.20868 4.2016,-5.8529 2.55115,-9.67218 -4.98334,-12.42389 -0.004,0.0275 0.0398,-0.007 -0.11517,-0.24383 -0.77746,-0.60797 -1.39996,-0.97937 -2.02246,-1.35083 z"
   id="path29" />









<path
   fill="#6e2e2c"
   opacity="1"
   stroke="none"
   d="m 288.97164,146.10386 c 1.02442,-7.35733 3.18042,-14.7644 2.85962,-22.06259 -0.93914,-21.37039 -4.89758,-42.085604 -16.60571,-60.661624 -15.60724,-24.76245 -38.3125,-39.17328 -66.45288,-45.07695 -10.28906,-2.15859 -21.03589,-3.08837 -31.55695,-2.9773 -18.54528,0.1958 -35.95837,5.45574 -51.96356,15.00853 -2.69885,1.61086 -5.31927,3.35419 -8.03808,4.92902 -0.25855,0.14975 -0.96314,-0.47058 -1.68439,-0.89618 6.85541,-9.40343 15.99078,-16.20244 26.39557,-21.92093 7.3529,-2.6363402 14.17132,-5.4803202 21.435,-8.3227502 14.5213,-2.03302 28.6311,-3.38019001 42.87078,-2.07711 0,0 0.44403,0.0236 0.909,0.36766 7.00171,1.99749 13.53888,3.64885 20.07483,5.30524 2.99799,0.75975 5.99347,1.52931 8.99011,2.2944302 0,0 -0.082,0.0309 0.0222,0.33259 2.08197,1.06967 4.05963,1.83764 6.03729,2.60563 0,0 -0.11664,0.0396 0.003,0.28606 0.72925,0.4194 1.3385,0.59233 1.94769,0.76524 0,0 -0.0923,0.032 0.0345,0.27754 0.72656,0.41578 1.32617,0.586 1.92584,0.75624 0,0 -0.0732,0.0512 -0.0519,0.363 2.69659,1.75468 5.37189,3.1976 8.04718,4.6405 0,0 -0.0721,0.0497 -0.0676,0.31541 0.98896,0.75795 1.97333,1.25014 2.95765,1.74236 7.61425,7.11792 15.22845,14.23584 22.77771,21.78793 0.17193,0.48261 0.40887,0.53107 0.64587,0.57953 0,-1e-5 0.0635,0.11525 -0.0331,0.50455 0.54773,0.91708 1.19201,1.44487 1.83636,1.97265 0,0 -0.11407,0.0522 -0.1206,0.36753 1.01928,1.43705 2.04504,2.5588 3.0708,3.68054 0,0 -0.10608,0.0199 -0.0228,0.22498 0.35101,0.42646 0.6189,0.64785 0.88678,0.86923 0,0 -0.0479,0.007 0.003,0.3056 0.42585,0.74168 0.80121,1.18475 1.17658,1.62784 0,0 -0.11689,0.007 -0.14325,0.32718 0.66205,1.1107 1.35034,1.90097 2.03869,2.69124 0,0 -0.0923,0.0229 -0.0862,0.37091 0.1037,0.99118 0.10932,1.6651 0.31269,2.27287 2.89618,8.65549 5.79663,17.30981 8.78357,25.93411 0.21105,0.60944 1.10717,0.9816 1.68475,1.46408 0.0574,5.07544 0.11468,10.15091 -0.28784,15.741884 -0.85804,6.09369 -1.25617,11.67185 -1.6543,17.24997 0.0332,0.18177 0.0664,0.36356 -0.35217,0.88029 -1.82196,5.00475 -3.1947,9.67379 -4.56116,14.34466 -1.06244,3.63141 -2.11346,7.26611 -3.20923,10.88736 -0.0161,0.0531 -0.54547,-0.0492 -0.83527,-0.0789 z"
   id="path39" />


<path
   fill="#112242"
   opacity="1"
   stroke="none"
   d="m 102.55307,608.95536 c -2.957216,6.00562 -5.914486,12.01123 -8.978516,18.23383 -5.5192,-2.18091 -10.69293,-4.16791 -15.80273,-6.30768 -0.7453,-0.31213 -1.18552,-1.35284 -1.67572,-2.62293 0.0911,-0.56646 0.19454,-1.01202 0.19454,-1.01202 0,0 -0.0994,-0.0402 0.20405,-0.19342 0.98538,-1.70636 1.66726,-3.2594 2.54672,-5.26251 -1.36234,0.23553 -2.15134,0.37195 -2.94034,0.50836 -0.46396,-0.0341 -0.92789,-0.0682 -2.12485,-0.1073 -1.79022,-0.0564 -2.8475,-0.10779 -3.90475,-0.15918 0,0 -0.14524,-0.24109 -0.28626,-0.2298 -16.71664,-7.12732 -32.52954,-15.5758 -46.56762,-27.44317 -0.11713,-0.36664 -0.25596,-0.32502 -0.39478,-0.28333 -0.17023,-0.0651 -0.34045,-0.13 -0.43075,-0.61999 0.0799,-0.42505 -0.24921,-0.76386 -0.24921,-0.76386 0,0 -0.36518,0.30347 -0.36518,0.30347 0,0 -0.29244,-0.11298 -0.25335,-0.63959 -1.19724,-8.37512 -0.33304,-9.40466 7.3598,-9.24292 0.83255,0.0175 1.69174,-0.0809 2.49319,0.0888 11.49039,2.43237 22.93781,5.30883 34.75525,3.31262 0.28428,1.93884 0.10035,4.18139 1.10794,5.06463 4.28656,3.75745 8.44602,8.3473 13.54712,10.32996 8.0134,3.11456 16.74842,4.37262 25.217166,6.78766 -1.12433,3.66662 -2.28803,6.96252 -3.45172,10.25842 z"
   id="path42" />
<path
   fill="#abe0fc"
   opacity="1"
   stroke="none"
   d="m 223.71218,262.11253 c 3.49799,8.19735 6.51624,16.27188 10.01746,24.13119 1.57831,3.54285 1.56378,5.75397 -1.59735,8.55911 -3.55035,3.15064 -6.39227,7.18128 -9.10742,11.1283 -0.60272,0.87622 0.16833,3.36081 1.07379,4.48981 3.0069,3.74902 6.14459,7.45276 9.65497,10.7196 2.81842,2.62287 2.7055,5.42585 1.08642,8.05933 -4.51397,7.3418 -9.33001,14.50061 -14.13635,21.65814 -1.45776,2.17084 -3.27228,4.10205 -5.25567,6.2088 -0.98383,-8.68689 -1.37873,-17.46771 -2.33643,-26.1867 -2.54651,-23.18448 -5.27478,-46.34974 -8.09778,-69.50229 -0.39581,-3.24579 -1.72961,-6.37726 -2.76666,-9.90741 3.31073,0.62948 6.73462,1.70367 10.21283,2.55597 4.7445,1.16253 8.97308,2.93506 11.25219,8.08615 z"
   id="path43" />
<path
   fill="#abe0fc"
   opacity="1"
   stroke="none"
   d="m 155.67605,246.94273 c 5.20435,34.20047 4.05603,68.34003 0.76819,102.80719 -0.83282,1.42383 -1.41699,2.53284 -2.44122,4.47729 -3.79084,-6.61987 -7.07324,-13.07556 -11.03772,-19.08099 -4.35999,-6.6048 -5.43762,-12.62482 0.0304,-19.21143 2.49518,-3.00567 4.0409,-6.79965 6.36005,-10.83221 -5.00336,-3.67023 -10.01538,-7.34677 -15.68408,-11.50501 3.73645,-14.32382 7.56762,-29.01101 11.42199,-44.08041 3.43464,-1.14682 6.8462,-1.91144 10.5824,-2.57443 z"
   id="path44" />

<path
   fill="#ffa97c"
   opacity="1"
   stroke="none"
   d="m 282.03768,416.5756 c 8.80823,-5.76721 17.60529,-11.07934 26.73157,-16.50744 3.06269,2.25982 5.58106,4.96685 8.58893,6.91986 3.12579,2.02954 6.88587,3.07507 10.04303,5.06683 1.38617,0.87457 1.9657,3.02777 2.91156,4.6004 -1.76453,0.81684 -3.50275,1.70075 -5.30932,2.41059 -0.55726,0.21887 -1.30091,-0.0369 -2.54609,-0.32166 -1.00457,-0.24792 -1.4223,-0.24951 -1.84002,-0.2511 0.3399,0.37476 0.67987,0.74951 1.01983,1.12421 1.76636,3.31958 3.73975,6.55096 5.20887,9.99725 0.69787,1.63715 0.43438,3.68408 0.60644,5.54541 -1.9773,-0.15844 -3.97784,-0.18554 -5.92212,-0.53009 -0.99023,-0.17554 -1.87939,-0.92181 -3.82873,-1.93994 1.11383,2.61182 2.13696,4.14612 2.37323,5.79327 0.26886,1.87433 -0.16492,3.84949 -0.29328,5.78083 -1.96374,-0.29853 -3.97223,-0.4372 -5.87103,-0.96814 -0.85315,-0.23859 -1.48706,-1.26111 -2.60901,-2.19678 -0.48852,-0.30634 -0.58838,-0.34375 -0.68829,-0.38117 0.16394,0.11457 0.32794,0.22913 0.49194,0.34363 -4.9e-4,1.65479 0.23395,3.35364 -0.0663,4.95215 -0.31214,1.66193 -0.73395,4.05756 -1.85517,4.60694 -1.18335,0.57971 -3.83026,-0.0992 -4.83063,-1.1695 -4.71276,-5.04181 -9.07971,-10.4068 -13.53772,-15.61871 -1.09967,2.1065 -2.27099,4.97693 -4.02874,7.42657 -0.76313,1.06366 -2.77057,1.75153 -4.13825,1.64569 -0.68188,-0.0528 -1.73242,-2.29309 -1.69763,-3.51782 0.21185,-7.45624 0.68787,-14.90497 1.08697,-22.81128 z"
   id="path46" />
<path
   fill="#ffa97c"
   opacity="1"
   stroke="none"
   d="m 22.914274,381.94608 c 3.80695,2.89722 7.20648,6.5691 11.22006,9.35712 6.31931,4.38971 13.0517,8.18476 19.83762,12.49555 0.88214,6.16864 1.65662,12.06445 2.09927,17.98504 0.10242,1.36981 -0.88586,3.99707 -1.44732,4.01783 -1.61386,0.0598 -3.89099,-0.43549 -4.7797,-1.58472 -2.18148,-2.82111 -3.73022,-6.13153 -5.36825,-8.95978 -5.54239,3.14716 -11.46964,6.64831 -17.55313,9.85303 -1.21842,0.64184 -4.03333,0.70129 -4.3729,0.0795 -0.83603,-1.53094 -1.1437,-3.71917 -0.76861,-5.44897 0.46213,-2.13116 1.83184,-4.06549 2.96029,-6.39691 -4.2821,1.30475 -8.11309,2.83508 -12.09002,3.5296 -1.9701,0.34406 -4.20877,-0.84991 -6.32593,-1.34802 0.85168,-2.17346 1.42963,-4.51953 2.65323,-6.45825 0.78955,-1.25092 2.52569,-1.90448 4.49487,-3.2873 -4.88223,-0.58422 -9.00714,-1.07788 -13.47375,-1.61236 1.25851,-7.08551 7.55596,-6.13574 11.41919,-8.63648 -2.02048,-0.59497 -4.06699,-0.87964 -5.77213,-1.79803 -1.42346,-0.76672 -2.44708,-2.27576 -3.64777,-3.45606 1.52399,-1.35644 2.84113,-3.38379 4.61469,-3.9306 3.76016,-1.15912 7.77661,-1.46088 11.6496,-2.29291 1.55813,-0.33471 3.01547,-1.13855 4.65069,-2.10724 z"
   id="path47" />







<path
   fill="#f98a59"
   opacity="1"
   stroke="none"
   d="m 201.39553,250.46409 c 0.10041,10.95517 -8.01672,15.2966 -15.35162,19.96329 -1.43225,0.91128 -4.87549,0.45562 -6.28619,-0.70856 -5.60669,-4.62692 -11.09864,-9.49322 -15.95606,-14.8812 -2.08685,-2.31481 -2.52008,-6.12051 -3.78735,-9.68585 0.0646,-2.01745 0.21204,-3.59781 0.44275,-5.57159 13.45776,1.92508 26.83215,4.24359 40.70825,6.58456 0.39484,1.31992 0.28796,2.61737 0.23022,4.29935 z"
   id="path55" />

<path
   fill="#f98a59"
   opacity="1"
   stroke="none"
   d="m 284.05777,167.46226 c 0.31335,-1.81149 0.6275,-3.22226 1.20538,-5.16107 0.67731,-1.12952 1.09088,-1.73099 1.50445,-2.33246 13.46601,0.36426 19.89057,4.09036 22.08918,12.81119 3.12787,12.40701 -5.76557,27.27008 -18.18018,30.38989 -0.96252,0.24191 -1.91717,0.51529 -3.24762,0.84146 -0.63226,-12.0657 0.98737,-24.35443 -3.37121,-36.54901 z"
   id="path57" />














<path
   fill="#ffa97c"
   opacity="1"
   stroke="none"
   d="m 105.96548,598.32615 c -8.429436,-2.04425 -17.164456,-3.30231 -25.177856,-6.41687 -5.1011,-1.98266 -9.26056,-6.57251 -13.54712,-10.32996 -1.00759,-0.88324 -0.82366,-3.12579 -0.88641,-5.1419 0.60257,-0.58527 0.72779,-0.8537 0.67716,-1.2041 0.65887,-0.24945 1.31778,-0.49891 2.1326,-1.07758 6.617,2.91589 13.07803,6.16101 20.04394,9.62518 1.81921,0.76502 3.13361,1.31098 4.44794,1.85688 0,0 0.0403,-0.0314 0.22162,0.15423 0.51373,0.21948 0.84625,0.25324 1.17877,0.28693 0.76709,0.37921 1.53418,0.75842 2.86657,1.37311 1.60651,0.56433 2.647646,0.89325 3.688786,1.22216 0,6e-5 0.11468,-0.0173 0.36609,0.15931 0.83929,0.28259 1.42718,0.38848 2.01507,0.49438 0,0 0.014,-0.1167 0.17511,0.1546 1.41126,0.75226 2.66144,1.23322 3.85797,2.08203 -0.72253,2.49915 -1.39136,4.63037 -2.06024,6.7616 z"
   id="path72" />

<path
   fill="#fe9f71"
   opacity="1"
   stroke="none"
   d="m 202.90304,592.23185 c 0.42499,1.65881 0.85004,3.31763 1.20331,5.65924 -0.43073,1.48938 -0.78973,2.29596 -1.12305,3.12354 0.0256,0.021 0.0311,-0.0449 -0.22314,0.0618 -0.48242,0.38781 -0.71057,0.66906 -1.24774,1.0108 -1.04944,0.45129 -1.78992,0.8421 -2.79218,1.22705 -0.51904,0.2182 -0.77643,0.44226 -1.21387,0.64215 -0.18005,-0.0242 -0.47534,0.18774 -0.70843,0.1654 -0.23309,-0.0223 -0.67731,0.12616 -1.09589,0.0953 -10.34668,1.91315 -19.88275,0.35315 -29.36157,-3.50323 -0.83856,-0.69953 -1.50586,-1.14515 -2.13757,-1.9491 0.25311,-1.99219 0.47058,-3.62604 1.16504,-5.30249 12.82971,-0.4386 25.18243,-0.83453 37.53509,-1.23047 z"
   id="path74" />





<path
   fill="#0d132c"
   opacity="1"
   stroke="none"
   d="m 203.30526,592.12492 c -12.75488,0.50287 -25.1076,0.8988 -38.33746,1.20264 -2.82074,-0.37769 -4.76422,-0.66327 -7.35565,-1.04407 3.12555,-40.77991 6.22638,-81.23822 9.35968,-122.11969 -0.82672,0.95575 -1.30341,1.50683 -1.80518,2.03796 -0.0251,-0.0199 -0.0808,-0.0517 -0.0808,-0.0517 0.78437,-1.2868 1.56873,-2.5736 2.35315,-3.86041 0.5365,1.38092 1.63977,2.81159 1.52362,4.13526 -1.51526,17.26635 -3.27508,34.51123 -4.81903,51.77526 -0.83911,9.38239 -1.44208,18.7873 -2.04925,28.18866 -0.81983,12.69275 -1.54133,25.39191 -2.3357,38.59778 2.08576,0.37323 4.16303,1.13245 6.20514,1.04743 13.3891,-0.55787 26.77405,-1.23841 40.15149,-2.029 2.68726,-0.15881 4.69281,-1.01867 5.20007,-4.62011 1.35596,-9.62677 3.35205,-19.16333 5.3628,-28.99988 -0.83167,8.492 -1.9267,17.24884 -3.0412,26.00311 -0.125,0.98133 -0.54163,1.95355 -0.51392,2.92114 0.11054,3.85407 -1.4563,5.92902 -5.53509,5.89124 -1.2909,-0.012 -2.5868,0.5293 -4.28266,0.92438 z"
   id="path80" />








<path
   fill="#0d132c"
   opacity="1"
   stroke="none"
   d="m 221.12106,470.59117 c 0,0 0.19842,-0.0362 0.41943,0.0818 0.69031,-0.10199 1.15961,-0.32196 1.62891,-0.54193 0,6e-5 0.45441,-0.0552 0.67035,-0.13061 1.83648,-0.0754 3.45703,-0.0754 5.29584,-0.0754 -1.15979,9.29168 -2.26716,18.16308 -3.69672,27.1875 0.30609,-8.00141 0.93451,-16.15589 1.63293,-25.2201 -3.70617,0.37946 -6.78326,0.49396 -9.78033,1.04389 -5.84393,1.07214 -10.17041,-0.96179 -8.34033,-8.81934 1.53564,-6.59326 1.00049,-13.66211 1.46832,-20.51452 0.15521,-2.27484 0.7124,-4.52314 0.85162,-6.79792 0.33283,-5.43701 0.69031,-10.88464 0.61683,-16.32238 -0.0124,-0.92218 -2.11909,-1.8161 -3.52137,-2.99652 1.44367,-0.34791 3.15052,-0.42237 5.30475,0.0206 -0.64892,17.32294 -1.77057,34.1269 -2.78064,50.93763 -0.0626,1.04205 0.75208,2.13678 1.15857,3.20703 0,0 0.27148,-0.0446 0.49365,0.0375 0.68964,-0.13128 1.15717,-0.34472 1.6247,-0.55822 0,0 0.45972,-0.0566 0.92572,-0.0681 0.63074,-0.051 0.79559,-0.0904 0.96051,-0.13 0.44873,0.0538 0.89752,0.1076 1.98688,0.13214 1.45385,-0.17725 2.26715,-0.32514 3.08038,-0.47302 z"
   id="path89" />











<path
   fill="#abe0fc"
   opacity="1"
   stroke="none"
   d="m 116.79519,333.24363 c -2.50152,5.38532 -5.28808,10.92462 -8.12768,16.43659 -2.01618,3.91357 -4.10401,7.79028 -6.38013,11.55297 0.44635,-4.51214 1.11298,-8.89392 1.76428,-13.68945 4.13513,-4.99512 8.28552,-9.57648 12.74353,-14.30011 z"
   id="path101" />
<path
   fill="#0d132c"
   opacity="1"
   stroke="none"
   d="m 80.047114,514.45695 c -1.20068,4.91498 -2.3056,10.24737 -3.92727,15.41766 -3.60651,11.49848 -7.53384,22.89612 -11.15894,34.38898 -0.49664,1.57458 -0.0134,3.45813 0.0196,5.58691 -2.35214,-0.43829 -3.41192,-1.50171 -2.38833,-4.41931 5.90454,-16.83026 11.56988,-33.74457 17.45495,-50.97424 z"
   id="path102" />
<path
   fill="#0d132c"
   opacity="1"
   stroke="none"
   d="m 66.587434,575.15776 c 0.49445,0.42596 0.36923,0.69439 -0.15335,0.95806 -12.11896,2.39508 -23.56638,-0.48138 -35.05677,-2.91375 -0.80145,-0.16968 -1.66064,-0.0713 -2.49319,-0.0888 -7.69284,-0.16174 -8.55704,0.8678 -7.45416,9.11768 -2.45743,-2.06049 -3.31198,-4.54395 -1.3696,-7.8501 2.11609,-3.60175 5.24359,-3.59741 8.53491,-3.05829 7.65637,1.25403 15.2403,3.04608 22.93222,3.95209 4.79795,0.56512 9.7392,-0.0867 15.05994,-0.11694 z"
   id="path103" />





<path
   fill="#5a2316"
   opacity="1"
   stroke="none"
   d="m 286.85586,159.611 c -0.50183,0.9592 -0.9154,1.56067 -1.54907,2.32956 -0.22016,0.16745 -0.25525,-0.28177 -0.2262,-0.88675 0.34632,-2.05972 0.66364,-3.5144 0.98096,-4.96911 0,0 0.003,0.0216 0.22266,-0.12137 0.0708,-0.72303 -0.078,-1.3031 -0.22681,-1.88318 0.0834,-0.30448 0.24798,-0.55591 0.96869,-1.01169 0.66064,-0.83331 0.84613,-1.40921 1.03168,-1.98508 0,0 0.008,0.0234 0.24768,-0.1593 0.0785,-1.06808 -0.0827,-1.95346 -0.24396,-2.83881 0.15216,-0.54437 0.30438,-1.08874 0.68341,-1.80725 0.51654,-0.14441 1.0459,-0.0421 1.06201,-0.0952 1.09577,-3.62125 2.14679,-7.25595 3.20923,-10.88736 1.36646,-4.67087 2.7392,-9.33991 4.45935,-14.08679 -3.2771,12.63016 -6.90423,25.33737 -10.61963,38.40234 z"
   id="path109" />
<path
   fill="#5a2316"
   opacity="1"
   stroke="none"
   d="m 206.03579,1.6919758 c -14.04443,-0.94908001 -28.15423,0.39809 -42.96197,2.44234 -1.11804,0.009 -1.50446,0.008 -1.89087,0.008 14.65014,-4.68857001 29.5603,-5.23747 44.85284,-2.45018 z"
   id="path110" />

<path
   fill="#5a2316"
   opacity="1"
   stroke="none"
   d="m 299.90634,86.673986 c -0.61231,-0.0778 -1.50843,-0.44998 -1.71948,-1.05942 -2.98694,-8.6243 -5.88739,-17.27862 -8.78357,-25.93411 -0.20337,-0.60777 -0.20899,-1.28169 -0.28565,-2.31198 6.20789,8.42166 8.95453,18.49939 10.7887,29.30551 z"
   id="path112" />
<path
   fill="#5a2316"
   opacity="1"
   stroke="none"
   d="m 235.9844,9.7317258 c -2.77606,-0.48354 -5.77154,-1.2531 -8.76953,-2.01285 -6.53595,-1.65639 -13.07312,-3.30775 -19.86426,-5.23372 8.55011,1.82027 17.35712,3.90296 26.15503,6.02326 0.78296,0.1887 1.50684,0.62201 2.47876,1.22331 z"
   id="path113" />



<path
   fill="#0d132c"
   opacity="1"
   stroke="none"
   d="m 218.43606,548.11027 c 0.77747,-8.70776 1.87378,-17.57453 3.23975,-26.71399 -0.42932,6.62018 -1.09333,13.51672 -1.8487,20.40332 -0.22638,2.06488 -0.70758,4.10187 -1.39105,6.31067 z"
   id="path117" />



<path
   fill="#501a11"
   opacity="1"
   stroke="none"
   d="m 160.79086,4.1311658 c 0.7785,0.0116 1.16492,0.0122 1.83777,0.002 -6.53205,2.83276 -13.35047,5.67674 -20.35767,8.2585802 5.91681,-2.9318002 12.02228,-5.6014802 18.5199,-8.2601702 z"
   id="path121" />
<path
   fill="#0d132c"
   opacity="1"
   stroke="none"
   d="m 202.95761,600.99369 c 0.35901,-0.80664 0.71801,-1.61322 1.19323,-2.73535 6.03095,2.7597 11.94556,5.8349 18.01923,9.23529 0.15912,0.3252 -0.10626,0.60828 -0.48492,0.6109 -4.40094,-1.79724 -8.38343,-3.6947 -12.46241,-5.3551 -1.99591,-0.81256 -4.17114,-1.18439 -6.26513,-1.75574 z"
   id="path122" />
<path
   fill="#5a2316"
   opacity="1"
   stroke="none"
   d="m 298.01132,119.67277 c 0.31628,-5.18039 0.71441,-10.75855 1.48938,-16.44092 -0.21796,5.27823 -0.81275,10.66071 -1.48938,16.44092 z"
   id="path123" />

<path
   fill="#0d132c"
   opacity="1"
   stroke="none"
   d="m 231.60043,611.36637 c 0.97162,0.48438 1.59412,0.85578 1.97443,1.47107 -3.99842,-1.41589 -7.75476,-3.07574 -11.51105,-4.73553 0,0 0.26538,-0.28308 0.40124,-0.42163 3.01935,1.09863 5.90277,2.33587 9.13538,3.68609 z"
   id="path125" />

<path
   fill="#5a2316"
   opacity="1"
   stroke="none"
   d="m 253.9761,19.764596 c -2.48016,-1.16739 -5.15546,-2.61031 -7.84326,-4.4088 2.54101,1.1407 5.09454,2.63699 7.84326,4.4088 z"
   id="path127" />








<path
   fill="#5a2316"
   opacity="1"
   stroke="none"
   d="m 242.06778,12.667456 c -1.78095,-0.48392 -3.75861,-1.25189 -5.84314,-2.36534 1.81091,0.46345 3.72863,1.27235 5.84314,2.36534 z"
   id="path136" />
<path
   fill="#0d132c"
   opacity="1"
   stroke="none"
   d="m 224.43765,505.11631 c -0.22821,-2.03326 -0.13587,-4.2182 0.22632,-6.69263 0.21136,1.98737 0.15283,4.2641 -0.22632,6.69263 z"
   id="path137" />
<path
   fill="#0d132c"
   opacity="1"
   stroke="none"
   d="m 223.43606,513.11601 c -0.22613,-2.03266 -0.13422,-4.21949 0.22962,-6.69458 0.21081,1.98797 0.14959,4.2641 -0.22962,6.69458 z"
   id="path138" />


<path
   fill="#0d132c"
   opacity="1"
   stroke="none"
   d="m 222.428,520.11662 c -0.2146,-1.70728 -0.12072,-3.56519 0.24256,-5.7049 0.2016,1.66358 0.13379,3.60895 -0.24256,5.7049 z"
   id="path141" />
<path
   fill="#0d132c"
   opacity="1"
   stroke="none"
   d="m 217.42678,555.12016 c -0.21386,-1.71131 -0.11889,-3.57343 0.24805,-5.71656 0.2016,1.66791 0.13123,3.61677 -0.24805,5.71656 z"
   id="path142" />


<path
   fill="#5a2316"
   opacity="1"
   stroke="none"
   d="m 285.14895,50.677926 c -0.9364,-0.80906 -1.96216,-1.93081 -2.95361,-3.42411 0.9776,0.78943 1.92096,1.95043 2.95361,3.42411 z"
   id="path145" />




<path
   fill="#5a2316"
   opacity="1"
   stroke="none"
   d="m 256.86715,21.860536 c -0.79016,-0.25488 -1.77453,-0.74707 -2.7547,-1.54792 0.85627,0.23109 1.70838,0.77084 2.7547,1.54792 z"
   id="path150" />






<path
   fill="#5a2316"
   opacity="1"
   stroke="none"
   d="m 289.10934,56.725756 c -0.62091,-0.47935 -1.3092,-1.26962 -1.95422,-2.43632 0.65783,0.4575 1.27228,1.29146 1.95422,2.43632 z"
   id="path157" />






<path
   fill="#5a2316"
   opacity="1"
   stroke="none"
   d="m 282.20303,46.668336 c -0.55927,-0.25358 -1.20355,-0.78137 -1.69702,-1.66116 0.63788,0.22766 1.12494,0.80731 1.69702,1.66116 z"
   id="path164" />





<path
   fill="#5a2316"
   opacity="1"
   stroke="none"
   d="m 244.04751,13.743476 c -0.44104,0.0864 -1.05029,-0.0865 -1.77716,-0.56745 0.45789,-0.10267 1.03339,0.10271 1.77716,0.56745 z"
   id="path170" />

<path
   fill="#5a2316"
   opacity="1"
   stroke="none"
   d="m 246.00033,14.786806 c -0.42401,0.0796 -1.02362,-0.0907 -1.75189,-0.55528 0.4397,-0.0944 1.00793,0.10553 1.75189,0.55528 z"
   id="path172" />
<path
   fill="#0d132c"
   opacity="1"
   stroke="none"
   d="m 65.049314,570.45292 c 0.45267,-0.0164 1.02774,0.232 1.60935,0.81848 -0.49131,0.0409 -0.98914,-0.25634 -1.60935,-0.81848 z"
   id="path173" />








<path
   fill="#5a2316"
   opacity="1"
   stroke="none"
   d="m 287.20352,53.733576 c -0.29755,-0.15841 -0.67291,-0.60148 -1.08179,-1.36057 0.31232,0.14795 0.65814,0.61192 1.08179,1.36057 z"
   id="path182" />










<path
   fill="#5a2316"
   opacity="1"
   stroke="none"
   d="m 286.04812,51.819296 c -0.21374,0.0441 -0.48163,-0.17725 -0.82434,-0.65706 0.20685,-0.0418 0.48853,0.17488 0.82434,0.65706 z"
   id="path193" />






<path
   fill="#cbf6ff"
   opacity="1"
   stroke="none"
   d="m 230.97549,262.88597 c -0.2226,0.13333 -0.49017,-0.0486 -0.797,-0.54953 0.22278,-0.12958 0.48658,0.0548 0.797,0.54953 z"
   id="path200" />
<path
   fill="#0d132c"
   opacity="1"
   stroke="none"
   d="m 22.842434,584.09709 c 0.1192,-0.0626 0.25803,-0.10419 0.23365,-0.0492 -0.16324,0.0967 -0.21402,0.0701 -0.23365,0.0492 z"
   id="path201" />
<path
   fill="#0d132c"
   opacity="1"
   stroke="none"
   d="m 21.836974,583.05741 c -0.0593,-0.0616 0.30588,-0.36505 0.30588,-0.36505 0,0 0.32907,0.33881 0.15674,0.50665 -0.17237,0.16785 -0.40332,-0.0801 -0.46262,-0.1416 z"
   id="path202" />

<path
   fill="#0d132c"
   opacity="1"
   stroke="none"
   d="m 66.803624,571.75804 c 0.19891,-0.13495 0.56869,-0.0577 1.06951,0.28649 -0.21218,0.15326 -0.55542,0.0394 -1.06951,-0.28649 z"
   id="path204" />






<path
   fill="#5a2316"
   opacity="1"
   stroke="none"
   d="m 280.43215,44.334266 c -0.18426,0.0826 -0.4212,0.0342 -0.48559,-0.12769 0.17267,-0.11337 0.43286,-0.003 0.48559,0.12769 z"
   id="path211" />


















<path
   fill="#f98a59"
   opacity="1"
   stroke="none"
   d="m 118.60696,153.06983 c -0.5965,-5.90023 1.07806,-10.98181 4.59296,-16.0383 9.82428,-14.13293 13.74719,-30.44485 15.84338,-47.275174 0.13733,-1.10273 0.24377,-2.20929 0.28259,-2.56406 10.04615,4.70627 19.61841,10.90802 30.09906,13.700324 15.9621,4.25265 32.46534,6.89404 48.90277,8.81946 15.17328,1.77731 30.56238,1.71127 46.63923,2.77792 3.07336,0.39194 5.36395,0.46304 7.65454,0.53418 0,0 0.17639,-0.26047 0.33325,-0.28116 -5.94086,1.72894 -11.93756,4.19486 -18.15839,5.07208 -11.28705,1.59168 -22.73089,3.30625 -34.06744,3.05811 -24.36017,-0.5332 -48.05066,-5.05976 -70.1568,-15.99738 -1.16608,-0.57693 -2.37146,-1.07434 -3.7027,-1.6737 -2.9986,7.61627 -5.05829,15.44772 -8.98291,22.19433 -5.5993,9.62543 -12.56543,18.45575 -19.27954,27.67337 z"
   id="path230" />
<path
   fill="#102040"
   opacity="1"
   stroke="none"
   d="m 251.4822,187.08311 c -1.86163,3.71499 -4.65222,4.94296 -8.02526,3.66223 -3.9676,-1.5065 -5.04944,-5.12323 -4.80982,-8.9552 0.2124,-3.39621 1.27735,-6.62567 5.14661,-7.66626 3.99841,-1.07532 7.63598,1.34543 8.21594,5.72275 0.29694,2.24182 -0.18439,4.58673 -0.52747,7.23648 z"
   id="path231" />
<path
   fill="#102040"
   opacity="1"
   stroke="none"
   d="m 169.88369,172.03352 c 3.99469,3.11963 4.32648,7.31198 2.86841,10.96786 -0.88226,2.21216 -4.11566,4.80106 -6.29718,4.80509 -2.11462,0.004 -5.57898,-2.79016 -6.03277,-4.88034 -0.65522,-3.01795 0.12616,-6.97049 1.76269,-9.61609 0.89783,-1.45154 4.80786,-1.03977 7.69885,-1.27652 z"
   id="path232" />
<path
   fill="#0d132c"
   opacity="1"
   stroke="none"
   d="m 177.62832,139.46253 c 1.357,1.87998 2.38623,3.55201 3.41547,5.22403 -1.97296,0.25568 -4.1272,1.15281 -5.88727,0.65528 -7.38574,-2.08789 -14.34076,-1.39356 -21.16009,2.78021 1.14154,-8.09903 13.82818,-12.6099 23.63189,-8.65952 z"
   id="path233" />
<path
   fill="#0d132c"
   opacity="1"
   stroke="none"
   d="m 245.91195,140.61418 c 8.6604,-1.05729 15.64093,2.49188 18.54602,8.72351 -7.79925,-0.87619 -15.8714,-1.78302 -24.30011,-2.72995 -0.61847,-3.60959 2.49127,-4.63596 5.75409,-5.99356 z"
   id="path234" />
<path
   fill="#a34221"
   opacity="1"
   stroke="none"
   d="m 185.98465,207.10902 c 5.29827,6.88571 12.20208,8.64187 20.13598,7.88263 1.16571,-0.1116 2.41144,0.61404 3.62018,0.9523 -1.09442,0.81805 -2.073,2.02478 -3.30212,2.39132 -8.41156,2.50864 -20.67426,-2.75387 -24.77045,-10.72418 -0.69946,-1.36099 -0.28308,-3.29544 -0.3822,-4.96499 1.25726,0.95245 2.54223,1.87146 3.75476,2.87787 0.35919,0.29818 0.51404,0.84246 0.94385,1.58505 z"
   id="path235" />
<path
   fill="#a34221"
   opacity="1"
   stroke="none"
   d="m 225.11691,192.45542 c 2.31183,8.06644 0.0207,11.72779 -6.39801,12.25717 1.21905,-2.42776 3.91681,-5.36108 3.71826,-8.08322 -0.20294,-2.7832 -3.24621,-5.35925 -5.34027,-8.46191 4.54004,-1.94974 5.82526,1.78027 8.02002,4.28796 z"
   id="path236" />















<path
   fill="#6e2e2c"
   opacity="1"
   stroke="none"
   d="m 285.70742,156.15214 c 0.0368,1.38727 -0.28051,2.84195 -0.62377,4.67639 0.0726,-1.28317 0.17108,-2.94604 0.62377,-4.67639 z"
   id="path252" />
<path
   fill="#fe9f71"
   opacity="1"
   stroke="none"
   d="m 272.44534,112.59614 c -2.11444,0.3569 -4.40503,0.2858 -7.00977,-0.0443 2.06848,-0.30057 4.45105,-0.34216 7.00977,0.0443 z"
   id="path253" />
<path
   fill="#6e2e2c"
   opacity="1"
   stroke="none"
   d="m 288.05398,148.46336 c 0.16876,0.50726 0.32996,1.39264 0.2392,2.46203 -0.25025,-0.57193 -0.24848,-1.32794 -0.2392,-2.46203 z"
   id="path254" />
<path
   fill="#6e2e2c"
   opacity="1"
   stroke="none"
   d="m 286.0502,154.4188 c 0.156,0.24143 0.30481,0.8215 0.22363,1.54737 -0.23029,-0.3057 -0.23053,-0.75718 -0.22363,-1.54737 z"
   id="path255" />
<path
   fill="#6e2e2c"
   opacity="1"
   stroke="none"
   d="m 287.79971,151.24479 c 0.0725,0.41446 -0.11298,0.99036 -0.57276,1.71509 -0.0779,-0.41867 0.11847,-0.98618 0.57276,-1.71509 z"
   id="path256" />
<path
   fill="#0d132c"
   opacity="1"
   stroke="none"
   d="m 121.09298,586.13102 c 2.30957,-5.47107 4.71161,-10.90515 6.91211,-16.4198 7.86719,-19.71582 15.6659,-39.45898 23.93012,-59.26758 0.43963,-0.0759 0.72601,0.16474 0.60638,0.52185 -10.39099,25.43891 -20.66235,50.52063 -31.06244,75.49317 -0.12872,-0.10925 -0.38617,-0.32764 -0.38617,-0.32764 z"
   id="path257" />
<path
   fill="#0d132c"
   opacity="1"
   stroke="none"
   d="m 160.1968,413.78263 c 12.58686,0.8548 25.27124,2.06214 38.39765,3.33197 0.19519,0.27765 -0.04,0.66577 -0.30017,0.68317 -12.86548,0.86212 -25.53046,-0.39624 -38.09748,-4.01514 z"
   id="path258" />
<path
   fill="#0d132c"
   opacity="1"
   stroke="none"
   d="m 152.23147,510.24772 c 3.32807,-10.65924 6.79944,-21.19843 10.60169,-31.89612 0.33087,-0.15851 0.39416,-0.10016 0.37976,0.2992 -3.52686,10.91876 -7.03931,21.43817 -10.55176,31.95758 6e-5,0 -0.28632,-0.2406 -0.42969,-0.36066 z"
   id="path259" />
<path
   fill="#0d132c"
   opacity="1"
   stroke="none"
   d="m 148.77499,411.34159 c 2.99524,0.35425 5.75287,1.01654 8.88184,1.7721 -0.0303,0.36883 -0.41218,0.84881 -0.83655,0.88989 -7.77863,0.75293 -7.69129,0.75372 -8.79468,8.95868 -0.31689,2.35687 -1.30475,4.62347 -2.33673,7.01984 0.71503,-6.05188 1.78174,-12.1922 3.08612,-18.64051 z"
   id="path260" />
<path
   fill="#0d132c"
   opacity="1"
   stroke="none"
   d="m 108.07943,591.19669 c -1.25024,-0.48095 -2.50042,-0.96191 -3.96942,-1.70312 4.52637,0.34888 9.27149,0.95795 14.46918,1.57446 0.45251,0.008 0.5061,0.0558 0.47833,0.45301 -1.28509,0.68438 -2.58276,1.32348 -3.79108,1.18469 -2.4215,-0.27802 -4.79418,-0.98132 -7.18701,-1.50904 z"
   id="path261" />
<path
   fill="#0d132c"
   opacity="1"
   stroke="none"
   d="m 163.13345,478.16282 c 0.42902,-1.89673 0.88867,-3.76312 1.65039,-5.82117 0.302,-0.19159 0.35767,-0.15979 0.35425,0.23468 -0.63922,2.15467 -1.27497,3.91486 -1.91077,5.67511 0,0 -0.0633,-0.0584 -0.0939,-0.0886 z"
   id="path262" />
<path
   fill="#0d132c"
   opacity="1"
   stroke="none"
   d="m 202.13357,417.55601 c 1.0036,-0.36609 2.06232,-0.39636 3.51618,-0.38117 -0.89026,0.26929 -2.17566,0.49311 -3.51618,0.38117 z"
   id="path263" />
<path
   fill="#0d132c"
   opacity="1"
   stroke="none"
   d="m 119.00497,591.05131 c 0.45959,-1.55969 0.94592,-3.09522 1.76019,-4.77551 0.32782,-0.14478 0.58527,0.0736 0.56318,0.47888 -0.76239,1.72656 -1.50275,3.04785 -2.24311,4.36914 6e-5,0 -0.0535,-0.0483 -0.0803,-0.0725 z"
   id="path264" />
<path
   fill="#0d132c"
   opacity="1"
   stroke="none"
   d="m 101.64859,588.34599 c -1.07825,-6.7e-4 -2.119386,-0.32959 -3.398376,-0.89466 0.98657,0.0313 2.211056,0.29883 3.398376,0.89466 z"
   id="path265" />
<path
   fill="#0d132c"
   opacity="1"
   stroke="none"
   d="m 93.636384,585.24735 c -1.29498,-0.15545 -2.60938,-0.70141 -4.08338,-1.57055 1.2483,0.17792 2.65619,0.67901 4.08338,1.57055 z"
   id="path266" />
<path
   fill="#ffffff"
   opacity="1"
   stroke="none"
   d="m 101.97683,452.60539 c 0.86524,0.0731 1.91474,0.40753 3.03296,1.10113 -0.90368,-0.0405 -1.87622,-0.44012 -3.03296,-1.10113 z"
   id="path267" />
<path
   fill="#0d132c"
   opacity="1"
   stroke="none"
   d="m 103.84463,589.02165 c -0.43988,0.20037 -1.02777,0.0945 -1.82019,-0.22217 0.42108,-0.16858 1.04663,-0.12641 1.82019,0.22217 z"
   id="path268" />
<path
   fill="#0d132c"
   opacity="1"
   stroke="none"
   d="m 94.904204,585.85862 c -0.1806,0.18665 -0.51312,0.15289 -1.00281,-0.0752 0.1789,-0.17792 0.5149,-0.16156 1.00281,0.0752 z"
   id="path269" />


























<path
   fill="#abe0fc"
   opacity="1"
   stroke="none"
   d="m 109.96633,429.26286 c 6.77198,0.38611 13.13031,0.69159 19.48932,0.9815 0.49353,0.0225 1.03663,-0.2088 1.48035,-0.0729 1.58917,0.48669 3.14551,1.08062 4.71423,1.63391 -1.20752,1.13989 -2.25958,3.00805 -3.64715,3.3042 -10.81738,2.30835 -25.65485,1.70611 -35.492006,-5.96118 1.95313,-2.62482 1.95313,-2.62482 13.455256,0.11444 z"
   id="path296" />





<path
   fill="#112242"
   opacity="1"
   stroke="none"
   d="m 179.7659,291.17301 c -3.76032,-5.80072 -7.52069,-11.60141 -11.77735,-18.16781 11.37714,-1.90406 21.40827,-0.66077 32.14813,1.42706 -2.54504,5.31741 -4.9649,9.99762 -7.01403,14.83484 -0.84717,1.99991 -1.56397,4.45016 -1.21265,6.50265 4.37573,25.56501 8.86395,51.11207 13.58435,76.61548 0.76904,4.15503 0.13141,7.21009 -2.60345,10.44251 -4.60816,5.44653 -8.74122,11.2951 -13.42927,17.44018 -3.91241,-5.08551 -7.5437,-9.80572 -11.11248,-14.95819 -0.18091,-0.57641 -0.42438,-0.72052 -0.66791,-0.86462 0,0 0.007,-0.0658 0.11127,-0.41809 -0.56574,-0.84009 -1.23596,-1.32782 -1.90619,-1.81562 0,0 0.079,-0.0479 0.0717,-0.43219 -0.27801,-1.34033 -0.81677,-2.30755 -0.77777,-3.25079 0.39002,-9.42944 0.98712,-18.85144 1.28601,-28.28314 0.14881,-4.69599 -0.19983,-9.40784 -0.32342,-14.11249 -0.0255,-0.45947 -0.051,-0.91894 0.38611,-1.80987 0.77386,-0.79395 1.32812,-1.13569 1.36102,-1.52192 1.08759,-12.7536 2.16284,-25.50869 3.10266,-38.27368 0.0797,-1.08215 -0.79529,-2.23456 -1.22674,-3.35431 z"
   id="path302" />
<path
   fill="#ffffff"
   opacity="1"
   stroke="none"
   d="m 212.05886,471.16337 c -0.41613,-0.58276 -1.23083,-1.67749 -1.16821,-2.71954 1.01007,-16.81073 2.13172,-33.61469 3.20557,-50.88935 0.31158,-5.47198 0.64557,-10.47479 1.03747,-15.93646 0.34687,5.77063 1.01544,12.01166 0.82453,18.22638 -0.21729,7.07269 -1.28784,14.11517 -1.83246,21.18274 -0.76105,9.87707 -1.37842,19.76526 -2.0669,30.13623 z"
   id="path303" />
<path
   fill="#0d132c"
   opacity="1"
   stroke="none"
   d="m 176.07614,336.56309 c 0.1903,4.27435 0.53894,8.9862 0.39013,13.68219 -0.29889,9.4317 -0.89599,18.8537 -1.28601,28.28314 -0.039,0.94324 0.49976,1.91046 0.77875,3.29706 -0.85956,-2.06903 -2.56671,-4.60706 -2.45422,-7.06165 0.57739,-12.60199 1.6228,-25.18243 2.57135,-38.20074 z"
   id="path304" />
<path
   fill="#0d132c"
   opacity="1"
   stroke="none"
   d="m 179.71402,291.63584 c 0.48333,0.65692 1.35827,1.80933 1.27862,2.89148 -0.93982,12.76499 -2.01507,25.52008 -3.10266,38.27368 -0.0329,0.38623 -0.58716,0.72797 -1.27985,1.18488 0.763,-13.89948 1.90754,-27.89334 3.10389,-42.35004 z"
   id="path305" />
<path
   fill="#ffffff"
   opacity="1"
   stroke="none"
   d="m 215.18539,372.59226 c 0.49152,-0.26385 1.32117,-0.0566 1.31793,0.13684 -0.12268,7.38532 -0.32159,14.76941 -0.89331,22.25324 -0.41351,-7.24213 -0.44421,-14.5838 -0.42462,-22.39008 z"
   id="path306" />
<path
   fill="#ffffff"
   opacity="1"
   stroke="none"
   d="m 215.11837,358.57871 c 0.24713,1.37867 0.41419,3.17121 0.33033,5.21442 -0.30408,-1.43304 -0.3573,-3.11682 -0.33033,-5.21442 z"
   id="path307" />
<path
   fill="#0d132c"
   opacity="1"
   stroke="none"
   d="m 175.98404,382.49613 c 0.57251,0.20307 1.24273,0.6908 1.84094,1.53687 -0.62909,-0.17847 -1.18616,-0.71527 -1.84094,-1.53687 z"
   id="path308" />
<path
   fill="#0d132c"
   opacity="1"
   stroke="none"
   d="m 177.71719,384.64421 c 0.20758,-0.055 0.45105,0.0891 0.51978,0.34668 -0.17475,0.11346 -0.48383,-0.14765 -0.51978,-0.34668 z"
   id="path309" />
























<path
   fill="#abe0fc"
   opacity="1"
   stroke="none"
   d="m 241.07986,442.9622 c -5.54407,-1.31708 -10.74268,-2.40259 -15.73865,-4.08875 -1.59765,-0.5393 -3.94922,-2.94195 -3.72162,-4.02038 0.67145,-3.18061 3.03498,-1.94495 5.47681,-1.34534 6.22119,1.52777 12.60773,2.37061 18.89923,3.63104 1.70532,0.34168 3.30823,1.19422 4.95813,1.81226 -1.52112,1.05481 -2.93201,2.36194 -4.59625,3.08893 -1.47125,0.6427 -3.22485,0.63916 -5.27765,0.92224 z"
   id="path334" />
<path
   fill="#ffffff"
   opacity="1"
   stroke="none"
   d="m 220.99002,470.27378 c -0.68219,0.46527 -1.49549,0.61316 -2.61872,0.70587 0.62256,-0.37786 1.55506,-0.70056 2.61872,-0.70587 z"
   id="path335" />
<path
   fill="#ffffff"
   opacity="1"
   stroke="none"
   d="m 222.70352,470.17149 c -0.003,0.1795 -0.47272,0.39947 -1.1662,0.40069 0.084,-0.26599 0.39221,-0.31311 1.1662,-0.40069 z"
   id="path336" />
<path
   fill="#ffffff"
   opacity="1"
   stroke="none"
   d="m 215.96048,470.78678 c -0.0716,0.18482 -0.23645,0.22431 -0.64783,0.20093 0.0204,-0.15723 0.28747,-0.25171 0.64783,-0.20093 z"
   id="path337" />
<path
   fill="#ffffff"
   opacity="1"
   stroke="none"
   d="m 213.70419,471.16667 c -0.004,0.177 -0.47168,0.39044 -1.16168,0.38415 0.0845,-0.26239 0.39142,-0.30499 1.16168,-0.38415 z"
   id="path338" />

<path
   fill="#fcfdfd"
   opacity="1"
   stroke="none"
   d="m 119.05746,591.52104 c 0.76813,-1.71851 1.50849,-3.0398 2.3996,-4.65711 10.42218,-25.37781 20.69354,-50.45953 31.08447,-75.89844 3.63208,-10.87652 7.14453,-21.39593 10.67139,-32.31469 0.6502,-2.15961 1.28595,-3.9198 1.95031,-6.05457 0.50519,-0.9256 0.98188,-1.47668 1.8086,-2.43243 -3.1333,40.88147 -6.23413,81.33978 -9.35968,122.11969 2.59143,0.3808 4.53491,0.66638 6.8786,1.08673 0.18274,1.76855 -0.0347,3.4024 -0.5144,5.69794 -1.27753,4.5606 -2.29279,8.45953 -3.30805,12.35839 -1.17865,-1.10956 -2.34741,-3.17303 -3.53741,-3.1853 -17.26819,-0.17889 -34.53913,-0.0893 -51.80939,-0.0273 -0.63165,0.002 -1.26196,0.37854 -2.33069,0.66095 0.72595,-3.21546 1.88965,-6.51136 3.01398,-10.17798 0.62957,-2.50202 1.2984,-4.63324 2.02093,-7.13233 2.44654,0.1598 4.81922,0.8631 7.24072,1.14112 1.20832,0.13879 2.50599,-0.50031 3.79102,-1.18469 z"
   id="path340" />
<path
   fill="#112242"
   opacity="1"
   stroke="none"
   d="m 221.68515,608.10453 c 4.13495,1.65717 7.89129,3.31702 12.04473,4.96948 0.3971,-0.007 0.35364,0.0275 0.39441,0.36017 5.58612,2.7591 5.33374,7.41602 4.62507,12.24848 0,0 -0.25544,0.0875 -0.79377,-0.15338 -4.15204,0.029 -7.77728,0.6336 -11.37738,0.50982 -14.22345,-0.48919 -28.43902,-1.20666 -42.65753,-1.83947 0,0 0.0953,-0.0412 0.0602,-0.36121 -1.03595,-0.76666 -2.0368,-1.21338 -3.03772,-1.6601 0,0 0.0813,-0.0486 0.0554,-0.34668 -1.17578,-0.81714 -2.32568,-1.33618 -3.47552,-1.85528 -0.46857,1.74945 -0.93714,3.4989 -1.40577,5.24835 0,0 -0.0432,0.44354 -0.53991,0.6601 -1.32526,0.21771 -2.15381,0.22033 -2.98236,0.2196 -10.9231,-0.009 -10.91889,-0.009 -10.53723,-10.52429 0.0481,-1.32422 -0.39118,-2.83814 0.10778,-3.94208 1.58496,-3.50665 -0.65826,-8.59296 4.34619,-10.67017 9.30762,3.60242 18.84369,5.16242 29.28058,3.39625 0.7522,0.0452 0.99549,-0.0874 1.23877,-0.21991 0,-7e-5 0.29529,-0.21198 0.72693,-0.22101 0.69574,-0.20703 0.9599,-0.40509 1.224,-0.60309 0.74054,-0.39081 1.48102,-0.78162 2.79694,-1.32129 0.79547,-0.44232 1.01544,-0.73566 1.23547,-1.02905 0,0 -0.005,0.0658 -0.0311,0.0449 2.0683,0.55035 4.24353,0.92218 6.23944,1.73474 4.07898,1.6604 8.06147,3.55786 12.46241,5.3551 z"
   id="path341" />
<path
   fill="#0d132c"
   opacity="1"
   stroke="none"
   d="m 184.10513,624.52714 c 14.03406,0.3053 28.24963,1.02277 42.47308,1.51196 3.6001,0.12378 7.22534,-0.48077 11.2583,-0.57342 -2.78973,0.79223 -5.98065,1.80743 -9.21093,1.95361 -14.85541,0.67218 -29.79377,2.31219 -44.52045,-2.89215 z"
   id="path342" />
<path
   fill="#0d132c"
   opacity="1"
   stroke="none"
   d="m 166.34048,600.71391 c -4.83325,2.33117 -2.59003,7.41748 -4.17499,10.92413 -0.49896,1.10394 -0.0597,2.61786 -0.10778,3.94208 -0.38166,10.51489 -0.38587,10.51483 10.53723,10.52429 0.82855,7.3e-4 1.6571,-0.002 2.94671,3.7e-4 -0.23712,0.63232 -0.94909,1.81707 -1.63122,1.80011 -4.54926,-0.1131 -9.09217,-0.48285 -14.06458,-1.27381 -0.0355,-5.37982 0.35651,-10.25506 0.74854,-15.13031 0,0 0.0474,-0.0254 0.0607,-0.0498 1.0285,-3.92328 2.04376,-7.82221 3.28564,-12.02442 0.89392,0.14221 1.56122,0.58783 2.39978,1.28736 z"
   id="path343" />
<path
   fill="#0d132c"
   opacity="1"
   stroke="none"
   d="m 239.07052,625.49784 c 0.38751,-4.64764 0.63989,-9.30456 -4.94256,-12.09118 7.49371,2.419 9.14416,6.23828 4.94256,12.09118 z"
   id="path344" />
<path
   fill="#fcfdfd"
   opacity="1"
   stroke="none"
   d="m 160.19632,611.57804 c 0.006,4.79798 -0.38593,9.67322 -0.72907,14.96717 -0.43506,-1.00806 -1.41705,-2.47461 -1.30664,-3.85382 0.29602,-3.69874 1.05969,-7.35993 2.03571,-11.11335 z"
   id="path345" />
<path
   fill="#0d132c"
   opacity="1"
   stroke="none"
   d="m 176.44253,625.07218 c 0.14331,-1.59692 0.61188,-3.34637 1.08045,-5.09582 1.14984,0.5191 2.29974,1.03814 3.46093,1.90039 -0.8598,-0.0549 -1.73083,-0.45276 -2.95337,-1.01123 -0.44391,1.42517 -0.85333,2.73968 -1.58801,4.20666 z"
   id="path346" />
<path
   fill="#ffffff"
   opacity="1"
   stroke="none"
   d="m 76.221864,612.58805 c 0.66821,-0.42547 1.45721,-0.56189 2.81955,-0.79742 -0.87946,2.00311 -1.56134,3.55615 -2.53192,5.31402 -0.24808,-1.27264 -0.20746,-2.75006 -0.28763,-4.5166 z"
   id="path347" />
<path
   fill="#ffffff"
   opacity="1"
   stroke="none"
   d="m 70.201564,612.33836 c 0.92716,-0.25446 1.98444,-0.20307 3.43116,-0.075 -0.60587,3.02648 -1.95154,1.72692 -3.43116,0.075 z"
   id="path348" />
<path
   fill="#0d132c"
   opacity="1"
   stroke="none"
   d="m 181.10037,622.46476 c 0.84369,0.16028 1.84454,0.607 2.85852,1.42072 -0.89172,-0.13343 -1.79645,-0.63391 -2.85852,-1.42072 z"
   id="path349" />
<path
   fill="#ffffff"
   opacity="1"
   stroke="none"
   d="m 76.102444,617.26933 c 0.1882,-0.0228 0.0848,0.42279 -0.0414,0.61334 -0.24124,-0.009 -0.35629,-0.20941 -0.47137,-0.40943 0.10818,-0.0604 0.21634,-0.12078 0.51275,-0.20391 z"
   id="path350" />



































<path
   fill="#ffffff"
   opacity="1"
   stroke="none"
   d="m 321.78262,419.44407 c -0.48541,-0.20148 -0.82538,-0.57623 -1.16528,-0.95099 0.41772,0.002 0.83545,0.003 1.42529,0.21631 0.17206,0.21155 -0.11463,0.56146 -0.26001,0.73468 z"
   id="path386" />
<path
   fill="#ffffff"
   opacity="1"
   stroke="none"
   d="m 311.08853,441.07865 c -0.14734,-0.13159 -0.31134,-0.24615 -0.47528,-0.36072 0.0999,0.0374 0.19977,0.0748 0.36456,0.26368 0.0648,0.15149 0.0941,0.11407 0.11072,0.097 z"
   id="path387" />






<path
   fill="#0d132c"
   opacity="1"
   stroke="none"
   d="m 202.76016,601.0764 c 0.0342,0.18676 -0.18579,0.4801 -0.6723,0.86187 -0.0383,-0.19281 0.18988,-0.47406 0.6723,-0.86187 z"
   id="path394" />
<path
   fill="#0d132c"
   opacity="1"
   stroke="none"
   d="m 198.7203,603.31425 c -0.002,0.20386 -0.2666,0.40192 -0.78228,0.63312 0.006,-0.19086 0.26318,-0.41492 0.78228,-0.63312 z"
   id="path395" />
<path
   fill="#0d132c"
   opacity="1"
   stroke="none"
   d="m 196.79794,604.12187 c -0.0102,0.1549 -0.25348,0.28747 -0.5871,0.27307 -0.0902,-0.14698 0.35401,-0.29547 0.5871,-0.27307 z"
   id="path396" />


















</svg>
