<?xml version="1.0" encoding="UTF-8" standalone="no"?>
<svg
   version="1.1"
   id="Layer_1"
   x="0px"
   y="0px"
   width="355.46231"
   viewBox="0 0 355.46231 637.87433"
   enable-background="new 0 0 1536 1024"
   xml:space="preserve"
   sodipodi:docname="characters-together-welcomescreen.svg"
   height="637.87433"
   inkscape:version="1.4.2 (f4327f4, 2025-05-13)"
   xmlns:inkscape="http://www.inkscape.org/namespaces/inkscape"
   xmlns:sodipodi="http://sodipodi.sourceforge.net/DTD/sodipodi-0.dtd"
   xmlns="http://www.w3.org/2000/svg"
   xmlns:svg="http://www.w3.org/2000/svg"><defs
   id="defs414" /><sodipodi:namedview
   id="namedview414"
   pagecolor="#ffffff"
   bordercolor="#000000"
   borderopacity="0.25"
   inkscape:showpageshadow="2"
   inkscape:pageopacity="0.0"
   inkscape:pagecheckerboard="0"
   inkscape:deskcolor="#d1d1d1"
   inkscape:zoom="0.78808594"
   inkscape:cx="-343.23668"
   inkscape:cy="316.58984"
   inkscape:window-width="1920"
   inkscape:window-height="1009"
   inkscape:window-x="1912"
   inkscape:window-y="-8"
   inkscape:window-maximized="1"
   inkscape:current-layer="Layer_1" />




<path
   fill="#feaf81"
   opacity="1"
   stroke="none"
   d="m 87.843145,159.06525 c 0.293,-0.86072 0.5858,-1.72146 1.2581,-2.96683 1.2095,-1.95443 2.0399,-3.52432 3.0947,-4.90945 0.4839,0.76987 0.7433,1.35492 1.1045,2.16947 13.616705,-20.82584 33.733605,-33.91096 53.339805,-47.62528 0.81719,0.98129 1.1069,1.20087 1.2261,1.49057 9.8204,23.89947 27.7314,38.10034 52.6139,44.00043 0.4742,0.11248 0.782,0.92688 0.744,1.39023 -4.9089,-0.54166 -9.281,-0.63776 -12.53041,3.28656 0.055,0.0438 0,-0.0846 -0.31729,0.13925 -1.5351,4.66333 1.16059,5.05658 4.7789,4.91348 0.7756,0.06 1.223,0.0422 2.0278,0.17407 3.7889,0.69797 7.2206,1.24622 10.8301,1.88752 0.1781,0.0931 0.578,0.053 0.8232,0.3135 4.0289,2.00504 7.8129,3.74951 11.5967,5.49402 0.2442,-0.26718 0.4885,-0.53433 0.7326,-0.80148 -0.7758,-1.35572 -1.5518,-2.71143 -2.4185,-4.37708 -1.6294,-1.77218 -3.168,-3.23446 -4.8313,-4.94403 -0.4367,-0.4292 -0.7487,-0.61114 -1.1029,-0.98785 -0.042,-0.19474 -0.1332,-0.58283 0.2646,-0.63391 1.97219,0.34301 3.6105,0.57342 5.10999,1.15921 7.01681,2.74102 13.8378,6.15704 21.057,8.13125 3.4143,0.93372 7.7656,3.06607 11.61661,-0.0305 1.64509,3.70166 3.1086,7.09366 4.6581,10.88825 1.0938,3.26132 2.1018,6.11999 3.0998,8.91254 -0.01,-0.0662 -0.1245,0.002 -0.073,0.39733 1.2231,4.69117 2.3952,8.98722 3.30761,12.33201 6.3508,-0.30378 12.29479,-1.21741 18.1248,-0.73996 13.401,1.09725 21.9742,12.77691 18.5468,25.23465 -3.3222,12.07513 -12.2858,18.67532 -23.9257,21.56692 -11.0004,2.73273 -21.0179,1.00266 -28.4042,-8.82831 -2.8547,3.29129 -5.656,6.52094 -8.4573,9.75061 -10.0068,3.58377 -19.8718,7.66663 -30.0738,10.56305 -6.0668,1.72244 -12.6635,1.57797 -19.6431,2.18134 -1.2566,-0.2472 -1.8883,-0.52021 -2.5283,-0.54114 -11.2041,-0.3667 -22.4093,-0.70255 -33.6142,-1.0451 -5.0701,-1.32895 -10.21,-2.43805 -15.1978,-4.02555 -20.0044,-6.36697 -36.874505,-17.53573 -49.527705,-34.32852 -3.6732,-4.87485 -5.4461,-11.18152 -7.9804,-17.41321 0.5187,-5.63324 0.1535,-10.90344 1.5033,-15.68985 2.5319,-8.97717 6.0559,-17.6745 9.1674,-26.48819 m 60.077905,53.63428 c 0.4057,-0.0143 0.8115,-0.0286 1.2173,-0.0429 -0.3887,-0.26666 -0.7773,-0.53332 -1.5247,-1.41015 -7.363,-7.50959 0.8588,-10.8505 5.0656,-15.33432 -5.1137,-0.98313 -9.2992,1.64389 -10.627,5.91827 -1.5337,4.93738 0.2994,8.4335 5.8688,10.86911 m -16.4787,-69.39658 c -7.1445,-2.33786 -13.978,-2.35373 -20.0988,2.7779 0,0 -0.06,-0.0713 -0.741,-0.2703 -0.6248,0.79114 -1.2494,1.58228 -1.2327,1.56107 6.8881,1.29028 13.7113,2.64294 20.5673,3.80142 1.7679,0.29877 3.6391,-0.0129 5.4629,-0.0442 -0.4644,-1.7637 -0.9287,-3.5274 -1.5957,-5.85349 -0.6299,-0.4515 -1.2597,-0.90304 -2.362,-1.97238 m -3.5246,42.16028 c -0.5137,-5.75522 -2.5668,-8.44568 -6.4583,-8.46307 -3.7723,-0.0169 -7.2961,3.83505 -7.4602,8.54773 -0.062,1.76831 0.3242,3.69055 1.0239,5.32028 1.8749,4.36676 7.0881,5.29538 10.1698,1.64947 1.3979,-1.65368 1.8282,-4.12503 2.7248,-7.05441 m 66.8526,8.20184 c -0.642,2.34775 -1.8335,4.70359 -1.7992,7.04142 0.053,3.61691 1.3482,6.96087 5.7714,7.40133 3.7432,0.37275 5.8303,-1.82385 7.0745,-5.02572 1.6378,-4.2153 1.4887,-8.35117 -2.2322,-11.2684 -2.8274,-2.21656 -5.9294,-1.53214 -8.8145,1.85137 m -45.0597,34.72379 c 6.05,7.72443 26.9944,5.10989 30.5103,-3.85837 0.2809,-0.71652 -0.2085,-1.73514 -0.34,-2.61337 -0.9557,0.35629 -2.1871,0.44727 -2.8243,1.10986 -6.5601,6.8208 -14.3823,7.49427 -22.9642,5.03968 -1.3138,-0.37577 -2.757,-0.29841 -4.3818,0.3222 z"
   id="path5" />


<path
   fill="#4abeba"
   opacity="1"
   stroke="none"
   d="m 78.774745,435.00574 c -1.5362,-1.22101 -3.0725,-2.44207 -4.9145,-3.90613 1.5597,-7.51385 3.1535,-15.19281 4.8669,-23.62335 0.7134,-3.62744 1.3075,-6.50335 2.0396,-9.75488 5.6047,-24.24512 11.7408,-47.91632 21.171995,-70.96069 3.0344,-3.9253 2.67091,-7.34656 -0.13529,-10.9104 -1.6253,-2.06433 -2.752305,-4.52127 -3.659305,-6.81736 2.249705,-0.0158 4.055005,-0.0158 4.989195,-0.0158 3.33491,-5.85404 6.0634,-11.1334 9.2482,-16.12131 4.9727,-7.78763 10.2547,-15.37775 15.40561,-23.05161 0,0 0.022,0.0816 0.36629,0.10553 3.6893,2.76895 7.4983,5.11817 10.2646,8.35776 3.5772,4.18933 7.693,5.41077 12.8014,4.63562 1.0636,-0.16141 2.1311,-0.29748 3.9074,-0.54382 -0.54569,2.1579 -0.86999,3.72796 -1.3395,5.25335 -4.3787,14.22651 -9.19049,28.33561 -13.05109,42.70066 -3.1694,11.79254 -5.5336,23.8305 -7.6648,35.86419 -1.8418,10.39936 -3.00261,20.92878 -4.1903,31.43171 -1.1508,10.17773 -1.9911,20.39154 -2.89181,30.59625 -0.46579,5.27612 -0.86979,10.56341 -1.0418,15.85412 -0.029,0.89637 1.25971,1.83558 1.9397,2.75495 0.6473,-0.95337 1.7666,-1.86151 1.863,-2.86774 0.5057,-5.27057 0.7133,-10.56885 1.0973,-15.85223 0.6719,-9.24188 1.071,-18.51917 2.1759,-27.71051 1.6744,-13.93012 3.2283,-27.9253 5.9882,-41.66083 3.0886,-15.37274 7.2823,-30.53577 11.3486,-45.69513 2.4831,-9.25684 5.6097,-18.34216 8.5095,-27.48477 0.3701,-1.16708 1.1047,-3.12244 1.6923,-3.13052 1.264,-0.0173 2.5713,0.94149 3.8083,1.59957 2.4177,1.28638 4.6593,3.09687 7.2216,3.88446 9.1363,2.80841 16.7817,-1.51126 24.3958,-5.65908 1.3312,-0.72516 2.6451,-1.48185 5.1635,-2.89582 -1.63,5.70478 -2.6396,10.03372 -4.101,14.20438 -4.4237,12.6243 -5.1545,25.47311 -3.4237,38.67807 1.4172,10.81036 2.4704,21.69031 3.1141,32.57318 0.505,8.53619 0.6779,9.12988 9.2138,9.49878 1.3108,2.48419 2.5208,4.64142 3.7444,6.7392 0.014,-0.0594 -0.072,0.0269 -0.041,0.34912 0.4465,1.06079 0.8616,1.7995 1.2977,2.85901 0.2877,1.12793 0.5545,1.93499 0.6633,2.84289 0.015,0.33252 0.1874,0.56415 0.323,0.83191 -0.037,0.0362 -0.012,-0.0646 -0.039,0.36792 -0.2549,2.55902 -0.699,4.68787 -0.6762,6.81177 0.1406,13.07086 0.4112,26.14032 0.5835,39.21094 0.056,4.26544 1.0349,8.9093 -3.9518,11.46209 0,0 -0.4165,0.18805 -0.9433,0.2016 -0.7266,0.015 -0.9261,0.0164 -1.4724,0.1579 -10.4341,1.70532 -20.4772,4.05792 -30.6202,4.62341 -11.0413,0.61566 -22.2033,-0.0363 -33.262,-0.83703 -17.8667,-1.2937 -35.4389,-4.31238 -52.134595,-11.23481 -3.1833,-1.31988 -6.4323,-2.48175 -9.651,-3.71649 M 138.77064,321.4614 c 0.3626,-2.2428 0.7253,-4.48559 1.1276,-6.97369 -8.2969,-1.65296 -16.1735,-3.22211 -24.2207,-4.82526 -1.0826,3.48502 -2.0052,6.45459 -3.1928,10.27728 7.852,1.72431 15.3687,3.48657 22.9518,4.89136 0.8911,0.16504 2.1463,-1.63617 3.3341,-3.36969 z"
   id="path8" />
<path
   fill="#149b97"
   opacity="1"
   stroke="none"
   d="m 78.589845,435.36964 c 3.4036,0.87084 6.6526,2.03271 9.8359,3.35259 16.695695,6.92243 34.267905,9.94111 52.134605,11.23481 11.0587,0.80072 22.2207,1.45269 33.262,0.83703 10.143,-0.56549 20.18609,-2.91809 30.6302,-4.36957 0.5256,0.57563 0.69419,1.03748 0.8628,1.4994 0.017,0.49615 0.034,0.99224 -0.1587,2.03063 -0.2808,0.83313 -0.2306,1.10157 -0.06,1.34754 0.1168,0.31201 0.1499,0.63263 -0.076,1.61121 -0.1698,1.78234 -0.1645,2.9154 -0.1594,4.04846 0.2659,10.44928 0.1999,20.92297 0.9639,31.33569 0.2985,4.07098 1.8828,8.32349 3.8752,11.94672 8.5194,15.49133 17.4098,30.77868 26.1825,46.83331 -6.3698,13.46088 -16.5928,22.90295 -27.4768,32.12976 -3.3736,2.50336 -6.4356,4.91888 -9.653,7.45697 -15.8775,-18.08832 -29.8354,-36.5484 -41.0632,-57.06207 -11.3176,-20.67792 -13.971,-43.79175 -19.2144,-67.39478 -0.781,2.26416 -1.3971,3.32428 -1.4904,4.42859 -1.7361,20.51209 -4.2155,41.00366 -4.8745,61.55286 -0.6875,21.43042 0.4263,42.91711 0.6485,64.38037 0.023,2.18561 -0.67,4.37866 -1.4626,6.51575 -11.4236,0.393 -22.4153,0.83844 -33.407005,1.28381 -12.2648,-1.29688 -13.0576,-1.16382 -15.1505,-13.63599 -3.2792,-19.5426 -6.4151,-39.21911 -7.6643,-58.96215 -1.2974,-20.50373 -0.6601,-41.16401 -0.1138,-61.73578 0.2689,-10.12378 2.2421,-20.20228 3.6289,-30.66516 z"
   id="path9" />
<path
   fill="#182c49"
   opacity="1"
   stroke="none"
   d="m 91.971545,151.00422 c -0.8304,1.56988 -1.6608,3.13977 -2.822,4.75427 -1.3358,-6.94809 -2.3408,-13.9408 -3.0382,-21.68445 0.7514,-7.97455 -0.26,-15.68542 1.9599,-22.31424 3.8969,-11.63653 9.3862,-22.809538 15.024705,-33.756278 2.0382,-3.9571 6.4204,-6.70682 10.1389,-10.01124 10.6948,-0.66479 20.9771,-1.48614 31.2759,-1.90765 4.0913,-0.16745 8.2145,0.63477 12.3308,0.84692 6.1184,0.31528 12.2571,0.32251 18.3627,0.78269 7.6061,0.57324 15.1874,1.47378 22.9995,2.25632 0.2201,0.0233 0.63899,0.16629 0.6965,0.4895 8.00649,1.73599 15.9555,3.1488 24.16139,4.83816 7.52711,2.49146 14.8328,4.59879 22.05051,6.97303 2.99,0.98349 4.4716,1.04889 4.85259,-2.82941 1.0643,-10.83746 2.55781,-21.6328 4.2438,-32.4005 9.45441,4.0073 18.5473,7.97034 27.6368,11.94185 0,0.008 0.014,0.0115 0.10841,0.23686 0.2904,0.50739 0.55569,0.68587 0.88869,0.76869 0,0.008 0.014,0.004 0.10931,0.23041 0.2924,0.50958 0.559,0.68906 0.8913,0.77207 0,0.007 0.01,-10e-4 0.1052,0.22906 0.29379,0.51932 0.56469,0.7005 0.89899,0.77673 -0.01,0.003 0,-0.015 0.097,0.21485 0.3695,0.42358 0.6373,0.61728 1.061,1.11392 10.8294,16.68372 17.4959,34.55179 18.7278,54.086368 1.0674,16.92816 0.1895,33.82989 -5.0196,50.16821 -3.0124,9.44809 -6.3871,18.78564 -9.8501,28.07928 -0.474,1.27188 -2.8345,3.10532 -3.5998,2.80979 -8.2005,-3.16712 -16.4759,-3.07425 -24.2416,-1.13565 -1.9783,-4.00571 -3.7529,-7.59903 -5.5274,-11.19236 0,-3e-5 0.1149,-0.0684 0.1934,-0.42712 -1.0326,-3.20254 -2.1437,-6.04642 -3.2547,-8.89029 -1.4635,-3.39197 -2.927,-6.78397 -4.5942,-10.84396 -1.1445,-2.79004 -1.8241,-5.09177 -3.1167,-6.97199 -0.8878,-1.2912 -2.5258,-2.63446 -4.001,-2.86886 -21.8703,-3.47531 -41.931,-11.39389 -59.6402,-24.70212 -13.2028,-9.9216 -22.2051,-22.73102 -24.6497,-39.525388 -0.4334,-2.97684 -1.2789,-5.89371 -2.2672,-10.33493 -6.7844,4.01315 -12.7196,6.93652 -18.008,10.75564 -20.8397,15.050018 -33.427,36.565618 -45.184895,58.671818 z"
   id="path10" />


<path
   fill="#102040"
   opacity="1"
   stroke="none"
   d="m 256.54575,186.53653 c 1.7235,3.19822 3.4981,6.79154 5.4764,10.79725 7.7657,-1.9386 16.0411,-2.03147 24.2416,1.13565 0.7653,0.29553 3.1258,-1.53791 3.5998,-2.80979 3.463,-9.29364 6.8377,-18.63119 9.8501,-28.07928 5.2091,-16.33832 6.087,-33.24005 5.0196,-50.16821 -1.2319,-19.534578 -7.8984,-37.402648 -18.8319,-54.315528 -0.5261,-0.72628 -0.7923,-0.92047 -1.0586,-1.11465 0,0 0,0.0178 -0.092,-0.21506 -0.2795,-0.53067 -0.5492,-0.7121 -0.8971,-0.77716 0,0 -0.015,0.009 -0.103,-0.22778 -0.2796,-0.53073 -0.5482,-0.70831 -0.8939,-0.76924 0,0 -0.016,0.004 -0.1019,-0.23488 -0.2785,-0.53299 -0.5484,-0.70778 -0.8957,-0.76314 0,0 -0.017,-0.003 -0.032,-0.3618 -4.7462,-8.55962 -12.1705,-13.81709 -20.1142,-19.00136 -0.2454,-0.58426 -0.3699,-0.8063 -0.4944,-1.02833 0,0 0.1112,-0.085 0.4936,0.0124 1.6044,-0.86583 2.8265,-1.82901 4.0485,-2.79217 0,10e-6 0.01,0.0934 0.3514,0.11116 2.0384,-0.5864 3.8025,-1.04442 5.4153,-1.81778 12.9949,-6.23093 26.3313,-7.05249 40.043,-2.73702 3.1924,1.00473 6.4256,1.87944 9.6401,2.81398 0,0 0.2213,0.10918 0.2224,0.53082 0.5971,0.5322 1.1932,0.64273 1.7891,0.7533 -0.08,0.15982 -0.1608,0.31964 -0.1031,0.58456 0.7136,0.35027 1.289,0.59543 1.8646,0.84058 0,0 -0.091,0.0445 -0.052,0.36749 0.8067,0.57326 1.575,0.82357 2.3433,1.07389 0,-2e-5 0.042,0.10896 0.043,0.44229 0.5517,0.5984 1.1024,0.86349 1.6532,1.1286 0,10e-6 -0.082,0.0219 0.028,0.24014 0.4249,0.40463 0.7406,0.59104 1.0563,0.77742 0.3208,-0.01 0.5747,0.11572 0.8094,0.96214 1.4357,1.73389 2.8237,2.88195 4.2118,4.03 0.3396,-0.004 0.5834,0.14672 0.7899,1.00693 0.5248,0.80107 0.991,1.04768 1.457,1.29428 0,0 0.1584,0.14691 0.08,0.56787 1.4786,2.31671 3.0359,4.21247 4.5931,6.10822 0,3e-5 -0.099,0.0319 -0.1061,0.35312 1.0142,1.78125 2.0359,3.24128 3.0577,4.70132 0,2e-5 -0.082,0.004 -0.052,0.28751 0.3845,0.75619 0.7396,1.22873 1.0947,1.70126 0,-3e-5 -0.089,-0.004 -0.095,0.32691 0.4957,0.93631 0.9973,1.54174 1.4989,2.14721 0,-3e-5 0.016,0.12845 -0.1437,0.56482 0.4276,2.64316 1.0891,4.83325 1.5884,7.05969 1.692,7.54734 4.2568,15.04123 4.8015,22.67588 1.4024,19.656338 -2.36,38.830468 -8.5078,57.369138 -6.0422,18.22073 -13.2385,36.05746 -19.81,54.1058 -0.6906,1.89682 -0.5813,4.08493 -0.8432,6.13788 0,0 -0.06,0.10428 -0.4214,0.13837 -0.6146,0.91424 -0.8675,1.7944 -1.1203,2.67456 0,3e-5 -0.017,-0.10163 -0.2885,0.0644 -2.0984,5.11795 -4.072,10.02148 -5.7234,15.03125 -4.1416,12.56464 -6.0692,25.47662 -4.9897,38.69074 0.2245,2.74984 1.845,5.38565 2.8221,8.07397 0,0 0.1525,0.37714 0.1231,0.96942 -0.035,1.36896 -0.04,2.14563 -0.045,2.92227 0,0 -0.3904,0.14463 -1.0283,0.12809 -6.3788,0.591 -12.2317,2.19177 -17.8325,1.55935 -7.3063,-0.82501 -14.4047,-3.453 -21.616,-5.20917 -0.8738,-0.21279 -1.8928,0.16983 -2.8445,0.27649 0,0 -0.1453,-0.06 -0.1415,-0.4703 -1.2959,-0.79965 -2.5956,-1.18897 -3.8952,-1.57828 0,0 -0.064,-0.0834 -0.061,-0.45169 -1.245,-0.92511 -2.4926,-1.48193 -3.7401,-2.03876 0,0 0.094,-0.0277 -0.038,-0.23599 -0.4892,-0.23496 -0.8457,-0.26157 -1.2023,-0.28821 0,0 -0.026,-0.0952 -0.042,-0.41165 -0.5941,-0.55521 -1.1726,-0.79392 -1.7511,-1.03265 0,-3e-5 0.107,-0.0307 -0.018,-0.24353 -0.4865,-0.26187 -0.8479,-0.31092 -1.2093,-0.35993 0,0 -0.052,-0.0977 -0.01,-0.29284 -0.1643,-0.20545 -0.3743,-0.21567 -0.5844,-0.22586 -9.3564,-6.13422 -16.4814,-14.41584 -22.8889,-23.87443 2.6035,-3.52575 5.4048,-6.7554 8.2595,-10.04669 7.3863,9.83097 17.4038,11.56104 28.4042,8.82831 11.6399,-2.8916 20.6035,-9.49179 23.9257,-21.56692 3.4274,-12.45774 -5.1458,-24.1374 -18.5468,-25.23465 -5.83,-0.47745 -11.774,0.43618 -18.1248,0.73996 -0.9124,-3.34479 -2.0845,-7.64084 -3.3076,-12.33198 z"
   id="path13" />






<path
   fill="#e9feff"
   opacity="1"
   stroke="none"
   d="m 198.84274,70.136852 c 0,0 -0.41889,-0.14298 -0.8186,-0.51474 -27.88,-5.53864 -55.5591,-6.91736 -83.6485,-4.31305 0.4149,-3.038 0.7706,-5.64197 1.2631,-8.57672 0.1205,-0.80478 0.1041,-1.27875 0.1664,-2.05655 0.086,-0.72017 0.093,-1.13652 0.2841,-1.87059 0.5546,-2.07978 0.9684,-3.83562 1.2226,-5.61429 0.023,-0.16277 -0.97219,-0.47125 -1.4947,-0.71205 4.80391,-5.0131 3.5519,-11.75322 4.9504,-17.71823 1.0479,-4.46911 1.3361,-9.11242 2.2643,-13.61594 0.2702,-1.31003 1.57951,-2.40578 3.0066,-3.99342 19.8623,-3.4292498 39.1644,-4.5457298 58.7149,-3.3992398 23.9759,1.40607 47.0994,5.8528798 69.1267,15.5557898 -0.3014,2.28215 -0.9443,4.58476 -0.8092,6.84081 0.1381,2.30745 1.039,4.56921 1.3836,7.32258 -0.6292,1.17815 -1.036,1.88471 -1.5185,3.00865 -1.6563,14.05031 -3.23679,27.6832 -4.7575,40.80024 -8.89,-2.49695 -17.115,-4.80716 -25.70849,-7.24186 -8.1213,-1.38348 -15.8742,-2.64245 -23.6272,-3.90139 m -7.4931,-40.12711 c -2.8786,0.26061 -3.7477,-1.15816 -3.6133,-3.88168 0.1766,-3.57563 0.043,-7.16654 0.043,-10.75495 -3.9588,-0.40484 -7.2067,-0.73698 -10.8862,-1.11326 -0.6621,3.9442 -1.5268,7.64477 -1.8345,11.3911 -0.2409,2.93383 -1.6285,3.5543 -4.1989,3.45756 -3.7716,-0.14194 -7.5523,-0.0365 -11.6078,-0.0365 -0.3433,4.17744 -0.6482,7.88736 -0.9878,12.01908 4.9391,0.56565 9.5758,1.09665 14.2408,1.63091 -0.5748,4.77245 -1.0614,8.81169 -1.6251,13.49077 4.3439,0.38553 8.2153,0.72914 12.433,1.10345 0.6211,-3.94619 1.2031,-7.34605 1.6781,-10.76085 0.3501,-2.51803 1.4471,-3.81862 4.2377,-3.65472 3.4183,0.20081 6.8576,0.0479 10.3803,0.0479 0.4743,-4.30103 0.8799,-7.9791 1.292,-11.71675 -3.4065,-0.46569 -6.0339,-0.82488 -9.5517,-1.22199 z"
   id="path20" />


<path
   fill="#fb9999"
   opacity="1"
   stroke="none"
   d="m 225.65395,609.93366 c 23.46839,1.36749 46.93129,2.78265 69.95409,8.02979 0.8069,0.18389 1.7256,0.22497 2.383,0.65344 2.22621,1.45044 4.3582,3.04541 6.5262,4.58514 -2.25109,1.55707 -4.32819,4.06214 -6.7823,4.51258 -13.0008,2.38647 -26.0332,4.97509 -39.1744,6.13439 -18.9835,1.67469 -38.0591,2.60419 -57.1149,3.08991 -27.6145,0.7038 -55.2467,0.96991 -82.8707,0.93188 -12.5854,-0.0173 -25.202295,-0.8374 -37.747095,-1.94629 -24.3664,-2.15386 -48.9723,-2.59783 -72.7964,-8.99688 -2.8928,-0.77704 -5.3646,-3.12244 -8.0314,-4.74097 2.8295,-1.40613 5.5382,-3.64905 8.5091,-4.07886 15.8634,-2.29504 31.7739,-4.30627 47.7089,-6.04248 5.476,-0.59661 11.0696,-0.11474 16.8474,0.26398 0.2379,0.38965 0.1689,0.38025 -0.098,0.26355 -0.501,0.15845 -0.7352,0.43372 -0.9866,0.6311 -0.017,-0.0779 0.1403,-0.0517 -0.1269,-0.009 -0.5075,0.29602 -0.7477,0.54926 -1.1587,1.10035 -1.2211,2.34527 -3.2156,4.49389 -3.0108,6.40692 0.1524,1.4215 3.0208,3.30438 4.9174,3.64105 5.0204,0.89111 10.1698,1.0542 15.7301,1.57556 10.204,-0.15643 19.945705,-0.38129 29.765405,-0.492 0.078,0.11419 0.3508,0.0707 0.5979,-0.0978 0.936,-0.87543 1.6251,-1.5824 2.6089,-2.40235 1.41879,-0.71283 2.5427,-1.31268 3.59279,-1.49805 -0.2327,2.67066 -0.5651,5.04877 3.2585,4.9751 3.0686,-0.13836 6.6977,2.8725 8.4031,-1.68884 0.028,0.10632 -0.189,0.0704 0.1977,-0.0789 1.5528,-4.45306 1.5291,-8.57129 -1.4819,-12.28741 0.014,-0.0657 0.145,-0.0933 0.2812,-0.58985 -0.02,-1.86834 -0.1764,-3.24017 -0.6486,-4.38977 -0.5113,0.0542 -0.7066,-0.11389 -0.3186,-0.30883 19.359,0.29168 38.1767,-0.003 56.8866,1.27966 6.1013,0.41821 13.6778,-2.53516 18.9263,4.37854 1.0191,2.31421 1.8171,4.28583 2.6152,6.25744 2.2517,-0.95275 4.6595,-1.65655 6.7052,-2.93823 1.5961,-1.00012 2.7423,-2.71844 4.2502,-3.95312 0.3817,-0.31342 0.6017,-0.79126 0.8711,-1.49488 0.2113,-0.53112 0.4652,-0.68115 0.8108,-0.6759 z"
   id="path23" />



<path
   fill="#3cb3ae"
   opacity="1"
   stroke="none"
   d="m 204.85364,374.00934 c -8.4351,-0.0419 -8.608,-0.63562 -9.113,-9.17181 -0.6437,-10.88287 -1.6969,-21.76282 -3.1141,-32.57318 -1.7308,-13.20496 -1,-26.05377 3.4237,-38.67807 1.4614,-4.17066 2.471,-8.4996 4.10101,-14.20438 -2.5184,1.41397 -3.83231,2.17066 -5.16351,2.89582 -7.6141,4.14782 -15.25949,8.46749 -24.3958,5.65908 -2.5623,-0.78759 -4.8039,-2.59808 -7.2216,-3.88446 -1.237,-0.65808 -2.5443,-1.61691 -3.8083,-1.59957 -0.5876,0.008 -1.3222,1.96344 -1.6923,3.13052 -2.89979,9.14261 -6.0264,18.22793 -8.50949,27.48477 -4.0663,15.15936 -8.26,30.32239 -11.3486,45.69513 -2.7599,13.73553 -4.3138,27.73071 -5.9882,41.66083 -1.10491,9.19134 -1.504,18.46863 -2.1759,27.71051 -0.384,5.28338 -0.5916,10.58166 -1.0973,15.85223 -0.096,1.00623 -1.2157,1.91437 -1.863,2.86774 -0.68,-0.91937 -1.9688,-1.85858 -1.9397,-2.75495 0.172,-5.29071 0.576,-10.578 1.0418,-15.85412 0.9007,-10.20471 1.741,-20.41852 2.8918,-30.59625 1.1877,-10.50293 2.3485,-21.03235 4.1903,-31.43171 2.1312,-12.03369 4.4954,-24.07165 7.6648,-35.86419 3.8606,-14.36505 8.6724,-28.47415 13.0511,-42.70066 0.4695,-1.52539 0.7938,-3.09545 1.3395,-5.25335 -1.7763,0.24634 -2.8438,0.38241 -3.9074,0.54382 -5.1084,0.77515 -9.2242,-0.44629 -12.8014,-4.63562 -2.7663,-3.23959 -6.5753,-5.58881 -10.3066,-8.36325 1.9629,-1.43475 4.3798,-2.73883 6.6458,-4.26703 4.3913,-2.96161 9.0147,-3.5964 14.4648,-1.3642 0.5979,1.1843 0.7139,1.94873 0.8809,3.05158 1.9615,3.59649 3.888,6.84543 5.7779,10.11542 1.7476,3.02392 4.1881,3.62491 7.1165,1.9086 5.2741,-3.09119 10.4848,-6.29047 16.0636,-9.50846 2.2104,-1.36191 4.0794,-2.65991 5.9485,-3.95791 2.1658,-0.002 4.3569,0.2066 6.4923,-0.0498 4.0326,-0.48428 6.4486,1.15601 8.3683,4.69681 1.0853,2.00165 3.1254,4.14731 5.2006,4.84534 15.8254,5.32315 24.4683,16.60736 28.8254,32.29419 3.9436,14.19842 8.3928,28.28833 13.4067,42.14093 1.8619,5.1444 0.7729,7.65954 -3.5725,9.80462 -0.8898,0.43927 -1.6933,1.05359 -3.0814,1.96015 -12.2951,4.38025 -24.0451,8.38757 -35.7952,12.39489 z"
   id="path27" />












<path
   fill="#ffa97c"
   opacity="1"
   stroke="none"
   d="m 210.77664,387.0257 c -0.2669,-0.80707 -0.5337,-1.61413 -0.5944,-2.92529 -0.3811,-1.33539 -0.96849,-2.16669 -1.5559,-2.99799 0,0 0.086,-0.0863 0.1597,-0.4082 1.3327,-1.15332 2.4862,-2.35583 3.87,-2.75012 5.1948,-1.48017 10.5009,-2.57013 15.6958,-4.05005 4.4591,-1.27033 8.8234,-2.87329 13.5088,-4.42139 0.3991,0.49488 1.3076,1.62085 2.2159,2.74689 3.9318,14.87115 7.8645,29.742 11.7927,44.61407 0.2113,0.79999 0.4961,1.60114 0.5603,2.41645 0.8052,10.21014 4.4676,17.67596 16.4149,17.38073 0.7917,-0.0196 1.7398,0.22229 2.3615,0.68409 1.262,0.93756 2.3501,2.10907 3.5099,3.18414 -1.2735,1.15289 -2.4458,2.45636 -3.857,3.40436 -0.9016,0.60577 -2.1563,0.68585 -3.5636,1.09106 2.1938,1.8363 4.1431,3.46814 6.0926,5.09992 -0.1737,0.42468 -0.3476,0.8493 -0.5213,1.27398 -3.4544,0 -6.9088,0 -10.6782,0 0.483,0.61945 0.9163,1.04261 1.1918,1.55127 1.1463,2.11646 2.245,4.25879 3.3612,6.3916 -2.3567,0.003 -4.7434,0.23432 -7.0591,-0.0716 -1.509,-0.19946 -2.9147,-1.17963 -5.009,-2.08899 0.531,1.54437 1.1172,2.43994 1.0837,3.31177 -0.082,2.14032 -0.4497,4.26965 -0.7024,6.4035 -2.0577,-0.80121 -4.7604,-1.0448 -6.037,-2.52124 -2.5499,-2.94891 -4.3181,-6.57385 -6.7122,-10.4046 -1.7325,2.54901 -3.1075,5.177 -5.0712,7.24622 -1.2783,1.34692 -3.4135,1.88079 -5.1646,2.77899 -0.3961,-1.79877 -1.339,-3.68665 -1.0639,-5.37629 0.4464,-2.74285 2.0498,-5.29809 2.4912,-8.04095 0.3918,-2.43567 0.5919,-5.34204 -0.3657,-7.48547 -7.7193,-17.27619 -15.7306,-34.42182 -23.6669,-51.60083 -0.2051,-0.44422 -0.5735,-0.81305 -1.2256,-1.70545 -0.6764,-0.94647 -0.9928,-1.40442 -1.3092,-1.86242 0,0 -0.025,0.10077 0,-0.16712 0.021,-0.26794 -0.1486,-0.70105 -0.1486,-0.70105 z"
   id="path40" />







<path
   fill="#ffa97c"
   opacity="1"
   stroke="none"
   d="m 40.782845,376.05396 c -2.3223,0.83392 -4.6442,2.31201 -6.967,2.31378 -2.1639,0.002 -5.0787,-0.98462 -6.3198,-2.5805 -1.9216,-2.47101 -1.8347,-6.30188 -5.6727,-7.73084 -0.6083,-0.2265 -0.085,-3.49206 -0.085,-5.51519 -5.0914,-1.68812 -5.6683,-2.80244 -4.1297,-8.77704 -0.2305,-0.21924 -0.44,-0.47126 -0.7012,-0.64551 -2.3414,-1.56256 -6.5679,-3.06543 -6.6072,-4.67487 -0.062,-2.51428 2.6156,-5.16467 4.3323,-7.61755 0.6297,-0.89972 1.828,-1.40149 3.2781,-2.36792 1.9713,-1.01367 3.4316,-1.74408 5.2554,-2.52008 3.4015,-1.32721 6.3654,-2.86755 9.5124,-3.76837 1.3342,-0.38184 3.6366,0.10309 4.424,1.06976 0.7161,0.87897 0.2593,3.03552 -0.1968,4.46387 -0.5396,1.68933 -1.6331,3.20172 -2.7259,4.89569 -0.4027,0.42352 -0.5659,0.74219 -0.7291,1.06085 0.5238,-0.14911 1.0475,-0.29828 1.9774,-0.48907 2.0182,-0.41187 3.6267,-1.05311 5.2432,-1.0738 1.525,-0.0195 3.891,0.15979 4.3874,1.06977 0.6975,1.2785 0.1824,3.34875 -0.1585,5.0097 -0.1739,0.84723 -1.0987,1.54035 -1.2941,1.79505 2.2362,1.31775 5.7978,2.28479 6.0896,3.85827 0.42,2.26459 -1.5382,4.97022 -2.4815,7.48755 6.6095,2.32483 7.1228,4.55811 2.2535,9.7337 -0.8991,0.95563 -1.7521,1.95435 -2.9976,2.86988 -2.1431,0.66876 -3.915,1.40082 -5.687,2.13287 z"
   id="path48" />


<path
   fill="#7ac9ee"
   opacity="1"
   stroke="none"
   d="m 254.16954,23.024592 c -22.3168,-9.41968 -45.4403,-13.8664898 -69.41619,-15.2725598 -19.5505,-1.14649 -38.8526,-0.03 -58.5125,3.1017398 -0.8632,-1.9460198 -1.33471,-3.9882098 -1.94901,-6.6484898 8.6134,-1.10719 16.2689,-2.32361 23.97071,-3.04094 32.9204,-3.06611 65.2669,-0.16452995 96.89349,9.7500598 0.9494,0.29764 1.8848,0.64002 2.825,0.96714 7.6287,2.65469 7.6286,2.65512 6.1885,11.14305 z"
   id="path51" />
<path
   fill="#102040"
   opacity="1"
   stroke="none"
   d="m 225.78335,609.61805 c -0.475,0.31036 -0.72891,0.46039 -1.1857,1.09234 -0.45901,0.62763 -0.6232,0.92859 -0.7873,1.22956 -1.3462,1.39917 -2.49241,3.11749 -4.0885,4.11761 -2.0457,1.28168 -4.45351,1.98548 -6.70521,2.93823 -0.7981,-1.97161 -1.5961,-3.94323 -2.5844,-6.67004 -0.30739,-3.90088 -0.4246,-7.04663 -0.1948,-10.28003 2.35291,-1.21283 4.888,-1.89239 6.2748,-3.53912 6.6101,-7.84876 13.5101,-15.56702 19.098,-24.1214 3.5191,-5.38745 4.9075,-12.16681 7.2517,-18.32172 4.4418,2.12128 8.9326,4.14771 13.3053,6.40283 2.2692,1.17035 3.8856,2.88514 1.5171,5.48182 -2.0376,2.23413 -2.8042,6.67083 -7.487,4.41211 -0.9865,-0.4759 -1.9448,-1.01075 -3.6305,-1.89173 2.1901,9.58643 -3.6835,15.62995 -8.0333,22.12158 -3.8797,5.78998 -8.3891,11.15808 -12.75019,17.02796 z"
   id="path52" />



<path
   fill="#112242"
   opacity="1"
   stroke="none"
   d="m 87.870045,625.87037 c -5.0982,-0.45282 -10.2476,-0.61591 -15.268,-1.50702 -1.8966,-0.33667 -4.765,-2.21955 -4.9174,-3.64105 -0.2048,-1.91303 1.7897,-4.06165 3.2789,-6.45069 0.6783,-0.59418 0.918,-0.8468 1.1578,-1.09942 0,0 -0.1574,-0.0261 0.086,-0.003 0.547,-0.0691 0.8083,-0.23022 1.0271,-0.4599 0,0 0.069,0.009 0.1039,0.008 0.3406,-0.21155 0.6463,-0.42139 1.4068,-0.41699 0.9884,-0.31671 1.5222,-0.84772 2.0559,-1.37872 0,0 0.014,0.0747 0.3961,0.0593 1.5823,-0.60352 2.7823,-1.19165 4.0351,-1.72235 0.053,0.0574 0.1912,0.12866 0.1464,0.52124 0.5026,0.72247 1.0127,1.23621 1.6025,1.35529 14.7736,2.98297 29.495905,3.16711 44.067305,-1.1435 1.047,-0.30969 1.7977,-1.62109 2.8729,-2.66064 0.6996,-0.3551 1.2125,-0.51636 1.8801,-0.31708 1.075,2.8999 1.9953,5.43933 2.9917,8.1828 0.076,0.20416 0.1034,0.63916 0.079,1.0979 -0.7185,2.85303 -0.7572,6.60773 -2.257,7.33038 -2.3938,1.15345 -6.1771,1.41468 -7.644,-2.59069 -1.1239,0.59985 -2.2478,1.1997 -4.0309,1.91546 -1.27,0.93323 -1.8808,1.75061 -2.4917,2.56793 0,0 -0.2729,0.0435 -0.8208,-0.17987 -6.0419,-0.26452 -11.5383,-0.42895 -17.0287,-0.30719 -4.247005,0.0941 -8.486205,0.54663 -12.728805,0.83985 z"
   id="path56" />


<path
   fill="#ffa97c"
   opacity="1"
   stroke="none"
   d="m 242.55055,555.92212 c -2.0328,6.29627 -3.4212,13.07563 -6.9403,18.46308 -5.5879,8.55438 -12.48791,16.27264 -19.098,24.1214 -1.3868,1.64673 -3.9219,2.32629 -6.3119,3.09692 -0.7504,-7.73114 -1.1166,-15.10766 -1.4828,-22.48419 10.5726,-9.13892 20.7956,-18.58099 27.2754,-31.69153 2.1437,2.55603 4.1949,5.45453 6.5576,8.49432 z"
   id="path59" />

<path
   fill="#f98a59"
   opacity="1"
   stroke="none"
   d="m 87.426145,159.03965 c -2.6945,8.83929 -6.2185,17.53662 -8.7504,26.51379 -1.3498,4.78641 -0.9846,10.05661 -1.7264,15.40021 -14.1613,-3.66119 -21.1515,-15.4462 -17.1516,-28.06268 3.053,-9.62912 13.2644,-15.96689 23.2899,-14.45618 1.3066,0.1969 2.6145,0.38635 4.3385,0.60486 z"
   id="path61" />




<path
   fill="#1d3c61"
   opacity="1"
   stroke="none"
   d="m 115.56385,46.727032 c 0.7758,-0.007 1.7714,0.30111 1.748,0.46388 -0.2542,1.77867 -0.668,3.53451 -1.3874,5.43559 -0.2987,0.87706 -0.2485,1.61508 -0.1982,2.3531 0.017,0.47399 0.033,0.94796 -0.4349,1.85149 -1.1438,4.00803 -1.8031,7.58649 -2.4624,11.16495 -3.3126,3.30066 -7.6948,6.05038 -9.733,10.00748 -5.638505,10.94674 -11.127805,22.119748 -15.024705,33.756278 -2.2199,6.62882 -1.2085,14.33969 -1.9107,21.87918 -3.0092,-19.3497 -0.7332,-38.456418 6.7635,-56.802668 4.8302,-11.82077 12.191705,-21.95644 22.639805,-30.10928 z"
   id="path66" />



<path
   fill="#ffa97c"
   opacity="1"
   stroke="none"
   d="m 131.64665,606.65326 c -0.5129,0.16126 -1.0258,0.32252 -2.10211,0.80579 -16.2519,5.71509 -32.119495,5.80567 -48.121195,1.9281 0,0 -0.1386,-0.0712 -0.2909,-0.21417 -0.1525,-0.14294 -0.3187,-0.3479 -0.3187,-0.34796 5.4977,-2.69202 10.9953,-5.38404 16.7844,-8.26618 11.283105,-0.63549 22.274795,-1.08093 33.740095,-1.09997 0.841,2.39068 1.2084,4.35504 1.3206,6.40222 -0.5075,0.31934 -0.7598,0.55579 -1.01219,0.79217 z"
   id="path70" />
<path
   fill="#e34525"
   opacity="1"
   stroke="none"
   d="m 97.699845,309.0488 c 1.3513,2.28022 2.478305,4.73716 4.103605,6.80149 2.8062,3.56384 3.16969,6.9851 -0.15021,10.72815 -9.560595,-14.53461 -18.681395,-29.14521 -27.663095,-43.84076 -2.0149,-3.29679 -3.9739,-3.13581 -6.859,-1.14933 -3.9175,2.6973 -8.0964,5.01502 -12.3063,7.17978 -0.8754,-1.7279 -1.6077,-3.13998 -2.34,-4.55206 4.319,-2.79269 8.5359,-5.76199 12.9824,-8.33411 5.7813,-3.3443 8.946,-2.68008 12.6153,2.81873 5.1533,7.72284 10.0055,15.64661 15.3592,24.02667 1.6678,2.46866 2.9629,4.39505 4.2581,6.32144 z"
   id="path71" />

<path
   fill="#7ac9ee"
   opacity="1"
   stroke="none"
   d="m 52.251445,284.01047 c 0.9657,1.61768 1.698,3.02976 2.5939,5.11106 3.1236,4.48388 2.2571,7.51114 -1.5841,10.15274 -6.7877,4.66794 -13.4433,9.52887 -20.2527,14.1643 -5.1835,3.5286 -6.9044,2.72446 -8.2452,-3.84982 -0.6567,-1.88361 -1.3612,-3.43405 -2.0657,-4.98453 0.8878,-2.05893 1.2059,-4.87524 2.7621,-6.04574 6.7282,-5.06095 13.7332,-9.77536 20.8493,-14.28153 1.4295,-0.90521 3.782,-0.3526 5.9424,-0.26648 m -24.5102,24.9679 c 0.9919,0.24698 2.3474,1.03958 2.9203,0.65774 6.8721,-4.57977 13.6761,-9.26757 20.3615,-14.11529 0.9699,-0.70328 1.2265,-2.39032 1.7372,-4.35486 -0.881,-0.27231 -2.0863,-1.05954 -2.5941,-0.73956 -7.4056,4.66586 -14.7584,9.42083 -21.9832,14.36035 -0.6369,0.43558 -0.2912,2.30859 -0.4417,4.19162 z"
   id="path73" />

<path
   fill="#3cb3ae"
   opacity="1"
   stroke="none"
   d="m 98.144145,309.03297 c -1.7395,-1.91056 -3.0346,-3.83695 -4.4504,-6.04481 6.999105,-8.71939 13.810895,-17.44894 21.386605,-25.45565 3.15159,-3.33097 7.93249,-5.12036 12.3397,-7.64954 -4.7838,7.63507 -10.06581,15.22519 -15.03851,23.01282 -3.1848,4.98791 -5.91329,10.26727 -9.2482,16.12131 -0.93419,0 -2.73949,0 -4.989195,0.0159 z"
   id="path75" />

<path
   fill="#e34525"
   opacity="1"
   stroke="none"
   d="m 40.941045,376.35688 c 1.6138,-1.03497 3.3857,-1.76703 5.6755,-2.12628 6.5071,9.86322 12.5614,19.31359 18.4485,28.867 1.901,3.08496 3.8948,3.66937 6.7963,1.43005 2.8683,-2.21374 5.8407,-4.2926 8.7674,-6.43066 -0.5941,2.87592 -1.1882,5.75183 -1.8867,8.96326 -0.9167,0.89508 -1.7257,1.45984 -2.5425,2.0133 -7.4683,5.06116 -11.3475,4.31684 -16.336,-3.32904 -6.3043,-9.66253 -12.5139,-19.3869 -18.9225,-29.38763 z"
   id="path77" />




<path
   fill="#fc9767"
   opacity="1"
   stroke="none"
   d="m 184.98734,265.54127 c -1.84699,1.67895 -3.71599,2.97695 -6.1938,4.08004 -2.1667,-1.00061 -3.7052,-2.45477 -5.2861,-2.50238 -7.8124,-0.23526 -15.6359,-0.0984 -23.4554,-0.0928 -0.1161,-0.76444 -0.2321,-1.52887 -0.4408,-2.66965 0,-2.40982 0.086,-4.4433 0.2215,-6.91137 11.25051,-0.092 22.4557,0.24383 33.6598,0.61053 0.64,0.0209 1.2717,0.29394 2.1726,0.74963 -0.056,2.31833 -0.3782,4.33667 -0.6778,6.73597 z"
   id="path82" />

<path
   fill="#0d132c"
   opacity="1"
   stroke="none"
   d="m 324.64725,212.03412 c 0.093,-1.75424 -0.016,-3.94235 0.6747,-5.83917 6.5715,-18.04834 13.7678,-35.88507 19.81,-54.1058 6.1478,-18.53867 9.9102,-37.7128 8.5078,-57.369138 -0.5447,-7.63465 -3.1095,-15.12854 -4.8015,-22.67588 -0.4993,-2.22644 -1.1608,-4.41653 -1.557,-7.00299 8.255,16.68549 9.4791,34.62159 7.111,53.052128 -3.8089,29.64148 -15.5358,56.82571 -26.0528,84.38928 -1.1765,3.08353 -2.3492,6.16855 -3.6922,9.55157 z"
   id="path84" />
<path
   fill="#e34525"
   opacity="1"
   stroke="none"
   d="m 22.399245,304.68674 c 1.0029,1.46796 1.7074,3.0184 2.0401,4.99417 -3.403,2.45386 -6.3974,4.54007 -9.4761,6.49329 -2.6304,1.6687 -3.0791,3.45306 -1.1963,6.11963 3.1524,4.46417 6.0377,9.1167 9.0354,13.69 -1.4603,0.73041 -2.9206,1.46082 -4.7353,2.19422 -3.6308,-4.76874 -7.0298,-9.4618 -10.1474,-14.33515 -2.9094,-4.54797 -2.3093,-7.93936 2.1051,-11.18942 3.8653,-2.84567 8.0389,-5.2724 12.3745,-7.96674 z"
   id="path85" />
<path
   fill="#fc9767"
   opacity="1"
   stroke="none"
   d="m 244.04595,371.79719 c -0.8777,-0.70368 -1.7862,-1.82965 -2.18531,-2.32453 -4.6854,1.5481 -9.0497,3.15106 -13.5088,4.42139 -5.1949,1.47992 -10.501,2.56988 -15.6958,4.05005 -1.3838,0.39429 -2.5373,1.5968 -3.8837,2.80951 -1.2971,-1.77588 -2.5071,-3.93311 -3.8179,-6.4173 11.6493,-4.33429 23.3993,-8.34161 35.5054,-12.45014 1.4225,3.09534 2.489,6.292 3.58611,9.91102 z"
   id="path86" />

<path
   fill="#1d3c61"
   opacity="1"
   stroke="none"
   d="m 253.01175,40.062462 c 0.4067,-0.70654 0.81349,-1.4131 1.51939,-2.23662 0.89811,0.0841 1.4971,0.2852 2.4192,1.08365 1.518,0.7511 2.713,0.90485 4.1516,1.07556 0.2435,0.017 0.7319,0.009 0.7319,0.009 7.8229,4.82204 15.2472,10.07951 19.9966,18.63066 -9.0746,-3.61276 -18.1675,-7.5758 -27.6361,-11.99411 -0.6448,-2.4928 -0.9137,-4.53033 -1.1826,-6.56787 z"
   id="path88" />







<path
   fill="#3cb3ae"
   opacity="1"
   stroke="none"
   d="m 210.90275,388.32636 c 0.3431,0.0255 0.6595,0.48346 1.0612,1.2113 0.037,17.01777 -0.149,33.76722 0.051,50.51203 0.043,3.58307 -1.1179,5.18536 -4.7767,5.72259 4.6069,-2.51391 3.6282,-7.15777 3.572,-11.42321 -0.1723,-13.07062 -0.4429,-26.14008 -0.5835,-39.21094 -0.023,-2.1239 0.4213,-4.25275 0.6762,-6.81177 z"
   id="path96" />


<path
   fill="#0d132c"
   opacity="1"
   stroke="none"
   d="m 320.94645,34.011392 c -2.9504,-0.75217 -6.18361,-1.62688 -9.376,-2.63161 -13.71171,-4.31547 -27.0481,-3.49391 -40.043,2.73702 -1.6128,0.77336 -3.3769,1.23138 -5.4602,1.8045 17.5521,-11.2144 35.8742,-12.24377 54.8792,-1.90991 z"
   id="path99" />
<path
   fill="#0d132c"
   opacity="1"
   stroke="none"
   d="m 314.81385,276.59577 c -1.0334,-2.27792 -2.6539,-4.91373 -2.8784,-7.66357 -1.0795,-13.21412 0.84809,-26.1261 4.9897,-38.69074 1.6514,-5.00977 3.625,-9.9133 5.7747,-15.02545 -2.2703,9.14163 -5.1786,18.36978 -7.3739,27.76453 -2.5634,10.96887 -4.09381,22.08782 -0.5121,33.61523 z"
   id="path100" />










<path
   fill="#0d132c"
   opacity="1"
   stroke="none"
   d="m 271.81184,277.81623 c 0.65451,-0.27027 1.67351,-0.65289 2.5473,-0.4401 7.2113,1.75617 14.3097,4.38416 21.616,5.20917 5.6008,0.63242 11.4537,-0.96835 17.6246,-1.55237 -2.61719,1.01322 -5.6102,2.60514 -8.7211,2.88474 -11.4127,1.02567 -22.37959,-1.01401 -33.0668,-6.10144 z"
   id="path111" />


















<path
   fill="#0d132c"
   opacity="1"
   stroke="none"
   d="m 341.91074,54.573772 c -1.4726,-1.56723 -3.0299,-3.46299 -4.4414,-5.69522 1.54951,1.56459 2.953,3.46565 4.4414,5.69522 z"
   id="path130" />



<path
   fill="#0d132c"
   opacity="1"
   stroke="none"
   d="m 334.94085,45.620932 c -1.2535,-0.84399 -2.6415,-1.99205 -4.0267,-3.51198 1.2992,0.8214 2.5956,2.01465 4.0267,3.51198 z"
   id="path134" />





<path
   fill="#0d132c"
   opacity="1"
   stroke="none"
   d="m 344.89275,59.619732 c -0.9676,-1.12304 -1.9893,-2.58307 -2.98,-4.4104 0.9961,1.11293 1.9609,2.59315 2.98,4.4104 z"
   id="path140" />



<path
   fill="#0d132c"
   opacity="1"
   stroke="none"
   d="m 265.44265,35.895772 c -0.9039,0.89081 -2.126,1.85399 -3.6864,2.66539 0.8972,-0.96551 2.1327,-1.77926 3.6864,-2.66539 z"
   id="path144" />







<path
   fill="#0d132c"
   opacity="1"
   stroke="none"
   d="m 267.72664,275.78028 c 1.0509,0.21307 2.3506,0.60239 3.5725,1.37543 -1.15969,-0.14389 -2.2418,-0.67157 -3.5725,-1.37543 z"
   id="path152" />
<path
   fill="#0d132c"
   opacity="1"
   stroke="none"
   d="m 263.82364,273.39924 c 1.1004,0.27118 2.348,0.828 3.5409,1.75982 -1.1678,-0.24136 -2.2809,-0.85779 -3.5409,-1.75982 z"
   id="path153" />


<path
   fill="#0d132c"
   opacity="1"
   stroke="none"
   d="m 80.477745,608.88148 c 0.336,-0.0564 0.5022,0.14856 0.602,0.23407 -1.1004,0.67364 -2.3004,1.26177 -3.9136,1.84313 0.7165,-0.67816 1.8461,-1.34948 3.3116,-2.0772 z"
   id="path156" />

<path
   fill="#102040"
   opacity="1"
   stroke="none"
   d="m 260.85845,39.968072 c -1.1951,-0.15373 -2.39011,-0.30748 -3.7853,-0.76358 0.8584,-0.27768 1.9168,-0.25299 3.37359,0.0144 0.40271,0.41153 0.4071,0.58035 0.41171,0.74919 z"
   id="path158" />


<path
   fill="#0d132c"
   opacity="1"
   stroke="none"
   d="m 327.07845,38.140172 c -0.5722,-0.0461 -1.3405,-0.2964 -2.1308,-0.91736 0.6302,-0.009 1.2825,0.35187 2.1308,0.91736 z"
   id="path161" />
<path
   fill="#0d132c"
   opacity="1"
   stroke="none"
   d="m 76.515745,610.97321 c -0.2485,0.47931 -0.7823,1.01032 -1.4927,1.3103 0.2848,-0.5736 0.7462,-0.91613 1.4927,-1.3103 z"
   id="path162" />


<path
   fill="#3cb3ae"
   opacity="1"
   stroke="none"
   d="m 204.97085,456.67609 c -0.11461,-0.84741 -0.1199,-1.98047 -0.021,-3.52954 0.1129,0.80396 0.1217,2.02399 0.021,3.52954 z"
   id="path165" />

<path
   fill="#0d132c"
   opacity="1"
   stroke="none"
   d="m 323.22535,215.01533 c -0.035,-0.74973 0.2174,-1.62989 0.8343,-2.48411 0.061,0.80185 -0.24261,1.57776 -0.8343,2.48411 z"
   id="path167" />
<path
   fill="#0d132c"
   opacity="1"
   stroke="none"
   d="m 347.24525,64.151252 c -0.3533,-0.3371 -0.8549,-0.94253 -1.33571,-1.92078 0.4097,0.30228 0.79861,0.97733 1.33571,1.92078 z"
   id="path168" />
<path
   fill="#0d132c"
   opacity="1"
   stroke="none"
   d="m 315.19015,280.87024 c -0.3491,-0.74902 -0.34411,-1.52569 -0.3099,-2.69122 0.2406,0.6286 0.45239,1.64609 0.3099,2.69122 z"
   id="path169" />









<path
   fill="#3cb3ae"
   opacity="1"
   stroke="none"
   d="m 205.46324,447.62433 c -0.3165,-0.16235 -0.4851,-0.6242 -0.6638,-1.33996 0.1894,-0.25519 0.3889,-0.25665 0.8879,-0.25006 0.1741,0.43554 0.049,0.86303 -0.2241,1.59002 z"
   id="path179" />
<path
   fill="#0d132c"
   opacity="1"
   stroke="none"
   d="m 337.17884,48.012122 c -0.3225,-0.0325 -0.7887,-0.27913 -1.2698,-0.85882 0.3652,-0.007 0.7457,0.3188 1.2698,0.85882 z"
   id="path180" />



<path
   fill="#0d132c"
   opacity="1"
   stroke="none"
   d="m 345.94234,61.640942 c -0.3081,-0.16797 -0.6632,-0.64051 -1.0288,-1.43296 0.3202,0.16281 0.651,0.6456 1.0288,1.43296 z"
   id="path184" />
<path
   fill="#0d132c"
   opacity="1"
   stroke="none"
   d="m 323.05675,35.302312 c -0.4306,0.065 -1.0267,-0.0455 -1.53681,-0.49002 0.51421,-0.1178 0.94281,0.0984 1.53681,0.49002 z"
   id="path185" />
<path
   fill="#0d132c"
   opacity="1"
   stroke="none"
   d="m 324.86215,36.639012 c -0.4542,0.0189 -1.02961,-0.2263 -1.6088,-0.80893 0.49319,-0.0433 0.99039,0.25081 1.6088,0.80893 z"
   id="path186" />


<path
   fill="#0d132c"
   opacity="1"
   stroke="none"
   d="m 328.86215,39.665072 c -0.44251,-0.0149 -0.9932,-0.27998 -1.4868,-0.8728 0.4977,-0.0109 0.938,0.30585 1.4868,0.8728 z"
   id="path189" />
<path
   fill="#0d132c"
   opacity="1"
   stroke="none"
   d="m 260.76065,271.40229 c 0.461,-0.0185 1.0395,0.22024 1.5903,0.7991 -0.5094,0.0461 -0.9912,-0.24789 -1.5903,-0.7991 z"
   id="path190" />






<path
   fill="#0d132c"
   opacity="1"
   stroke="none"
   d="m 258.89095,270.1663 c 0.1436,-0.13318 0.3536,-0.12296 0.4654,0.0649 -0.098,0.17761 -0.3987,0.0785 -0.4654,-0.0649 z"
   id="path197" />
<path
   fill="#0d132c"
   opacity="1"
   stroke="none"
   d="m 259.59074,270.72706 c 0.18621,-0.13642 0.54761,-0.0874 1.02681,0.22958 -0.20541,0.16391 -0.52861,0.0599 -1.02681,-0.22958 z"
   id="path198" />
<path
   fill="#0d132c"
   opacity="1"
   stroke="none"
   d="m 262.62074,272.75574 c 0.1719,-0.13971 0.5284,-0.1131 1.014,0.17084 -0.1968,0.19354 -0.5163,0.10629 -1.014,-0.17084 z"
   id="path199" />



<path
   fill="#3cb3ae"
   opacity="1"
   stroke="none"
   d="m 205.21574,451.12006 c -0.2897,-0.064 -0.33989,-0.3324 -0.16799,-0.80517 0.3326,0.0475 0.3945,0.31585 0.16799,0.80517 z"
   id="path203" />

<path
   fill="#0d132c"
   opacity="1"
   stroke="none"
   d="m 329.94154,40.676902 c -0.203,0.0696 -0.5187,-0.11684 -0.9404,-0.5637 0.20521,-0.0711 0.5164,0.11833 0.9404,0.5637 z"
   id="path205" />
<path
   fill="#0d132c"
   opacity="1"
   stroke="none"
   d="m 261.10195,39.985052 c -0.2481,-0.18582 -0.2525,-0.35464 -0.2576,-0.77682 -7e-4,-0.25338 0.101,-0.52086 0.2376,-0.56293 0.2612,0.17995 0.3857,0.40199 0.6311,0.98625 0.1208,0.36223 -0.3676,0.37047 -0.6111,0.3535 z"
   id="path206" />






























<path
   fill="#fc9767"
   opacity="1"
   stroke="none"
   d="m 92.195945,151.189 c 11.533495,-22.29098 24.120795,-43.80658 44.960495,-58.856598 5.2884,-3.81912 11.2236,-6.74249 18.008,-10.75564 0.9883,4.44122 1.8338,7.35809 2.2672,10.33493 2.4446,16.794368 11.4469,29.603788 24.6497,39.525388 17.7092,13.30823 37.7699,21.22681 59.6402,24.70212 1.4752,0.2344 3.1132,1.57766 4.001,2.86886 1.2926,1.88022 1.9722,4.18195 2.935,6.66229 -3.6472,3.76462 -7.9985,1.63227 -11.4128,0.69855 -7.2192,-1.97421 -14.0402,-5.39023 -21.057,-8.13125 -1.4995,-0.58579 -3.1378,-0.8162 -5.0782,-1.1901 -0.366,0.0202 -0.298,0.0769 -0.4535,-0.22268 -0.5686,-0.461 -0.9819,-0.62247 -1.7155,-0.80613 -2.2613,-0.97216 -4.202,-1.92212 -6.3352,-2.96008 -0.4862,-0.10974 -0.7413,-0.22061 -0.9578,-0.42065 -0.3853,-0.48697 -0.6931,-1.30137 -1.1673,-1.41385 -24.8825,-5.90009 -42.7935,-20.10096 -52.6139,-44.00043 -0.1192,-0.2897 -0.4089,-0.50928 -1.2261,-1.49057 -19.6062,13.71432 -39.7231,26.79944 -53.339795,47.62528 -0.3612,-0.81455 -0.6206,-1.3996 -1.1045,-2.16944 z"
   id="path237" />
<path
   fill="#102040"
   opacity="1"
   stroke="none"
   d="m 127.90404,185.87769 c -0.8829,2.51492 -1.3132,4.98627 -2.71109,6.63995 -3.0817,3.64591 -8.29491,2.71729 -10.1698,-1.64947 -0.6997,-1.62973 -1.0856,-3.55197 -1.0239,-5.32028 0.1641,-4.71268 3.6879,-8.56458 7.4602,-8.54773 3.8915,0.0174 5.9446,2.70785 6.44459,8.87753 z"
   id="path238" />
<path
   fill="#102040"
   opacity="1"
   stroke="none"
   d="m 194.98625,193.35648 c 2.6692,-3.07492 5.77119,-3.75934 8.5986,-1.54278 3.7209,2.91723 3.86999,7.0531 2.23219,11.2684 -1.2442,3.20187 -3.3313,5.39847 -7.07449,5.02572 -4.4232,-0.44046 -5.7181,-3.78442 -5.77141,-7.40133 -0.034,-2.33783 1.15721,-4.69367 2.01511,-7.35001 z"
   id="path239" />
<path
   fill="#102040"
   opacity="1"
   stroke="none"
   d="m 202.79775,153.1467 c 1.9408,0.94992 3.8815,1.89988 6.3088,3.16315 0.8927,0.48041 1.2989,0.64749 1.705,0.81455 0,0 -0.068,-0.0566 -0.1,-0.0258 -0.032,0.0309 0.059,0.41897 0.2232,0.86212 0.478,0.62433 0.79189,0.80551 1.1058,0.98672 1.5386,1.46229 3.0772,2.92457 4.57189,4.98392 -1.3275,0.56525 -2.6339,0.67475 -3.88899,0.46967 -2.0617,-0.33692 -4.09,-0.8779 -6.1323,-1.33283 0,0 -0.3999,0.0401 -0.7591,-0.37286 -3.9083,-0.84775 -7.4574,-1.28256 -11.0066,-1.71738 -0.4472,0.0179 -0.8946,0.0357 -1.8443,-0.32705 -1.7644,-1.86527 -3.0266,-3.34992 -4.2888,-4.8346 0,3e-5 0.056,0.12839 0.403,0.10159 4.7987,-0.94162 9.2504,-1.85644 13.7022,-2.77124 z"
   id="path240" />
<path
   fill="#a34221"
   opacity="1"
   stroke="none"
   d="m 149.83145,228.01246 c 1.50399,-0.24421 2.9472,-0.32157 4.26099,0.0542 8.5819,2.45459 16.4041,1.78112 22.9642,-5.03968 0.6372,-0.66259 1.8686,-0.75357 2.8243,-1.10986 0.1315,0.87823 0.6209,1.89685 0.34,2.61337 -3.5159,8.96826 -24.4603,11.5828 -30.38949,3.48197 z"
   id="path241" />
<path
   fill="#0d132c"
   opacity="1"
   stroke="none"
   d="m 111.30945,145.99979 c 6.1549,-5.05057 12.9884,-5.0347 20.3369,-2.35458 0.2041,0.34222 0.1405,0.40951 -0.2837,0.39569 -5.4479,-0.46369 -10.7025,-2.37881 -15.6379,1.92166 6.3673,1.58984 11.9767,2.99039 18.0687,4.51151 0,-1.55402 0,-2.99384 0.053,-4.48432 0.053,-0.0506 0.16,-0.15204 0.16,-0.15204 0.4644,1.76371 0.9287,3.52741 1.3931,5.29111 -1.8238,0.0313 -3.695,0.34299 -5.4629,0.0442 -6.856,-1.15848 -13.6792,-2.51114 -20.5673,-3.80142 -0.017,0.0212 0.6079,-0.76993 1.8102,-1.2999 0.8648,0.37476 1.1519,0.48834 1.439,0.60193 0.032,-0.18518 0.063,-0.37039 0.094,-0.5556 -0.4679,-0.0394 -0.9359,-0.0789 -1.4038,-0.11826 z"
   id="path242" />
<path
   fill="#a34221"
   opacity="1"
   stroke="none"
   d="m 147.55225,212.32017 c -5.2006,-2.05625 -7.0337,-5.55237 -5.5,-10.48975 1.3278,-4.27438 5.5133,-6.9014 10.627,-5.91827 -4.2068,4.48382 -12.4286,7.82473 -4.99161,15.75488 0.074,0.42056 -0.13539,0.65314 -0.13539,0.65314 z"
   id="path243" />
<path
   fill="#0d132c"
   opacity="1"
   stroke="none"
   d="m 206.83655,163.32877 c 1.7971,0.1944 3.8254,0.73538 5.8871,1.0723 1.2551,0.20508 2.5615,0.0956 3.97959,-0.15976 0.91081,1.06857 1.6868,2.42428 2.4626,3.78 -0.24409,0.26715 -0.48839,0.5343 -0.7326,0.80148 -3.78379,-1.74451 -7.5678,-3.48898 -11.59669,-5.49402 z"
   id="path244" />
<path
   fill="#0d132c"
   opacity="1"
   stroke="none"
   d="m 202.60534,153.05866 c -4.25939,1.00284 -8.7111,1.91766 -13.5645,2.81549 2.9024,-3.89752 7.2745,-3.80142 12.1834,-3.25976 0.6398,0.22366 0.8949,0.33453 1.3811,0.44427 z"
   id="path245" />
<path
   fill="#0d132c"
   opacity="1"
   stroke="none"
   d="m 195.18324,161.12775 c 3.19161,0.28507 6.7407,0.71988 10.4709,1.47458 -3.25029,-0.22836 -6.682,-0.77661 -10.4709,-1.47458 z"
   id="path246" />
<path
   fill="#102040"
   opacity="1"
   stroke="none"
   d="m 253.51944,177.22663 c 1.025,2.44125 2.1361,5.28513 3.1784,8.55383 -1.0766,-2.43384 -2.0846,-5.29251 -3.1784,-8.55383 z"
   id="path247" />
<path
   fill="#0d132c"
   opacity="1"
   stroke="none"
   d="m 188.37655,156.04017 c 1.57819,1.26086 2.8404,2.74551 4.2765,4.5329 -3.11591,0.52371 -5.8116,0.13046 -4.2765,-4.5329 z"
   id="path248" />
<path
   fill="#0d132c"
   opacity="1"
   stroke="none"
   d="m 131.88264,143.95411 c 0.662,0.41818 1.2918,0.86972 2.023,1.60241 0.1013,0.28119 -0.01,0.38263 -0.3733,0.3859 -0.8273,-0.62705 -1.2864,-1.25736 -1.7455,-1.88767 0,-3e-5 0.064,-0.0673 0.096,-0.10064 z"
   id="path249" />
<path
   fill="#a34221"
   opacity="1"
   stroke="none"
   d="m 147.86694,211.97211 c 0.4941,0.15119 0.88271,0.41785 1.27141,0.68451 -0.4058,0.0143 -0.8116,0.0286 -1.4017,-0.14679 -0.1844,-0.18966 0.025,-0.42224 0.13029,-0.53772 z"
   id="path250" />
<path
   fill="#0d132c"
   opacity="1"
   stroke="none"
   d="m 211.91604,158.7002 c -0.1892,0.0661 -0.50309,-0.11511 -0.9389,-0.54468 0.1902,-0.0665 0.5022,0.11548 0.9389,0.54468 z"
   id="path251" />


















<path
   fill="#ffffff"
   opacity="1"
   stroke="none"
   d="m 23.165845,335.93824 c -3.3612,-4.52771 -6.2465,-9.18024 -9.3989,-13.64441 -1.8828,-2.66657 -1.4341,-4.45093 1.1963,-6.11963 3.0787,-1.95322 6.0731,-4.03943 9.4282,-6.16016 1.7127,6.14899 3.4336,6.95313 8.6171,3.42453 6.8094,-4.63543 13.465,-9.49636 20.2527,-14.1643 3.8412,-2.6416 4.7077,-5.66886 1.7272,-9.83695 4.0463,-2.83395 8.2252,-5.15167 12.1427,-7.84897 2.8851,-1.98648 4.8441,-2.14746 6.859,1.14933 8.9817,14.69555 18.1025,29.30615 27.458605,44.1297 -8.941205,22.93768 -15.077305,46.60888 -20.682005,70.854 -3.0647,2.51367 -6.0371,4.59253 -8.9054,6.80627 -2.9015,2.23932 -4.8953,1.65491 -6.7963,-1.43005 -5.8871,-9.55341 -11.9414,-19.00378 -18.0774,-28.80371 0.7277,-1.28833 1.5807,-2.28705 2.4798,-3.24268 4.8693,-5.17559 4.356,-7.40887 -2.2535,-9.7337 0.9433,-2.51733 2.9015,-5.22296 2.4815,-7.48755 -0.2918,-1.57348 -3.8534,-2.54052 -6.0896,-3.85827 0.1954,-0.2547 1.1202,-0.94782 1.2941,-1.79505 0.3409,-1.66095 0.856,-3.7312 0.1585,-5.0097 -0.4964,-0.90998 -2.8624,-1.08924 -4.3874,-1.06977 -1.6165,0.0207 -3.225,0.66193 -5.3933,0.89374 -0.5562,-0.13849 -0.8588,-0.49658 -0.8588,-0.49658 0.8534,-1.58911 1.9469,-3.1015 2.4865,-4.79083 0.4561,-1.42835 0.9129,-3.5849 0.1968,-4.46387 -0.7874,-0.96667 -3.0898,-1.4516 -4.424,-1.06976 -3.147,0.90082 -6.1109,2.44116 -9.5124,3.76837 z"
   id="path270" />
<path
   fill="#fcfdfd"
   opacity="1"
   stroke="none"
   d="m 138.71985,321.88331 c -1.1371,1.31158 -2.3923,3.11279 -3.2834,2.94775 -7.58311,-1.40479 -15.0998,-3.16705 -22.9518,-4.89136 1.18759,-3.82269 2.1102,-6.79226 3.1928,-10.27728 8.0472,1.60315 15.9238,3.1723 24.2207,4.82526 -0.4023,2.4881 -0.765,4.73089 -1.1783,7.39563 z"
   id="path271" />
<path
   fill="#fc9767"
   opacity="1"
   stroke="none"
   d="m 208.65755,381.42463 c 0.5562,0.50909 1.1436,1.34039 1.50399,2.35498 -0.6424,-0.55548 -1.05749,-1.29419 -1.50399,-2.35498 z"
   id="path272" />
<path
   fill="#3cb3ae"
   opacity="1"
   stroke="none"
   d="m 210.61855,387.12653 c 0.1581,-0.10083 0.3279,0.33228 0.344,0.56403 -0.1566,1.2e-4 -0.3294,-0.23151 -0.344,-0.56403 z"
   id="path273" />
<path
   fill="#ffffff"
   opacity="1"
   stroke="none"
   d="m 132.91394,605.7782 c -0.36729,-1.96429 -0.73469,-3.92865 -1.1438,-6.2669 0.319,-2.56348 1.0116,-4.75653 0.989,-6.94214 -0.22219,-21.46326 -1.336,-42.94995 -0.6485,-64.38037 0.65901,-20.5492 3.13841,-41.04077 4.8745,-61.55286 0.093,-1.10431 0.7094,-2.16443 1.4904,-4.42859 5.2434,23.60303 7.8968,46.71686 19.2144,67.39478 11.2278,20.51367 25.1857,38.97375 41.0632,57.06207 3.2174,-2.53809 6.2794,-4.95361 9.653,-7.45697 0.6776,7.28864 1.0438,14.66516 1.4472,22.48389 0.1543,3.58801 0.27151,6.73376 0.35771,10.29211 -5.0581,-6.15857 -12.63461,-3.2052 -18.7359,-3.62341 -18.7099,-1.28235 -37.5276,-0.98798 -56.9635,-1.44495 -0.97271,-0.47107 -1.28521,-0.80389 -1.59771,-1.13666 z"
   id="path274" />
<path
   fill="#102040"
   opacity="1"
   stroke="none"
   d="m 113.23484,67.992312 c 0.25341,-3.57473 0.91271,-7.15319 1.9196,-10.83044 -0.01,2.50522 -0.3639,5.10919 -0.7788,8.14719 28.0894,-2.60431 55.7685,-1.22559 83.4284,4.28973 -7.4124,-0.41077 -14.9937,-1.31131 -22.5998,-1.88455 -6.1056,-0.46018 -12.2443,-0.46741 -18.3627,-0.78269 -4.11629,-0.21215 -8.23949,-1.01437 -12.33079,-0.84692 -10.2988,0.42151 -20.58111,1.24286 -31.27591,1.90768 z"
   id="path275" />
<path
   fill="#0d132c"
   opacity="1"
   stroke="none"
   d="m 252.93594,40.479862 c 0.34471,1.62014 0.6136,3.65767 0.8967,6.10622 -1.31009,11.22296 -2.8036,22.0183 -3.8679,32.85576 -0.381,3.8783 -1.86259,3.8129 -4.85259,2.82941 -7.2177,-2.37424 -14.5234,-4.48157 -22.03851,-7.18778 -0.24489,-0.49127 -0.2353,-0.92071 -0.2353,-0.92071 8.2251,2.31018 16.4501,4.62039 25.3401,7.11734 1.5207,-13.11704 3.1012,-26.74993 4.7575,-40.80024 z"
   id="path276" />
<path
   fill="#102040"
   opacity="1"
   stroke="none"
   d="m 222.46995,74.038242 c 0.3684,0.12452 0.3588,0.55396 0.3467,0.76871 -7.9609,-1.19809 -15.90991,-2.6109 -23.9164,-4.34689 7.6955,0.93573 15.4484,2.1947 23.5697,3.57818 z"
   id="path277" />
<path
   fill="#1d3c61"
   opacity="1"
   stroke="none"
   d="m 283.94825,61.220282 c 0.25299,-0.16547 0.5227,0.016 0.8108,0.54395 -0.24611,0.15655 -0.51701,-0.0246 -0.8108,-0.54395 z"
   id="path278" />
<path
   fill="#1d3c61"
   opacity="1"
   stroke="none"
   d="m 284.94445,62.211862 c 0.1646,-0.0357 0.4308,0.15848 0.801,0.58182 -0.16371,0.0355 -0.4315,-0.15824 -0.801,-0.58182 z"
   id="path279" />
<path
   fill="#1d3c61"
   opacity="1"
   stroke="none"
   d="m 282.95175,60.219152 c 0.25039,-0.16549 0.519,0.0121 0.803,0.53556 -0.244,0.1535 -0.5106,-0.026 -0.803,-0.53556 z"
   id="path280" />
<path
   fill="#1d3c61"
   opacity="1"
   stroke="none"
   d="m 281.95375,59.220052 c 0.2524,-0.16998 0.5223,0.005 0.80269,0.52992 -0.247,0.15595 -0.5123,-0.0225 -0.80269,-0.52992 z"
   id="path281" />

















<path
   fill="#7ac9ee"
   opacity="1"
   stroke="none"
   d="m 191.79485,30.028692 c 3.0726,0.37816 5.7,0.73735 9.1065,1.20304 -0.4121,3.73765 -0.8177,7.41572 -1.292,11.71675 -3.5227,0 -6.962,0.15294 -10.3803,-0.0479 -2.7906,-0.1639 -3.8876,1.13669 -4.2377,3.65472 -0.475,3.4148 -1.057,6.81466 -1.6781,10.76085 -4.2177,-0.37431 -8.0891,-0.71792 -12.433,-1.10345 0.5637,-4.67908 1.0503,-8.71832 1.6251,-13.49077 -4.665,-0.53426 -9.3017,-1.06526 -14.2408,-1.63091 0.3396,-4.13172 0.6445,-7.84164 0.9878,-12.01908 4.0555,0 7.8362,-0.1054 11.6078,0.0365 2.5704,0.0967 3.958,-0.52373 4.1989,-3.45756 0.3077,-3.74633 1.1724,-7.4469 1.8345,-11.3911 3.6795,0.37628 6.9274,0.70842 10.8862,1.11326 0,3.58841 0.1332,7.17932 -0.043,10.75495 -0.1344,2.72352 0.7347,4.14229 4.0585,3.90063 z"
   id="path299" />
<path
   fill="#182c49"
   opacity="1"
   stroke="none"
   d="m 115.80505,54.675792 c -0.12911,-0.43421 -0.1793,-1.17223 -0.065,-1.73157 0.15779,0.59505 0.151,1.0114 0.065,1.73157 z"
   id="path300" />









<path
   fill="#0d132c"
   opacity="1"
   stroke="none"
   d="m 124.89714,621.44867 c 1.5407,3.59089 5.324,3.32966 7.7178,2.17621 1.4998,-0.72265 1.5385,-4.47735 2.6019,-7.14984 0.6304,2.59131 0.8917,5.46082 1.1529,8.33026 0,0 0.217,0.0359 -0.1855,0.0675 -3.0464,0.45263 -5.6901,0.87372 -8.3338,1.29486 -3.5184,0.32977 -3.186,-2.04834 -2.9533,-4.719 z"
   id="path310" />
<path
   fill="#0d132c"
   opacity="1"
   stroke="none"
   d="m 88.332145,625.93885 c 3.7805,-0.3617 8.0197,-0.81421 12.266695,-0.90833 5.4904,-0.12176 10.9868,0.0427 16.95081,0.19306 -9.2718,0.33404 -19.013505,0.5589 -29.217505,0.71527 z"
   id="path311" />
<path
   fill="#0d132c"
   opacity="1"
   stroke="none"
   d="m 132.65884,605.86109 c 0.5676,0.24988 0.8801,0.5827 1.26951,1.08075 0.2722,0.33325 0.46749,0.50134 0.59159,0.6059 0.25251,1.53356 0.57601,3.13055 0.8996,4.72759 0,0 -0.1315,0.0275 -0.2202,0.34192 -0.22,1.00141 -0.3512,1.6883 -0.4825,2.37525 -0.9202,-2.53937 -1.8405,-5.0788 -2.9155,-7.97864 0.098,-0.59698 0.35,-0.83343 0.8575,-1.15277 z"
   id="path312" />
<path
   fill="#ffffff"
   opacity="1"
   stroke="none"
   d="m 134.79305,615.1966 c 0.055,-0.89105 0.1863,-1.57794 0.3927,-2.51355 3.0998,3.40167 3.1235,7.5199 1.5707,11.97296 -0.6479,-2.72015 -0.9092,-5.58966 -1.5151,-8.63971 -0.3449,-0.18054 -0.372,-0.61554 -0.4483,-0.8197 z"
   id="path313" />
<path
   fill="#ffffff"
   opacity="1"
   stroke="none"
   d="m 128.15565,626.42377 c 2.3385,-0.67724 4.98219,-1.09833 8.0005,-1.65735 -1.3028,4.52985 -4.9319,1.51899 -8.0005,1.65735 z"
   id="path314" />
<path
   fill="#0d132c"
   opacity="1"
   stroke="none"
   d="m 118.69545,625.34907 c 0.3638,-0.64881 0.9746,-1.46619 1.94969,-2.28644 -0.32459,0.70404 -1.0137,1.41101 -1.94969,2.28644 z"
   id="path315" />
<path
   fill="#ffffff"
   opacity="1"
   stroke="none"
   d="m 135.55575,611.77875 c -0.4598,-1.10046 -0.7833,-2.69745 -0.7197,-4.45324 0.5433,1.21307 0.69959,2.5849 0.7197,4.45324 z"
   id="path316" />
<path
   fill="#ffffff"
   opacity="1"
   stroke="none"
   d="m 223.97204,612.10444 c 0,-0.46546 0.1666,-0.76642 0.5762,-1.16822 0.025,0.37696 -0.1945,0.8548 -0.5762,1.16822 z"
   id="path317" />
<path
   fill="#ffffff"
   opacity="1"
   stroke="none"
   d="m 72.967645,612.59284 c 0.048,0.34638 -0.2134,0.50751 -0.7433,0.65442 0.01,-0.2207 0.2423,-0.49597 0.7433,-0.65442 z"
   id="path318" />
<path
   fill="#ffffff"
   opacity="1"
   stroke="none"
   d="m 71.854145,613.21503 c 0.027,0.20978 -0.2123,0.4624 -0.72,0.75879 -0.028,-0.20953 0.2125,-0.46277 0.72,-0.75879 z"
   id="path319" />



















<path
   fill="#ffa97c"
   opacity="1"
   stroke="none"
   d="m 150.10295,267.36457 c 7.7686,-0.34403 15.5921,-0.4809 23.4045,-0.24564 1.5809,0.0476 3.1194,1.50177 4.9448,2.56626 -4.9701,3.41293 -10.1808,6.61221 -15.4549,9.7034 -2.9284,1.71631 -5.3689,1.11532 -7.1165,-1.9086 -1.8899,-3.26999 -3.8164,-6.51893 -5.7779,-10.11542 z"
   id="path339" />
















































<path
   fill="#ffffff"
   opacity="1"
   stroke="none"
   d="m 34.871745,343.03254 c -0.3738,0.32922 -0.8975,0.47839 -1.4213,0.6275 0.1632,-0.31866 0.3264,-0.63733 0.7291,-1.06085 0.2394,-0.10486 0.542,0.25323 0.6922,0.43335 z"
   id="path388" />


<path
   fill="#0d132c"
   opacity="1"
   stroke="none"
   d="m 81.378545,609.77973 c 16.0465,3.48499 31.914095,3.39441 47.979205,-2.12683 -0.51171,0.71753 -1.26241,2.02893 -2.30941,2.33862 -14.5714,4.31061 -29.293695,4.12647 -44.067295,1.1435 -0.5898,-0.11908 -1.0999,-0.63282 -1.6025,-1.35529 z"
   id="path391" />
<path
   fill="#e34525"
   opacity="1"
   stroke="none"
   d="m 27.781045,308.30076 c 0.1107,-1.20542 -0.235,-3.07843 0.4019,-3.51401 7.2248,-4.93952 14.5776,-9.69449 21.9832,-14.36035 0.5078,-0.31998 1.7131,0.46725 2.3331,1.27508 -8.4134,5.89011 -16.5658,11.24469 -24.7182,16.59928 z"
   id="path392" />
<path
   fill="#fb9999"
   opacity="1"
   stroke="none"
   d="m 27.761145,308.63956 c 8.1723,-5.69339 16.3247,-11.04797 24.7761,-16.57168 -0.2877,1.06262 -0.5443,2.74966 -1.5142,3.45294 -6.6854,4.84772 -13.4894,9.53552 -20.3615,14.11529 -0.5729,0.38184 -1.9284,-0.41076 -2.9004,-0.99655 z"
   id="path393" />












<path
   fill="#feaf81"
   opacity="1"
   stroke="none"
   d="m 210.65604,156.82487 c -0.2506,0.13247 -0.6568,-0.0346 -1.2289,-0.49283 0.247,-0.12964 0.6603,0.0318 1.2289,0.49283 z"
   id="path406" />
<path
   fill="#112242"
   opacity="1"
   stroke="none"
   d="m 131.36264,144.0409 c 0.8833,0.64416 1.3424,1.27447 2.1162,1.95215 0.3146,1.48718 0.3146,2.927 0.3146,4.48102 -6.092,-1.52112 -11.7014,-2.92167 -18.0687,-4.51151 4.9354,-4.30047 10.19,-2.38535 15.6379,-1.92166 z"
   id="path407" />
<path
   fill="#112242"
   opacity="1"
   stroke="none"
   d="m 111.32655,146.04032 c 0.4508,-0.001 0.9188,0.0383 1.3867,0.0777 -0.031,0.18521 -0.063,0.37042 -0.094,0.5556 -0.2871,-0.11359 -0.5742,-0.22717 -1.0984,-0.50244 -0.23711,-0.16165 -0.17711,-0.0904 -0.1941,-0.13089 z"
   id="path408" />






</svg>
