<svg width="20" height="20" xmlns="http://www.w3.org/2000/svg" id="globe-icon-svg" viewBox="0 0 20 20" fill="none">
    <path d="M10 19C14.9706 19 19 14.9706 19 10C19 5.02944 14.9706 1 10 1C5.02944 1 1 5.02944 1 10C1 14.9706 5.02944 19 10 19Z" stroke-width="2" stroke-miterlimit="10"/>
    <path d="M1.51562 7H18.4844" stroke-width="2" stroke-linecap="round" stroke-linejoin="round"/>
    <path d="M1.51562 13H18.4844" stroke-width="2" stroke-linecap="round" stroke-linejoin="round"/>
    <path d="M10 18.7566C12.0711 18.7566 13.75 14.8363 13.75 10.0004C13.75 5.16445 12.0711 1.24414 10 1.24414C7.92893 1.24414 6.25 5.16445 6.25 10.0004C6.25 14.8363 7.92893 18.7566 10 18.7566Z" stroke-width="2" stroke-miterlimit="10"/>
</svg>
