<svg width="40" height="40" viewBox="0 0 40 40" fill="none" xmlns="http://www.w3.org/2000/svg">
<path d="M20 16C17.8 16 15.9167 15.2167 14.35 13.65C12.7833 12.0833 12 10.2 12 8C12 5.8 12.7833 3.91667 14.35 2.35C15.9167 0.783333 17.8 0 20 0C22.2 0 24.0833 0.783333 25.65 2.35C27.2167 3.91667 28 5.8 28 8C28 10.2 27.2167 12.0833 25.65 13.65C24.0833 15.2167 22.2 16 20 16ZM4 32V26.4C4 25.2667 4.29167 24.225 4.875 23.275C5.45833 22.325 6.23333 21.6 7.2 21.1C9.26667 20.0667 11.3667 19.2917 13.5 18.775C15.6333 18.2583 17.8 18 20 18C22.2 18 24.3667 18.2583 26.5 18.775C28.6333 19.2917 30.7333 20.0667 32.8 21.1C33.7667 21.6 34.5417 22.325 35.125 23.275C35.7083 24.225 36 25.2667 36 26.4V32H4ZM8 28H32V26.4C32 26.0333 31.9083 25.7 31.725 25.4C31.5417 25.1 31.3 24.8667 31 24.7C29.2 23.8 27.3833 23.125 25.55 22.675C23.7167 22.225 21.8667 22 20 22C18.1333 22 16.2833 22.225 14.45 22.675C12.6167 23.125 10.8 23.8 9 24.7C8.7 24.8667 8.45833 25.1 8.275 25.4C8.09167 25.7 8 26.0333 8 26.4V28ZM20 12C21.1 12 22.0417 11.6083 22.825 10.825C23.6083 10.0417 24 9.1 24 8C24 6.9 23.6083 5.95833 22.825 5.175C22.0417 4.39167 21.1 4 20 4C18.9 4 17.9583 4.39167 17.175 5.175C16.3917 5.95833 16 6.9 16 8C16 9.1 16.3917 10.0417 17.175 10.825C17.9583 11.6083 18.9 12 20 12Z" fill="#1C1B1F"/>
</svg>
