<svg width="40" height="40" viewBox="0 0 40 40" fill="none" xmlns="http://www.w3.org/2000/svg">
<rect width="40" height="40" rx="5" fill="#0EB0C0"/>
<path d="M20 20C18.7625 20 17.7031 19.5594 16.8219 18.6781C15.9406 17.7969 15.5 16.7375 15.5 15.5C15.5 14.2625 15.9406 13.2031 16.8219 12.3219C17.7031 11.4406 18.7625 11 20 11C21.2375 11 22.2969 11.4406 23.1781 12.3219C24.0594 13.2031 24.5 14.2625 24.5 15.5C24.5 16.7375 24.0594 17.7969 23.1781 18.6781C22.2969 19.5594 21.2375 20 20 20ZM11 29V25.85C11 25.2125 11.1641 24.6266 11.4922 24.0922C11.8203 23.5578 12.2563 23.15 12.8 22.8688C13.9625 22.2875 15.1437 21.8516 16.3438 21.5609C17.5438 21.2703 18.7625 21.125 20 21.125C21.2375 21.125 22.4563 21.2703 23.6562 21.5609C24.8562 21.8516 26.0375 22.2875 27.2 22.8688C27.7438 23.15 28.1797 23.5578 28.5078 24.0922C28.8359 24.6266 29 25.2125 29 25.85V29H11ZM13.25 26.75H26.75V25.85C26.75 25.6438 26.6984 25.4563 26.5953 25.2875C26.4922 25.1187 26.3562 24.9875 26.1875 24.8938C25.175 24.3875 24.1531 24.0078 23.1219 23.7547C22.0906 23.5016 21.05 23.375 20 23.375C18.95 23.375 17.9094 23.5016 16.8781 23.7547C15.8469 24.0078 14.825 24.3875 13.8125 24.8938C13.6437 24.9875 13.5078 25.1187 13.4047 25.2875C13.3016 25.4563 13.25 25.6438 13.25 25.85V26.75ZM20 17.75C20.6187 17.75 21.1484 17.5297 21.5891 17.0891C22.0297 16.6484 22.25 16.1188 22.25 15.5C22.25 14.8812 22.0297 14.3516 21.5891 13.9109C21.1484 13.4703 20.6187 13.25 20 13.25C19.3813 13.25 18.8516 13.4703 18.4109 13.9109C17.9703 14.3516 17.75 14.8812 17.75 15.5C17.75 16.1188 17.9703 16.6484 18.4109 17.0891C18.8516 17.5297 19.3813 17.75 20 17.75Z" fill="#1D1B20"/>
</svg>
