<svg width="99" height="144" viewBox="0 0 99 144" fill="none" xmlns="http://www.w3.org/2000/svg">
<g filter="url(#filter0_d_335_7363)">
<path d="M88 44.9073C88 65.0221 66.2265 101.883 52.2449 126.204C51.0586 128.268 48.0455 128.212 46.9163 126.116C33.705 101.6 11 65.0108 11 44.9073C11 23.4194 28.237 6 49.5 6C70.763 6 88 23.4194 88 44.9073Z" fill="currentColor"/>
<ellipse cx="49.5001" cy="46.5626" rx="25.3936" ry="25.6623" fill="white"/>
<g clip-path="url(#clip0_335_7363)">
<path d="M59.5348 33.5244H39.4657C37.8888 33.5244 36.613 34.8282 36.613 36.4218L36.5986 56.7032C36.5986 58.2968 37.8888 59.6006 39.4657 59.6006H59.5348C61.1117 59.6006 62.4018 58.2968 62.4018 56.7032V36.4218C62.4018 34.8282 61.1117 33.5244 59.5348 33.5244ZM58.1013 49.4598H52.3673V55.2545H46.6332V49.4598H40.8992V43.6651H46.6332V37.8704H52.3673V43.6651H58.1013V49.4598Z" fill="currentColor"/>
</g>
</g>
<defs>
<filter id="filter0_d_335_7363" x="0" y="0" width="99" height="147" filterUnits="userSpaceOnUse" color-interpolation-filters="sRGB">
<feFlood flood-opacity="0" result="BackgroundImageFix"/>
<feColorMatrix in="SourceAlpha" type="matrix" values="0 0 0 0 0 0 0 0 0 0 0 0 0 0 0 0 0 0 127 0" result="hardAlpha"/>
<feMorphology radius="1" operator="erode" in="SourceAlpha" result="effect1_dropShadow_335_7363"/>
<feOffset dy="5"/>
<feGaussianBlur stdDeviation="6"/>
<feComposite in2="hardAlpha" operator="out"/>
<feColorMatrix type="matrix" values="0 0 0 0 0 0 0 0 0 0 0 0 0 0 0 0 0 0 0.1 0"/>
<feBlend mode="normal" in2="BackgroundImageFix" result="effect1_dropShadow_335_7363"/>
<feBlend mode="normal" in="SourceGraphic" in2="effect1_dropShadow_335_7363" result="shape"/>
</filter>
<clipPath id="clip0_335_7363">
<rect width="34.4043" height="34.7682" fill="white" transform="translate(32.2979 29.1787)"/>
</clipPath>
</defs>
</svg>
