<svg width="20" height="20" xmlns="http://www.w3.org/2000/svg" id="phone-icon-svg" viewBox="0 0 20 20" fill="none">
    <path d="M6.67187 9.66854C7.44364 11.2623 8.73239 12.5477 10.3281 13.3154C10.4458 13.3711 10.576 13.3953 10.7059 13.3854C10.8358 13.3755 10.9608 13.332 11.0687 13.2592L13.4125 11.6935C13.516 11.6233 13.6357 11.5804 13.7603 11.569C13.8849 11.5575 14.0104 11.5778 14.125 11.6279L18.5125 13.5123C18.6625 13.5747 18.7877 13.6847 18.869 13.8253C18.9504 13.9659 18.9832 14.1293 18.9625 14.2904C18.8234 15.3758 18.2937 16.3733 17.4723 17.0963C16.6509 17.8193 15.5943 18.2183 14.5 18.2185C11.1185 18.2185 7.87548 16.8752 5.48439 14.4841C3.0933 12.0931 1.75 8.85005 1.75 5.46854C1.75025 4.37428 2.1492 3.31761 2.87221 2.49625C3.59522 1.67488 4.59274 1.1451 5.67812 1.00604C5.83922 0.985343 6.00266 1.01818 6.14326 1.09949C6.28386 1.18081 6.39384 1.30608 6.45625 1.45604L8.34062 5.85291C8.38963 5.96574 8.41013 6.08888 8.40032 6.2115C8.39051 6.33412 8.35069 6.45244 8.28437 6.55604L6.71875 8.93729C6.64905 9.04499 6.60814 9.16877 6.59993 9.2968C6.59172 9.42482 6.61649 9.55282 6.67187 9.66854V9.66854Z" stroke-width="2" stroke-linecap="round" stroke-linejoin="round"/>
</svg>
