<svg xmlns="http://www.w3.org/2000/svg" id="search-icon-svg" viewBox="0 0 33 33">
    <path d="M21.4238 19.3054H20.3526L19.9729 18.9393C21.3017 17.3935 22.1017 15.3867 22.1017 13.2037C22.1017 8.3359 18.156 4.39014 13.2882 4.39014C8.42037 4.39014 4.47461 8.3359 4.47461 13.2037C4.47461 18.0715 8.42037 22.0173 13.2882 22.0173C15.4712 22.0173 17.478 21.2173 19.0238 19.8884L19.3899 20.2681V21.3393L26.1695 28.1054L28.1899 26.085L21.4238 19.3054ZM13.2882 19.3054C9.9119 19.3054 7.18647 16.58 7.18647 13.2037C7.18647 9.82742 9.9119 7.102 13.2882 7.102C16.6644 7.102 19.3899 9.82742 19.3899 13.2037C19.3899 16.58 16.6644 19.3054 13.2882 19.3054Z"/>
</svg>
