<svg width="32" height="33" viewBox="0 0 32 33" fill="none" xmlns="http://www.w3.org/2000/svg">
<path d="M7.97219 29.0382V11.0174C7.97219 10.1809 8.26419 9.47115 8.8482 8.88825C9.43221 8.30536 10.1414 8.01391 10.9757 8.01391H28.9965C29.8225 8.01391 30.5295 8.308 31.1177 8.89618C31.7059 9.48436 32 10.1914 32 11.0174V22.781C32 23.1765 31.9305 23.5534 31.7914 23.9119C31.6524 24.2704 31.4334 24.5991 31.1344 24.898L24.8563 31.1761C24.5574 31.4751 24.2286 31.6941 23.8702 31.8331C23.5117 31.9722 23.1347 32.0417 22.7393 32.0417H10.9757C10.1497 32.0417 9.44264 31.7476 8.85446 31.1595C8.26628 30.5713 7.97219 29.8642 7.97219 29.0382ZM0.0463499 6.72074C-0.0926999 5.91425 0.0811124 5.16338 0.567787 4.46814C1.05446 3.77289 1.70104 3.35574 2.50753 3.21669L20.2364 0.04635C21.0429 -0.0926999 21.7868 0.0811124 22.4681 0.567787C23.1495 1.05446 23.5597 1.70104 23.6987 2.50753L23.8239 3.2584C23.9073 3.73117 23.8239 4.12051 23.5736 4.42642C23.3233 4.73233 23.0035 4.91309 22.6141 4.96871C22.2248 5.02433 21.8633 4.96176 21.5295 4.781C21.1958 4.60023 20.9873 4.27347 20.9038 3.8007L20.737 3.00811L3.00811 6.16677L5.51101 20.2781C5.56663 20.6674 5.4832 21.029 5.26072 21.3627C5.03824 21.6964 4.72538 21.905 4.32213 21.9884C3.91889 22.0718 3.54276 21.9962 3.19374 21.7615C2.84473 21.5265 2.6299 21.1989 2.54925 20.7787L0.0463499 6.72074ZM10.9757 11.0174V29.0382H21.9884L28.9965 22.0301V11.0174H10.9757ZM18.4948 21.5296V24.533C18.4948 24.9585 18.6391 25.3152 18.9278 25.603C19.2162 25.8909 19.5721 26.0348 19.9957 26.0348C20.4195 26.0348 20.7746 25.8909 21.0611 25.603C21.3478 25.3152 21.4912 24.9585 21.4912 24.533V21.5296H24.4817C24.9053 21.5296 25.263 21.3865 25.555 21.1003C25.847 20.8141 25.993 20.4596 25.993 20.0366C25.993 19.6136 25.8491 19.2579 25.5613 18.9695C25.2735 18.6808 24.9168 18.5365 24.4913 18.5365H21.4878V15.5259C21.4878 15.0996 21.3439 14.7421 21.0561 14.4534C20.7683 14.1651 20.4116 14.0209 19.9861 14.0209C19.5606 14.0209 19.2039 14.1651 18.9161 14.4534C18.6283 14.7421 18.4844 15.0996 18.4844 15.5259V18.5365H15.4809C15.0554 18.5365 14.6987 18.6808 14.4109 18.9695C14.1231 19.2579 13.9791 19.6107 13.9791 20.0278C13.9791 20.4533 14.1233 20.81 14.4117 21.0978C14.7004 21.3856 15.0579 21.5296 15.4842 21.5296H18.4948Z" fill="#1C1B1F"/>
</svg>
