<svg width="80" height="80" xmlns="http://www.w3.org/2000/svg" id="translate-icon-svg">
    <path d="M74.7344 66.3812L57.2344 31.3812C57.0267 30.9661 56.7076 30.6169 56.3126 30.3728C55.9177 30.1288 55.4627 29.9995 54.9984 29.9995C54.5342 29.9995 54.0791 30.1288 53.6842 30.3728C53.2893 30.6169 52.9702 30.9661 52.7625 31.3812L45.9781 44.9531C40.6603 44.6541 35.5437 42.8172 31.25 39.6656C36.2878 34.2858 39.3402 27.3488 39.9031 20H47.5C48.163 20 48.7989 19.7366 49.2678 19.2678C49.7366 18.7989 50 18.163 50 17.5C50 16.837 49.7366 16.2011 49.2678 15.7322C48.7989 15.2634 48.163 15 47.5 15H30V10C30 9.33696 29.7366 8.70107 29.2678 8.23223C28.7989 7.76339 28.163 7.5 27.5 7.5C26.837 7.5 26.2011 7.76339 25.7322 8.23223C25.2634 8.70107 25 9.33696 25 10V15H7.5C6.83696 15 6.20107 15.2634 5.73223 15.7322C5.26339 16.2011 5 16.837 5 17.5C5 18.163 5.26339 18.7989 5.73223 19.2678C6.20107 19.7366 6.83696 20 7.5 20H34.8844C34.3276 26.127 31.7267 31.8889 27.5 36.3594C24.8661 33.5802 22.8435 30.2802 21.5625 26.6719C21.4572 26.3571 21.2902 26.0664 21.0713 25.8168C20.8524 25.5672 20.586 25.3637 20.2876 25.2181C19.9893 25.0726 19.6649 24.988 19.3334 24.9691C19.002 24.9503 18.6701 24.9977 18.3572 25.1085C18.0442 25.2193 17.7565 25.3913 17.5108 25.6146C17.265 25.8378 17.0662 26.1077 16.9259 26.4086C16.7856 26.7094 16.7066 27.0352 16.6936 27.367C16.6806 27.6987 16.7337 28.0297 16.85 28.3406C18.3415 32.559 20.6909 36.4225 23.75 39.6875C19.0399 43.1487 13.3451 45.0105 7.5 45C6.83696 45 6.20107 45.2634 5.73223 45.7322C5.26339 46.2011 5 46.837 5 47.5C5 48.163 5.26339 48.7989 5.73223 49.2678C6.20107 49.7366 6.83696 50 7.5 50C14.7518 50.0081 21.7958 47.5779 27.5 43.1C32.1549 46.7371 37.7117 49.0391 43.575 49.7594L35.2625 66.3812C34.9658 66.9743 34.9168 67.6608 35.1263 68.29C35.3358 68.9191 35.7867 69.4392 36.3797 69.7359C36.9727 70.0326 37.6593 70.0816 38.2884 69.8721C38.9175 69.6626 39.4377 69.2118 39.7344 68.6188L44.0438 60H65.9531L70.2625 68.6188C70.4703 69.0341 70.7898 69.3833 71.185 69.6273C71.5802 69.8713 72.0356 70.0003 72.5 70C72.9261 69.9998 73.3451 69.8906 73.7171 69.683C74.0892 69.4753 74.402 69.176 74.6259 68.8134C74.8497 68.4509 74.9772 68.0371 74.9962 67.6114C75.0152 67.1858 74.925 66.7623 74.7344 66.3812ZM46.5438 55L55 38.0906L63.4531 55H46.5438Z"
        fill="currentcolor"/>
</svg>
