<svg width="18" height="19" viewBox="0 0 18 19" fill="none" xmlns="http://www.w3.org/2000/svg">
<path d="M16.5625 3.125H13.125V2.4375C13.125 1.89049 12.9077 1.36589 12.5209 0.979092C12.1341 0.592299 11.6095 0.375 11.0625 0.375H6.9375C6.39049 0.375 5.86589 0.592299 5.47909 0.979092C5.0923 1.36589 4.875 1.89049 4.875 2.4375V3.125H1.4375C1.25516 3.125 1.0803 3.19743 0.951364 3.32636C0.822433 3.4553 0.75 3.63016 0.75 3.8125C0.75 3.99484 0.822433 4.1697 0.951364 4.29864C1.0803 4.42757 1.25516 4.5 1.4375 4.5H2.125V16.875C2.125 17.2397 2.26987 17.5894 2.52773 17.8473C2.78559 18.1051 3.13533 18.25 3.5 18.25H14.5C14.8647 18.25 15.2144 18.1051 15.4723 17.8473C15.7301 17.5894 15.875 17.2397 15.875 16.875V4.5H16.5625C16.7448 4.5 16.9197 4.42757 17.0486 4.29864C17.1776 4.1697 17.25 3.99484 17.25 3.8125C17.25 3.63016 17.1776 3.4553 17.0486 3.32636C16.9197 3.19743 16.7448 3.125 16.5625 3.125ZM6.25 2.4375C6.25 2.25516 6.32243 2.0803 6.45136 1.95136C6.5803 1.82243 6.75516 1.75 6.9375 1.75H11.0625C11.2448 1.75 11.4197 1.82243 11.5486 1.95136C11.6776 2.0803 11.75 2.25516 11.75 2.4375V3.125H6.25V2.4375ZM14.5 16.875H3.5V4.5H14.5V16.875ZM7.625 7.9375V13.4375C7.625 13.6198 7.55257 13.7947 7.42364 13.9236C7.2947 14.0526 7.11984 14.125 6.9375 14.125C6.75516 14.125 6.5803 14.0526 6.45136 13.9236C6.32243 13.7947 6.25 13.6198 6.25 13.4375V7.9375C6.25 7.75516 6.32243 7.5803 6.45136 7.45136C6.5803 7.32243 6.75516 7.25 6.9375 7.25C7.11984 7.25 7.2947 7.32243 7.42364 7.45136C7.55257 7.5803 7.625 7.75516 7.625 7.9375ZM11.75 7.9375V13.4375C11.75 13.6198 11.6776 13.7947 11.5486 13.9236C11.4197 14.0526 11.2448 14.125 11.0625 14.125C10.8802 14.125 10.7053 14.0526 10.5764 13.9236C10.4474 13.7947 10.375 13.6198 10.375 13.4375V7.9375C10.375 7.75516 10.4474 7.5803 10.5764 7.45136C10.7053 7.32243 10.8802 7.25 11.0625 7.25C11.2448 7.25 11.4197 7.32243 11.5486 7.45136C11.6776 7.5803 11.75 7.75516 11.75 7.9375Z" fill="#E71E1E"/>
</svg>
