<svg width="70" height="60" viewBox="0 0 70 60" fill="none" xmlns="http://www.w3.org/2000/svg">
<path d="M50.625 0C44.1719 0 38.5219 2.775 35 7.46562C31.4781 2.775 25.8281 0 19.375 0C14.2382 0.0057898 9.31346 2.04894 5.6812 5.6812C2.04894 9.31346 0.0057898 14.2382 0 19.375C0 41.25 32.4344 58.9562 33.8156 59.6875C34.1797 59.8833 34.5866 59.9859 35 59.9859C35.4134 59.9859 35.8203 59.8833 36.1844 59.6875C37.5656 58.9562 70 41.25 70 19.375C69.9942 14.2382 67.9511 9.31346 64.3188 5.6812C60.6865 2.04894 55.7618 0.0057898 50.625 0ZM35 54.625C29.2938 51.3 5 36.1531 5 19.375C5.00496 15.564 6.52106 11.9106 9.21582 9.21582C11.9106 6.52106 15.564 5.00496 19.375 5C25.4531 5 30.5562 8.2375 32.6875 13.4375C32.8759 13.896 33.1963 14.2882 33.608 14.5642C34.0198 14.8402 34.5043 14.9876 35 14.9876C35.4957 14.9876 35.9802 14.8402 36.392 14.5642C36.8037 14.2882 37.1241 13.896 37.3125 13.4375C39.4437 8.22812 44.5469 5 50.625 5C54.436 5.00496 58.0894 6.52106 60.7842 9.21582C63.4789 11.9106 64.995 15.564 65 19.375C65 36.1281 40.7 51.2969 35 54.625Z" fill="url(#paint0_linear_791_17166)"/>
<defs>
<linearGradient id="paint0_linear_791_17166" x1="35" y1="0" x2="35" y2="59.9859" gradientUnits="userSpaceOnUse">
<stop stop-color="#EB8590"/>
<stop offset="1" stop-color="#CF616D"/>
</linearGradient>
</defs>
</svg>
