<?xml version="1.0" ?>
<!-- Uploaded to: SVG Repo, www.svgrepo.com, Generator: SVG Repo Mixer Tools -->
<svg fill="#000000" width="800px" height="800px" viewBox="0 0 50 50" xmlns="http://www.w3.org/2000/svg">
<g id="Solid">
<path d="M46.79248,24.23a4.05389,4.05389,0,0,0-5.689-.14l-7.69872,6.84a5.25608,5.25608,0,0,1,.58993,2.43,5.39055,5.39055,0,0,1-3.4794,5.02l-6.46895,2.43a1.00694,1.00694,0,0,1-1.27975-.59.98322.98322,0,0,1,.57986-1.28l6.46895-2.43A3.38021,3.38021,0,0,0,31.995,33.36,3.45753,3.45753,0,0,0,28.63555,30H9.99866A1.99982,1.99982,0,0,0,7.999,28H3.99966A1.99982,1.99982,0,0,0,2,30V46a1.99986,1.99986,0,0,0,1.99966,2H7.999a1.99986,1.99986,0,0,0,1.99967-2H14.048l1.24979.51A19.61328,19.61328,0,0,0,37.924,40.87l9.10846-11.01A4.20182,4.20182,0,0,0,46.79248,24.23ZM12.99816,44H9.99866V32h2.9995ZM30.41809,2a8.59142,8.59142,0,0,0-5.42194,1.9082A8.59147,8.59147,0,0,0,19.5742,2a8.68822,8.68822,0,0,0-8.66651,8.68945c0,9.14258,13.03,16.85059,13.58463,17.17481a1.00289,1.00289,0,0,0,1.00765,0C26.05456,27.54,39.08461,19.832,39.08461,10.68945A8.68822,8.68822,0,0,0,30.41809,2Zm-1.772,18.6571a.98319.98319,0,0,1-.65022.2229.99554.99554,0,0,1-.65047-1.7423c3.70153-3.1709,5.74025-6.17188,5.74025-8.44825A2.68158,2.68158,0,0,0,30.41809,8a1,1,0,0,1,0-2,4.68337,4.68337,0,0,1,4.66719,4.68945C35.08528,14.3681,31.584,18.13953,28.64605,20.6571Z"/>
</g>
</svg>